<?xml version="1.0" encoding="UTF-8" standalone="no"?><svg xmlns="http://www.w3.org/2000/svg" xmlns:xlink="http://www.w3.org/1999/xlink" contentScriptType="application/ecmascript" contentStyleType="text/css" height="220px" preserveAspectRatio="none" style="width:539px;height:220px;background:#00000000;" version="1.1" viewBox="0 0 539 220" width="539px" zoomAndPan="magnify"><defs><filter height="300%" id="f1w0j192ug76wc" width="300%" x="-1" y="-1"><feGaussianBlur result="blurOut" stdDeviation="2.0"/><feColorMatrix in="blurOut" result="blurOut2" type="matrix" values="0 0 0 0 0 0 0 0 0 0 0 0 0 0 0 0 0 0 .4 0"/><feOffset dx="4.0" dy="4.0" in="blurOut2" result="blurOut3"/><feBlend in="SourceGraphic" in2="blurOut3" mode="normal"/></filter></defs><g><!--MD5=[b572a895cc4cc8cc0298d475691e2d84]
class ApplyOauthAuthorizationHttpHeaderWrapper--><rect codeLine="4" fill="#FEFECE" filter="url(#f1w0j192ug76wc)" height="86.8652" id="ApplyOauthAuthorizationHttpHeaderWrapper" style="stroke:#A80036;stroke-width:1.5;" width="516" x="9" y="120"/><ellipse cx="132.25" cy="136" fill="#ADD1B2" rx="11" ry="11" style="stroke:#A80036;stroke-width:1.0;"/><path d="M134.7231,142.1431 Q134.1421,142.4419 133.5029,142.5913 Q132.8638,142.7407 132.1582,142.7407 Q129.6514,142.7407 128.3315,141.0889 Q127.0117,139.437 127.0117,136.3159 Q127.0117,133.1865 128.3315,131.5347 Q129.6514,129.8828 132.1582,129.8828 Q132.8638,129.8828 133.5112,130.0322 Q134.1587,130.1816 134.7231,130.4805 L134.7231,133.2031 Q134.0923,132.6221 133.4988,132.3523 Q132.9053,132.0825 132.2744,132.0825 Q130.9297,132.0825 130.2449,133.1492 Q129.5601,134.2158 129.5601,136.3159 Q129.5601,138.4077 130.2449,139.4744 Q130.9297,140.541 132.2744,140.541 Q132.9053,140.541 133.4988,140.2712 Q134.0923,140.0015 134.7231,139.4204 Z " fill="#000000"/><text fill="#000000" font-family="sans-serif" font-size="12" lengthAdjust="spacing" textLength="261" x="152.75" y="140.5352">ApplyOauthAuthorizationHttpHeaderWrapper</text><line style="stroke:#A80036;stroke-width:1.5;" x1="10" x2="524" y1="152" y2="152"/><polygon fill="none" points="20,158,24,162,20,166,16,162" style="stroke:#B38D22;stroke-width:1.0;"/><text fill="#000000" font-family="sans-serif" font-size="11" lengthAdjust="spacing" textLength="195" x="29" y="166.6348">authenticationData : OauthResponse</text><line style="stroke:#A80036;stroke-width:1.5;" x1="10" x2="524" y1="172.9551" y2="172.9551"/><ellipse cx="20" cy="183.9551" fill="#84BE84" rx="3" ry="3" style="stroke:#038048;stroke-width:1.0;"/><text fill="#000000" font-family="sans-serif" font-size="11" lengthAdjust="spacing" textLength="453" x="29" y="187.5898">authenticate(requestOptionContainer: RequestOptions) : Promise&lt;RequestOptions&gt;</text><rect fill="#F24D5C" height="6" style="stroke:#C82930;stroke-width:1.0;" width="6" x="17" y="193.9102"/><text fill="#000000" font-family="sans-serif" font-size="11" lengthAdjust="spacing" textLength="490" x="29" y="200.5449">applyAuthorizationHeader(options: RequestOptions, accessToken: string) : RequestOptions</text><!--MD5=[f18ac0e6b46fad41f096bfde65eea3c9]
class TapjawAuthenticationWrapper--><rect codeLine="9" fill="#FEFECE" filter="url(#f1w0j192ug76wc)" height="52.9551" id="TapjawAuthenticationWrapper" style="stroke:#A80036;stroke-width:1.5;" width="405" x="64.5" y="7"/><ellipse cx="175.75" cy="23" fill="#B4A7E5" rx="11" ry="11" style="stroke:#A80036;stroke-width:1.0;"/><path d="M172.1777,19.2651 L172.1777,17.1069 L179.5571,17.1069 L179.5571,19.2651 L177.0918,19.2651 L177.0918,27.3418 L179.5571,27.3418 L179.5571,29.5 L172.1777,29.5 L172.1777,27.3418 L174.6431,27.3418 L174.6431,19.2651 Z " fill="#000000"/><text fill="#000000" font-family="sans-serif" font-size="12" font-style="italic" lengthAdjust="spacing" textLength="174" x="196.25" y="27.5352">TapjawAuthenticationWrapper</text><line style="stroke:#A80036;stroke-width:1.5;" x1="65.5" x2="468.5" y1="39" y2="39"/><ellipse cx="75.5" cy="50" fill="#84BE84" rx="3" ry="3" style="stroke:#038048;stroke-width:1.0;"/><text fill="#000000" font-family="sans-serif" font-size="11" lengthAdjust="spacing" textLength="379" x="84.5" y="53.6348">authenticate(requestOptionContainer: unknown) : Promise&lt;unknown&gt;</text><!--MD5=[6e8f124f865ebb9b28c1f88ec482d276]
reverse link TapjawAuthenticationWrapper to ApplyOauthAuthorizationHttpHeaderWrapper--><path codeLine="12" d="M267,80.33 C267,93.2 267,107.14 267,119.81 " fill="none" id="TapjawAuthenticationWrapper-backto-ApplyOauthAuthorizationHttpHeaderWrapper" style="stroke:#A80036;stroke-width:1.0;stroke-dasharray:7.0,7.0;"/><polygon fill="none" points="260,80.1,267,60.1,274,80.1,260,80.1" style="stroke:#A80036;stroke-width:1.0;"/><!--MD5=[ee114ebe7c8b2349f926b2a5b575174e]
@startuml
skinparam BackgroundColor transparent
hide empty methods
hide empty fields
class "ApplyOauthAuthorizationHttpHeaderWrapper" {
    #authenticationData : OauthResponse
    +authenticate(requestOptionContainer: RequestOptions) : Promise<RequestOptions>
    -applyAuthorizationHeader(options: RequestOptions, accessToken: string) : RequestOptions
}
interface "TapjawAuthenticationWrapper" {
    +authenticate(requestOptionContainer: unknown) : Promise<unknown>
}
"TapjawAuthenticationWrapper" <|.. "ApplyOauthAuthorizationHttpHeaderWrapper"
@enduml

PlantUML version 1.2021.6(Fri May 14 09:09:51 CEST 2021)
(GPL source distribution)
Java Runtime: OpenJDK Runtime Environment
JVM: OpenJDK 64-Bit Server VM
Default Encoding: UTF-8
Language: en
Country: GB
--></g></svg>