<?xml version="1.0" encoding="UTF-8" standalone="no"?><svg xmlns="http://www.w3.org/2000/svg" xmlns:xlink="http://www.w3.org/1999/xlink" contentScriptType="application/ecmascript" contentStyleType="text/css" height="298px" preserveAspectRatio="none" style="width:3167px;height:298px;background:#00000000;" version="1.1" viewBox="0 0 3167 298" width="3167px" zoomAndPan="magnify"><defs><filter height="300%" id="fcqgjh334g4jm" width="300%" x="-1" y="-1"><feGaussianBlur result="blurOut" stdDeviation="2.0"/><feColorMatrix in="blurOut" result="blurOut2" type="matrix" values="0 0 0 0 0 0 0 0 0 0 0 0 0 0 0 0 0 0 .4 0"/><feOffset dx="4.0" dy="4.0" in="blurOut2" result="blurOut3"/><feBlend in="SourceGraphic" in2="blurOut3" mode="normal"/></filter></defs><g><!--MD5=[bed868222db9f07a2f48f4d1edb3754e]
class BaseTapjawCommand--><rect codeLine="4" fill="#FEFECE" filter="url(#fcqgjh334g4jm)" height="52.9551" id="BaseTapjawCommand" style="stroke:#A80036;stroke-width:1.5;" width="233" x="1552.5" y="7"/><ellipse cx="1600.25" cy="23" fill="#B4A7E5" rx="11" ry="11" style="stroke:#A80036;stroke-width:1.0;"/><path d="M1596.6777,19.2651 L1596.6777,17.1069 L1604.0571,17.1069 L1604.0571,19.2651 L1601.5918,19.2651 L1601.5918,27.3418 L1604.0571,27.3418 L1604.0571,29.5 L1596.6777,29.5 L1596.6777,27.3418 L1599.1431,27.3418 L1599.1431,19.2651 Z " fill="#000000"/><text fill="#000000" font-family="sans-serif" font-size="12" font-style="italic" lengthAdjust="spacing" textLength="129" x="1620.75" y="27.5352">BaseTapjawCommand</text><line style="stroke:#A80036;stroke-width:1.5;" x1="1553.5" x2="1784.5" y1="39" y2="39"/><ellipse cx="1563.5" cy="50" fill="#84BE84" rx="3" ry="3" style="stroke:#038048;stroke-width:1.0;"/><text fill="#000000" font-family="sans-serif" font-size="11" lengthAdjust="spacing" textLength="207" x="1572.5" y="53.6348">run(args: unknown[]) : Promise&lt;void&gt;</text><!--MD5=[780ffde38834e662f62a5d646d249416]
class TapjawApiCommand--><rect codeLine="7" fill="#FEFECE" filter="url(#fcqgjh334g4jm)" height="112.7754" id="TapjawApiCommand" style="stroke:#A80036;stroke-width:1.5;" width="814" x="9" y="146"/><ellipse cx="351.25" cy="162" fill="#A9DCDF" rx="11" ry="11" style="stroke:#A80036;stroke-width:1.0;"/><path d="M351.1133,157.3481 L349.9595,162.4199 L352.2754,162.4199 Z M349.6191,155.1069 L352.6157,155.1069 L355.9609,167.5 L353.5122,167.5 L352.7485,164.437 L349.4697,164.437 L348.7227,167.5 L346.2739,167.5 Z " fill="#000000"/><text fill="#000000" font-family="sans-serif" font-size="12" font-style="italic" lengthAdjust="spacing" textLength="121" x="371.75" y="166.5352">TapjawApiCommand</text><line style="stroke:#A80036;stroke-width:1.5;" x1="10" x2="822" y1="178" y2="178"/><polygon fill="none" points="20,184,24,188,20,192,16,188" style="stroke:#B38D22;stroke-width:1.0;"/><text fill="#000000" font-family="sans-serif" font-size="11" lengthAdjust="spacing" textLength="126" x="29" y="192.6348">iterator : TapjawIterator</text><line style="stroke:#A80036;stroke-width:1.5;" x1="10" x2="822" y1="198.9551" y2="198.9551"/><ellipse cx="20" cy="209.9551" fill="#84BE84" rx="3" ry="3" style="stroke:#038048;stroke-width:1.0;"/><text fill="#000000" font-family="sans-serif" font-size="11" lengthAdjust="spacing" text-decoration="underline" textLength="190" x="29" y="213.5898">register(program: Command) : void</text><ellipse cx="20" cy="222.9102" fill="#84BE84" rx="3" ry="3" style="stroke:#038048;stroke-width:1.0;"/><text fill="#000000" font-family="sans-serif" font-size="11" lengthAdjust="spacing" textLength="644" x="29" y="226.5449">run&lt;T&gt;(args: TapjawCommandArgs&lt;unknown&gt;, flags: T &amp; TapjawCommandDefaultFlags&lt;unknown&gt;) : Promise&lt;void&gt;</text><polygon fill="#FFFF44" points="20,230.8652,24,234.8652,20,238.8652,16,234.8652" style="stroke:#B38D22;stroke-width:1.0;"/><text fill="#000000" font-family="sans-serif" font-size="11" font-style="italic" lengthAdjust="spacing" textLength="788" x="29" y="239.5">getAdapterCallback(args: TapjawCommandArgs&lt;unknown&gt;, flags: TapjawCommandFlags&lt;unknown&gt;) : TapjawAdapterCallback&lt;TapjawMessage&gt;</text><polygon fill="#FFFF44" points="20,243.8203,24,247.8203,20,251.8203,16,247.8203" style="stroke:#B38D22;stroke-width:1.0;"/><text fill="#000000" font-family="sans-serif" font-size="11" lengthAdjust="spacing" text-decoration="underline" textLength="147" x="29" y="252.4551">getLogger() : TapjawLogger</text><!--MD5=[786b970dcd9b0356df190a74348f79ec]
class TapjawFilterCommand<T, M>--><rect codeLine="15" fill="#FEFECE" filter="url(#fcqgjh334g4jm)" height="164.5957" id="TapjawFilterCommand&lt;T, M&gt;" style="stroke:#A80036;stroke-width:1.5;" width="797" x="858.5" y="120"/><ellipse cx="1164.75" cy="136" fill="#A9DCDF" rx="11" ry="11" style="stroke:#A80036;stroke-width:1.0;"/><path d="M1164.6133,131.3481 L1163.4595,136.4199 L1165.7754,136.4199 Z M1163.1191,129.1069 L1166.1157,129.1069 L1169.4609,141.5 L1167.0122,141.5 L1166.2485,138.437 L1162.9697,138.437 L1162.2227,141.5 L1159.7739,141.5 Z " fill="#000000"/><text fill="#000000" font-family="sans-serif" font-size="12" font-style="italic" lengthAdjust="spacing" textLength="176" x="1185.25" y="140.5352">TapjawFilterCommand&lt;T, M&gt;</text><line style="stroke:#A80036;stroke-width:1.5;" x1="859.5" x2="1654.5" y1="152" y2="152"/><polygon fill="none" points="869.5,158,873.5,162,869.5,166,865.5,162" style="stroke:#B38D22;stroke-width:1.0;"/><text fill="#000000" font-family="sans-serif" font-size="11" lengthAdjust="spacing" textLength="176" x="878.5" y="166.6348">displayJsonParseErrors : boolean</text><polygon fill="none" points="869.5,170.9551,873.5,174.9551,869.5,178.9551,865.5,174.9551" style="stroke:#B38D22;stroke-width:1.0;"/><text fill="#000000" font-family="sans-serif" font-size="11" lengthAdjust="spacing" textLength="121" x="878.5" y="179.5898">stdin : ReadableStream</text><polygon fill="none" points="869.5,183.9102,873.5,187.9102,869.5,191.9102,865.5,187.9102" style="stroke:#B38D22;stroke-width:1.0;"/><text fill="#000000" font-family="sans-serif" font-size="11" lengthAdjust="spacing" textLength="124" x="878.5" y="192.5449">stdout : WritableStream</text><line style="stroke:#A80036;stroke-width:1.5;" x1="859.5" x2="1654.5" y1="198.8652" y2="198.8652"/><ellipse cx="869.5" cy="209.8652" fill="#84BE84" rx="3" ry="3" style="stroke:#038048;stroke-width:1.0;"/><text fill="#000000" font-family="sans-serif" font-size="11" lengthAdjust="spacing" text-decoration="underline" textLength="190" x="878.5" y="213.5">register(program: Command) : void</text><ellipse cx="869.5" cy="222.8203" fill="#84BE84" rx="3" ry="3" style="stroke:#038048;stroke-width:1.0;"/><text fill="#000000" font-family="sans-serif" font-size="11" lengthAdjust="spacing" textLength="619" x="878.5" y="226.4551">run(args: TapjawCommandArgs&lt;unknown&gt;, flags: T &amp; TapjawCommandDefaultFlags&lt;unknown&gt;) : Promise&lt;void&gt;</text><polygon fill="#FFFF44" points="869.5,230.7754,873.5,234.7754,869.5,238.7754,865.5,234.7754" style="stroke:#B38D22;stroke-width:1.0;"/><text fill="#000000" font-family="sans-serif" font-size="11" lengthAdjust="spacing" textLength="125" x="878.5" y="239.4102">emit(message: M) : void</text><polygon fill="#FFFF44" points="869.5,243.7305,873.5,247.7305,869.5,251.7305,865.5,247.7305" style="stroke:#B38D22;stroke-width:1.0;"/><text fill="#000000" font-family="sans-serif" font-size="11" lengthAdjust="spacing" text-decoration="underline" textLength="147" x="878.5" y="252.3652">getLogger() : TapjawLogger</text><polygon fill="#FFFF44" points="869.5,256.6855,873.5,260.6855,869.5,264.6855,865.5,260.6855" style="stroke:#B38D22;stroke-width:1.0;"/><text fill="#000000" font-family="sans-serif" font-size="11" lengthAdjust="spacing" textLength="169" x="878.5" y="265.3203">onBeforeExit() : Promise&lt;void&gt;</text><polygon fill="#FFFF44" points="869.5,269.6406,873.5,273.6406,869.5,277.6406,865.5,273.6406" style="stroke:#B38D22;stroke-width:1.0;"/><text fill="#000000" font-family="sans-serif" font-size="11" font-style="italic" lengthAdjust="spacing" textLength="771" x="878.5" y="278.2754">onMessageFilter(message: M, args: TapjawCommandArgs&lt;unknown&gt;, flags: T &amp; TapjawCommandDefaultFlags&lt;unknown&gt;) : Promise&lt;null | M&gt;</text><!--MD5=[bac1bfd5b246508b37f5294abbc6785a]
class TapjawStoreCommand<T, M>--><rect codeLine="27" fill="#FEFECE" filter="url(#fcqgjh334g4jm)" height="138.6855" id="TapjawStoreCommand&lt;T, M&gt;" style="stroke:#A80036;stroke-width:1.5;" width="782" x="1691" y="133"/><ellipse cx="1989.25" cy="149" fill="#A9DCDF" rx="11" ry="11" style="stroke:#A80036;stroke-width:1.0;"/><path d="M1989.1133,144.3481 L1987.9595,149.4199 L1990.2754,149.4199 Z M1987.6191,142.1069 L1990.6157,142.1069 L1993.9609,154.5 L1991.5122,154.5 L1990.7485,151.437 L1987.4697,151.437 L1986.7227,154.5 L1984.2739,154.5 Z " fill="#000000"/><text fill="#000000" font-family="sans-serif" font-size="12" font-style="italic" lengthAdjust="spacing" textLength="177" x="2009.75" y="153.5352">TapjawStoreCommand&lt;T, M&gt;</text><line style="stroke:#A80036;stroke-width:1.5;" x1="1692" x2="2472" y1="165" y2="165"/><polygon fill="none" points="1702,171,1706,175,1702,179,1698,175" style="stroke:#B38D22;stroke-width:1.0;"/><text fill="#000000" font-family="sans-serif" font-size="11" lengthAdjust="spacing" textLength="176" x="1711" y="179.6348">displayJsonParseErrors : boolean</text><polygon fill="none" points="1702,183.9551,1706,187.9551,1702,191.9551,1698,187.9551" style="stroke:#B38D22;stroke-width:1.0;"/><text fill="#000000" font-family="sans-serif" font-size="11" lengthAdjust="spacing" textLength="121" x="1711" y="192.5898">stdin : ReadableStream</text><line style="stroke:#A80036;stroke-width:1.5;" x1="1692" x2="2472" y1="198.9102" y2="198.9102"/><ellipse cx="1702" cy="209.9102" fill="#84BE84" rx="3" ry="3" style="stroke:#038048;stroke-width:1.0;"/><text fill="#000000" font-family="sans-serif" font-size="11" lengthAdjust="spacing" text-decoration="underline" textLength="190" x="1711" y="213.5449">register(program: Command) : void</text><ellipse cx="1702" cy="222.8652" fill="#84BE84" rx="3" ry="3" style="stroke:#038048;stroke-width:1.0;"/><text fill="#000000" font-family="sans-serif" font-size="11" lengthAdjust="spacing" textLength="619" x="1711" y="226.5">run(args: TapjawCommandArgs&lt;unknown&gt;, flags: T &amp; TapjawCommandDefaultFlags&lt;unknown&gt;) : Promise&lt;void&gt;</text><polygon fill="#FFFF44" points="1702,230.8203,1706,234.8203,1702,238.8203,1698,234.8203" style="stroke:#B38D22;stroke-width:1.0;"/><text fill="#000000" font-family="sans-serif" font-size="11" lengthAdjust="spacing" text-decoration="underline" textLength="147" x="1711" y="239.4551">getLogger() : TapjawLogger</text><polygon fill="#FFFF44" points="1702,243.7754,1706,247.7754,1702,251.7754,1698,247.7754" style="stroke:#B38D22;stroke-width:1.0;"/><text fill="#000000" font-family="sans-serif" font-size="11" lengthAdjust="spacing" textLength="169" x="1711" y="252.4102">onBeforeExit() : Promise&lt;void&gt;</text><polygon fill="#FFFF44" points="1702,256.7305,1706,260.7305,1702,264.7305,1698,260.7305" style="stroke:#B38D22;stroke-width:1.0;"/><text fill="#000000" font-family="sans-serif" font-size="11" font-style="italic" lengthAdjust="spacing" textLength="756" x="1711" y="265.3652">onStoreMessage(message: M, args: TapjawCommandArgs&lt;unknown&gt;, flags: T &amp; TapjawCommandDefaultFlags&lt;unknown&gt;) : Promise&lt;void&gt;</text><!--MD5=[1adcc79a4ab9ff3ad5bfa96060a9a37d]
class TapjawToolCommand<T>--><rect codeLine="37" fill="#FEFECE" filter="url(#fcqgjh334g4jm)" height="78.8652" id="TapjawToolCommand&lt;T&gt;" style="stroke:#A80036;stroke-width:1.5;" width="645" x="2508.5" y="163"/><ellipse cx="2749.25" cy="179" fill="#A9DCDF" rx="11" ry="11" style="stroke:#A80036;stroke-width:1.0;"/><path d="M2749.1133,174.3481 L2747.9595,179.4199 L2750.2754,179.4199 Z M2747.6191,172.1069 L2750.6157,172.1069 L2753.9609,184.5 L2751.5122,184.5 L2750.7485,181.437 L2747.4697,181.437 L2746.7227,184.5 L2744.2739,184.5 Z " fill="#000000"/><text fill="#000000" font-family="sans-serif" font-size="12" font-style="italic" lengthAdjust="spacing" textLength="155" x="2769.75" y="183.5352">TapjawToolCommand&lt;T&gt;</text><line style="stroke:#A80036;stroke-width:1.5;" x1="2509.5" x2="3152.5" y1="195" y2="195"/><ellipse cx="2519.5" cy="206" fill="#84BE84" rx="3" ry="3" style="stroke:#038048;stroke-width:1.0;"/><text fill="#000000" font-family="sans-serif" font-size="11" lengthAdjust="spacing" text-decoration="underline" textLength="190" x="2528.5" y="209.6348">register(program: Command) : void</text><ellipse cx="2519.5" cy="218.9551" fill="#84BE84" rx="3" ry="3" style="stroke:#038048;stroke-width:1.0;"/><text fill="#000000" font-family="sans-serif" font-size="11" font-style="italic" lengthAdjust="spacing" textLength="619" x="2528.5" y="222.5898">run(args: TapjawCommandArgs&lt;unknown&gt;, flags: T &amp; TapjawCommandDefaultFlags&lt;unknown&gt;) : Promise&lt;void&gt;</text><polygon fill="#FFFF44" points="2519.5,226.9102,2523.5,230.9102,2519.5,234.9102,2515.5,230.9102" style="stroke:#B38D22;stroke-width:1.0;"/><text fill="#000000" font-family="sans-serif" font-size="11" lengthAdjust="spacing" text-decoration="underline" textLength="147" x="2528.5" y="235.5449">getLogger() : TapjawLogger</text><!--MD5=[b6fbe16fa2d04d26d802a666c79619c5]
reverse link BaseTapjawCommand to TapjawApiCommand--><path codeLine="14" d="M1532.44,44.95 C1367.93,58.39 1083.42,84.31 841,120 C790.92,127.37 737.76,136.51 686.62,145.97 " fill="none" id="BaseTapjawCommand-backto-TapjawApiCommand" style="stroke:#A80036;stroke-width:1.0;stroke-dasharray:7.0,7.0;"/><polygon fill="none" points="1531.89,37.98,1552.39,43.34,1533.02,51.93,1531.89,37.98" style="stroke:#A80036;stroke-width:1.0;"/><!--MD5=[458f591f84913ffa7d040e57b65d69cb]
reverse link BaseTapjawCommand to TapjawFilterCommand<T, M>--><path codeLine="26" d="M1587.32,67.61 C1550.05,82.71 1504.1,101.34 1458.45,119.84 " fill="none" id="BaseTapjawCommand-backto-TapjawFilterCommand&lt;T, M&gt;" style="stroke:#A80036;stroke-width:1.0;stroke-dasharray:7.0,7.0;"/><polygon fill="none" points="1584.81,61.07,1605.98,60.05,1590.07,74.05,1584.81,61.07" style="stroke:#A80036;stroke-width:1.0;"/><!--MD5=[9e4660809d9a2605a0b448473e1e90b4]
reverse link BaseTapjawCommand to TapjawStoreCommand<T, M>--><path codeLine="36" d="M1750.78,67.57 C1796.96,86.24 1856.44,110.29 1912.23,132.85 " fill="none" id="BaseTapjawCommand-backto-TapjawStoreCommand&lt;T, M&gt;" style="stroke:#A80036;stroke-width:1.0;stroke-dasharray:7.0,7.0;"/><polygon fill="none" points="1748.09,74.03,1732.18,60.05,1753.34,61.05,1748.09,74.03" style="stroke:#A80036;stroke-width:1.0;"/><!--MD5=[0264ed25e2c945d376b6d5dccdf0c902]
reverse link BaseTapjawCommand to TapjawToolCommand<T>--><path codeLine="42" d="M1805.81,43.2 C1969.56,54.88 2251.67,79.05 2491,120 C2556.51,131.21 2628.19,147.74 2688.77,162.99 " fill="none" id="BaseTapjawCommand-backto-TapjawToolCommand&lt;T&gt;" style="stroke:#A80036;stroke-width:1.0;stroke-dasharray:7.0,7.0;"/><polygon fill="none" points="1805.17,50.17,1785.71,41.78,1806.15,36.2,1805.17,50.17" style="stroke:#A80036;stroke-width:1.0;"/><!--MD5=[efb449f0f470454f317d4f2887e0409a]
@startuml
skinparam BackgroundColor transparent
hide empty methods
hide empty fields
interface "BaseTapjawCommand" {
    +run(args: unknown[]) : Promise<void>
}
abstract class "TapjawApiCommand" {
    #iterator : TapjawIterator
    {static} +register(program: Command) : void
    +run<T>(args: TapjawCommandArgs<unknown>, flags: T & TapjawCommandDefaultFlags<unknown>) : Promise<void>
    {abstract} #getAdapterCallback(args: TapjawCommandArgs<unknown>, flags: TapjawCommandFlags<unknown>) : TapjawAdapterCallback<TapjawMessage>
    {static} #getLogger() : TapjawLogger
}
"BaseTapjawCommand" <|.. "TapjawApiCommand"
abstract class "TapjawFilterCommand<T, M>" {
    #displayJsonParseErrors : boolean
    #stdin : ReadableStream
    #stdout : WritableStream
    {static} +register(program: Command) : void
    +run(args: TapjawCommandArgs<unknown>, flags: T & TapjawCommandDefaultFlags<unknown>) : Promise<void>
    #emit(message: M) : void
    {static} #getLogger() : TapjawLogger
    #onBeforeExit() : Promise<void>
    {abstract} #onMessageFilter(message: M, args: TapjawCommandArgs<unknown>, flags: T & TapjawCommandDefaultFlags<unknown>) : Promise<null | M>
}
"BaseTapjawCommand" <|.. "TapjawFilterCommand<T, M>"
abstract class "TapjawStoreCommand<T, M>" {
    #displayJsonParseErrors : boolean
    #stdin : ReadableStream
    {static} +register(program: Command) : void
    +run(args: TapjawCommandArgs<unknown>, flags: T & TapjawCommandDefaultFlags<unknown>) : Promise<void>
    {static} #getLogger() : TapjawLogger
    #onBeforeExit() : Promise<void>
    {abstract} #onStoreMessage(message: M, args: TapjawCommandArgs<unknown>, flags: T & TapjawCommandDefaultFlags<unknown>) : Promise<void>
}
"BaseTapjawCommand" <|.. "TapjawStoreCommand<T, M>"
abstract class "TapjawToolCommand<T>" {
    {static} +register(program: Command) : void
    {abstract} +run(args: TapjawCommandArgs<unknown>, flags: T & TapjawCommandDefaultFlags<unknown>) : Promise<void>
    {static} #getLogger() : TapjawLogger
}
"BaseTapjawCommand" <|.. "TapjawToolCommand<T>"
@enduml

PlantUML version 1.2021.6(Fri May 14 09:09:51 CEST 2021)
(GPL source distribution)
Java Runtime: OpenJDK Runtime Environment
JVM: OpenJDK 64-Bit Server VM
Default Encoding: UTF-8
Language: en
Country: GB
--></g></svg>