<?xml version="1.0" encoding="UTF-8" standalone="no"?><svg xmlns="http://www.w3.org/2000/svg" xmlns:xlink="http://www.w3.org/1999/xlink" contentScriptType="application/ecmascript" contentStyleType="text/css" height="259px" preserveAspectRatio="none" style="width:311px;height:259px;background:#00000000;" version="1.1" viewBox="0 0 311 259" width="311px" zoomAndPan="magnify"><defs><filter height="300%" id="fan5p0fgm47y4" width="300%" x="-1" y="-1"><feGaussianBlur result="blurOut" stdDeviation="2.0"/><feColorMatrix in="blurOut" result="blurOut2" type="matrix" values="0 0 0 0 0 0 0 0 0 0 0 0 0 0 0 0 0 0 .4 0"/><feOffset dx="4.0" dy="4.0" in="blurOut2" result="blurOut3"/><feBlend in="SourceGraphic" in2="blurOut3" mode="normal"/></filter></defs><g><!--MD5=[4091885883347d6230482329675d8870]
class BearerAuthAuthenticator--><rect codeLine="4" fill="#FEFECE" filter="url(#fan5p0fgm47y4)" height="112.7754" id="BearerAuthAuthenticator" style="stroke:#A80036;stroke-width:1.5;" width="288" x="9" y="133"/><ellipse cx="78.75" cy="149" fill="#ADD1B2" rx="11" ry="11" style="stroke:#A80036;stroke-width:1.0;"/><path d="M81.2231,155.1431 Q80.6421,155.4419 80.0029,155.5913 Q79.3638,155.7407 78.6582,155.7407 Q76.1514,155.7407 74.8315,154.0889 Q73.5117,152.437 73.5117,149.3159 Q73.5117,146.1865 74.8315,144.5347 Q76.1514,142.8828 78.6582,142.8828 Q79.3638,142.8828 80.0112,143.0322 Q80.6587,143.1816 81.2231,143.4805 L81.2231,146.2031 Q80.5923,145.6221 79.9988,145.3523 Q79.4053,145.0825 78.7744,145.0825 Q77.4297,145.0825 76.7449,146.1492 Q76.0601,147.2158 76.0601,149.3159 Q76.0601,151.4077 76.7449,152.4744 Q77.4297,153.541 78.7744,153.541 Q79.4053,153.541 79.9988,153.2712 Q80.5923,153.0015 81.2231,152.4204 Z " fill="#000000"/><text fill="#000000" font-family="sans-serif" font-size="12" lengthAdjust="spacing" textLength="140" x="99.25" y="153.5352">BearerAuthAuthenticator</text><line style="stroke:#A80036;stroke-width:1.5;" x1="10" x2="296" y1="165" y2="165"/><polygon fill="none" points="20,171,24,175,20,179,16,175" style="stroke:#B38D22;stroke-width:1.0;"/><text fill="#000000" font-family="sans-serif" font-size="11" lengthAdjust="spacing" textLength="109" x="29" y="179.6348">bearerToken : string</text><rect fill="none" height="6" style="stroke:#C82930;stroke-width:1.0;" width="6" x="17" y="185.9551"/><text fill="#000000" font-family="sans-serif" font-size="11" lengthAdjust="spacing" textLength="125" x="29" y="192.5898">authenticated : boolean</text><rect fill="none" height="6" style="stroke:#C82930;stroke-width:1.0;" width="6" x="17" y="198.9102"/><text fill="#000000" font-family="sans-serif" font-size="11" lengthAdjust="spacing" textLength="164" x="29" y="205.5449">header : AuthorizationHeaders</text><line style="stroke:#A80036;stroke-width:1.5;" x1="10" x2="296" y1="211.8652" y2="211.8652"/><ellipse cx="20" cy="222.8652" fill="#84BE84" rx="3" ry="3" style="stroke:#038048;stroke-width:1.0;"/><text fill="#000000" font-family="sans-serif" font-size="11" lengthAdjust="spacing" textLength="262" x="29" y="226.5">authenticate() : Promise&lt;AuthorizationHeaders&gt;</text><ellipse cx="20" cy="235.8203" fill="#84BE84" rx="3" ry="3" style="stroke:#038048;stroke-width:1.0;"/><text fill="#000000" font-family="sans-serif" font-size="11" lengthAdjust="spacing" textLength="144" x="29" y="239.4551">isAuthenticated() : boolean</text><!--MD5=[c18d8f543cc1802ea8ae849f69ec06ec]
class default<BearerResponse>--><rect codeLine="11" fill="#FEFECE" filter="url(#fan5p0fgm47y4)" height="65.9102" id="default&lt;BearerResponse&gt;" style="stroke:#A80036;stroke-width:1.5;" width="256" x="25" y="7"/><ellipse cx="71.75" cy="23" fill="#B4A7E5" rx="11" ry="11" style="stroke:#A80036;stroke-width:1.0;"/><path d="M68.1777,19.2651 L68.1777,17.1069 L75.5571,17.1069 L75.5571,19.2651 L73.0918,19.2651 L73.0918,27.3418 L75.5571,27.3418 L75.5571,29.5 L68.1777,29.5 L68.1777,27.3418 L70.6431,27.3418 L70.6431,19.2651 Z " fill="#000000"/><text fill="#000000" font-family="sans-serif" font-size="12" font-style="italic" lengthAdjust="spacing" textLength="154" x="92.25" y="27.5352">default&lt;BearerResponse&gt;</text><line style="stroke:#A80036;stroke-width:1.5;" x1="26" x2="280" y1="39" y2="39"/><ellipse cx="36" cy="50" fill="#84BE84" rx="3" ry="3" style="stroke:#038048;stroke-width:1.0;"/><text fill="#000000" font-family="sans-serif" font-size="11" lengthAdjust="spacing" textLength="230" x="45" y="53.6348">authenticate() : Promise&lt;BearerResponse&gt;</text><ellipse cx="36" cy="62.9551" fill="#84BE84" rx="3" ry="3" style="stroke:#038048;stroke-width:1.0;"/><text fill="#000000" font-family="sans-serif" font-size="11" lengthAdjust="spacing" textLength="144" x="45" y="66.5898">isAuthenticated() : boolean</text><!--MD5=[73d9dc2ead8b451ad0545cfef2cab221]
reverse link default<BearerResponse> to BearerAuthAuthenticator--><path codeLine="15" d="M153,93.32 C153,106.1 153,119.82 153,132.75 " fill="none" id="default&lt;BearerResponse&gt;-backto-BearerAuthAuthenticator" style="stroke:#A80036;stroke-width:1.0;stroke-dasharray:7.0,7.0;"/><polygon fill="none" points="146,93.01,153,73.01,160,93.01,146,93.01" style="stroke:#A80036;stroke-width:1.0;"/><!--MD5=[4236f6edd5328b620e9820768cce4a17]
@startuml
skinparam BackgroundColor transparent
hide empty methods
hide empty fields
class "BearerAuthAuthenticator" {
    #bearerToken : string
    -authenticated : boolean
    -header : AuthorizationHeaders
    +authenticate() : Promise<AuthorizationHeaders>
    +isAuthenticated() : boolean
}
interface "default<BearerResponse>" {
    +authenticate() : Promise<BearerResponse>
    +isAuthenticated() : boolean
}
"default<BearerResponse>" <|.. "BearerAuthAuthenticator"
@enduml

PlantUML version 1.2021.6(Fri May 14 09:09:51 CEST 2021)
(GPL source distribution)
Java Runtime: OpenJDK Runtime Environment
JVM: OpenJDK 64-Bit Server VM
Default Encoding: UTF-8
Language: en
Country: GB
--></g></svg>