<?xml version="1.0" encoding="UTF-8" standalone="no"?><svg xmlns="http://www.w3.org/2000/svg" xmlns:xlink="http://www.w3.org/1999/xlink" contentScriptType="application/ecmascript" contentStyleType="text/css" height="241px" preserveAspectRatio="none" style="width:268px;height:241px;background:#00000000;" version="1.1" viewBox="0 0 268 241" width="268px" zoomAndPan="magnify"><defs><filter height="300%" id="f1ud5biufcac3b" width="300%" x="-1" y="-1"><feGaussianBlur result="blurOut" stdDeviation="2.0"/><feColorMatrix in="blurOut" result="blurOut2" type="matrix" values="0 0 0 0 0 0 0 0 0 0 0 0 0 0 0 0 0 0 .4 0"/><feOffset dx="4.0" dy="4.0" in="blurOut2" result="blurOut3"/><feBlend in="SourceGraphic" in2="blurOut3" mode="normal"/></filter></defs><g><!--MD5=[796ca041ebd87ae2f1786694d5069a5a]
class DotEnvConfig--><rect codeLine="4" fill="#FEFECE" filter="url(#f1ud5biufcac3b)" height="86.8652" id="DotEnvConfig" style="stroke:#A80036;stroke-width:1.5;" width="245" x="9" y="7"/><ellipse cx="89.25" cy="23" fill="#A9DCDF" rx="11" ry="11" style="stroke:#A80036;stroke-width:1.0;"/><path d="M89.1133,18.3481 L87.9595,23.4199 L90.2754,23.4199 Z M87.6191,16.1069 L90.6157,16.1069 L93.9609,28.5 L91.5122,28.5 L90.7485,25.437 L87.4697,25.437 L86.7227,28.5 L84.2739,28.5 Z " fill="#000000"/><text fill="#000000" font-family="sans-serif" font-size="12" font-style="italic" lengthAdjust="spacing" textLength="76" x="109.75" y="27.5352">DotEnvConfig</text><line style="stroke:#A80036;stroke-width:1.5;" x1="10" x2="253" y1="39" y2="39"/><polygon fill="none" points="20,45,24,49,20,53,16,49" style="stroke:#B38D22;stroke-width:1.0;"/><text fill="#000000" font-family="sans-serif" font-size="11" lengthAdjust="spacing" textLength="140" x="29" y="53.6348">config : ConfigurationMap</text><line style="stroke:#A80036;stroke-width:1.5;" x1="10" x2="253" y1="59.9551" y2="59.9551"/><ellipse cx="20" cy="70.9551" fill="#84BE84" rx="3" ry="3" style="stroke:#038048;stroke-width:1.0;"/><text fill="#000000" font-family="sans-serif" font-size="11" lengthAdjust="spacing" textLength="193" x="29" y="74.5898">getConfig(configKey: string) : string</text><rect fill="#F24D5C" height="6" style="stroke:#C82930;stroke-width:1.0;" width="6" x="17" y="80.9102"/><text fill="#000000" font-family="sans-serif" font-size="11" lengthAdjust="spacing" textLength="219" x="29" y="87.5449">initialiseConfig(jobsEnvKey: string) : void</text><!--MD5=[f9b99919168486ee74420f2529494aa2]
class TapjawConfig--><rect codeLine="9" fill="#FEFECE" filter="url(#f1ud5biufcac3b)" height="73.9102" id="TapjawConfig" style="stroke:#A80036;stroke-width:1.5;" width="219" x="22" y="154"/><ellipse cx="87.75" cy="170" fill="#ADD1B2" rx="11" ry="11" style="stroke:#A80036;stroke-width:1.0;"/><path d="M90.2231,176.1431 Q89.6421,176.4419 89.0029,176.5913 Q88.3638,176.7407 87.6582,176.7407 Q85.1514,176.7407 83.8315,175.0889 Q82.5117,173.437 82.5117,170.3159 Q82.5117,167.1865 83.8315,165.5347 Q85.1514,163.8828 87.6582,163.8828 Q88.3638,163.8828 89.0112,164.0322 Q89.6587,164.1816 90.2231,164.4805 L90.2231,167.2031 Q89.5923,166.6221 88.9988,166.3523 Q88.4053,166.0825 87.7744,166.0825 Q86.4297,166.0825 85.7449,167.1492 Q85.0601,168.2158 85.0601,170.3159 Q85.0601,172.4077 85.7449,173.4744 Q86.4297,174.541 87.7744,174.541 Q88.4053,174.541 88.9988,174.2712 Q89.5923,174.0015 90.2231,173.4204 Z " fill="#000000"/><text fill="#000000" font-family="sans-serif" font-size="12" lengthAdjust="spacing" textLength="79" x="108.25" y="174.5352">TapjawConfig</text><line style="stroke:#A80036;stroke-width:1.5;" x1="23" x2="240" y1="186" y2="186"/><polygon fill="none" points="33,192,37,196,33,200,29,196" style="stroke:#B38D22;stroke-width:1.0;"/><text fill="#000000" font-family="sans-serif" font-size="11" lengthAdjust="spacing" textLength="140" x="42" y="200.6348">config : ConfigurationMap</text><line style="stroke:#A80036;stroke-width:1.5;" x1="23" x2="240" y1="206.9551" y2="206.9551"/><ellipse cx="33" cy="217.9551" fill="#84BE84" rx="3" ry="3" style="stroke:#038048;stroke-width:1.0;"/><text fill="#000000" font-family="sans-serif" font-size="11" lengthAdjust="spacing" textLength="193" x="42" y="221.5898">getConfig(configKey: string) : string</text><!--MD5=[a1d31301a55a161034882d51e1c91adb]
reverse link DotEnvConfig to TapjawConfig--><path codeLine="13" d="M131.5,114.21 C131.5,127.76 131.5,141.64 131.5,153.76 " fill="none" id="DotEnvConfig-backto-TapjawConfig" style="stroke:#A80036;stroke-width:1.0;"/><polygon fill="none" points="124.5,114.18,131.5,94.18,138.5,114.18,124.5,114.18" style="stroke:#A80036;stroke-width:1.0;"/><!--MD5=[edc60023029d4b47fd3d247ba006f486]
@startuml
skinparam BackgroundColor transparent
hide empty methods
hide empty fields
abstract class "DotEnvConfig" {
    #config : ConfigurationMap
    +getConfig(configKey: string) : string
    -initialiseConfig(jobsEnvKey: string) : void
}
class "TapjawConfig" {
    #config : ConfigurationMap
    +getConfig(configKey: string) : string
}
"DotEnvConfig" <|- - "TapjawConfig"
@enduml

PlantUML version 1.2021.6(Fri May 14 09:09:51 CEST 2021)
(GPL source distribution)
Java Runtime: OpenJDK Runtime Environment
JVM: OpenJDK 64-Bit Server VM
Default Encoding: UTF-8
Language: en
Country: GB
--></g></svg>