<?xml version="1.0" encoding="UTF-8" standalone="no"?><svg xmlns="http://www.w3.org/2000/svg" xmlns:xlink="http://www.w3.org/1999/xlink" contentScriptType="application/ecmascript" contentStyleType="text/css" height="246px" preserveAspectRatio="none" style="width:311px;height:246px;background:#00000000;" version="1.1" viewBox="0 0 311 246" width="311px" zoomAndPan="magnify"><defs><filter height="300%" id="facipu4lnawhc" width="300%" x="-1" y="-1"><feGaussianBlur result="blurOut" stdDeviation="2.0"/><feColorMatrix in="blurOut" result="blurOut2" type="matrix" values="0 0 0 0 0 0 0 0 0 0 0 0 0 0 0 0 0 0 .4 0"/><feOffset dx="4.0" dy="4.0" in="blurOut2" result="blurOut3"/><feBlend in="SourceGraphic" in2="blurOut3" mode="normal"/></filter></defs><g><!--MD5=[3cd273bad8a0cb8c19bcdf7254ef2dac]
class JWTBearerAuthAuthenticator--><rect codeLine="4" fill="#FEFECE" filter="url(#facipu4lnawhc)" height="99.8203" id="JWTBearerAuthAuthenticator" style="stroke:#A80036;stroke-width:1.5;" width="288" x="9" y="133"/><ellipse cx="67.75" cy="149" fill="#ADD1B2" rx="11" ry="11" style="stroke:#A80036;stroke-width:1.0;"/><path d="M70.2231,155.1431 Q69.6421,155.4419 69.0029,155.5913 Q68.3638,155.7407 67.6582,155.7407 Q65.1514,155.7407 63.8315,154.0889 Q62.5117,152.437 62.5117,149.3159 Q62.5117,146.1865 63.8315,144.5347 Q65.1514,142.8828 67.6582,142.8828 Q68.3638,142.8828 69.0112,143.0322 Q69.6587,143.1816 70.2231,143.4805 L70.2231,146.2031 Q69.5923,145.6221 68.9988,145.3523 Q68.4053,145.0825 67.7744,145.0825 Q66.4297,145.0825 65.7449,146.1492 Q65.0601,147.2158 65.0601,149.3159 Q65.0601,151.4077 65.7449,152.4744 Q66.4297,153.541 67.7744,153.541 Q68.4053,153.541 68.9988,153.2712 Q69.5923,153.0015 70.2231,152.4204 Z " fill="#000000"/><text fill="#000000" font-family="sans-serif" font-size="12" lengthAdjust="spacing" textLength="162" x="88.25" y="153.5352">JWTBearerAuthAuthenticator</text><line style="stroke:#A80036;stroke-width:1.5;" x1="10" x2="296" y1="165" y2="165"/><polygon fill="none" points="20,171,24,175,20,179,16,175" style="stroke:#B38D22;stroke-width:1.0;"/><text fill="#000000" font-family="sans-serif" font-size="11" lengthAdjust="spacing" textLength="134" x="29" y="179.6348">jwtGenerator : JWTBuilder</text><rect fill="none" height="6" style="stroke:#C82930;stroke-width:1.0;" width="6" x="17" y="185.9551"/><text fill="#000000" font-family="sans-serif" font-size="11" lengthAdjust="spacing" textLength="125" x="29" y="192.5898">authenticated : boolean</text><line style="stroke:#A80036;stroke-width:1.5;" x1="10" x2="296" y1="198.9102" y2="198.9102"/><ellipse cx="20" cy="209.9102" fill="#84BE84" rx="3" ry="3" style="stroke:#038048;stroke-width:1.0;"/><text fill="#000000" font-family="sans-serif" font-size="11" lengthAdjust="spacing" textLength="262" x="29" y="213.5449">authenticate() : Promise&lt;AuthorizationHeaders&gt;</text><ellipse cx="20" cy="222.8652" fill="#84BE84" rx="3" ry="3" style="stroke:#038048;stroke-width:1.0;"/><text fill="#000000" font-family="sans-serif" font-size="11" lengthAdjust="spacing" textLength="144" x="29" y="226.5">isAuthenticated() : boolean</text><!--MD5=[c2917c0abf66614c5d28400fbd9fbd51]
class default<JWTBearerResponse>--><rect codeLine="10" fill="#FEFECE" filter="url(#facipu4lnawhc)" height="65.9102" id="default&lt;JWTBearerResponse&gt;" style="stroke:#A80036;stroke-width:1.5;" width="275" x="15.5" y="7"/><ellipse cx="60.75" cy="23" fill="#B4A7E5" rx="11" ry="11" style="stroke:#A80036;stroke-width:1.0;"/><path d="M57.1777,19.2651 L57.1777,17.1069 L64.5571,17.1069 L64.5571,19.2651 L62.0918,19.2651 L62.0918,27.3418 L64.5571,27.3418 L64.5571,29.5 L57.1777,29.5 L57.1777,27.3418 L59.6431,27.3418 L59.6431,19.2651 Z " fill="#000000"/><text fill="#000000" font-family="sans-serif" font-size="12" font-style="italic" lengthAdjust="spacing" textLength="176" x="81.25" y="27.5352">default&lt;JWTBearerResponse&gt;</text><line style="stroke:#A80036;stroke-width:1.5;" x1="16.5" x2="289.5" y1="39" y2="39"/><ellipse cx="26.5" cy="50" fill="#84BE84" rx="3" ry="3" style="stroke:#038048;stroke-width:1.0;"/><text fill="#000000" font-family="sans-serif" font-size="11" lengthAdjust="spacing" textLength="249" x="35.5" y="53.6348">authenticate() : Promise&lt;JWTBearerResponse&gt;</text><ellipse cx="26.5" cy="62.9551" fill="#84BE84" rx="3" ry="3" style="stroke:#038048;stroke-width:1.0;"/><text fill="#000000" font-family="sans-serif" font-size="11" lengthAdjust="spacing" textLength="144" x="35.5" y="66.5898">isAuthenticated() : boolean</text><!--MD5=[4fec7d714e78591796a74e80e8d35383]
reverse link default<JWTBearerResponse> to JWTBearerAuthAuthenticator--><path codeLine="14" d="M153,93.81 C153,106.63 153,120.29 153,132.93 " fill="none" id="default&lt;JWTBearerResponse&gt;-backto-JWTBearerAuthAuthenticator" style="stroke:#A80036;stroke-width:1.0;stroke-dasharray:7.0,7.0;"/><polygon fill="none" points="146,93.35,153,73.35,160,93.35,146,93.35" style="stroke:#A80036;stroke-width:1.0;"/><!--MD5=[e59b4be396f14cca0b283a0bb3a44e59]
@startuml
skinparam BackgroundColor transparent
hide empty methods
hide empty fields
class "JWTBearerAuthAuthenticator" {
    #jwtGenerator : JWTBuilder
    -authenticated : boolean
    +authenticate() : Promise<AuthorizationHeaders>
    +isAuthenticated() : boolean
}
interface "default<JWTBearerResponse>" {
    +authenticate() : Promise<JWTBearerResponse>
    +isAuthenticated() : boolean
}
"default<JWTBearerResponse>" <|.. "JWTBearerAuthAuthenticator"
@enduml

PlantUML version 1.2021.6(Fri May 14 09:09:51 CEST 2021)
(GPL source distribution)
Java Runtime: OpenJDK Runtime Environment
JVM: OpenJDK 64-Bit Server VM
Default Encoding: UTF-8
Language: en
Country: GB
--></g></svg>