<?xml version="1.0" encoding="UTF-8" standalone="no"?><svg xmlns="http://www.w3.org/2000/svg" xmlns:xlink="http://www.w3.org/1999/xlink" contentScriptType="application/ecmascript" contentStyleType="text/css" height="145px" preserveAspectRatio="none" style="width:214px;height:145px;background:#00000000;" version="1.1" viewBox="0 0 214 145" width="214px" zoomAndPan="magnify"><defs><filter height="300%" id="f1sw0rgg2oodcc" width="300%" x="-1" y="-1"><feGaussianBlur result="blurOut" stdDeviation="2.0"/><feColorMatrix in="blurOut" result="blurOut2" type="matrix" values="0 0 0 0 0 0 0 0 0 0 0 0 0 0 0 0 0 0 .4 0"/><feOffset dx="4.0" dy="4.0" in="blurOut2" result="blurOut3"/><feBlend in="SourceGraphic" in2="blurOut3" mode="normal"/></filter></defs><g><!--MD5=[562e80648e88f5352cf3d67ce196b7ad]
class OutgoingHttpHeaders--><rect codeLine="4" fill="#FEFECE" filter="url(#f1sw0rgg2oodcc)" height="32" id="OutgoingHttpHeaders" style="stroke:#A80036;stroke-width:1.5;" width="157" x="25" y="99"/><ellipse cx="40" cy="115" fill="#B4A7E5" rx="11" ry="11" style="stroke:#A80036;stroke-width:1.0;"/><path d="M36.4277,111.2651 L36.4277,109.1069 L43.8071,109.1069 L43.8071,111.2651 L41.3418,111.2651 L41.3418,119.3418 L43.8071,119.3418 L43.8071,121.5 L36.4277,121.5 L36.4277,119.3418 L38.8931,119.3418 L38.8931,111.2651 Z " fill="#000000"/><text fill="#000000" font-family="sans-serif" font-size="12" font-style="italic" lengthAdjust="spacing" textLength="125" x="54" y="119.5352">OutgoingHttpHeaders</text><!--MD5=[7bf55909a2c1035db8f979d0ce0df0d7]
class Dict<OutgoingHttpHeader>--><rect codeLine="6" fill="#FEFECE" filter="url(#f1sw0rgg2oodcc)" height="32" id="Dict&lt;OutgoingHttpHeader&gt;" style="stroke:#A80036;stroke-width:1.5;" width="193" x="7" y="7"/><ellipse cx="22" cy="23" fill="#B4A7E5" rx="11" ry="11" style="stroke:#A80036;stroke-width:1.0;"/><path d="M18.4277,19.2651 L18.4277,17.1069 L25.8071,17.1069 L25.8071,19.2651 L23.3418,19.2651 L23.3418,27.3418 L25.8071,27.3418 L25.8071,29.5 L18.4277,29.5 L18.4277,27.3418 L20.8931,27.3418 L20.8931,19.2651 Z " fill="#000000"/><text fill="#000000" font-family="sans-serif" font-size="12" font-style="italic" lengthAdjust="spacing" textLength="161" x="36" y="27.5352">Dict&lt;OutgoingHttpHeader&gt;</text><!--MD5=[c5a9b7f679f6a5fc972caba7844ed944]
reverse link Dict<OutgoingHttpHeader> to OutgoingHttpHeaders--><path codeLine="8" d="M103.5,59.61 C103.5,73.31 103.5,88.22 103.5,98.96 " fill="none" id="Dict&lt;OutgoingHttpHeader&gt;-backto-OutgoingHttpHeaders" style="stroke:#A80036;stroke-width:1.0;"/><polygon fill="none" points="96.5,59.27,103.5,39.27,110.5,59.27,96.5,59.27" style="stroke:#A80036;stroke-width:1.0;"/><!--MD5=[468766768a030751c8ce7b3b3ef065dc]
@startuml
skinparam BackgroundColor transparent
hide empty methods
hide empty fields
interface "OutgoingHttpHeaders" {
}
interface "Dict<OutgoingHttpHeader>" {
}
"Dict<OutgoingHttpHeader>" <|- - "OutgoingHttpHeaders"
@enduml

PlantUML version 1.2021.6(Fri May 14 09:09:51 CEST 2021)
(GPL source distribution)
Java Runtime: OpenJDK Runtime Environment
JVM: OpenJDK 64-Bit Server VM
Default Encoding: UTF-8
Language: en
Country: GB
--></g></svg>