<?xml version="1.0" encoding="UTF-8" standalone="no"?><svg xmlns="http://www.w3.org/2000/svg" xmlns:xlink="http://www.w3.org/1999/xlink" contentScriptType="application/ecmascript" contentStyleType="text/css" height="246px" preserveAspectRatio="none" style="width:589px;height:246px;background:#00000000;" version="1.1" viewBox="0 0 589 246" width="589px" zoomAndPan="magnify"><defs><filter height="300%" id="f1x3szc8d4bu8q" width="300%" x="-1" y="-1"><feGaussianBlur result="blurOut" stdDeviation="2.0"/><feColorMatrix in="blurOut" result="blurOut2" type="matrix" values="0 0 0 0 0 0 0 0 0 0 0 0 0 0 0 0 0 0 .4 0"/><feOffset dx="4.0" dy="4.0" in="blurOut2" result="blurOut3"/><feBlend in="SourceGraphic" in2="blurOut3" mode="normal"/></filter></defs><g><!--MD5=[3fd56327b294c25949d9b4443d951312]
class RateLimitedStdoutIterator--><rect codeLine="4" fill="#FEFECE" filter="url(#f1x3szc8d4bu8q)" height="112.7754" id="RateLimitedStdoutIterator" style="stroke:#A80036;stroke-width:1.5;" width="542" x="20" y="120"/><ellipse cx="213.75" cy="136" fill="#ADD1B2" rx="11" ry="11" style="stroke:#A80036;stroke-width:1.0;"/><path d="M216.2231,142.1431 Q215.6421,142.4419 215.0029,142.5913 Q214.3638,142.7407 213.6582,142.7407 Q211.1514,142.7407 209.8315,141.0889 Q208.5117,139.437 208.5117,136.3159 Q208.5117,133.1865 209.8315,131.5347 Q211.1514,129.8828 213.6582,129.8828 Q214.3638,129.8828 215.0112,130.0322 Q215.6587,130.1816 216.2231,130.4805 L216.2231,133.2031 Q215.5923,132.6221 214.9988,132.3523 Q214.4053,132.0825 213.7744,132.0825 Q212.4297,132.0825 211.7449,133.1492 Q211.0601,134.2158 211.0601,136.3159 Q211.0601,138.4077 211.7449,139.4744 Q212.4297,140.541 213.7744,140.541 Q214.4053,140.541 214.9988,140.2712 Q215.5923,140.0015 216.2231,139.4204 Z " fill="#000000"/><text fill="#000000" font-family="sans-serif" font-size="12" lengthAdjust="spacing" textLength="146" x="234.25" y="140.5352">RateLimitedStdoutIterator</text><line style="stroke:#A80036;stroke-width:1.5;" x1="21" x2="561" y1="152" y2="152"/><polygon fill="none" points="31,158,35,162,31,166,27,162" style="stroke:#B38D22;stroke-width:1.0;"/><text fill="#000000" font-family="sans-serif" font-size="11" lengthAdjust="spacing" textLength="157" x="40" y="166.6348">messagesPerMinute : number</text><polygon fill="none" points="31,170.9551,35,174.9551,31,178.9551,27,174.9551" style="stroke:#B38D22;stroke-width:1.0;"/><text fill="#000000" font-family="sans-serif" font-size="11" lengthAdjust="spacing" textLength="160" x="40" y="179.5898">writeCallback : WritableStream</text><line style="stroke:#A80036;stroke-width:1.5;" x1="21" x2="561" y1="185.9102" y2="185.9102"/><ellipse cx="31" cy="196.9102" fill="#84BE84" rx="3" ry="3" style="stroke:#038048;stroke-width:1.0;"/><text fill="#000000" font-family="sans-serif" font-size="11" lengthAdjust="spacing" textLength="516" x="40" y="200.5449">run(adapterCallback: TapjawAdapterCallback&lt;DefaultMessage&gt;, limit: number) : Promise&lt;void&gt;</text><polygon fill="#FFFF44" points="31,204.8652,35,208.8652,31,212.8652,27,208.8652" style="stroke:#B38D22;stroke-width:1.0;"/><text fill="#000000" font-family="sans-serif" font-size="11" lengthAdjust="spacing" textLength="320" x="40" y="213.5">outputMessage(message: DefaultMessage) : Promise&lt;void&gt;</text><polygon fill="#FFFF44" points="31,217.8203,35,221.8203,31,225.8203,27,221.8203" style="stroke:#B38D22;stroke-width:1.0;"/><text fill="#000000" font-family="sans-serif" font-size="11" lengthAdjust="spacing" textLength="244" x="40" y="226.4551">sleep(milliseconds: number) : Promise&lt;void&gt;</text><!--MD5=[9f533bfa2380ba8165f446ed2573556c]
class TapjawIterator--><rect codeLine="11" fill="#FEFECE" filter="url(#f1x3szc8d4bu8q)" height="52.9551" id="TapjawIterator" style="stroke:#A80036;stroke-width:1.5;" width="568" x="7" y="7"/><ellipse cx="244.25" cy="23" fill="#B4A7E5" rx="11" ry="11" style="stroke:#A80036;stroke-width:1.0;"/><path d="M240.6777,19.2651 L240.6777,17.1069 L248.0571,17.1069 L248.0571,19.2651 L245.5918,19.2651 L245.5918,27.3418 L248.0571,27.3418 L248.0571,29.5 L240.6777,29.5 L240.6777,27.3418 L243.1431,27.3418 L243.1431,19.2651 Z " fill="#000000"/><text fill="#000000" font-family="sans-serif" font-size="12" font-style="italic" lengthAdjust="spacing" textLength="85" x="264.75" y="27.5352">TapjawIterator</text><line style="stroke:#A80036;stroke-width:1.5;" x1="8" x2="574" y1="39" y2="39"/><ellipse cx="18" cy="50" fill="#84BE84" rx="3" ry="3" style="stroke:#038048;stroke-width:1.0;"/><text fill="#000000" font-family="sans-serif" font-size="11" lengthAdjust="spacing" textLength="542" x="27" y="53.6348">run(adapterCallback: TapjawAdapterCallback&lt;DefaultMessage&gt;, limit: number) : Promise&lt;unknown&gt;</text><!--MD5=[d0735bd2ccb22b1eec13a705ea15b71d]
reverse link TapjawIterator to RateLimitedStdoutIterator--><path codeLine="14" d="M291,80.35 C291,92.93 291,106.7 291,119.77 " fill="none" id="TapjawIterator-backto-RateLimitedStdoutIterator" style="stroke:#A80036;stroke-width:1.0;stroke-dasharray:7.0,7.0;"/><polygon fill="none" points="284,80.03,291,60.03,298,80.03,284,80.03" style="stroke:#A80036;stroke-width:1.0;"/><!--MD5=[4b603bb84ff6241459cbcec5e7d66726]
@startuml
skinparam BackgroundColor transparent
hide empty methods
hide empty fields
class "RateLimitedStdoutIterator" {
    #messagesPerMinute : number
    #writeCallback : WritableStream
    +run(adapterCallback: TapjawAdapterCallback<DefaultMessage>, limit: number) : Promise<void>
    #outputMessage(message: DefaultMessage) : Promise<void>
    #sleep(milliseconds: number) : Promise<void>
}
interface "TapjawIterator" {
    +run(adapterCallback: TapjawAdapterCallback<DefaultMessage>, limit: number) : Promise<unknown>
}
"TapjawIterator" <|.. "RateLimitedStdoutIterator"
@enduml

PlantUML version 1.2021.6(Fri May 14 09:09:51 CEST 2021)
(GPL source distribution)
Java Runtime: OpenJDK Runtime Environment
JVM: OpenJDK 64-Bit Server VM
Default Encoding: UTF-8
Language: en
Country: GB
--></g></svg>