<?xml version="1.0" encoding="UTF-8" standalone="no"?><svg xmlns="http://www.w3.org/2000/svg" xmlns:xlink="http://www.w3.org/1999/xlink" contentScriptType="application/ecmascript" contentStyleType="text/css" height="259px" preserveAspectRatio="none" style="width:565px;height:259px;background:#00000000;" version="1.1" viewBox="0 0 565 259" width="565px" zoomAndPan="magnify"><defs><filter height="300%" id="fw9lnvh13w6b3" width="300%" x="-1" y="-1"><feGaussianBlur result="blurOut" stdDeviation="2.0"/><feColorMatrix in="blurOut" result="blurOut2" type="matrix" values="0 0 0 0 0 0 0 0 0 0 0 0 0 0 0 0 0 0 .4 0"/><feOffset dx="4.0" dy="4.0" in="blurOut2" result="blurOut3"/><feBlend in="SourceGraphic" in2="blurOut3" mode="normal"/></filter></defs><g><!--MD5=[923278051a1fc94956d11bca2fe179bc]
class StdoutIterator--><rect codeLine="4" fill="#FEFECE" filter="url(#fw9lnvh13w6b3)" height="112.7754" id="StdoutIterator" style="stroke:#A80036;stroke-width:1.5;" width="542" x="9" y="133"/><ellipse cx="236.75" cy="149" fill="#ADD1B2" rx="11" ry="11" style="stroke:#A80036;stroke-width:1.0;"/><path d="M239.2231,155.1431 Q238.6421,155.4419 238.0029,155.5913 Q237.3638,155.7407 236.6582,155.7407 Q234.1514,155.7407 232.8315,154.0889 Q231.5117,152.437 231.5117,149.3159 Q231.5117,146.1865 232.8315,144.5347 Q234.1514,142.8828 236.6582,142.8828 Q237.3638,142.8828 238.0112,143.0322 Q238.6587,143.1816 239.2231,143.4805 L239.2231,146.2031 Q238.5923,145.6221 237.9988,145.3523 Q237.4053,145.0825 236.7744,145.0825 Q235.4297,145.0825 234.7449,146.1492 Q234.0601,147.2158 234.0601,149.3159 Q234.0601,151.4077 234.7449,152.4744 Q235.4297,153.541 236.7744,153.541 Q237.4053,153.541 237.9988,153.2712 Q238.5923,153.0015 239.2231,152.4204 Z " fill="#000000"/><text fill="#000000" font-family="sans-serif" font-size="12" lengthAdjust="spacing" textLength="78" x="257.25" y="153.5352">StdoutIterator</text><line style="stroke:#A80036;stroke-width:1.5;" x1="10" x2="550" y1="165" y2="165"/><polygon fill="none" points="20,171,24,175,20,179,16,175" style="stroke:#B38D22;stroke-width:1.0;"/><text fill="#000000" font-family="sans-serif" font-size="11" lengthAdjust="spacing" textLength="84" x="29" y="179.6348">pretty : boolean</text><polygon fill="none" points="20,183.9551,24,187.9551,20,191.9551,16,187.9551" style="stroke:#B38D22;stroke-width:1.0;"/><text fill="#000000" font-family="sans-serif" font-size="11" lengthAdjust="spacing" textLength="160" x="29" y="192.5898">writeCallback : WritableStream</text><line style="stroke:#A80036;stroke-width:1.5;" x1="10" x2="550" y1="198.9102" y2="198.9102"/><ellipse cx="20" cy="209.9102" fill="#84BE84" rx="3" ry="3" style="stroke:#038048;stroke-width:1.0;"/><text fill="#000000" font-family="sans-serif" font-size="11" lengthAdjust="spacing" textLength="516" x="29" y="213.5449">run(adapterCallback: TapjawAdapterCallback&lt;DefaultMessage&gt;, limit: number) : Promise&lt;void&gt;</text><ellipse cx="20" cy="222.8652" fill="#84BE84" rx="3" ry="3" style="stroke:#038048;stroke-width:1.0;"/><text fill="#000000" font-family="sans-serif" font-size="11" lengthAdjust="spacing" textLength="177" x="29" y="226.5">setPretty(polarity: boolean) : void</text><polygon fill="#FFFF44" points="20,230.8203,24,234.8203,20,238.8203,16,234.8203" style="stroke:#B38D22;stroke-width:1.0;"/><text fill="#000000" font-family="sans-serif" font-size="11" lengthAdjust="spacing" textLength="320" x="29" y="239.4551">outputMessage(message: DefaultMessage) : Promise&lt;void&gt;</text><!--MD5=[5d10ce46af16934260ae9fbfe7924e14]
class OutputIterator--><rect codeLine="11" fill="#FEFECE" filter="url(#fw9lnvh13w6b3)" height="65.9102" id="OutputIterator" style="stroke:#A80036;stroke-width:1.5;" width="542" x="9" y="7"/><ellipse cx="235.25" cy="23" fill="#A9DCDF" rx="11" ry="11" style="stroke:#A80036;stroke-width:1.0;"/><path d="M235.1133,18.3481 L233.9595,23.4199 L236.2754,23.4199 Z M233.6191,16.1069 L236.6157,16.1069 L239.9609,28.5 L237.5122,28.5 L236.7485,25.437 L233.4697,25.437 L232.7227,28.5 L230.2739,28.5 Z " fill="#000000"/><text fill="#000000" font-family="sans-serif" font-size="12" font-style="italic" lengthAdjust="spacing" textLength="81" x="255.75" y="27.5352">OutputIterator</text><line style="stroke:#A80036;stroke-width:1.5;" x1="10" x2="550" y1="39" y2="39"/><ellipse cx="20" cy="50" fill="#84BE84" rx="3" ry="3" style="stroke:#038048;stroke-width:1.0;"/><text fill="#000000" font-family="sans-serif" font-size="11" lengthAdjust="spacing" textLength="516" x="29" y="53.6348">run(adapterCallback: TapjawAdapterCallback&lt;DefaultMessage&gt;, limit: number) : Promise&lt;void&gt;</text><polygon fill="#FFFF44" points="20,57.9551,24,61.9551,20,65.9551,16,61.9551" style="stroke:#B38D22;stroke-width:1.0;"/><text fill="#000000" font-family="sans-serif" font-size="11" font-style="italic" lengthAdjust="spacing" textLength="320" x="29" y="66.5898">outputMessage(message: DefaultMessage) : Promise&lt;void&gt;</text><!--MD5=[6dad5821d67513021a532d669093cbf1]
reverse link OutputIterator to StdoutIterator--><path codeLine="15" d="M280,93.32 C280,106.1 280,119.82 280,132.75 " fill="none" id="OutputIterator-backto-StdoutIterator" style="stroke:#A80036;stroke-width:1.0;"/><polygon fill="none" points="273,93.01,280,73.01,287,93.01,273,93.01" style="stroke:#A80036;stroke-width:1.0;"/><!--MD5=[3fbddc66ab96278bd0ed5ed645280dc6]
@startuml
skinparam BackgroundColor transparent
hide empty methods
hide empty fields
class "StdoutIterator" {
    #pretty : boolean
    #writeCallback : WritableStream
    +run(adapterCallback: TapjawAdapterCallback<DefaultMessage>, limit: number) : Promise<void>
    +setPretty(polarity: boolean) : void
    #outputMessage(message: DefaultMessage) : Promise<void>
}
abstract class "OutputIterator" {
    +run(adapterCallback: TapjawAdapterCallback<DefaultMessage>, limit: number) : Promise<void>
    {abstract} #outputMessage(message: DefaultMessage) : Promise<void>
}
"OutputIterator" <|- - "StdoutIterator"
@enduml

PlantUML version 1.2021.6(Fri May 14 09:09:51 CEST 2021)
(GPL source distribution)
Java Runtime: OpenJDK Runtime Environment
JVM: OpenJDK 64-Bit Server VM
Default Encoding: UTF-8
Language: en
Country: GB
--></g></svg>