<?xml version="1.0" encoding="UTF-8" standalone="no"?><svg xmlns="http://www.w3.org/2000/svg" xmlns:xlink="http://www.w3.org/1999/xlink" contentScriptType="application/ecmascript" contentStyleType="text/css" height="272px" preserveAspectRatio="none" style="width:805px;height:272px;background:#00000000;" version="1.1" viewBox="0 0 805 272" width="805px" zoomAndPan="magnify"><defs><filter height="300%" id="fjyuo23nkcbx0" width="300%" x="-1" y="-1"><feGaussianBlur result="blurOut" stdDeviation="2.0"/><feColorMatrix in="blurOut" result="blurOut2" type="matrix" values="0 0 0 0 0 0 0 0 0 0 0 0 0 0 0 0 0 0 .4 0"/><feOffset dx="4.0" dy="4.0" in="blurOut2" result="blurOut3"/><feBlend in="SourceGraphic" in2="blurOut3" mode="normal"/></filter></defs><g><!--MD5=[bac1bfd5b246508b37f5294abbc6785a]
class TapjawStoreCommand<T, M>--><rect codeLine="4" fill="#FEFECE" filter="url(#fjyuo23nkcbx0)" height="138.6855" id="TapjawStoreCommand&lt;T, M&gt;" style="stroke:#A80036;stroke-width:1.5;" width="782" x="9" y="120"/><ellipse cx="307.25" cy="136" fill="#A9DCDF" rx="11" ry="11" style="stroke:#A80036;stroke-width:1.0;"/><path d="M307.1133,131.3481 L305.9595,136.4199 L308.2754,136.4199 Z M305.6191,129.1069 L308.6157,129.1069 L311.9609,141.5 L309.5122,141.5 L308.7485,138.437 L305.4697,138.437 L304.7227,141.5 L302.2739,141.5 Z " fill="#000000"/><text fill="#000000" font-family="sans-serif" font-size="12" font-style="italic" lengthAdjust="spacing" textLength="177" x="327.75" y="140.5352">TapjawStoreCommand&lt;T, M&gt;</text><line style="stroke:#A80036;stroke-width:1.5;" x1="10" x2="790" y1="152" y2="152"/><polygon fill="none" points="20,158,24,162,20,166,16,162" style="stroke:#B38D22;stroke-width:1.0;"/><text fill="#000000" font-family="sans-serif" font-size="11" lengthAdjust="spacing" textLength="176" x="29" y="166.6348">displayJsonParseErrors : boolean</text><polygon fill="none" points="20,170.9551,24,174.9551,20,178.9551,16,174.9551" style="stroke:#B38D22;stroke-width:1.0;"/><text fill="#000000" font-family="sans-serif" font-size="11" lengthAdjust="spacing" textLength="121" x="29" y="179.5898">stdin : ReadableStream</text><line style="stroke:#A80036;stroke-width:1.5;" x1="10" x2="790" y1="185.9102" y2="185.9102"/><ellipse cx="20" cy="196.9102" fill="#84BE84" rx="3" ry="3" style="stroke:#038048;stroke-width:1.0;"/><text fill="#000000" font-family="sans-serif" font-size="11" lengthAdjust="spacing" text-decoration="underline" textLength="190" x="29" y="200.5449">register(program: Command) : void</text><ellipse cx="20" cy="209.8652" fill="#84BE84" rx="3" ry="3" style="stroke:#038048;stroke-width:1.0;"/><text fill="#000000" font-family="sans-serif" font-size="11" lengthAdjust="spacing" textLength="619" x="29" y="213.5">run(args: TapjawCommandArgs&lt;unknown&gt;, flags: T &amp; TapjawCommandDefaultFlags&lt;unknown&gt;) : Promise&lt;void&gt;</text><polygon fill="#FFFF44" points="20,217.8203,24,221.8203,20,225.8203,16,221.8203" style="stroke:#B38D22;stroke-width:1.0;"/><text fill="#000000" font-family="sans-serif" font-size="11" lengthAdjust="spacing" text-decoration="underline" textLength="147" x="29" y="226.4551">getLogger() : TapjawLogger</text><polygon fill="#FFFF44" points="20,230.7754,24,234.7754,20,238.7754,16,234.7754" style="stroke:#B38D22;stroke-width:1.0;"/><text fill="#000000" font-family="sans-serif" font-size="11" lengthAdjust="spacing" textLength="169" x="29" y="239.4102">onBeforeExit() : Promise&lt;void&gt;</text><polygon fill="#FFFF44" points="20,243.7305,24,247.7305,20,251.7305,16,247.7305" style="stroke:#B38D22;stroke-width:1.0;"/><text fill="#000000" font-family="sans-serif" font-size="11" font-style="italic" lengthAdjust="spacing" textLength="756" x="29" y="252.3652">onStoreMessage(message: M, args: TapjawCommandArgs&lt;unknown&gt;, flags: T &amp; TapjawCommandDefaultFlags&lt;unknown&gt;) : Promise&lt;void&gt;</text><!--MD5=[bed868222db9f07a2f48f4d1edb3754e]
class BaseTapjawCommand--><rect codeLine="13" fill="#FEFECE" filter="url(#fjyuo23nkcbx0)" height="52.9551" id="BaseTapjawCommand" style="stroke:#A80036;stroke-width:1.5;" width="233" x="283.5" y="7"/><ellipse cx="331.25" cy="23" fill="#B4A7E5" rx="11" ry="11" style="stroke:#A80036;stroke-width:1.0;"/><path d="M327.6777,19.2651 L327.6777,17.1069 L335.0571,17.1069 L335.0571,19.2651 L332.5918,19.2651 L332.5918,27.3418 L335.0571,27.3418 L335.0571,29.5 L327.6777,29.5 L327.6777,27.3418 L330.1431,27.3418 L330.1431,19.2651 Z " fill="#000000"/><text fill="#000000" font-family="sans-serif" font-size="12" font-style="italic" lengthAdjust="spacing" textLength="129" x="351.75" y="27.5352">BaseTapjawCommand</text><line style="stroke:#A80036;stroke-width:1.5;" x1="284.5" x2="515.5" y1="39" y2="39"/><ellipse cx="294.5" cy="50" fill="#84BE84" rx="3" ry="3" style="stroke:#038048;stroke-width:1.0;"/><text fill="#000000" font-family="sans-serif" font-size="11" lengthAdjust="spacing" textLength="207" x="303.5" y="53.6348">run(args: unknown[]) : Promise&lt;void&gt;</text><!--MD5=[9e4660809d9a2605a0b448473e1e90b4]
reverse link BaseTapjawCommand to TapjawStoreCommand<T, M>--><path codeLine="16" d="M400,80.71 C400,93.01 400,106.56 400,119.78 " fill="none" id="BaseTapjawCommand-backto-TapjawStoreCommand&lt;T, M&gt;" style="stroke:#A80036;stroke-width:1.0;stroke-dasharray:7.0,7.0;"/><polygon fill="none" points="393,80.28,400,60.28,407,80.28,393,80.28" style="stroke:#A80036;stroke-width:1.0;"/><!--MD5=[1ea23054df59610d2657a4e1afd93995]
@startuml
skinparam BackgroundColor transparent
hide empty methods
hide empty fields
abstract class "TapjawStoreCommand<T, M>" {
    #displayJsonParseErrors : boolean
    #stdin : ReadableStream
    {static} +register(program: Command) : void
    +run(args: TapjawCommandArgs<unknown>, flags: T & TapjawCommandDefaultFlags<unknown>) : Promise<void>
    {static} #getLogger() : TapjawLogger
    #onBeforeExit() : Promise<void>
    {abstract} #onStoreMessage(message: M, args: TapjawCommandArgs<unknown>, flags: T & TapjawCommandDefaultFlags<unknown>) : Promise<void>
}
interface "BaseTapjawCommand" {
    +run(args: unknown[]) : Promise<void>
}
"BaseTapjawCommand" <|.. "TapjawStoreCommand<T, M>"
@enduml

PlantUML version 1.2021.6(Fri May 14 09:09:51 CEST 2021)
(GPL source distribution)
Java Runtime: OpenJDK Runtime Environment
JVM: OpenJDK 64-Bit Server VM
Default Encoding: UTF-8
Language: en
Country: GB
--></g></svg>