<?xml version="1.0" encoding="UTF-8" standalone="no"?><svg xmlns="http://www.w3.org/2000/svg" xmlns:xlink="http://www.w3.org/1999/xlink" contentScriptType="application/ecmascript" contentStyleType="text/css" height="230px" preserveAspectRatio="none" style="width:435px;height:230px;background:#00000000;" version="1.1" viewBox="0 0 435 230" width="435px" zoomAndPan="magnify"><defs><filter height="300%" id="fkf3to0qino8" width="300%" x="-1" y="-1"><feGaussianBlur result="blurOut" stdDeviation="2.0"/><feColorMatrix in="blurOut" result="blurOut2" type="matrix" values="0 0 0 0 0 0 0 0 0 0 0 0 0 0 0 0 0 0 .4 0"/><feOffset dx="4.0" dy="4.0" in="blurOut2" result="blurOut3"/><feBlend in="SourceGraphic" in2="blurOut3" mode="normal"/></filter></defs><g><!--MD5=[6a3fa0015e986c6b32fc5a3a332a3c2b]
class TapjawConfigError--><rect codeLine="4" fill="#FEFECE" filter="url(#fkf3to0qino8)" height="125.7305" id="TapjawConfigError" style="stroke:#A80036;stroke-width:1.5;" width="414" x="7" y="91"/><ellipse cx="155.75" cy="107" fill="#ADD1B2" rx="11" ry="11" style="stroke:#A80036;stroke-width:1.0;"/><path d="M158.2231,113.1431 Q157.6421,113.4419 157.0029,113.5913 Q156.3638,113.7407 155.6582,113.7407 Q153.1514,113.7407 151.8315,112.0889 Q150.5117,110.437 150.5117,107.3159 Q150.5117,104.1865 151.8315,102.5347 Q153.1514,100.8828 155.6582,100.8828 Q156.3638,100.8828 157.0112,101.0322 Q157.6587,101.1816 158.2231,101.4805 L158.2231,104.2031 Q157.5923,103.6221 156.9988,103.3523 Q156.4053,103.0825 155.7744,103.0825 Q154.4297,103.0825 153.7449,104.1492 Q153.0601,105.2158 153.0601,107.3159 Q153.0601,109.4077 153.7449,110.4744 Q154.4297,111.541 155.7744,111.541 Q156.4053,111.541 156.9988,111.2712 Q157.5923,111.0015 158.2231,110.4204 Z " fill="#000000"/><text fill="#000000" font-family="sans-serif" font-size="12" lengthAdjust="spacing" textLength="108" x="176.25" y="111.5352">TapjawConfigError</text><line style="stroke:#A80036;stroke-width:1.5;" x1="8" x2="420" y1="123" y2="123"/><ellipse cx="18" cy="134" rx="3" ry="3" style="stroke:#038048;stroke-width:1.0;fill:none;"/><text fill="#000000" font-family="sans-serif" font-size="11" lengthAdjust="spacing" textLength="88" x="27" y="137.6348">message : string</text><ellipse cx="18" cy="146.9551" rx="3" ry="3" style="stroke:#038048;stroke-width:1.0;fill:none;"/><text fill="#000000" font-family="sans-serif" font-size="11" lengthAdjust="spacing" textLength="70" x="27" y="150.5898">name : string</text><ellipse cx="18" cy="159.9102" rx="3" ry="3" style="stroke:#038048;stroke-width:1.0;fill:none;"/><text fill="#000000" font-family="sans-serif" font-size="11" lengthAdjust="spacing" text-decoration="underline" textLength="156" x="27" y="163.5449">prepareStackTrace : Function</text><ellipse cx="18" cy="172.8652" rx="3" ry="3" style="stroke:#038048;stroke-width:1.0;fill:none;"/><text fill="#000000" font-family="sans-serif" font-size="11" lengthAdjust="spacing" textLength="69" x="27" y="176.5">stack : string</text><ellipse cx="18" cy="185.8203" rx="3" ry="3" style="stroke:#038048;stroke-width:1.0;fill:none;"/><text fill="#000000" font-family="sans-serif" font-size="11" lengthAdjust="spacing" text-decoration="underline" textLength="135" x="27" y="189.4551">stackTraceLimit : number</text><line style="stroke:#A80036;stroke-width:1.5;" x1="8" x2="420" y1="195.7754" y2="195.7754"/><ellipse cx="18" cy="206.7754" fill="#84BE84" rx="3" ry="3" style="stroke:#038048;stroke-width:1.0;"/><text fill="#000000" font-family="sans-serif" font-size="11" lengthAdjust="spacing" text-decoration="underline" textLength="388" x="27" y="210.4102">captureStackTrace(targetObject: object, constructorOpt: Function) : void</text><!--MD5=[b8cfd8c4119a3b0a7a46bfc5fc780f85]
class Error--><rect codeLine="12" fill="#FEFECE" filter="url(#fkf3to0qino8)" height="24.1328" id="Error" style="stroke:#A80036;stroke-width:1.5;" width="35" x="196.5" y="7"/><text fill="#000000" font-family="sans-serif" font-size="12" lengthAdjust="spacing" textLength="29" x="199.5" y="23.6016">Error</text><!--MD5=[b5144dcbfaf5aab78192b095d5d297d2]
reverse link Error to TapjawConfigError--><path codeLine="14" d="M214,51.5 C214,63.36 214,77.31 214,91 " fill="none" id="Error-backto-TapjawConfigError" style="stroke:#A80036;stroke-width:1.0;"/><polygon fill="none" points="207,51.34,214,31.34,221,51.34,207,51.34" style="stroke:#A80036;stroke-width:1.0;"/><!--MD5=[387e5b1e7e10aa45b60b5b4903ad7a6c]
@startuml
skinparam BackgroundColor transparent
hide empty methods
hide empty fields
class "TapjawConfigError" {
    +message : string
    +name : string
    {static} +prepareStackTrace : Function
    +stack : string
    {static} +stackTraceLimit : number
    {static} +captureStackTrace(targetObject: object, constructorOpt: Function) : void
}
class "Error"
hide "Error" circle
"Error" <|- - "TapjawConfigError"
@enduml

PlantUML version 1.2021.6(Fri May 14 09:09:51 CEST 2021)
(GPL source distribution)
Java Runtime: OpenJDK Runtime Environment
JVM: OpenJDK 64-Bit Server VM
Default Encoding: UTF-8
Language: en
Country: GB
--></g></svg>