<?xml version="1.0" encoding="UTF-8" standalone="no"?><svg xmlns="http://www.w3.org/2000/svg" xmlns:xlink="http://www.w3.org/1999/xlink" contentScriptType="application/ecmascript" contentStyleType="text/css" height="246px" preserveAspectRatio="none" style="width:1142px;height:246px;background:#00000000;" version="1.1" viewBox="0 0 1142 246" width="1142px" zoomAndPan="magnify"><defs><filter height="300%" id="f1f9k6907953p9" width="300%" x="-1" y="-1"><feGaussianBlur result="blurOut" stdDeviation="2.0"/><feColorMatrix in="blurOut" result="blurOut2" type="matrix" values="0 0 0 0 0 0 0 0 0 0 0 0 0 0 0 0 0 0 .4 0"/><feOffset dx="4.0" dy="4.0" in="blurOut2" result="blurOut3"/><feBlend in="SourceGraphic" in2="blurOut3" mode="normal"/></filter></defs><g><!--MD5=[9f533bfa2380ba8165f446ed2573556c]
class TapjawIterator--><rect codeLine="4" fill="#FEFECE" filter="url(#f1f9k6907953p9)" height="52.9551" id="TapjawIterator" style="stroke:#A80036;stroke-width:1.5;" width="568" x="284" y="7"/><ellipse cx="521.25" cy="23" fill="#B4A7E5" rx="11" ry="11" style="stroke:#A80036;stroke-width:1.0;"/><path d="M517.6777,19.2651 L517.6777,17.1069 L525.0571,17.1069 L525.0571,19.2651 L522.5918,19.2651 L522.5918,27.3418 L525.0571,27.3418 L525.0571,29.5 L517.6777,29.5 L517.6777,27.3418 L520.1431,27.3418 L520.1431,19.2651 Z " fill="#000000"/><text fill="#000000" font-family="sans-serif" font-size="12" font-style="italic" lengthAdjust="spacing" textLength="85" x="541.75" y="27.5352">TapjawIterator</text><line style="stroke:#A80036;stroke-width:1.5;" x1="285" x2="851" y1="39" y2="39"/><ellipse cx="295" cy="50" fill="#84BE84" rx="3" ry="3" style="stroke:#038048;stroke-width:1.0;"/><text fill="#000000" font-family="sans-serif" font-size="11" lengthAdjust="spacing" textLength="542" x="304" y="53.6348">run(adapterCallback: TapjawAdapterCallback&lt;DefaultMessage&gt;, limit: number) : Promise&lt;unknown&gt;</text><!--MD5=[5d10ce46af16934260ae9fbfe7924e14]
class OutputIterator--><rect codeLine="7" fill="#FEFECE" filter="url(#f1f9k6907953p9)" height="65.9102" id="OutputIterator" style="stroke:#A80036;stroke-width:1.5;" width="542" x="9" y="143.5"/><ellipse cx="235.25" cy="159.5" fill="#A9DCDF" rx="11" ry="11" style="stroke:#A80036;stroke-width:1.0;"/><path d="M235.1133,154.8481 L233.9595,159.9199 L236.2754,159.9199 Z M233.6191,152.6069 L236.6157,152.6069 L239.9609,165 L237.5122,165 L236.7485,161.937 L233.4697,161.937 L232.7227,165 L230.2739,165 Z " fill="#000000"/><text fill="#000000" font-family="sans-serif" font-size="12" font-style="italic" lengthAdjust="spacing" textLength="81" x="255.75" y="164.0352">OutputIterator</text><line style="stroke:#A80036;stroke-width:1.5;" x1="10" x2="550" y1="175.5" y2="175.5"/><ellipse cx="20" cy="186.5" fill="#84BE84" rx="3" ry="3" style="stroke:#038048;stroke-width:1.0;"/><text fill="#000000" font-family="sans-serif" font-size="11" lengthAdjust="spacing" textLength="516" x="29" y="190.1348">run(adapterCallback: TapjawAdapterCallback&lt;DefaultMessage&gt;, limit: number) : Promise&lt;void&gt;</text><polygon fill="#FFFF44" points="20,194.4551,24,198.4551,20,202.4551,16,198.4551" style="stroke:#B38D22;stroke-width:1.0;"/><text fill="#000000" font-family="sans-serif" font-size="11" font-style="italic" lengthAdjust="spacing" textLength="320" x="29" y="203.0898">outputMessage(message: DefaultMessage) : Promise&lt;void&gt;</text><!--MD5=[3fd56327b294c25949d9b4443d951312]
class RateLimitedStdoutIterator--><rect codeLine="12" fill="#FEFECE" filter="url(#f1f9k6907953p9)" height="112.7754" id="RateLimitedStdoutIterator" style="stroke:#A80036;stroke-width:1.5;" width="542" x="586" y="120"/><ellipse cx="779.75" cy="136" fill="#ADD1B2" rx="11" ry="11" style="stroke:#A80036;stroke-width:1.0;"/><path d="M782.2231,142.1431 Q781.6421,142.4419 781.0029,142.5913 Q780.3638,142.7407 779.6582,142.7407 Q777.1514,142.7407 775.8315,141.0889 Q774.5117,139.437 774.5117,136.3159 Q774.5117,133.1865 775.8315,131.5347 Q777.1514,129.8828 779.6582,129.8828 Q780.3638,129.8828 781.0112,130.0322 Q781.6587,130.1816 782.2231,130.4805 L782.2231,133.2031 Q781.5923,132.6221 780.9988,132.3523 Q780.4053,132.0825 779.7744,132.0825 Q778.4297,132.0825 777.7449,133.1492 Q777.0601,134.2158 777.0601,136.3159 Q777.0601,138.4077 777.7449,139.4744 Q778.4297,140.541 779.7744,140.541 Q780.4053,140.541 780.9988,140.2712 Q781.5923,140.0015 782.2231,139.4204 Z " fill="#000000"/><text fill="#000000" font-family="sans-serif" font-size="12" lengthAdjust="spacing" textLength="146" x="800.25" y="140.5352">RateLimitedStdoutIterator</text><line style="stroke:#A80036;stroke-width:1.5;" x1="587" x2="1127" y1="152" y2="152"/><polygon fill="none" points="597,158,601,162,597,166,593,162" style="stroke:#B38D22;stroke-width:1.0;"/><text fill="#000000" font-family="sans-serif" font-size="11" lengthAdjust="spacing" textLength="157" x="606" y="166.6348">messagesPerMinute : number</text><polygon fill="none" points="597,170.9551,601,174.9551,597,178.9551,593,174.9551" style="stroke:#B38D22;stroke-width:1.0;"/><text fill="#000000" font-family="sans-serif" font-size="11" lengthAdjust="spacing" textLength="160" x="606" y="179.5898">writeCallback : WritableStream</text><line style="stroke:#A80036;stroke-width:1.5;" x1="587" x2="1127" y1="185.9102" y2="185.9102"/><ellipse cx="597" cy="196.9102" fill="#84BE84" rx="3" ry="3" style="stroke:#038048;stroke-width:1.0;"/><text fill="#000000" font-family="sans-serif" font-size="11" lengthAdjust="spacing" textLength="516" x="606" y="200.5449">run(adapterCallback: TapjawAdapterCallback&lt;DefaultMessage&gt;, limit: number) : Promise&lt;void&gt;</text><polygon fill="#FFFF44" points="597,204.8652,601,208.8652,597,212.8652,593,208.8652" style="stroke:#B38D22;stroke-width:1.0;"/><text fill="#000000" font-family="sans-serif" font-size="11" lengthAdjust="spacing" textLength="320" x="606" y="213.5">outputMessage(message: DefaultMessage) : Promise&lt;void&gt;</text><polygon fill="#FFFF44" points="597,217.8203,601,221.8203,597,225.8203,593,221.8203" style="stroke:#B38D22;stroke-width:1.0;"/><text fill="#000000" font-family="sans-serif" font-size="11" lengthAdjust="spacing" textLength="244" x="606" y="226.4551">sleep(milliseconds: number) : Promise&lt;void&gt;</text><!--MD5=[7c55c2b822e43bb3df1f48e99479c761]
reverse link TapjawIterator to OutputIterator--><path codeLine="11" d="M497.84,68.85 C451.38,91.59 390.87,121.22 345.41,143.47 " fill="none" id="TapjawIterator-backto-OutputIterator" style="stroke:#A80036;stroke-width:1.0;stroke-dasharray:7.0,7.0;"/><polygon fill="none" points="494.8,62.54,515.85,60.03,500.96,75.12,494.8,62.54" style="stroke:#A80036;stroke-width:1.0;"/><!--MD5=[d0735bd2ccb22b1eec13a705ea15b71d]
reverse link TapjawIterator to RateLimitedStdoutIterator--><path codeLine="19" d="M638.52,68.91 C669.95,84.24 707.79,102.7 743.07,119.92 " fill="none" id="TapjawIterator-backto-RateLimitedStdoutIterator" style="stroke:#A80036;stroke-width:1.0;stroke-dasharray:7.0,7.0;"/><polygon fill="none" points="635.24,75.09,620.34,60.03,641.38,62.51,635.24,75.09" style="stroke:#A80036;stroke-width:1.0;"/><!--MD5=[f6255a9fe3ee0384ebe03d6cd4ad6209]
@startuml
skinparam BackgroundColor transparent
hide empty methods
hide empty fields
interface "TapjawIterator" {
    +run(adapterCallback: TapjawAdapterCallback<DefaultMessage>, limit: number) : Promise<unknown>
}
abstract class "OutputIterator" {
    +run(adapterCallback: TapjawAdapterCallback<DefaultMessage>, limit: number) : Promise<void>
    {abstract} #outputMessage(message: DefaultMessage) : Promise<void>
}
"TapjawIterator" <|.. "OutputIterator"
class "RateLimitedStdoutIterator" {
    #messagesPerMinute : number
    #writeCallback : WritableStream
    +run(adapterCallback: TapjawAdapterCallback<DefaultMessage>, limit: number) : Promise<void>
    #outputMessage(message: DefaultMessage) : Promise<void>
    #sleep(milliseconds: number) : Promise<void>
}
"TapjawIterator" <|.. "RateLimitedStdoutIterator"
@enduml

PlantUML version 1.2021.6(Fri May 14 09:09:51 CEST 2021)
(GPL source distribution)
Java Runtime: OpenJDK Runtime Environment
JVM: OpenJDK 64-Bit Server VM
Default Encoding: UTF-8
Language: en
Country: GB
--></g></svg>