<?xml version="1.0" encoding="UTF-8" standalone="no"?><svg xmlns="http://www.w3.org/2000/svg" xmlns:xlink="http://www.w3.org/1999/xlink" contentScriptType="application/ecmascript" contentStyleType="text/css" height="212px" preserveAspectRatio="none" style="width:668px;height:212px;background:#00000000;" version="1.1" viewBox="0 0 668 212" width="668px" zoomAndPan="magnify"><defs><filter height="300%" id="f1c115r7q91xfa" width="300%" x="-1" y="-1"><feGaussianBlur result="blurOut" stdDeviation="2.0"/><feColorMatrix in="blurOut" result="blurOut2" type="matrix" values="0 0 0 0 0 0 0 0 0 0 0 0 0 0 0 0 0 0 .4 0"/><feOffset dx="4.0" dy="4.0" in="blurOut2" result="blurOut3"/><feBlend in="SourceGraphic" in2="blurOut3" mode="normal"/></filter></defs><g><!--MD5=[1adcc79a4ab9ff3ad5bfa96060a9a37d]
class TapjawToolCommand<T>--><rect codeLine="4" fill="#FEFECE" filter="url(#f1c115r7q91xfa)" height="78.8652" id="TapjawToolCommand&lt;T&gt;" style="stroke:#A80036;stroke-width:1.5;" width="645" x="9" y="120"/><ellipse cx="249.75" cy="136" fill="#A9DCDF" rx="11" ry="11" style="stroke:#A80036;stroke-width:1.0;"/><path d="M249.6133,131.3481 L248.4595,136.4199 L250.7754,136.4199 Z M248.1191,129.1069 L251.1157,129.1069 L254.4609,141.5 L252.0122,141.5 L251.2485,138.437 L247.9697,138.437 L247.2227,141.5 L244.7739,141.5 Z " fill="#000000"/><text fill="#000000" font-family="sans-serif" font-size="12" font-style="italic" lengthAdjust="spacing" textLength="155" x="270.25" y="140.5352">TapjawToolCommand&lt;T&gt;</text><line style="stroke:#A80036;stroke-width:1.5;" x1="10" x2="653" y1="152" y2="152"/><ellipse cx="20" cy="163" fill="#84BE84" rx="3" ry="3" style="stroke:#038048;stroke-width:1.0;"/><text fill="#000000" font-family="sans-serif" font-size="11" lengthAdjust="spacing" text-decoration="underline" textLength="190" x="29" y="166.6348">register(program: Command) : void</text><ellipse cx="20" cy="175.9551" fill="#84BE84" rx="3" ry="3" style="stroke:#038048;stroke-width:1.0;"/><text fill="#000000" font-family="sans-serif" font-size="11" font-style="italic" lengthAdjust="spacing" textLength="619" x="29" y="179.5898">run(args: TapjawCommandArgs&lt;unknown&gt;, flags: T &amp; TapjawCommandDefaultFlags&lt;unknown&gt;) : Promise&lt;void&gt;</text><polygon fill="#FFFF44" points="20,183.9102,24,187.9102,20,191.9102,16,187.9102" style="stroke:#B38D22;stroke-width:1.0;"/><text fill="#000000" font-family="sans-serif" font-size="11" lengthAdjust="spacing" text-decoration="underline" textLength="147" x="29" y="192.5449">getLogger() : TapjawLogger</text><!--MD5=[bed868222db9f07a2f48f4d1edb3754e]
class BaseTapjawCommand--><rect codeLine="9" fill="#FEFECE" filter="url(#f1c115r7q91xfa)" height="52.9551" id="BaseTapjawCommand" style="stroke:#A80036;stroke-width:1.5;" width="233" x="215" y="7"/><ellipse cx="262.75" cy="23" fill="#B4A7E5" rx="11" ry="11" style="stroke:#A80036;stroke-width:1.0;"/><path d="M259.1777,19.2651 L259.1777,17.1069 L266.5571,17.1069 L266.5571,19.2651 L264.0918,19.2651 L264.0918,27.3418 L266.5571,27.3418 L266.5571,29.5 L259.1777,29.5 L259.1777,27.3418 L261.6431,27.3418 L261.6431,19.2651 Z " fill="#000000"/><text fill="#000000" font-family="sans-serif" font-size="12" font-style="italic" lengthAdjust="spacing" textLength="129" x="283.25" y="27.5352">BaseTapjawCommand</text><line style="stroke:#A80036;stroke-width:1.5;" x1="216" x2="447" y1="39" y2="39"/><ellipse cx="226" cy="50" fill="#84BE84" rx="3" ry="3" style="stroke:#038048;stroke-width:1.0;"/><text fill="#000000" font-family="sans-serif" font-size="11" lengthAdjust="spacing" textLength="207" x="235" y="53.6348">run(args: unknown[]) : Promise&lt;void&gt;</text><!--MD5=[0264ed25e2c945d376b6d5dccdf0c902]
reverse link BaseTapjawCommand to TapjawToolCommand<T>--><path codeLine="12" d="M331.5,80.49 C331.5,93.37 331.5,107.23 331.5,119.64 " fill="none" id="BaseTapjawCommand-backto-TapjawToolCommand&lt;T&gt;" style="stroke:#A80036;stroke-width:1.0;stroke-dasharray:7.0,7.0;"/><polygon fill="none" points="324.5,80.19,331.5,60.19,338.5,80.19,324.5,80.19" style="stroke:#A80036;stroke-width:1.0;"/><!--MD5=[ed017459d868c9815310d4797d7be521]
@startuml
skinparam BackgroundColor transparent
hide empty methods
hide empty fields
abstract class "TapjawToolCommand<T>" {
    {static} +register(program: Command) : void
    {abstract} +run(args: TapjawCommandArgs<unknown>, flags: T & TapjawCommandDefaultFlags<unknown>) : Promise<void>
    {static} #getLogger() : TapjawLogger
}
interface "BaseTapjawCommand" {
    +run(args: unknown[]) : Promise<void>
}
"BaseTapjawCommand" <|.. "TapjawToolCommand<T>"
@enduml

PlantUML version 1.2021.6(Fri May 14 09:09:51 CEST 2021)
(GPL source distribution)
Java Runtime: OpenJDK Runtime Environment
JVM: OpenJDK 64-Bit Server VM
Default Encoding: UTF-8
Language: en
Country: GB
--></g></svg>