<?xml version="1.0" encoding="UTF-8" standalone="no"?><svg xmlns="http://www.w3.org/2000/svg" xmlns:xlink="http://www.w3.org/1999/xlink" contentScriptType="application/ecmascript" contentStyleType="text/css" height="363px" preserveAspectRatio="none" style="width:487px;height:363px;background:#00000000;" version="1.1" viewBox="0 0 487 363" width="487px" zoomAndPan="magnify"><defs><filter height="300%" id="fc7yiuztzqeu0" width="300%" x="-1" y="-1"><feGaussianBlur result="blurOut" stdDeviation="2.0"/><feColorMatrix in="blurOut" result="blurOut2" type="matrix" values="0 0 0 0 0 0 0 0 0 0 0 0 0 0 0 0 0 0 .4 0"/><feOffset dx="4.0" dy="4.0" in="blurOut2" result="blurOut3"/><feBlend in="SourceGraphic" in2="blurOut3" mode="normal"/></filter></defs><g><!--MD5=[6495451319b5a6ef5a9033a80b2559f9]
class Abortable--><rect codeLine="4" fill="#FEFECE" filter="url(#fc7yiuztzqeu0)" height="52.9551" id="Abortable" style="stroke:#A80036;stroke-width:1.5;" width="130" x="92.5" y="7"/><ellipse cx="125.95" cy="23" fill="#B4A7E5" rx="11" ry="11" style="stroke:#A80036;stroke-width:1.0;"/><path d="M122.3777,19.2651 L122.3777,17.1069 L129.7571,17.1069 L129.7571,19.2651 L127.2918,19.2651 L127.2918,27.3418 L129.7571,27.3418 L129.7571,29.5 L122.3777,29.5 L122.3777,27.3418 L124.8431,27.3418 L124.8431,19.2651 Z " fill="#000000"/><text fill="#000000" font-family="sans-serif" font-size="12" font-style="italic" lengthAdjust="spacing" textLength="57" x="144.05" y="27.5352">Abortable</text><line style="stroke:#A80036;stroke-width:1.5;" x1="93.5" x2="221.5" y1="39" y2="39"/><ellipse cx="103.5" cy="50" rx="3" ry="3" style="stroke:#038048;stroke-width:1.0;fill:none;"/><text fill="#000000" font-family="sans-serif" font-size="11" lengthAdjust="spacing" textLength="104" x="112.5" y="53.6348">signal : AbortSignal</text><!--MD5=[1e10edcb77e28f9ea12bdc3fdb61c4c5]
class StreamOptions<T>--><rect codeLine="17" fill="#FEFECE" filter="url(#fc7yiuztzqeu0)" height="229.3711" id="StreamOptions&lt;T&gt;" style="stroke:#A80036;stroke-width:1.5;" width="301" x="7" y="120"/><ellipse cx="97.25" cy="136" fill="#B4A7E5" rx="11" ry="11" style="stroke:#A80036;stroke-width:1.0;"/><path d="M93.6777,132.2651 L93.6777,130.1069 L101.0571,130.1069 L101.0571,132.2651 L98.5918,132.2651 L98.5918,140.3418 L101.0571,140.3418 L101.0571,142.5 L93.6777,142.5 L93.6777,140.3418 L96.1431,140.3418 L96.1431,132.2651 Z " fill="#000000"/><text fill="#000000" font-family="sans-serif" font-size="12" font-style="italic" lengthAdjust="spacing" textLength="112" x="117.75" y="140.5352">StreamOptions&lt;T&gt;</text><line style="stroke:#A80036;stroke-width:1.5;" x1="8" x2="307" y1="152" y2="152"/><ellipse cx="18" cy="163" rx="3" ry="3" style="stroke:#038048;stroke-width:1.0;fill:none;"/><text fill="#000000" font-family="sans-serif" font-size="11" lengthAdjust="spacing" textLength="118" x="27" y="166.6348">autoDestroy : boolean</text><ellipse cx="18" cy="175.9551" rx="3" ry="3" style="stroke:#038048;stroke-width:1.0;fill:none;"/><text fill="#000000" font-family="sans-serif" font-size="11" lengthAdjust="spacing" textLength="105" x="27" y="179.5898">emitClose : boolean</text><ellipse cx="18" cy="188.9102" rx="3" ry="3" style="stroke:#038048;stroke-width:1.0;fill:none;"/><text fill="#000000" font-family="sans-serif" font-size="11" lengthAdjust="spacing" textLength="131" x="27" y="192.5449">highWaterMark : number</text><ellipse cx="18" cy="201.8652" rx="3" ry="3" style="stroke:#038048;stroke-width:1.0;fill:none;"/><text fill="#000000" font-family="sans-serif" font-size="11" lengthAdjust="spacing" textLength="114" x="27" y="205.5">objectMode : boolean</text><ellipse cx="18" cy="214.8203" rx="3" ry="3" style="stroke:#038048;stroke-width:1.0;fill:none;"/><text fill="#000000" font-family="sans-serif" font-size="11" lengthAdjust="spacing" textLength="104" x="27" y="218.4551">signal : AbortSignal</text><ellipse cx="18" cy="227.7754" rx="3" ry="3" style="stroke:#038048;stroke-width:1.0;fill:none;"/><text fill="#000000" font-family="sans-serif" font-size="11" lengthAdjust="spacing" textLength="118" x="27" y="231.4102">autoDestroy : boolean</text><ellipse cx="18" cy="240.7305" rx="3" ry="3" style="stroke:#038048;stroke-width:1.0;fill:none;"/><text fill="#000000" font-family="sans-serif" font-size="11" lengthAdjust="spacing" textLength="105" x="27" y="244.3652">emitClose : boolean</text><ellipse cx="18" cy="253.6855" rx="3" ry="3" style="stroke:#038048;stroke-width:1.0;fill:none;"/><text fill="#000000" font-family="sans-serif" font-size="11" lengthAdjust="spacing" textLength="131" x="27" y="257.3203">highWaterMark : number</text><ellipse cx="18" cy="266.6406" rx="3" ry="3" style="stroke:#038048;stroke-width:1.0;fill:none;"/><text fill="#000000" font-family="sans-serif" font-size="11" lengthAdjust="spacing" textLength="114" x="27" y="270.2754">objectMode : boolean</text><ellipse cx="18" cy="279.5957" rx="3" ry="3" style="stroke:#038048;stroke-width:1.0;fill:none;"/><text fill="#000000" font-family="sans-serif" font-size="11" lengthAdjust="spacing" textLength="104" x="27" y="283.2305">signal : AbortSignal</text><line style="stroke:#A80036;stroke-width:1.5;" x1="8" x2="307" y1="289.5508" y2="289.5508"/><ellipse cx="18" cy="300.5508" fill="#84BE84" rx="3" ry="3" style="stroke:#038048;stroke-width:1.0;"/><text fill="#000000" font-family="sans-serif" font-size="11" lengthAdjust="spacing" textLength="188" x="27" y="304.1855">construct(callback: Function) : void</text><ellipse cx="18" cy="313.5059" fill="#84BE84" rx="3" ry="3" style="stroke:#038048;stroke-width:1.0;"/><text fill="#000000" font-family="sans-serif" font-size="11" lengthAdjust="spacing" textLength="275" x="27" y="317.1406">destroy(error: null | Error, callback: Function) : void</text><ellipse cx="18" cy="326.4609" fill="#84BE84" rx="3" ry="3" style="stroke:#038048;stroke-width:1.0;"/><text fill="#000000" font-family="sans-serif" font-size="11" lengthAdjust="spacing" textLength="188" x="27" y="330.0957">construct(callback: Function) : void</text><ellipse cx="18" cy="339.416" fill="#84BE84" rx="3" ry="3" style="stroke:#038048;stroke-width:1.0;"/><text fill="#000000" font-family="sans-serif" font-size="11" lengthAdjust="spacing" textLength="275" x="27" y="343.0508">destroy(error: null | Error, callback: Function) : void</text><!--MD5=[5d46049211e8ee91de5110edf68820f0]
class FinishedOptions--><rect codeLine="27" fill="#FEFECE" filter="url(#fc7yiuztzqeu0)" height="91.8203" id="FinishedOptions" style="stroke:#A80036;stroke-width:1.5;" width="130" x="343.5" y="188.5"/><ellipse cx="361.65" cy="204.5" fill="#B4A7E5" rx="11" ry="11" style="stroke:#A80036;stroke-width:1.0;"/><path d="M358.0777,200.7651 L358.0777,198.6069 L365.4571,198.6069 L365.4571,200.7651 L362.9918,200.7651 L362.9918,208.8418 L365.4571,208.8418 L365.4571,211 L358.0777,211 L358.0777,208.8418 L360.5431,208.8418 L360.5431,200.7651 Z " fill="#000000"/><text fill="#000000" font-family="sans-serif" font-size="12" font-style="italic" lengthAdjust="spacing" textLength="91" x="376.35" y="209.0352">FinishedOptions</text><line style="stroke:#A80036;stroke-width:1.5;" x1="344.5" x2="472.5" y1="220.5" y2="220.5"/><ellipse cx="354.5" cy="231.5" rx="3" ry="3" style="stroke:#038048;stroke-width:1.0;fill:none;"/><text fill="#000000" font-family="sans-serif" font-size="11" lengthAdjust="spacing" textLength="80" x="363.5" y="235.1348">error : boolean</text><ellipse cx="354.5" cy="244.4551" rx="3" ry="3" style="stroke:#038048;stroke-width:1.0;fill:none;"/><text fill="#000000" font-family="sans-serif" font-size="11" lengthAdjust="spacing" textLength="98" x="363.5" y="248.0898">readable : boolean</text><ellipse cx="354.5" cy="257.4102" rx="3" ry="3" style="stroke:#038048;stroke-width:1.0;fill:none;"/><text fill="#000000" font-family="sans-serif" font-size="11" lengthAdjust="spacing" textLength="104" x="363.5" y="261.0449">signal : AbortSignal</text><ellipse cx="354.5" cy="270.3652" rx="3" ry="3" style="stroke:#038048;stroke-width:1.0;fill:none;"/><text fill="#000000" font-family="sans-serif" font-size="11" lengthAdjust="spacing" textLength="94" x="363.5" y="274">writable : boolean</text><!--MD5=[355e0b3da4149e72528a52d003ed9466]
reverse link Abortable to StreamOptions<T>--><path codeLine="16" d="M146.56,80.42 C145.66,92.39 145.1,105.83 144.87,119.65 " fill="none" id="Abortable-backto-StreamOptions&lt;T&gt;" style="stroke:#A80036;stroke-width:1.0;"/><polygon fill="none" points="139.64,79.3,148.62,60.11,153.57,80.71,139.64,79.3" style="stroke:#A80036;stroke-width:1.0;"/><!--MD5=[355e0b3da4149e72528a52d003ed9466]
reverse link Abortable to StreamOptions<T>--><path codeLine="26" d="M169.08,80.42 C170.03,92.39 170.63,105.83 170.87,119.65 " fill="none" id="Abortable-backto-StreamOptions&lt;T&gt;-1" style="stroke:#A80036;stroke-width:1.0;"/><polygon fill="none" points="162.08,80.74,166.9,60.11,176,79.25,162.08,80.74" style="stroke:#A80036;stroke-width:1.0;"/><!--MD5=[1f612d78291f2edcbdbb12113ede1117]
reverse link Abortable to FinishedOptions--><path codeLine="33" d="M241.14,67.56 C269.7,81.22 300.66,98.86 325.5,120 C348.09,139.22 367.93,165.76 382.55,188.35 " fill="none" id="Abortable-backto-FinishedOptions" style="stroke:#A80036;stroke-width:1.0;"/><polygon fill="none" points="238.08,73.86,222.82,59.16,243.91,61.13,238.08,73.86" style="stroke:#A80036;stroke-width:1.0;"/><!--MD5=[056c84dc1641ba4d2e4f5ac4a54ef6df]
@startuml
skinparam BackgroundColor transparent
hide empty methods
hide empty fields
interface "Abortable" {
    +signal : AbortSignal
}
interface "StreamOptions<T>" {
    +autoDestroy : boolean
    +emitClose : boolean
    +highWaterMark : number
    +objectMode : boolean
    +signal : AbortSignal
    +construct(callback: Function) : void
    +destroy(error: null | Error, callback: Function) : void
}
"Abortable" <|- - "StreamOptions<T>"
interface "StreamOptions<T>" {
    +autoDestroy : boolean
    +emitClose : boolean
    +highWaterMark : number
    +objectMode : boolean
    +signal : AbortSignal
    +construct(callback: Function) : void
    +destroy(error: null | Error, callback: Function) : void
}
"Abortable" <|- - "StreamOptions<T>"
interface "FinishedOptions" {
    +error : boolean
    +readable : boolean
    +signal : AbortSignal
    +writable : boolean
}
"Abortable" <|- - "FinishedOptions"
@enduml

PlantUML version 1.2021.6(Fri May 14 09:09:51 CEST 2021)
(GPL source distribution)
Java Runtime: Java(TM) SE Runtime Environment
JVM: Java HotSpot(TM) 64-Bit Server VM
Default Encoding: UTF-8
Language: en
Country: GB
--></g></svg>