<?xml version="1.0" encoding="UTF-8" standalone="no"?><svg xmlns="http://www.w3.org/2000/svg" xmlns:xlink="http://www.w3.org/1999/xlink" contentScriptType="application/ecmascript" contentStyleType="text/css" height="363px" preserveAspectRatio="none" style="width:526px;height:363px;background:#00000000;" version="1.1" viewBox="0 0 526 363" width="526px" zoomAndPan="magnify"><defs><filter height="300%" id="fw8x7v4yp0brs" width="300%" x="-1" y="-1"><feGaussianBlur result="blurOut" stdDeviation="2.0"/><feColorMatrix in="blurOut" result="blurOut2" type="matrix" values="0 0 0 0 0 0 0 0 0 0 0 0 0 0 0 0 0 0 .4 0"/><feOffset dx="4.0" dy="4.0" in="blurOut2" result="blurOut3"/><feBlend in="SourceGraphic" in2="blurOut3" mode="normal"/></filter></defs><g><!--MD5=[6495451319b5a6ef5a9033a80b2559f9]
class Abortable--><rect codeLine="4" fill="#FEFECE" filter="url(#fw8x7v4yp0brs)" height="52.9551" id="Abortable" style="stroke:#A80036;stroke-width:1.5;" width="130" x="112" y="7"/><ellipse cx="145.45" cy="23" fill="#B4A7E5" rx="11" ry="11" style="stroke:#A80036;stroke-width:1.0;"/><path d="M141.8777,19.2651 L141.8777,17.1069 L149.2571,17.1069 L149.2571,19.2651 L146.7918,19.2651 L146.7918,27.3418 L149.2571,27.3418 L149.2571,29.5 L141.8777,29.5 L141.8777,27.3418 L144.3431,27.3418 L144.3431,19.2651 Z " fill="#000000"/><text fill="#000000" font-family="sans-serif" font-size="12" font-style="italic" lengthAdjust="spacing" textLength="57" x="163.55" y="27.5352">Abortable</text><line style="stroke:#A80036;stroke-width:1.5;" x1="113" x2="241" y1="39" y2="39"/><ellipse cx="123" cy="50" rx="3" ry="3" style="stroke:#038048;stroke-width:1.0;fill:none;"/><text fill="#000000" font-family="sans-serif" font-size="11" lengthAdjust="spacing" textLength="104" x="132" y="53.6348">signal : AbortSignal</text><!--MD5=[1e10edcb77e28f9ea12bdc3fdb61c4c5]
class StreamOptions<T>--><rect codeLine="17" fill="#FEFECE" filter="url(#fw8x7v4yp0brs)" height="229.3711" id="StreamOptions&lt;T&gt;" style="stroke:#A80036;stroke-width:1.5;" width="340" x="7" y="120"/><ellipse cx="116.75" cy="136" fill="#B4A7E5" rx="11" ry="11" style="stroke:#A80036;stroke-width:1.0;"/><path d="M113.1777,132.2651 L113.1777,130.1069 L120.5571,130.1069 L120.5571,132.2651 L118.0918,132.2651 L118.0918,140.3418 L120.5571,140.3418 L120.5571,142.5 L113.1777,142.5 L113.1777,140.3418 L115.6431,140.3418 L115.6431,132.2651 Z " fill="#000000"/><text fill="#000000" font-family="sans-serif" font-size="12" font-style="italic" lengthAdjust="spacing" textLength="112" x="137.25" y="140.5352">StreamOptions&lt;T&gt;</text><line style="stroke:#A80036;stroke-width:1.5;" x1="8" x2="346" y1="152" y2="152"/><ellipse cx="18" cy="163" rx="3" ry="3" style="stroke:#038048;stroke-width:1.0;fill:none;"/><text fill="#000000" font-family="sans-serif" font-size="11" lengthAdjust="spacing" textLength="118" x="27" y="166.6348">autoDestroy : boolean</text><ellipse cx="18" cy="175.9551" rx="3" ry="3" style="stroke:#038048;stroke-width:1.0;fill:none;"/><text fill="#000000" font-family="sans-serif" font-size="11" lengthAdjust="spacing" textLength="105" x="27" y="179.5898">emitClose : boolean</text><ellipse cx="18" cy="188.9102" rx="3" ry="3" style="stroke:#038048;stroke-width:1.0;fill:none;"/><text fill="#000000" font-family="sans-serif" font-size="11" lengthAdjust="spacing" textLength="131" x="27" y="192.5449">highWaterMark : number</text><ellipse cx="18" cy="201.8652" rx="3" ry="3" style="stroke:#038048;stroke-width:1.0;fill:none;"/><text fill="#000000" font-family="sans-serif" font-size="11" lengthAdjust="spacing" textLength="114" x="27" y="205.5">objectMode : boolean</text><ellipse cx="18" cy="214.8203" rx="3" ry="3" style="stroke:#038048;stroke-width:1.0;fill:none;"/><text fill="#000000" font-family="sans-serif" font-size="11" lengthAdjust="spacing" textLength="104" x="27" y="218.4551">signal : AbortSignal</text><ellipse cx="18" cy="227.7754" rx="3" ry="3" style="stroke:#038048;stroke-width:1.0;fill:none;"/><text fill="#000000" font-family="sans-serif" font-size="11" lengthAdjust="spacing" textLength="118" x="27" y="231.4102">autoDestroy : boolean</text><ellipse cx="18" cy="240.7305" rx="3" ry="3" style="stroke:#038048;stroke-width:1.0;fill:none;"/><text fill="#000000" font-family="sans-serif" font-size="11" lengthAdjust="spacing" textLength="105" x="27" y="244.3652">emitClose : boolean</text><ellipse cx="18" cy="253.6855" rx="3" ry="3" style="stroke:#038048;stroke-width:1.0;fill:none;"/><text fill="#000000" font-family="sans-serif" font-size="11" lengthAdjust="spacing" textLength="131" x="27" y="257.3203">highWaterMark : number</text><ellipse cx="18" cy="266.6406" rx="3" ry="3" style="stroke:#038048;stroke-width:1.0;fill:none;"/><text fill="#000000" font-family="sans-serif" font-size="11" lengthAdjust="spacing" textLength="114" x="27" y="270.2754">objectMode : boolean</text><ellipse cx="18" cy="279.5957" rx="3" ry="3" style="stroke:#038048;stroke-width:1.0;fill:none;"/><text fill="#000000" font-family="sans-serif" font-size="11" lengthAdjust="spacing" textLength="104" x="27" y="283.2305">signal : AbortSignal</text><line style="stroke:#A80036;stroke-width:1.5;" x1="8" x2="346" y1="289.5508" y2="289.5508"/><ellipse cx="18" cy="300.5508" fill="#84BE84" rx="3" ry="3" style="stroke:#038048;stroke-width:1.0;"/><text fill="#000000" font-family="sans-serif" font-size="11" lengthAdjust="spacing" textLength="227" x="27" y="304.1855">construct(this: T, callback: Function) : void</text><ellipse cx="18" cy="313.5059" fill="#84BE84" rx="3" ry="3" style="stroke:#038048;stroke-width:1.0;"/><text fill="#000000" font-family="sans-serif" font-size="11" lengthAdjust="spacing" textLength="314" x="27" y="317.1406">destroy(this: T, error: null | Error, callback: Function) : void</text><ellipse cx="18" cy="326.4609" fill="#84BE84" rx="3" ry="3" style="stroke:#038048;stroke-width:1.0;"/><text fill="#000000" font-family="sans-serif" font-size="11" lengthAdjust="spacing" textLength="227" x="27" y="330.0957">construct(this: T, callback: Function) : void</text><ellipse cx="18" cy="339.416" fill="#84BE84" rx="3" ry="3" style="stroke:#038048;stroke-width:1.0;"/><text fill="#000000" font-family="sans-serif" font-size="11" lengthAdjust="spacing" textLength="314" x="27" y="343.0508">destroy(this: T, error: null | Error, callback: Function) : void</text><!--MD5=[5d46049211e8ee91de5110edf68820f0]
class FinishedOptions--><rect codeLine="27" fill="#FEFECE" filter="url(#fw8x7v4yp0brs)" height="91.8203" id="FinishedOptions" style="stroke:#A80036;stroke-width:1.5;" width="130" x="382" y="188.5"/><ellipse cx="400.15" cy="204.5" fill="#B4A7E5" rx="11" ry="11" style="stroke:#A80036;stroke-width:1.0;"/><path d="M396.5777,200.7651 L396.5777,198.6069 L403.9571,198.6069 L403.9571,200.7651 L401.4918,200.7651 L401.4918,208.8418 L403.9571,208.8418 L403.9571,211 L396.5777,211 L396.5777,208.8418 L399.0431,208.8418 L399.0431,200.7651 Z " fill="#000000"/><text fill="#000000" font-family="sans-serif" font-size="12" font-style="italic" lengthAdjust="spacing" textLength="91" x="414.85" y="209.0352">FinishedOptions</text><line style="stroke:#A80036;stroke-width:1.5;" x1="383" x2="511" y1="220.5" y2="220.5"/><ellipse cx="393" cy="231.5" rx="3" ry="3" style="stroke:#038048;stroke-width:1.0;fill:none;"/><text fill="#000000" font-family="sans-serif" font-size="11" lengthAdjust="spacing" textLength="80" x="402" y="235.1348">error : boolean</text><ellipse cx="393" cy="244.4551" rx="3" ry="3" style="stroke:#038048;stroke-width:1.0;fill:none;"/><text fill="#000000" font-family="sans-serif" font-size="11" lengthAdjust="spacing" textLength="98" x="402" y="248.0898">readable : boolean</text><ellipse cx="393" cy="257.4102" rx="3" ry="3" style="stroke:#038048;stroke-width:1.0;fill:none;"/><text fill="#000000" font-family="sans-serif" font-size="11" lengthAdjust="spacing" textLength="104" x="402" y="261.0449">signal : AbortSignal</text><ellipse cx="393" cy="270.3652" rx="3" ry="3" style="stroke:#038048;stroke-width:1.0;fill:none;"/><text fill="#000000" font-family="sans-serif" font-size="11" lengthAdjust="spacing" textLength="94" x="402" y="274">writable : boolean</text><!--MD5=[355e0b3da4149e72528a52d003ed9466]
reverse link Abortable to StreamOptions<T>--><path codeLine="16" d="M166.06,80.42 C165.16,92.39 164.6,105.83 164.37,119.65 " fill="none" id="Abortable-backto-StreamOptions&lt;T&gt;" style="stroke:#A80036;stroke-width:1.0;"/><polygon fill="none" points="159.14,79.3,168.12,60.11,173.07,80.71,159.14,79.3" style="stroke:#A80036;stroke-width:1.0;"/><!--MD5=[355e0b3da4149e72528a52d003ed9466]
reverse link Abortable to StreamOptions<T>--><path codeLine="26" d="M188.58,80.42 C189.53,92.39 190.13,105.83 190.37,119.65 " fill="none" id="Abortable-backto-StreamOptions&lt;T&gt;-1" style="stroke:#A80036;stroke-width:1.0;"/><polygon fill="none" points="181.58,80.74,186.4,60.11,195.5,79.25,181.58,80.74" style="stroke:#A80036;stroke-width:1.0;"/><!--MD5=[1f612d78291f2edcbdbb12113ede1117]
reverse link Abortable to FinishedOptions--><path codeLine="33" d="M261.3,61.98 C295.76,75.86 334.59,95.11 365,120 C388.04,138.86 407.81,165.66 422.16,188.48 " fill="none" id="Abortable-backto-FinishedOptions" style="stroke:#A80036;stroke-width:1.0;"/><polygon fill="none" points="258.3,68.33,242.14,54.63,263.32,55.26,258.3,68.33" style="stroke:#A80036;stroke-width:1.0;"/><!--MD5=[20cc46dd3b6ad77cf216330025fb2d30]
@startuml
skinparam BackgroundColor transparent
hide empty methods
hide empty fields
interface "Abortable" {
    +signal : AbortSignal
}
interface "StreamOptions<T>" {
    +autoDestroy : boolean
    +emitClose : boolean
    +highWaterMark : number
    +objectMode : boolean
    +signal : AbortSignal
    +construct(this: T, callback: Function) : void
    +destroy(this: T, error: null | Error, callback: Function) : void
}
"Abortable" <|- - "StreamOptions<T>"
interface "StreamOptions<T>" {
    +autoDestroy : boolean
    +emitClose : boolean
    +highWaterMark : number
    +objectMode : boolean
    +signal : AbortSignal
    +construct(this: T, callback: Function) : void
    +destroy(this: T, error: null | Error, callback: Function) : void
}
"Abortable" <|- - "StreamOptions<T>"
interface "FinishedOptions" {
    +error : boolean
    +readable : boolean
    +signal : AbortSignal
    +writable : boolean
}
"Abortable" <|- - "FinishedOptions"
@enduml

PlantUML version 1.2021.14(Fri Nov 12 17:46:50 CET 2021)
(GPL source distribution)
Java Runtime: Java(TM) SE Runtime Environment
JVM: Java HotSpot(TM) 64-Bit Server VM
Default Encoding: UTF-8
Language: en
Country: GB
--></g></svg>