<?xml version="1.0" encoding="UTF-8" standalone="no"?><svg xmlns="http://www.w3.org/2000/svg" xmlns:xlink="http://www.w3.org/1999/xlink" contentScriptType="application/ecmascript" contentStyleType="text/css" height="225px" preserveAspectRatio="none" style="width:197px;height:225px;background:#00000000;" version="1.1" viewBox="0 0 197 225" width="197px" zoomAndPan="magnify"><defs><filter height="300%" id="f157ngjx38slvc" width="300%" x="-1" y="-1"><feGaussianBlur result="blurOut" stdDeviation="2.0"/><feColorMatrix in="blurOut" result="blurOut2" type="matrix" values="0 0 0 0 0 0 0 0 0 0 0 0 0 0 0 0 0 0 .4 0"/><feOffset dx="4.0" dy="4.0" in="blurOut2" result="blurOut3"/><feBlend in="SourceGraphic" in2="blurOut3" mode="normal"/></filter></defs><g><!--MD5=[d14cd0541f9c6d49f8e3cd7b531e14bc]
class AddEventListenerOptions--><rect codeLine="4" fill="#FEFECE" filter="url(#f157ngjx38slvc)" height="91.8203" id="AddEventListenerOptions" style="stroke:#A80036;stroke-width:1.5;" width="176" x="7" y="120"/><ellipse cx="22" cy="136" fill="#B4A7E5" rx="11" ry="11" style="stroke:#A80036;stroke-width:1.0;"/><path d="M18.4277,132.2651 L18.4277,130.1069 L25.8071,130.1069 L25.8071,132.2651 L23.3418,132.2651 L23.3418,140.3418 L25.8071,140.3418 L25.8071,142.5 L18.4277,142.5 L18.4277,140.3418 L20.8931,140.3418 L20.8931,132.2651 Z " fill="#000000"/><text fill="#000000" font-family="sans-serif" font-size="12" font-style="italic" lengthAdjust="spacing" textLength="144" x="36" y="140.5352">AddEventListenerOptions</text><line style="stroke:#A80036;stroke-width:1.5;" x1="8" x2="182" y1="152" y2="152"/><ellipse cx="18" cy="163" rx="3" ry="3" style="stroke:#038048;stroke-width:1.0;fill:none;"/><text fill="#000000" font-family="sans-serif" font-size="11" lengthAdjust="spacing" textLength="93" x="27" y="166.6348">capture : boolean</text><ellipse cx="18" cy="175.9551" rx="3" ry="3" style="stroke:#038048;stroke-width:1.0;fill:none;"/><text fill="#000000" font-family="sans-serif" font-size="11" lengthAdjust="spacing" textLength="78" x="27" y="179.5898">once : boolean</text><ellipse cx="18" cy="188.9102" rx="3" ry="3" style="stroke:#038048;stroke-width:1.0;fill:none;"/><text fill="#000000" font-family="sans-serif" font-size="11" lengthAdjust="spacing" textLength="92" x="27" y="192.5449">passive : boolean</text><ellipse cx="18" cy="201.8652" rx="3" ry="3" style="stroke:#038048;stroke-width:1.0;fill:none;"/><text fill="#000000" font-family="sans-serif" font-size="11" lengthAdjust="spacing" textLength="104" x="27" y="205.5">signal : AbortSignal</text><!--MD5=[bf3431fe263717177ff4e066405b60fe]
class EventListenerOptions--><rect codeLine="10" fill="#FEFECE" filter="url(#f157ngjx38slvc)" height="52.9551" id="EventListenerOptions" style="stroke:#A80036;stroke-width:1.5;" width="152" x="19" y="7"/><ellipse cx="34" cy="23" fill="#B4A7E5" rx="11" ry="11" style="stroke:#A80036;stroke-width:1.0;"/><path d="M30.4277,19.2651 L30.4277,17.1069 L37.8071,17.1069 L37.8071,19.2651 L35.3418,19.2651 L35.3418,27.3418 L37.8071,27.3418 L37.8071,29.5 L30.4277,29.5 L30.4277,27.3418 L32.8931,27.3418 L32.8931,19.2651 Z " fill="#000000"/><text fill="#000000" font-family="sans-serif" font-size="12" font-style="italic" lengthAdjust="spacing" textLength="120" x="48" y="27.5352">EventListenerOptions</text><line style="stroke:#A80036;stroke-width:1.5;" x1="20" x2="170" y1="39" y2="39"/><ellipse cx="30" cy="50" rx="3" ry="3" style="stroke:#038048;stroke-width:1.0;fill:none;"/><text fill="#000000" font-family="sans-serif" font-size="11" lengthAdjust="spacing" textLength="93" x="39" y="53.6348">capture : boolean</text><!--MD5=[d58f7275f382067941da2b7f9a05d372]
reverse link EventListenerOptions to AddEventListenerOptions--><path codeLine="13" d="M95,80.45 C95,93.28 95,107.2 95,119.98 " fill="none" id="EventListenerOptions-backto-AddEventListenerOptions" style="stroke:#A80036;stroke-width:1.0;"/><polygon fill="none" points="88,80.28,95,60.28,102,80.28,88,80.28" style="stroke:#A80036;stroke-width:1.0;"/><!--MD5=[fe4a129282d8d3b57b60a53ee2bad4ce]
@startuml
skinparam BackgroundColor transparent
hide empty methods
hide empty fields
interface "AddEventListenerOptions" {
    +capture : boolean
    +once : boolean
    +passive : boolean
    +signal : AbortSignal
}
interface "EventListenerOptions" {
    +capture : boolean
}
"EventListenerOptions" <|- - "AddEventListenerOptions"
@enduml

PlantUML version 1.2021.6(Fri May 14 09:09:51 CEST 2021)
(GPL source distribution)
Java Runtime: Java(TM) SE Runtime Environment
JVM: Java HotSpot(TM) 64-Bit Server VM
Default Encoding: UTF-8
Language: en
Country: GB
--></g></svg>