<?xml version="1.0" encoding="UTF-8" standalone="no"?><svg xmlns="http://www.w3.org/2000/svg" xmlns:xlink="http://www.w3.org/1999/xlink" contentScriptType="application/ecmascript" contentStyleType="text/css" height="254px" preserveAspectRatio="none" style="width:539px;height:254px;background:#00000000;" version="1.1" viewBox="0 0 539 254" width="539px" zoomAndPan="magnify"><defs><filter height="300%" id="fp2m8p838ercv" width="300%" x="-1" y="-1"><feGaussianBlur result="blurOut" stdDeviation="2.0"/><feColorMatrix in="blurOut" result="blurOut2" type="matrix" values="0 0 0 0 0 0 0 0 0 0 0 0 0 0 0 0 0 0 .4 0"/><feOffset dx="4.0" dy="4.0" in="blurOut2" result="blurOut3"/><feBlend in="SourceGraphic" in2="blurOut3" mode="normal"/></filter></defs><g><!--MD5=[b1b50d4b22598ee818e25c7993e6e4db]
class ApplyOAuthRefreshHttpHeaderWrapper--><rect codeLine="4" fill="#FEFECE" filter="url(#fp2m8p838ercv)" height="86.8652" id="ApplyOAuthRefreshHttpHeaderWrapper" style="stroke:#A80036;stroke-width:1.5;" width="479" x="27.5" y="154"/><ellipse cx="147.75" cy="170" fill="#ADD1B2" rx="11" ry="11" style="stroke:#A80036;stroke-width:1.0;"/><path d="M150.2231,176.1431 Q149.6421,176.4419 149.0029,176.5913 Q148.3638,176.7407 147.6582,176.7407 Q145.1514,176.7407 143.8315,175.0889 Q142.5117,173.437 142.5117,170.3159 Q142.5117,167.1865 143.8315,165.5347 Q145.1514,163.8828 147.6582,163.8828 Q148.3638,163.8828 149.0112,164.0322 Q149.6587,164.1816 150.2231,164.4805 L150.2231,167.2031 Q149.5923,166.6221 148.9988,166.3523 Q148.4053,166.0825 147.7744,166.0825 Q146.4297,166.0825 145.7449,167.1492 Q145.0601,168.2158 145.0601,170.3159 Q145.0601,172.4077 145.7449,173.4744 Q146.4297,174.541 147.7744,174.541 Q148.4053,174.541 148.9988,174.2712 Q149.5923,174.0015 150.2231,173.4204 Z " fill="#000000"/><text fill="#000000" font-family="sans-serif" font-size="12" lengthAdjust="spacing" textLength="230" x="168.25" y="174.5352">ApplyOAuthRefreshHttpHeaderWrapper</text><line style="stroke:#A80036;stroke-width:1.5;" x1="28.5" x2="505.5" y1="186" y2="186"/><polygon fill="none" points="38.5,192,42.5,196,38.5,200,34.5,196" style="stroke:#B38D22;stroke-width:1.0;"/><text fill="#000000" font-family="sans-serif" font-size="11" lengthAdjust="spacing" textLength="195" x="47.5" y="200.6348">authenticationData : OauthResponse</text><line style="stroke:#A80036;stroke-width:1.5;" x1="28.5" x2="505.5" y1="206.9551" y2="206.9551"/><ellipse cx="38.5" cy="217.9551" fill="#84BE84" rx="3" ry="3" style="stroke:#038048;stroke-width:1.0;"/><text fill="#000000" font-family="sans-serif" font-size="11" lengthAdjust="spacing" textLength="453" x="47.5" y="221.5898">authenticate(requestOptionContainer: RequestOptions) : Promise&lt;RequestOptions&gt;</text><ellipse cx="38.5" cy="230.9102" fill="#84BE84" rx="3" ry="3" style="stroke:#038048;stroke-width:1.0;"/><text fill="#000000" font-family="sans-serif" font-size="11" lengthAdjust="spacing" textLength="173" x="47.5" y="234.5449">refreshToken() : Promise&lt;void&gt;</text><!--MD5=[b572a895cc4cc8cc0298d475691e2d84]
class ApplyOauthAuthorizationHttpHeaderWrapper--><rect codeLine="9" fill="#FEFECE" filter="url(#fp2m8p838ercv)" height="86.8652" id="ApplyOauthAuthorizationHttpHeaderWrapper" style="stroke:#A80036;stroke-width:1.5;" width="516" x="9" y="7"/><ellipse cx="132.25" cy="23" fill="#ADD1B2" rx="11" ry="11" style="stroke:#A80036;stroke-width:1.0;"/><path d="M134.7231,29.1431 Q134.1421,29.4419 133.5029,29.5913 Q132.8638,29.7407 132.1582,29.7407 Q129.6514,29.7407 128.3315,28.0889 Q127.0117,26.437 127.0117,23.3159 Q127.0117,20.1865 128.3315,18.5347 Q129.6514,16.8828 132.1582,16.8828 Q132.8638,16.8828 133.5112,17.0322 Q134.1587,17.1816 134.7231,17.4805 L134.7231,20.2031 Q134.0923,19.6221 133.4988,19.3523 Q132.9053,19.0825 132.2744,19.0825 Q130.9297,19.0825 130.2449,20.1492 Q129.5601,21.2158 129.5601,23.3159 Q129.5601,25.4077 130.2449,26.4744 Q130.9297,27.541 132.2744,27.541 Q132.9053,27.541 133.4988,27.2712 Q134.0923,27.0015 134.7231,26.4204 Z " fill="#000000"/><text fill="#000000" font-family="sans-serif" font-size="12" lengthAdjust="spacing" textLength="261" x="152.75" y="27.5352">ApplyOauthAuthorizationHttpHeaderWrapper</text><line style="stroke:#A80036;stroke-width:1.5;" x1="10" x2="524" y1="39" y2="39"/><polygon fill="none" points="20,45,24,49,20,53,16,49" style="stroke:#B38D22;stroke-width:1.0;"/><text fill="#000000" font-family="sans-serif" font-size="11" lengthAdjust="spacing" textLength="195" x="29" y="53.6348">authenticationData : OauthResponse</text><line style="stroke:#A80036;stroke-width:1.5;" x1="10" x2="524" y1="59.9551" y2="59.9551"/><ellipse cx="20" cy="70.9551" fill="#84BE84" rx="3" ry="3" style="stroke:#038048;stroke-width:1.0;"/><text fill="#000000" font-family="sans-serif" font-size="11" lengthAdjust="spacing" textLength="453" x="29" y="74.5898">authenticate(requestOptionContainer: RequestOptions) : Promise&lt;RequestOptions&gt;</text><rect fill="#F24D5C" height="6" style="stroke:#C82930;stroke-width:1.0;" width="6" x="17" y="80.9102"/><text fill="#000000" font-family="sans-serif" font-size="11" lengthAdjust="spacing" textLength="490" x="29" y="87.5449">applyAuthorizationHeader(options: RequestOptions, accessToken: string) : RequestOptions</text><!--MD5=[a77f3de9bc152bc962f311192151654b]
reverse link ApplyOauthAuthorizationHttpHeaderWrapper to ApplyOAuthRefreshHttpHeaderWrapper--><path codeLine="14" d="M267,114.39 C267,127.62 267,141.29 267,153.58 " fill="none" id="ApplyOauthAuthorizationHttpHeaderWrapper-backto-ApplyOAuthRefreshHttpHeaderWrapper" style="stroke:#A80036;stroke-width:1.0;"/><polygon fill="none" points="260,114.22,267,94.22,274,114.22,260,114.22" style="stroke:#A80036;stroke-width:1.0;"/><!--MD5=[8e1e8ee4134a1c62c25c832f1068ce22]
@startuml
skinparam BackgroundColor transparent
hide empty methods
hide empty fields
class "ApplyOAuthRefreshHttpHeaderWrapper" {
    #authenticationData : OauthResponse
    +authenticate(requestOptionContainer: RequestOptions) : Promise<RequestOptions>
    +refreshToken() : Promise<void>
}
class "ApplyOauthAuthorizationHttpHeaderWrapper" {
    #authenticationData : OauthResponse
    +authenticate(requestOptionContainer: RequestOptions) : Promise<RequestOptions>
    -applyAuthorizationHeader(options: RequestOptions, accessToken: string) : RequestOptions
}
"ApplyOauthAuthorizationHttpHeaderWrapper" <|- - "ApplyOAuthRefreshHttpHeaderWrapper"
@enduml

PlantUML version 1.2021.6(Fri May 14 09:09:51 CEST 2021)
(GPL source distribution)
Java Runtime: Java(TM) SE Runtime Environment
JVM: Java HotSpot(TM) 64-Bit Server VM
Default Encoding: UTF-8
Language: en
Country: GB
--></g></svg>