<?xml version="1.0" encoding="UTF-8" standalone="no"?><svg xmlns="http://www.w3.org/2000/svg" xmlns:xlink="http://www.w3.org/1999/xlink" contentScriptType="application/ecmascript" contentStyleType="text/css" height="241px" preserveAspectRatio="none" style="width:502px;height:241px;background:#00000000;" version="1.1" viewBox="0 0 502 241" width="502px" zoomAndPan="magnify"><defs><filter height="300%" id="fjr0mkuqhdmwx" width="300%" x="-1" y="-1"><feGaussianBlur result="blurOut" stdDeviation="2.0"/><feColorMatrix in="blurOut" result="blurOut2" type="matrix" values="0 0 0 0 0 0 0 0 0 0 0 0 0 0 0 0 0 0 .4 0"/><feOffset dx="4.0" dy="4.0" in="blurOut2" result="blurOut3"/><feBlend in="SourceGraphic" in2="blurOut3" mode="normal"/></filter></defs><g><!--MD5=[2ffc45fc783a25c369981d420eaaa800]
class ApplyJwtHttpHeaderWrapper--><rect codeLine="4" fill="#FEFECE" filter="url(#fjr0mkuqhdmwx)" height="73.9102" id="ApplyJwtHttpHeaderWrapper" style="stroke:#A80036;stroke-width:1.5;" width="479" x="9" y="154"/><ellipse cx="160.25" cy="170" fill="#ADD1B2" rx="11" ry="11" style="stroke:#A80036;stroke-width:1.0;"/><path d="M162.7231,176.1431 Q162.1421,176.4419 161.5029,176.5913 Q160.8638,176.7407 160.1582,176.7407 Q157.6514,176.7407 156.3315,175.0889 Q155.0117,173.437 155.0117,170.3159 Q155.0117,167.1865 156.3315,165.5347 Q157.6514,163.8828 160.1582,163.8828 Q160.8638,163.8828 161.5112,164.0322 Q162.1587,164.1816 162.7231,164.4805 L162.7231,167.2031 Q162.0923,166.6221 161.4988,166.3523 Q160.9053,166.0825 160.2744,166.0825 Q158.9297,166.0825 158.2449,167.1492 Q157.5601,168.2158 157.5601,170.3159 Q157.5601,172.4077 158.2449,173.4744 Q158.9297,174.541 160.2744,174.541 Q160.9053,174.541 161.4988,174.2712 Q162.0923,174.0015 162.7231,173.4204 Z " fill="#000000"/><text fill="#000000" font-family="sans-serif" font-size="12" lengthAdjust="spacing" textLength="168" x="180.75" y="174.5352">ApplyJwtHttpHeaderWrapper</text><line style="stroke:#A80036;stroke-width:1.5;" x1="10" x2="487" y1="186" y2="186"/><polygon fill="none" points="20,192,24,196,20,200,16,196" style="stroke:#B38D22;stroke-width:1.0;"/><text fill="#000000" font-family="sans-serif" font-size="11" lengthAdjust="spacing" textLength="228" x="29" y="200.6348">authenticationData : AuthorizationHeaders</text><line style="stroke:#A80036;stroke-width:1.5;" x1="10" x2="487" y1="206.9551" y2="206.9551"/><ellipse cx="20" cy="217.9551" fill="#84BE84" rx="3" ry="3" style="stroke:#038048;stroke-width:1.0;"/><text fill="#000000" font-family="sans-serif" font-size="11" lengthAdjust="spacing" textLength="453" x="29" y="221.5898">authenticate(requestOptionContainer: RequestOptions) : Promise&lt;RequestOptions&gt;</text><!--MD5=[b628c1ae5dbb64f77a835e19ed5059b3]
class applyAuthorizationHttpHeaderWrapper--><rect codeLine="8" fill="#FEFECE" filter="url(#fjr0mkuqhdmwx)" height="86.8652" id="applyAuthorizationHttpHeaderWrapper" style="stroke:#A80036;stroke-width:1.5;" width="479" x="9" y="7"/><ellipse cx="131.25" cy="23" fill="#ADD1B2" rx="11" ry="11" style="stroke:#A80036;stroke-width:1.0;"/><path d="M133.7231,29.1431 Q133.1421,29.4419 132.5029,29.5913 Q131.8638,29.7407 131.1582,29.7407 Q128.6514,29.7407 127.3315,28.0889 Q126.0117,26.437 126.0117,23.3159 Q126.0117,20.1865 127.3315,18.5347 Q128.6514,16.8828 131.1582,16.8828 Q131.8638,16.8828 132.5112,17.0322 Q133.1587,17.1816 133.7231,17.4805 L133.7231,20.2031 Q133.0923,19.6221 132.4988,19.3523 Q131.9053,19.0825 131.2744,19.0825 Q129.9297,19.0825 129.2449,20.1492 Q128.5601,21.2158 128.5601,23.3159 Q128.5601,25.4077 129.2449,26.4744 Q129.9297,27.541 131.2744,27.541 Q131.9053,27.541 132.4988,27.2712 Q133.0923,27.0015 133.7231,26.4204 Z " fill="#000000"/><text fill="#000000" font-family="sans-serif" font-size="12" lengthAdjust="spacing" textLength="226" x="151.75" y="27.5352">applyAuthorizationHttpHeaderWrapper</text><line style="stroke:#A80036;stroke-width:1.5;" x1="10" x2="487" y1="39" y2="39"/><polygon fill="none" points="20,45,24,49,20,53,16,49" style="stroke:#B38D22;stroke-width:1.0;"/><text fill="#000000" font-family="sans-serif" font-size="11" lengthAdjust="spacing" textLength="228" x="29" y="53.6348">authenticationData : AuthorizationHeaders</text><line style="stroke:#A80036;stroke-width:1.5;" x1="10" x2="487" y1="59.9551" y2="59.9551"/><ellipse cx="20" cy="70.9551" fill="#84BE84" rx="3" ry="3" style="stroke:#038048;stroke-width:1.0;"/><text fill="#000000" font-family="sans-serif" font-size="11" lengthAdjust="spacing" textLength="453" x="29" y="74.5898">authenticate(requestOptionContainer: RequestOptions) : Promise&lt;RequestOptions&gt;</text><rect fill="#F24D5C" height="6" style="stroke:#C82930;stroke-width:1.0;" width="6" x="17" y="80.9102"/><text fill="#000000" font-family="sans-serif" font-size="11" lengthAdjust="spacing" textLength="377" x="29" y="87.5449">applyAuthorizationHeader(options: RequestOptions) : RequestOptions</text><!--MD5=[72c8df771162aa9ce20276e5c40cb4a1]
reverse link applyAuthorizationHttpHeaderWrapper to ApplyJwtHttpHeaderWrapper--><path codeLine="13" d="M248.5,114.21 C248.5,127.76 248.5,141.64 248.5,153.76 " fill="none" id="applyAuthorizationHttpHeaderWrapper-backto-ApplyJwtHttpHeaderWrapper" style="stroke:#A80036;stroke-width:1.0;"/><polygon fill="none" points="241.5,114.18,248.5,94.18,255.5,114.18,241.5,114.18" style="stroke:#A80036;stroke-width:1.0;"/><!--MD5=[80b8f6d64de2912844f0700325af98ad]
@startuml
skinparam BackgroundColor transparent
hide empty methods
hide empty fields
class "ApplyJwtHttpHeaderWrapper" {
    #authenticationData : AuthorizationHeaders
    +authenticate(requestOptionContainer: RequestOptions) : Promise<RequestOptions>
}
class "applyAuthorizationHttpHeaderWrapper" {
    #authenticationData : AuthorizationHeaders
    +authenticate(requestOptionContainer: RequestOptions) : Promise<RequestOptions>
    -applyAuthorizationHeader(options: RequestOptions) : RequestOptions
}
"applyAuthorizationHttpHeaderWrapper" <|- - "ApplyJwtHttpHeaderWrapper"
@enduml

PlantUML version 1.2021.14(Fri Nov 12 17:46:50 CET 2021)
(GPL source distribution)
Java Runtime: Java(TM) SE Runtime Environment
JVM: Java HotSpot(TM) 64-Bit Server VM
Default Encoding: UTF-8
Language: en
Country: GB
--></g></svg>