<?xml version="1.0" encoding="UTF-8" standalone="no"?><svg xmlns="http://www.w3.org/2000/svg" xmlns:xlink="http://www.w3.org/1999/xlink" contentScriptType="application/ecmascript" contentStyleType="text/css" height="199px" preserveAspectRatio="none" style="width:500px;height:199px;background:#00000000;" version="1.1" viewBox="0 0 500 199" width="500px" zoomAndPan="magnify"><defs><filter height="300%" id="f1tazbeg3zhacx" width="300%" x="-1" y="-1"><feGaussianBlur result="blurOut" stdDeviation="2.0"/><feColorMatrix in="blurOut" result="blurOut2" type="matrix" values="0 0 0 0 0 0 0 0 0 0 0 0 0 0 0 0 0 0 .4 0"/><feOffset dx="4.0" dy="4.0" in="blurOut2" result="blurOut3"/><feBlend in="SourceGraphic" in2="blurOut3" mode="normal"/></filter></defs><g><!--MD5=[be12974000be06d830b0e74153dd0842]
class ApplyQueryStringWrapper--><rect codeLine="4" fill="#FEFECE" filter="url(#f1tazbeg3zhacx)" height="65.9102" id="ApplyQueryStringWrapper" style="stroke:#A80036;stroke-width:1.5;" width="479" x="7" y="120"/><ellipse cx="167.75" cy="136" fill="#ADD1B2" rx="11" ry="11" style="stroke:#A80036;stroke-width:1.0;"/><path d="M170.2231,142.1431 Q169.6421,142.4419 169.0029,142.5913 Q168.3638,142.7407 167.6582,142.7407 Q165.1514,142.7407 163.8315,141.0889 Q162.5117,139.437 162.5117,136.3159 Q162.5117,133.1865 163.8315,131.5347 Q165.1514,129.8828 167.6582,129.8828 Q168.3638,129.8828 169.0112,130.0322 Q169.6587,130.1816 170.2231,130.4805 L170.2231,133.2031 Q169.5923,132.6221 168.9988,132.3523 Q168.4053,132.0825 167.7744,132.0825 Q166.4297,132.0825 165.7449,133.1492 Q165.0601,134.2158 165.0601,136.3159 Q165.0601,138.4077 165.7449,139.4744 Q166.4297,140.541 167.7744,140.541 Q168.4053,140.541 168.9988,140.2712 Q169.5923,140.0015 170.2231,139.4204 Z " fill="#000000"/><text fill="#000000" font-family="sans-serif" font-size="12" lengthAdjust="spacing" textLength="149" x="188.25" y="140.5352">ApplyQueryStringWrapper</text><line style="stroke:#A80036;stroke-width:1.5;" x1="8" x2="485" y1="152" y2="152"/><ellipse cx="18" cy="163" fill="#84BE84" rx="3" ry="3" style="stroke:#038048;stroke-width:1.0;"/><text fill="#000000" font-family="sans-serif" font-size="11" lengthAdjust="spacing" textLength="453" x="27" y="166.6348">authenticate(requestOptionContainer: RequestOptions) : Promise&lt;RequestOptions&gt;</text><rect fill="#F24D5C" height="6" style="stroke:#C82930;stroke-width:1.0;" width="6" x="15" y="172.9551"/><text fill="#000000" font-family="sans-serif" font-size="11" lengthAdjust="spacing" textLength="449" x="27" y="179.5898">applyAuthParametersToPath(options: RequestOptions) : Promise&lt;RequestOptions&gt;</text><!--MD5=[f18ac0e6b46fad41f096bfde65eea3c9]
class TapjawAuthenticationWrapper--><rect codeLine="8" fill="#FEFECE" filter="url(#f1tazbeg3zhacx)" height="52.9551" id="TapjawAuthenticationWrapper" style="stroke:#A80036;stroke-width:1.5;" width="405" x="44" y="7"/><ellipse cx="155.25" cy="23" fill="#B4A7E5" rx="11" ry="11" style="stroke:#A80036;stroke-width:1.0;"/><path d="M151.6777,19.2651 L151.6777,17.1069 L159.0571,17.1069 L159.0571,19.2651 L156.5918,19.2651 L156.5918,27.3418 L159.0571,27.3418 L159.0571,29.5 L151.6777,29.5 L151.6777,27.3418 L154.1431,27.3418 L154.1431,19.2651 Z " fill="#000000"/><text fill="#000000" font-family="sans-serif" font-size="12" font-style="italic" lengthAdjust="spacing" textLength="174" x="175.75" y="27.5352">TapjawAuthenticationWrapper</text><line style="stroke:#A80036;stroke-width:1.5;" x1="45" x2="448" y1="39" y2="39"/><ellipse cx="55" cy="50" fill="#84BE84" rx="3" ry="3" style="stroke:#038048;stroke-width:1.0;"/><text fill="#000000" font-family="sans-serif" font-size="11" lengthAdjust="spacing" textLength="379" x="64" y="53.6348">authenticate(requestOptionContainer: unknown) : Promise&lt;unknown&gt;</text><!--MD5=[1626ea9a30f25ca15b6a3a9d3b091980]
reverse link TapjawAuthenticationWrapper to ApplyQueryStringWrapper--><path codeLine="11" d="M246.5,80.51 C246.5,93.72 246.5,107.82 246.5,119.98 " fill="none" id="TapjawAuthenticationWrapper-backto-ApplyQueryStringWrapper" style="stroke:#A80036;stroke-width:1.0;stroke-dasharray:7.0,7.0;"/><polygon fill="none" points="239.5,80.29,246.5,60.29,253.5,80.29,239.5,80.29" style="stroke:#A80036;stroke-width:1.0;"/><!--MD5=[2c93093df0434717025ccdbd576228d9]
@startuml
skinparam BackgroundColor transparent
hide empty methods
hide empty fields
class "ApplyQueryStringWrapper" {
    +authenticate(requestOptionContainer: RequestOptions) : Promise<RequestOptions>
    -applyAuthParametersToPath(options: RequestOptions) : Promise<RequestOptions>
}
interface "TapjawAuthenticationWrapper" {
    +authenticate(requestOptionContainer: unknown) : Promise<unknown>
}
"TapjawAuthenticationWrapper" <|.. "ApplyQueryStringWrapper"
@enduml

PlantUML version 1.2021.14(Fri Nov 12 17:46:50 CET 2021)
(GPL source distribution)
Java Runtime: Java(TM) SE Runtime Environment
JVM: Java HotSpot(TM) 64-Bit Server VM
Default Encoding: UTF-8
Language: en
Country: GB
--></g></svg>