<?xml version="1.0" encoding="UTF-8" standalone="no"?><svg xmlns="http://www.w3.org/2000/svg" xmlns:xlink="http://www.w3.org/1999/xlink" contentScriptType="application/ecmascript" contentStyleType="text/css" height="406px" preserveAspectRatio="none" style="width:311px;height:406px;background:#00000000;" version="1.1" viewBox="0 0 311 406" width="311px" zoomAndPan="magnify"><defs><filter height="300%" id="f1mitphh0dgaai" width="300%" x="-1" y="-1"><feGaussianBlur result="blurOut" stdDeviation="2.0"/><feColorMatrix in="blurOut" result="blurOut2" type="matrix" values="0 0 0 0 0 0 0 0 0 0 0 0 0 0 0 0 0 0 .4 0"/><feOffset dx="4.0" dy="4.0" in="blurOut2" result="blurOut3"/><feBlend in="SourceGraphic" in2="blurOut3" mode="normal"/></filter></defs><g><!--MD5=[4091885883347d6230482329675d8870]
class BearerAuthAuthenticator--><rect codeLine="4" fill="#FEFECE" filter="url(#f1mitphh0dgaai)" height="112.7754" id="BearerAuthAuthenticator" style="stroke:#A80036;stroke-width:1.5;" width="288" x="9" y="133"/><ellipse cx="78.75" cy="149" fill="#ADD1B2" rx="11" ry="11" style="stroke:#A80036;stroke-width:1.0;"/><path d="M81.2231,155.1431 Q80.6421,155.4419 80.0029,155.5913 Q79.3638,155.7407 78.6582,155.7407 Q76.1514,155.7407 74.8315,154.0889 Q73.5117,152.437 73.5117,149.3159 Q73.5117,146.1865 74.8315,144.5347 Q76.1514,142.8828 78.6582,142.8828 Q79.3638,142.8828 80.0112,143.0322 Q80.6587,143.1816 81.2231,143.4805 L81.2231,146.2031 Q80.5923,145.6221 79.9988,145.3523 Q79.4053,145.0825 78.7744,145.0825 Q77.4297,145.0825 76.7449,146.1492 Q76.0601,147.2158 76.0601,149.3159 Q76.0601,151.4077 76.7449,152.4744 Q77.4297,153.541 78.7744,153.541 Q79.4053,153.541 79.9988,153.2712 Q80.5923,153.0015 81.2231,152.4204 Z " fill="#000000"/><text fill="#000000" font-family="sans-serif" font-size="12" lengthAdjust="spacing" textLength="140" x="99.25" y="153.5352">BearerAuthAuthenticator</text><line style="stroke:#A80036;stroke-width:1.5;" x1="10" x2="296" y1="165" y2="165"/><polygon fill="none" points="20,171,24,175,20,179,16,175" style="stroke:#B38D22;stroke-width:1.0;"/><text fill="#000000" font-family="sans-serif" font-size="11" lengthAdjust="spacing" textLength="109" x="29" y="179.6348">bearerToken : string</text><rect fill="none" height="6" style="stroke:#C82930;stroke-width:1.0;" width="6" x="17" y="185.9551"/><text fill="#000000" font-family="sans-serif" font-size="11" lengthAdjust="spacing" textLength="125" x="29" y="192.5898">authenticated : boolean</text><rect fill="none" height="6" style="stroke:#C82930;stroke-width:1.0;" width="6" x="17" y="198.9102"/><text fill="#000000" font-family="sans-serif" font-size="11" lengthAdjust="spacing" textLength="164" x="29" y="205.5449">header : AuthorizationHeaders</text><line style="stroke:#A80036;stroke-width:1.5;" x1="10" x2="296" y1="211.8652" y2="211.8652"/><ellipse cx="20" cy="222.8652" fill="#84BE84" rx="3" ry="3" style="stroke:#038048;stroke-width:1.0;"/><text fill="#000000" font-family="sans-serif" font-size="11" lengthAdjust="spacing" textLength="262" x="29" y="226.5">authenticate() : Promise&lt;AuthorizationHeaders&gt;</text><ellipse cx="20" cy="235.8203" fill="#84BE84" rx="3" ry="3" style="stroke:#038048;stroke-width:1.0;"/><text fill="#000000" font-family="sans-serif" font-size="11" lengthAdjust="spacing" textLength="144" x="29" y="239.4551">isAuthenticated() : boolean</text><!--MD5=[c77892335d2a25df6c0a66f4cf7aae0e]
class TapjawAuthenticator<BearerResponse>--><rect codeLine="11" fill="#FEFECE" filter="url(#f1mitphh0dgaai)" height="65.9102" id="TapjawAuthenticator&lt;BearerResponse&gt;" style="stroke:#A80036;stroke-width:1.5;" width="265" x="20.5" y="7"/><ellipse cx="35.5" cy="23" fill="#B4A7E5" rx="11" ry="11" style="stroke:#A80036;stroke-width:1.0;"/><path d="M31.9277,19.2651 L31.9277,17.1069 L39.3071,17.1069 L39.3071,19.2651 L36.8418,19.2651 L36.8418,27.3418 L39.3071,27.3418 L39.3071,29.5 L31.9277,29.5 L31.9277,27.3418 L34.3931,27.3418 L34.3931,19.2651 Z " fill="#000000"/><text fill="#000000" font-family="sans-serif" font-size="12" font-style="italic" lengthAdjust="spacing" textLength="233" x="49.5" y="27.5352">TapjawAuthenticator&lt;BearerResponse&gt;</text><line style="stroke:#A80036;stroke-width:1.5;" x1="21.5" x2="284.5" y1="39" y2="39"/><ellipse cx="31.5" cy="50" fill="#84BE84" rx="3" ry="3" style="stroke:#038048;stroke-width:1.0;"/><text fill="#000000" font-family="sans-serif" font-size="11" lengthAdjust="spacing" textLength="230" x="40.5" y="53.6348">authenticate() : Promise&lt;BearerResponse&gt;</text><ellipse cx="31.5" cy="62.9551" fill="#84BE84" rx="3" ry="3" style="stroke:#038048;stroke-width:1.0;"/><text fill="#000000" font-family="sans-serif" font-size="11" lengthAdjust="spacing" textLength="144" x="40.5" y="66.5898">isAuthenticated() : boolean</text><!--MD5=[52899b650b6c0c1341d7952bec1aa7a2]
class NonBearerAuthorizationAuthenticator--><rect codeLine="16" fill="#FEFECE" filter="url(#f1mitphh0dgaai)" height="86.8652" id="NonBearerAuthorizationAuthenticator" style="stroke:#A80036;stroke-width:1.5;" width="288" x="9" y="306"/><ellipse cx="43.35" cy="322" fill="#ADD1B2" rx="11" ry="11" style="stroke:#A80036;stroke-width:1.0;"/><path d="M45.8231,328.1431 Q45.2421,328.4419 44.6029,328.5913 Q43.9638,328.7407 43.2582,328.7407 Q40.7514,328.7407 39.4315,327.0889 Q38.1117,325.437 38.1117,322.3159 Q38.1117,319.1865 39.4315,317.5347 Q40.7514,315.8828 43.2582,315.8828 Q43.9638,315.8828 44.6112,316.0322 Q45.2587,316.1816 45.8231,316.4805 L45.8231,319.2031 Q45.1923,318.6221 44.5988,318.3523 Q44.0053,318.0825 43.3744,318.0825 Q42.0297,318.0825 41.3449,319.1492 Q40.6601,320.2158 40.6601,322.3159 Q40.6601,324.4077 41.3449,325.4744 Q42.0297,326.541 43.3744,326.541 Q44.0053,326.541 44.5988,326.2712 Q45.1923,326.0015 45.8231,325.4204 Z " fill="#000000"/><text fill="#000000" font-family="sans-serif" font-size="12" lengthAdjust="spacing" textLength="213" x="61.65" y="326.5352">NonBearerAuthorizationAuthenticator</text><line style="stroke:#A80036;stroke-width:1.5;" x1="10" x2="296" y1="338" y2="338"/><polygon fill="none" points="20,344,24,348,20,352,16,348" style="stroke:#B38D22;stroke-width:1.0;"/><text fill="#000000" font-family="sans-serif" font-size="11" lengthAdjust="spacing" textLength="109" x="29" y="352.6348">bearerToken : string</text><line style="stroke:#A80036;stroke-width:1.5;" x1="10" x2="296" y1="358.9551" y2="358.9551"/><ellipse cx="20" cy="369.9551" fill="#84BE84" rx="3" ry="3" style="stroke:#038048;stroke-width:1.0;"/><text fill="#000000" font-family="sans-serif" font-size="11" lengthAdjust="spacing" textLength="262" x="29" y="373.5898">authenticate() : Promise&lt;AuthorizationHeaders&gt;</text><ellipse cx="20" cy="382.9102" fill="#84BE84" rx="3" ry="3" style="stroke:#038048;stroke-width:1.0;"/><text fill="#000000" font-family="sans-serif" font-size="11" lengthAdjust="spacing" textLength="144" x="29" y="386.5449">isAuthenticated() : boolean</text><!--MD5=[247a59c3f79b2f25ece644d50d16c452]
reverse link TapjawAuthenticator<BearerResponse> to BearerAuthAuthenticator--><path codeLine="15" d="M153,93.32 C153,106.1 153,119.82 153,132.75 " fill="none" id="TapjawAuthenticator&lt;BearerResponse&gt;-backto-BearerAuthAuthenticator" style="stroke:#A80036;stroke-width:1.0;stroke-dasharray:7.0,7.0;"/><polygon fill="none" points="146,93.01,153,73.01,160,93.01,146,93.01" style="stroke:#A80036;stroke-width:1.0;"/><!--MD5=[8418cc988eeb2520c8ff629cd5de4e83]
reverse link BearerAuthAuthenticator to NonBearerAuthorizationAuthenticator--><path codeLine="21" d="M153,266.41 C153,279.91 153,293.54 153,305.71 " fill="none" id="BearerAuthAuthenticator-backto-NonBearerAuthorizationAuthenticator" style="stroke:#A80036;stroke-width:1.0;"/><polygon fill="none" points="146,266.2,153,246.2,160,266.2,146,266.2" style="stroke:#A80036;stroke-width:1.0;"/><!--MD5=[ec6e69f00fdab0a83510cf00852bd9c0]
@startuml
skinparam BackgroundColor transparent
hide empty methods
hide empty fields
class "BearerAuthAuthenticator" {
    #bearerToken : string
    -authenticated : boolean
    -header : AuthorizationHeaders
    +authenticate() : Promise<AuthorizationHeaders>
    +isAuthenticated() : boolean
}
interface "TapjawAuthenticator<BearerResponse>" {
    +authenticate() : Promise<BearerResponse>
    +isAuthenticated() : boolean
}
"TapjawAuthenticator<BearerResponse>" <|.. "BearerAuthAuthenticator"
class "NonBearerAuthorizationAuthenticator" {
    #bearerToken : string
    +authenticate() : Promise<AuthorizationHeaders>
    +isAuthenticated() : boolean
}
"BearerAuthAuthenticator" <|- - "NonBearerAuthorizationAuthenticator"
@enduml

PlantUML version 1.2021.14(Fri Nov 12 17:46:50 CET 2021)
(GPL source distribution)
Java Runtime: Java(TM) SE Runtime Environment
JVM: Java HotSpot(TM) 64-Bit Server VM
Default Encoding: UTF-8
Language: en
Country: GB
--></g></svg>