<?xml version="1.0" encoding="UTF-8" standalone="no"?><svg xmlns="http://www.w3.org/2000/svg" xmlns:xlink="http://www.w3.org/1999/xlink" contentScriptType="application/ecmascript" contentStyleType="text/css" height="269px" preserveAspectRatio="none" style="width:435px;height:269px;background:#00000000;" version="1.1" viewBox="0 0 435 269" width="435px" zoomAndPan="magnify"><defs><filter height="300%" id="fqt0mi67mfnem" width="300%" x="-1" y="-1"><feGaussianBlur result="blurOut" stdDeviation="2.0"/><feColorMatrix in="blurOut" result="blurOut2" type="matrix" values="0 0 0 0 0 0 0 0 0 0 0 0 0 0 0 0 0 0 .4 0"/><feOffset dx="4.0" dy="4.0" in="blurOut2" result="blurOut3"/><feBlend in="SourceGraphic" in2="blurOut3" mode="normal"/></filter></defs><g><!--MD5=[5eaeefa727971760a08936d4afea6bd0]
class CommanderError--><rect codeLine="4" fill="#FEFECE" filter="url(#fqt0mi67mfnem)" height="164.5957" id="CommanderError" style="stroke:#A80036;stroke-width:1.5;" width="414" x="7" y="91"/><ellipse cx="159.75" cy="107" fill="#ADD1B2" rx="11" ry="11" style="stroke:#A80036;stroke-width:1.0;"/><path d="M162.2231,113.1431 Q161.6421,113.4419 161.0029,113.5913 Q160.3638,113.7407 159.6582,113.7407 Q157.1514,113.7407 155.8315,112.0889 Q154.5117,110.437 154.5117,107.3159 Q154.5117,104.1865 155.8315,102.5347 Q157.1514,100.8828 159.6582,100.8828 Q160.3638,100.8828 161.0112,101.0322 Q161.6587,101.1816 162.2231,101.4805 L162.2231,104.2031 Q161.5923,103.6221 160.9988,103.3523 Q160.4053,103.0825 159.7744,103.0825 Q158.4297,103.0825 157.7449,104.1492 Q157.0601,105.2158 157.0601,107.3159 Q157.0601,109.4077 157.7449,110.4744 Q158.4297,111.541 159.7744,111.541 Q160.4053,111.541 160.9988,111.2712 Q161.5923,111.0015 162.2231,110.4204 Z " fill="#000000"/><text fill="#000000" font-family="sans-serif" font-size="12" lengthAdjust="spacing" textLength="100" x="180.25" y="111.5352">CommanderError</text><line style="stroke:#A80036;stroke-width:1.5;" x1="8" x2="420" y1="123" y2="123"/><ellipse cx="18" cy="134" rx="3" ry="3" style="stroke:#038048;stroke-width:1.0;fill:none;"/><text fill="#000000" font-family="sans-serif" font-size="11" lengthAdjust="spacing" textLength="67" x="27" y="137.6348">code : string</text><ellipse cx="18" cy="146.9551" rx="3" ry="3" style="stroke:#038048;stroke-width:1.0;fill:none;"/><text fill="#000000" font-family="sans-serif" font-size="11" lengthAdjust="spacing" textLength="99" x="27" y="150.5898">exitCode : number</text><ellipse cx="18" cy="159.9102" rx="3" ry="3" style="stroke:#038048;stroke-width:1.0;fill:none;"/><text fill="#000000" font-family="sans-serif" font-size="11" lengthAdjust="spacing" textLength="88" x="27" y="163.5449">message : string</text><ellipse cx="18" cy="172.8652" rx="3" ry="3" style="stroke:#038048;stroke-width:1.0;fill:none;"/><text fill="#000000" font-family="sans-serif" font-size="11" lengthAdjust="spacing" textLength="70" x="27" y="176.5">name : string</text><ellipse cx="18" cy="185.8203" rx="3" ry="3" style="stroke:#038048;stroke-width:1.0;fill:none;"/><text fill="#000000" font-family="sans-serif" font-size="11" lengthAdjust="spacing" textLength="105" x="27" y="189.4551">nestedError : string</text><ellipse cx="18" cy="198.7754" rx="3" ry="3" style="stroke:#038048;stroke-width:1.0;fill:none;"/><text fill="#000000" font-family="sans-serif" font-size="11" lengthAdjust="spacing" text-decoration="underline" textLength="156" x="27" y="202.4102">prepareStackTrace : Function</text><ellipse cx="18" cy="211.7305" rx="3" ry="3" style="stroke:#038048;stroke-width:1.0;fill:none;"/><text fill="#000000" font-family="sans-serif" font-size="11" lengthAdjust="spacing" textLength="69" x="27" y="215.3652">stack : string</text><ellipse cx="18" cy="224.6855" rx="3" ry="3" style="stroke:#038048;stroke-width:1.0;fill:none;"/><text fill="#000000" font-family="sans-serif" font-size="11" lengthAdjust="spacing" text-decoration="underline" textLength="135" x="27" y="228.3203">stackTraceLimit : number</text><line style="stroke:#A80036;stroke-width:1.5;" x1="8" x2="420" y1="234.6406" y2="234.6406"/><ellipse cx="18" cy="245.6406" fill="#84BE84" rx="3" ry="3" style="stroke:#038048;stroke-width:1.0;"/><text fill="#000000" font-family="sans-serif" font-size="11" lengthAdjust="spacing" text-decoration="underline" textLength="388" x="27" y="249.2754">captureStackTrace(targetObject: object, constructorOpt: Function) : void</text><!--MD5=[b8cfd8c4119a3b0a7a46bfc5fc780f85]
class Error--><rect codeLine="15" fill="#FEFECE" filter="url(#fqt0mi67mfnem)" height="24.1328" id="Error" style="stroke:#A80036;stroke-width:1.5;" width="35" x="196.5" y="7"/><text fill="#000000" font-family="sans-serif" font-size="12" lengthAdjust="spacing" textLength="29" x="199.5" y="23.6016">Error</text><!--MD5=[899f71596a8f3fd4f5943fc05b5b28d5]
reverse link Error to CommanderError--><path codeLine="17" d="M214,51.68 C214,63.27 214,76.98 214,90.93 " fill="none" id="Error-backto-CommanderError" style="stroke:#A80036;stroke-width:1.0;"/><polygon fill="none" points="207,51.46,214,31.46,221,51.46,207,51.46" style="stroke:#A80036;stroke-width:1.0;"/><!--MD5=[05f14258e9d62b23350d6c3932022056]
@startuml
skinparam BackgroundColor transparent
hide empty methods
hide empty fields
class "CommanderError" {
    +code : string
    +exitCode : number
    +message : string
    +name : string
    +nestedError : string
    {static} +prepareStackTrace : Function
    +stack : string
    {static} +stackTraceLimit : number
    {static} +captureStackTrace(targetObject: object, constructorOpt: Function) : void
}
class "Error"
hide "Error" circle
"Error" <|- - "CommanderError"
@enduml

PlantUML version 1.2021.6(Fri May 14 09:09:51 CEST 2021)
(GPL source distribution)
Java Runtime: Java(TM) SE Runtime Environment
JVM: Java HotSpot(TM) 64-Bit Server VM
Default Encoding: UTF-8
Language: en
Country: GB
--></g></svg>