<?xml version="1.0" encoding="UTF-8" standalone="no"?><svg xmlns="http://www.w3.org/2000/svg" xmlns:xlink="http://www.w3.org/1999/xlink" contentScriptType="application/ecmascript" contentStyleType="text/css" height="277px" preserveAspectRatio="none" style="width:379px;height:277px;background:#00000000;" version="1.1" viewBox="0 0 379 277" width="379px" zoomAndPan="magnify"><defs><filter height="300%" id="f1d9izqyxs9ofe" width="300%" x="-1" y="-1"><feGaussianBlur result="blurOut" stdDeviation="2.0"/><feColorMatrix in="blurOut" result="blurOut2" type="matrix" values="0 0 0 0 0 0 0 0 0 0 0 0 0 0 0 0 0 0 .4 0"/><feOffset dx="4.0" dy="4.0" in="blurOut2" result="blurOut3"/><feBlend in="SourceGraphic" in2="blurOut3" mode="normal"/></filter></defs><g><!--MD5=[ad47ceb0fb00333cf3e20c58c7a8c301]
class ConnectOpts--><rect codeLine="4" fill="#FEFECE" filter="url(#f1d9izqyxs9ofe)" height="52.9551" id="ConnectOpts" style="stroke:#A80036;stroke-width:1.5;" width="141" x="116.5" y="7"/><ellipse cx="147.7" cy="23" fill="#B4A7E5" rx="11" ry="11" style="stroke:#A80036;stroke-width:1.0;"/><path d="M144.1277,19.2651 L144.1277,17.1069 L151.5071,17.1069 L151.5071,19.2651 L149.0418,19.2651 L149.0418,27.3418 L151.5071,27.3418 L151.5071,29.5 L144.1277,29.5 L144.1277,27.3418 L146.5931,27.3418 L146.5931,19.2651 Z " fill="#000000"/><text fill="#000000" font-family="sans-serif" font-size="12" font-style="italic" lengthAdjust="spacing" textLength="73" x="165.3" y="27.5352">ConnectOpts</text><line style="stroke:#A80036;stroke-width:1.5;" x1="117.5" x2="256.5" y1="39" y2="39"/><ellipse cx="127.5" cy="50" rx="3" ry="3" style="stroke:#038048;stroke-width:1.0;fill:none;"/><text fill="#000000" font-family="sans-serif" font-size="11" lengthAdjust="spacing" textLength="115" x="136.5" y="53.6348">onread : OnReadOpts</text><!--MD5=[f187432cd6c747deb1be76e53fec868e]
class TcpSocketConnectOpts--><rect codeLine="7" fill="#FEFECE" filter="url(#f1d9izqyxs9ofe)" height="143.6406" id="TcpSocketConnectOpts" style="stroke:#A80036;stroke-width:1.5;" width="164" x="7" y="120"/><ellipse cx="22" cy="136" fill="#B4A7E5" rx="11" ry="11" style="stroke:#A80036;stroke-width:1.0;"/><path d="M18.4277,132.2651 L18.4277,130.1069 L25.8071,130.1069 L25.8071,132.2651 L23.3418,132.2651 L23.3418,140.3418 L25.8071,140.3418 L25.8071,142.5 L18.4277,142.5 L18.4277,140.3418 L20.8931,140.3418 L20.8931,132.2651 Z " fill="#000000"/><text fill="#000000" font-family="sans-serif" font-size="12" font-style="italic" lengthAdjust="spacing" textLength="132" x="36" y="140.5352">TcpSocketConnectOpts</text><line style="stroke:#A80036;stroke-width:1.5;" x1="8" x2="170" y1="152" y2="152"/><ellipse cx="18" cy="163" rx="3" ry="3" style="stroke:#038048;stroke-width:1.0;fill:none;"/><text fill="#000000" font-family="sans-serif" font-size="11" lengthAdjust="spacing" textLength="83" x="27" y="166.6348">family : number</text><ellipse cx="18" cy="175.9551" rx="3" ry="3" style="stroke:#038048;stroke-width:1.0;fill:none;"/><text fill="#000000" font-family="sans-serif" font-size="11" lengthAdjust="spacing" textLength="78" x="27" y="179.5898">hints : number</text><ellipse cx="18" cy="188.9102" rx="3" ry="3" style="stroke:#038048;stroke-width:1.0;fill:none;"/><text fill="#000000" font-family="sans-serif" font-size="11" lengthAdjust="spacing" textLength="65" x="27" y="192.5449">host : string</text><ellipse cx="18" cy="201.8652" rx="3" ry="3" style="stroke:#038048;stroke-width:1.0;fill:none;"/><text fill="#000000" font-family="sans-serif" font-size="11" lengthAdjust="spacing" textLength="111" x="27" y="205.5">localAddress : string</text><ellipse cx="18" cy="214.8203" rx="3" ry="3" style="stroke:#038048;stroke-width:1.0;fill:none;"/><text fill="#000000" font-family="sans-serif" font-size="11" lengthAdjust="spacing" textLength="98" x="27" y="218.4551">localPort : number</text><ellipse cx="18" cy="227.7754" rx="3" ry="3" style="stroke:#038048;stroke-width:1.0;fill:none;"/><text fill="#000000" font-family="sans-serif" font-size="11" lengthAdjust="spacing" textLength="133" x="27" y="231.4102">lookup : LookupFunction</text><ellipse cx="18" cy="240.7305" rx="3" ry="3" style="stroke:#038048;stroke-width:1.0;fill:none;"/><text fill="#000000" font-family="sans-serif" font-size="11" lengthAdjust="spacing" textLength="115" x="27" y="244.3652">onread : OnReadOpts</text><ellipse cx="18" cy="253.6855" rx="3" ry="3" style="stroke:#038048;stroke-width:1.0;fill:none;"/><text fill="#000000" font-family="sans-serif" font-size="11" lengthAdjust="spacing" textLength="74" x="27" y="257.3203">port : number</text><!--MD5=[e7b9f0ec32f9adc8b2d5d0820a525b6e]
class IpcSocketConnectOpts--><rect codeLine="18" fill="#FEFECE" filter="url(#f1d9izqyxs9ofe)" height="65.9102" id="IpcSocketConnectOpts" style="stroke:#A80036;stroke-width:1.5;" width="159" x="206.5" y="159"/><ellipse cx="221.5" cy="175" fill="#B4A7E5" rx="11" ry="11" style="stroke:#A80036;stroke-width:1.0;"/><path d="M217.9277,171.2651 L217.9277,169.1069 L225.3071,169.1069 L225.3071,171.2651 L222.8418,171.2651 L222.8418,179.3418 L225.3071,179.3418 L225.3071,181.5 L217.9277,181.5 L217.9277,179.3418 L220.3931,179.3418 L220.3931,171.2651 Z " fill="#000000"/><text fill="#000000" font-family="sans-serif" font-size="12" font-style="italic" lengthAdjust="spacing" textLength="127" x="235.5" y="179.5352">IpcSocketConnectOpts</text><line style="stroke:#A80036;stroke-width:1.5;" x1="207.5" x2="364.5" y1="191" y2="191"/><ellipse cx="217.5" cy="202" rx="3" ry="3" style="stroke:#038048;stroke-width:1.0;fill:none;"/><text fill="#000000" font-family="sans-serif" font-size="11" lengthAdjust="spacing" textLength="115" x="226.5" y="205.6348">onread : OnReadOpts</text><ellipse cx="217.5" cy="214.9551" rx="3" ry="3" style="stroke:#038048;stroke-width:1.0;fill:none;"/><text fill="#000000" font-family="sans-serif" font-size="11" lengthAdjust="spacing" textLength="65" x="226.5" y="218.5898">path : string</text><!--MD5=[4f447db8c93f44ccb12accbb03455ba8]
reverse link ConnectOpts to TcpSocketConnectOpts--><path codeLine="17" d="M160.04,77.55 C151.84,90.65 142.59,105.42 133.55,119.86 " fill="none" id="ConnectOpts-backto-TcpSocketConnectOpts" style="stroke:#A80036;stroke-width:1.0;"/><polygon fill="none" points="154.27,73.58,170.82,60.34,166.14,81.01,154.27,73.58" style="stroke:#A80036;stroke-width:1.0;"/><!--MD5=[48b41df28a5bb2c60fce16b62a71b7e9]
reverse link ConnectOpts to IpcSocketConnectOpts--><path codeLine="22" d="M214.1,77.34 C230.39,103.09 250.78,135.33 265.68,158.88 " fill="none" id="ConnectOpts-backto-IpcSocketConnectOpts" style="stroke:#A80036;stroke-width:1.0;"/><polygon fill="none" points="208.12,80.99,203.35,60.34,219.96,73.5,208.12,80.99" style="stroke:#A80036;stroke-width:1.0;"/><!--MD5=[c89ae2866b67799a7ecf85607b315bf5]
@startuml
skinparam BackgroundColor transparent
hide empty methods
hide empty fields
interface "ConnectOpts" {
    +onread : OnReadOpts
}
interface "TcpSocketConnectOpts" {
    +family : number
    +hints : number
    +host : string
    +localAddress : string
    +localPort : number
    +lookup : LookupFunction
    +onread : OnReadOpts
    +port : number
}
"ConnectOpts" <|- - "TcpSocketConnectOpts"
interface "IpcSocketConnectOpts" {
    +onread : OnReadOpts
    +path : string
}
"ConnectOpts" <|- - "IpcSocketConnectOpts"
@enduml

PlantUML version 1.2021.6(Fri May 14 09:09:51 CEST 2021)
(GPL source distribution)
Java Runtime: Java(TM) SE Runtime Environment
JVM: Java HotSpot(TM) 64-Bit Server VM
Default Encoding: UTF-8
Language: en
Country: GB
--></g></svg>