<?xml version="1.0" encoding="UTF-8" standalone="no"?><svg xmlns="http://www.w3.org/2000/svg" xmlns:xlink="http://www.w3.org/1999/xlink" contentScriptType="application/ecmascript" contentStyleType="text/css" height="233px" preserveAspectRatio="none" style="width:266px;height:233px;background:#00000000;" version="1.1" viewBox="0 0 266 233" width="266px" zoomAndPan="magnify"><defs><filter height="300%" id="fv8ikd78b0pyq" width="300%" x="-1" y="-1"><feGaussianBlur result="blurOut" stdDeviation="2.0"/><feColorMatrix in="blurOut" result="blurOut2" type="matrix" values="0 0 0 0 0 0 0 0 0 0 0 0 0 0 0 0 0 0 .4 0"/><feOffset dx="4.0" dy="4.0" in="blurOut2" result="blurOut3"/><feBlend in="SourceGraphic" in2="blurOut3" mode="normal"/></filter></defs><g><!--MD5=[08ca1357d8d1ded60de7b56a03aca7bd]
class CustomHeaderAuthenticator--><rect codeLine="4" fill="#FEFECE" filter="url(#fv8ikd78b0pyq)" height="86.8652" id="CustomHeaderAuthenticator" style="stroke:#A80036;stroke-width:1.5;" width="237" x="11" y="133"/><ellipse cx="45.35" cy="149" fill="#ADD1B2" rx="11" ry="11" style="stroke:#A80036;stroke-width:1.0;"/><path d="M47.8231,155.1431 Q47.2421,155.4419 46.6029,155.5913 Q45.9638,155.7407 45.2582,155.7407 Q42.7514,155.7407 41.4315,154.0889 Q40.1117,152.437 40.1117,149.3159 Q40.1117,146.1865 41.4315,144.5347 Q42.7514,142.8828 45.2582,142.8828 Q45.9638,142.8828 46.6112,143.0322 Q47.2587,143.1816 47.8231,143.4805 L47.8231,146.2031 Q47.1923,145.6221 46.5988,145.3523 Q46.0053,145.0825 45.3744,145.0825 Q44.0297,145.0825 43.3449,146.1492 Q42.6601,147.2158 42.6601,149.3159 Q42.6601,151.4077 43.3449,152.4744 Q44.0297,153.541 45.3744,153.541 Q46.0053,153.541 46.5988,153.2712 Q47.1923,153.0015 47.8231,152.4204 Z " fill="#000000"/><text fill="#000000" font-family="sans-serif" font-size="12" lengthAdjust="spacing" textLength="162" x="63.65" y="153.5352">CustomHeaderAuthenticator</text><line style="stroke:#A80036;stroke-width:1.5;" x1="12" x2="247" y1="165" y2="165"/><rect fill="none" height="6" style="stroke:#C82930;stroke-width:1.0;" width="6" x="19" y="173"/><text fill="#000000" font-family="sans-serif" font-size="11" lengthAdjust="spacing" textLength="178" x="31" y="179.6348">headers : Record&lt;string, string&gt;</text><line style="stroke:#A80036;stroke-width:1.5;" x1="12" x2="247" y1="185.9551" y2="185.9551"/><ellipse cx="22" cy="196.9551" fill="#84BE84" rx="3" ry="3" style="stroke:#038048;stroke-width:1.0;"/><text fill="#000000" font-family="sans-serif" font-size="11" lengthAdjust="spacing" textLength="211" x="31" y="200.5898">authenticate() : Promise&lt;HttpHeaders&gt;</text><ellipse cx="22" cy="209.9102" fill="#84BE84" rx="3" ry="3" style="stroke:#038048;stroke-width:1.0;"/><text fill="#000000" font-family="sans-serif" font-size="11" lengthAdjust="spacing" textLength="144" x="31" y="213.5449">isAuthenticated() : boolean</text><!--MD5=[58b40c3827fa8aa2783c1b73bfd7acba]
class TapjawAuthenticator<HttpHeaders>--><rect codeLine="9" fill="#FEFECE" filter="url(#fv8ikd78b0pyq)" height="65.9102" id="TapjawAuthenticator&lt;HttpHeaders&gt;" style="stroke:#A80036;stroke-width:1.5;" width="245" x="7" y="7"/><ellipse cx="22" cy="23" fill="#B4A7E5" rx="11" ry="11" style="stroke:#A80036;stroke-width:1.0;"/><path d="M18.4277,19.2651 L18.4277,17.1069 L25.8071,17.1069 L25.8071,19.2651 L23.3418,19.2651 L23.3418,27.3418 L25.8071,27.3418 L25.8071,29.5 L18.4277,29.5 L18.4277,27.3418 L20.8931,27.3418 L20.8931,19.2651 Z " fill="#000000"/><text fill="#000000" font-family="sans-serif" font-size="12" font-style="italic" lengthAdjust="spacing" textLength="213" x="36" y="27.5352">TapjawAuthenticator&lt;HttpHeaders&gt;</text><line style="stroke:#A80036;stroke-width:1.5;" x1="8" x2="251" y1="39" y2="39"/><ellipse cx="18" cy="50" fill="#84BE84" rx="3" ry="3" style="stroke:#038048;stroke-width:1.0;"/><text fill="#000000" font-family="sans-serif" font-size="11" lengthAdjust="spacing" textLength="211" x="27" y="53.6348">authenticate() : Promise&lt;HttpHeaders&gt;</text><ellipse cx="18" cy="62.9551" fill="#84BE84" rx="3" ry="3" style="stroke:#038048;stroke-width:1.0;"/><text fill="#000000" font-family="sans-serif" font-size="11" lengthAdjust="spacing" textLength="144" x="27" y="66.5898">isAuthenticated() : boolean</text><!--MD5=[84e6b5feabdbd118f854e5b90dd82b38]
reverse link TapjawAuthenticator<HttpHeaders> to CustomHeaderAuthenticator--><path codeLine="13" d="M129.5,93.43 C129.5,106.49 129.5,120.34 129.5,132.86 " fill="none" id="TapjawAuthenticator&lt;HttpHeaders&gt;-backto-CustomHeaderAuthenticator" style="stroke:#A80036;stroke-width:1.0;stroke-dasharray:7.0,7.0;"/><polygon fill="none" points="122.5,93.22,129.5,73.22,136.5,93.22,122.5,93.22" style="stroke:#A80036;stroke-width:1.0;"/><!--MD5=[bba8786da30ed2fe25e310668a710341]
@startuml
skinparam BackgroundColor transparent
hide empty methods
hide empty fields
class "CustomHeaderAuthenticator" {
    -headers : Record<string, string>
    +authenticate() : Promise<HttpHeaders>
    +isAuthenticated() : boolean
}
interface "TapjawAuthenticator<HttpHeaders>" {
    +authenticate() : Promise<HttpHeaders>
    +isAuthenticated() : boolean
}
"TapjawAuthenticator<HttpHeaders>" <|.. "CustomHeaderAuthenticator"
@enduml

PlantUML version 1.2021.6(Fri May 14 09:09:51 CEST 2021)
(GPL source distribution)
Java Runtime: Java(TM) SE Runtime Environment
JVM: Java HotSpot(TM) 64-Bit Server VM
Default Encoding: UTF-8
Language: en
Country: GB
--></g></svg>