<?xml version="1.0" encoding="UTF-8" standalone="no"?><svg xmlns="http://www.w3.org/2000/svg" xmlns:xlink="http://www.w3.org/1999/xlink" contentScriptType="application/ecmascript" contentStyleType="text/css" height="251px" preserveAspectRatio="none" style="width:219px;height:251px;background:#00000000;" version="1.1" viewBox="0 0 219 251" width="219px" zoomAndPan="magnify"><defs><filter height="300%" id="fm6em1ud1p8jz" width="300%" x="-1" y="-1"><feGaussianBlur result="blurOut" stdDeviation="2.0"/><feColorMatrix in="blurOut" result="blurOut2" type="matrix" values="0 0 0 0 0 0 0 0 0 0 0 0 0 0 0 0 0 0 .4 0"/><feOffset dx="4.0" dy="4.0" in="blurOut2" result="blurOut3"/><feBlend in="SourceGraphic" in2="blurOut3" mode="normal"/></filter></defs><g><!--MD5=[0b8fdbbd29bed71166573fefb0c2e754]
class ExecutableCommandOptions--><rect codeLine="4" fill="#FEFECE" filter="url(#fm6em1ud1p8jz)" height="91.8203" id="ExecutableCommandOptions" style="stroke:#A80036;stroke-width:1.5;" width="198" x="7" y="146"/><ellipse cx="22" cy="162" fill="#B4A7E5" rx="11" ry="11" style="stroke:#A80036;stroke-width:1.0;"/><path d="M18.4277,158.2651 L18.4277,156.1069 L25.8071,156.1069 L25.8071,158.2651 L23.3418,158.2651 L23.3418,166.3418 L25.8071,166.3418 L25.8071,168.5 L18.4277,168.5 L18.4277,166.3418 L20.8931,166.3418 L20.8931,158.2651 Z " fill="#000000"/><text fill="#000000" font-family="sans-serif" font-size="12" font-style="italic" lengthAdjust="spacing" textLength="166" x="36" y="166.5352">ExecutableCommandOptions</text><line style="stroke:#A80036;stroke-width:1.5;" x1="8" x2="204" y1="178" y2="178"/><ellipse cx="18" cy="189" rx="3" ry="3" style="stroke:#038048;stroke-width:1.0;fill:none;"/><text fill="#000000" font-family="sans-serif" font-size="11" lengthAdjust="spacing" textLength="117" x="27" y="192.6348">executableFile : string</text><ellipse cx="18" cy="201.9551" rx="3" ry="3" style="stroke:#038048;stroke-width:1.0;fill:none;"/><text fill="#000000" font-family="sans-serif" font-size="11" lengthAdjust="spacing" textLength="89" x="27" y="205.5898">hidden : boolean</text><ellipse cx="18" cy="214.9102" rx="3" ry="3" style="stroke:#038048;stroke-width:1.0;fill:none;"/><text fill="#000000" font-family="sans-serif" font-size="11" lengthAdjust="spacing" textLength="99" x="27" y="218.5449">isDefault : boolean</text><ellipse cx="18" cy="227.8652" rx="3" ry="3" style="stroke:#038048;stroke-width:1.0;fill:none;"/><text fill="#000000" font-family="sans-serif" font-size="11" lengthAdjust="spacing" textLength="90" x="27" y="231.5">noHelp : boolean</text><!--MD5=[5b5ece8fa80eec8d3d78199a84ff9d77]
class CommandOptions--><rect codeLine="10" fill="#FEFECE" filter="url(#fm6em1ud1p8jz)" height="78.8652" id="CommandOptions" style="stroke:#A80036;stroke-width:1.5;" width="135" x="38.5" y="7"/><ellipse cx="53.5" cy="23" fill="#B4A7E5" rx="11" ry="11" style="stroke:#A80036;stroke-width:1.0;"/><path d="M49.9277,19.2651 L49.9277,17.1069 L57.3071,17.1069 L57.3071,19.2651 L54.8418,19.2651 L54.8418,27.3418 L57.3071,27.3418 L57.3071,29.5 L49.9277,29.5 L49.9277,27.3418 L52.3931,27.3418 L52.3931,19.2651 Z " fill="#000000"/><text fill="#000000" font-family="sans-serif" font-size="12" font-style="italic" lengthAdjust="spacing" textLength="103" x="67.5" y="27.5352">CommandOptions</text><line style="stroke:#A80036;stroke-width:1.5;" x1="39.5" x2="172.5" y1="39" y2="39"/><ellipse cx="49.5" cy="50" rx="3" ry="3" style="stroke:#038048;stroke-width:1.0;fill:none;"/><text fill="#000000" font-family="sans-serif" font-size="11" lengthAdjust="spacing" textLength="89" x="58.5" y="53.6348">hidden : boolean</text><ellipse cx="49.5" cy="62.9551" rx="3" ry="3" style="stroke:#038048;stroke-width:1.0;fill:none;"/><text fill="#000000" font-family="sans-serif" font-size="11" lengthAdjust="spacing" textLength="99" x="58.5" y="66.5898">isDefault : boolean</text><ellipse cx="49.5" cy="75.9102" rx="3" ry="3" style="stroke:#038048;stroke-width:1.0;fill:none;"/><text fill="#000000" font-family="sans-serif" font-size="11" lengthAdjust="spacing" textLength="90" x="58.5" y="79.5449">noHelp : boolean</text><!--MD5=[67e3d9045ed4010601b4e768d8ddfcc9]
reverse link CommandOptions to ExecutableCommandOptions--><path codeLine="15" d="M106,106.75 C106,119.79 106,133.4 106,145.78 " fill="none" id="CommandOptions-backto-ExecutableCommandOptions" style="stroke:#A80036;stroke-width:1.0;"/><polygon fill="none" points="99,106.33,106,86.33,113,106.33,99,106.33" style="stroke:#A80036;stroke-width:1.0;"/><!--MD5=[8c066793d6f1a2d61a7a4aa47212ee9a]
@startuml
skinparam BackgroundColor transparent
hide empty methods
hide empty fields
interface "ExecutableCommandOptions" {
    +executableFile : string
    +hidden : boolean
    +isDefault : boolean
    +noHelp : boolean
}
interface "CommandOptions" {
    +hidden : boolean
    +isDefault : boolean
    +noHelp : boolean
}
"CommandOptions" <|- - "ExecutableCommandOptions"
@enduml

PlantUML version 1.2021.6(Fri May 14 09:09:51 CEST 2021)
(GPL source distribution)
Java Runtime: OpenJDK Runtime Environment
JVM: OpenJDK 64-Bit Server VM
Default Encoding: UTF-8
Language: en
Country: GB
--></g></svg>