<?xml version="1.0" encoding="UTF-8" standalone="no"?><svg xmlns="http://www.w3.org/2000/svg" xmlns:xlink="http://www.w3.org/1999/xlink" contentScriptType="application/ecmascript" contentStyleType="text/css" height="225px" preserveAspectRatio="none" style="width:151px;height:225px;background:#00000000;" version="1.1" viewBox="0 0 151 225" width="151px" zoomAndPan="magnify"><defs><filter height="300%" id="f17dzqqat4s3re" width="300%" x="-1" y="-1"><feGaussianBlur result="blurOut" stdDeviation="2.0"/><feColorMatrix in="blurOut" result="blurOut2" type="matrix" values="0 0 0 0 0 0 0 0 0 0 0 0 0 0 0 0 0 0 .4 0"/><feOffset dx="4.0" dy="4.0" in="blurOut2" result="blurOut3"/><feBlend in="SourceGraphic" in2="blurOut3" mode="normal"/></filter></defs><g><!--MD5=[5d46049211e8ee91de5110edf68820f0]
class FinishedOptions--><rect codeLine="4" fill="#FEFECE" filter="url(#f17dzqqat4s3re)" height="91.8203" id="FinishedOptions" style="stroke:#A80036;stroke-width:1.5;" width="130" x="7" y="120"/><ellipse cx="25.15" cy="136" fill="#B4A7E5" rx="11" ry="11" style="stroke:#A80036;stroke-width:1.0;"/><path d="M21.5777,132.2651 L21.5777,130.1069 L28.9571,130.1069 L28.9571,132.2651 L26.4918,132.2651 L26.4918,140.3418 L28.9571,140.3418 L28.9571,142.5 L21.5777,142.5 L21.5777,140.3418 L24.0431,140.3418 L24.0431,132.2651 Z " fill="#000000"/><text fill="#000000" font-family="sans-serif" font-size="12" font-style="italic" lengthAdjust="spacing" textLength="91" x="39.85" y="140.5352">FinishedOptions</text><line style="stroke:#A80036;stroke-width:1.5;" x1="8" x2="136" y1="152" y2="152"/><ellipse cx="18" cy="163" rx="3" ry="3" style="stroke:#038048;stroke-width:1.0;fill:none;"/><text fill="#000000" font-family="sans-serif" font-size="11" lengthAdjust="spacing" textLength="80" x="27" y="166.6348">error : boolean</text><ellipse cx="18" cy="175.9551" rx="3" ry="3" style="stroke:#038048;stroke-width:1.0;fill:none;"/><text fill="#000000" font-family="sans-serif" font-size="11" lengthAdjust="spacing" textLength="98" x="27" y="179.5898">readable : boolean</text><ellipse cx="18" cy="188.9102" rx="3" ry="3" style="stroke:#038048;stroke-width:1.0;fill:none;"/><text fill="#000000" font-family="sans-serif" font-size="11" lengthAdjust="spacing" textLength="104" x="27" y="192.5449">signal : AbortSignal</text><ellipse cx="18" cy="201.8652" rx="3" ry="3" style="stroke:#038048;stroke-width:1.0;fill:none;"/><text fill="#000000" font-family="sans-serif" font-size="11" lengthAdjust="spacing" textLength="94" x="27" y="205.5">writable : boolean</text><!--MD5=[6495451319b5a6ef5a9033a80b2559f9]
class Abortable--><rect codeLine="10" fill="#FEFECE" filter="url(#f17dzqqat4s3re)" height="52.9551" id="Abortable" style="stroke:#A80036;stroke-width:1.5;" width="130" x="7" y="7"/><ellipse cx="40.45" cy="23" fill="#B4A7E5" rx="11" ry="11" style="stroke:#A80036;stroke-width:1.0;"/><path d="M36.8777,19.2651 L36.8777,17.1069 L44.2571,17.1069 L44.2571,19.2651 L41.7918,19.2651 L41.7918,27.3418 L44.2571,27.3418 L44.2571,29.5 L36.8777,29.5 L36.8777,27.3418 L39.3431,27.3418 L39.3431,19.2651 Z " fill="#000000"/><text fill="#000000" font-family="sans-serif" font-size="12" font-style="italic" lengthAdjust="spacing" textLength="57" x="58.55" y="27.5352">Abortable</text><line style="stroke:#A80036;stroke-width:1.5;" x1="8" x2="136" y1="39" y2="39"/><ellipse cx="18" cy="50" rx="3" ry="3" style="stroke:#038048;stroke-width:1.0;fill:none;"/><text fill="#000000" font-family="sans-serif" font-size="11" lengthAdjust="spacing" textLength="104" x="27" y="53.6348">signal : AbortSignal</text><!--MD5=[1f612d78291f2edcbdbb12113ede1117]
reverse link Abortable to FinishedOptions--><path codeLine="13" d="M72,80.45 C72,93.28 72,107.2 72,119.98 " fill="none" id="Abortable-backto-FinishedOptions" style="stroke:#A80036;stroke-width:1.0;"/><polygon fill="none" points="65,80.28,72,60.28,79,80.28,65,80.28" style="stroke:#A80036;stroke-width:1.0;"/><!--MD5=[61b3627425ab9c7a4c0698859c5cd3c8]
@startuml
skinparam BackgroundColor transparent
hide empty methods
hide empty fields
interface "FinishedOptions" {
    +error : boolean
    +readable : boolean
    +signal : AbortSignal
    +writable : boolean
}
interface "Abortable" {
    +signal : AbortSignal
}
"Abortable" <|- - "FinishedOptions"
@enduml

PlantUML version 1.2021.14(Fri Nov 12 17:46:50 CET 2021)
(GPL source distribution)
Java Runtime: Java(TM) SE Runtime Environment
JVM: Java HotSpot(TM) 64-Bit Server VM
Default Encoding: UTF-8
Language: en
Country: GB
--></g></svg>