<?xml version="1.0" encoding="UTF-8" standalone="no"?><svg xmlns="http://www.w3.org/2000/svg" xmlns:xlink="http://www.w3.org/1999/xlink" contentScriptType="application/ecmascript" contentStyleType="text/css" height="199px" preserveAspectRatio="none" style="width:180px;height:199px;background:#00000000;" version="1.1" viewBox="0 0 180 199" width="180px" zoomAndPan="magnify"><defs><filter height="300%" id="f304693c5er2k" width="300%" x="-1" y="-1"><feGaussianBlur result="blurOut" stdDeviation="2.0"/><feColorMatrix in="blurOut" result="blurOut2" type="matrix" values="0 0 0 0 0 0 0 0 0 0 0 0 0 0 0 0 0 0 .4 0"/><feOffset dx="4.0" dy="4.0" in="blurOut2" result="blurOut3"/><feBlend in="SourceGraphic" in2="blurOut3" mode="normal"/></filter></defs><g><!--MD5=[e7b9f0ec32f9adc8b2d5d0820a525b6e]
class IpcSocketConnectOpts--><rect codeLine="4" fill="#FEFECE" filter="url(#f304693c5er2k)" height="65.9102" id="IpcSocketConnectOpts" style="stroke:#A80036;stroke-width:1.5;" width="159" x="7" y="120"/><ellipse cx="22" cy="136" fill="#B4A7E5" rx="11" ry="11" style="stroke:#A80036;stroke-width:1.0;"/><path d="M18.4277,132.2651 L18.4277,130.1069 L25.8071,130.1069 L25.8071,132.2651 L23.3418,132.2651 L23.3418,140.3418 L25.8071,140.3418 L25.8071,142.5 L18.4277,142.5 L18.4277,140.3418 L20.8931,140.3418 L20.8931,132.2651 Z " fill="#000000"/><text fill="#000000" font-family="sans-serif" font-size="12" font-style="italic" lengthAdjust="spacing" textLength="127" x="36" y="140.5352">IpcSocketConnectOpts</text><line style="stroke:#A80036;stroke-width:1.5;" x1="8" x2="165" y1="152" y2="152"/><ellipse cx="18" cy="163" rx="3" ry="3" style="stroke:#038048;stroke-width:1.0;fill:none;"/><text fill="#000000" font-family="sans-serif" font-size="11" lengthAdjust="spacing" textLength="115" x="27" y="166.6348">onread : OnReadOpts</text><ellipse cx="18" cy="175.9551" rx="3" ry="3" style="stroke:#038048;stroke-width:1.0;fill:none;"/><text fill="#000000" font-family="sans-serif" font-size="11" lengthAdjust="spacing" textLength="65" x="27" y="179.5898">path : string</text><!--MD5=[ad47ceb0fb00333cf3e20c58c7a8c301]
class ConnectOpts--><rect codeLine="8" fill="#FEFECE" filter="url(#f304693c5er2k)" height="52.9551" id="ConnectOpts" style="stroke:#A80036;stroke-width:1.5;" width="141" x="16" y="7"/><ellipse cx="47.2" cy="23" fill="#B4A7E5" rx="11" ry="11" style="stroke:#A80036;stroke-width:1.0;"/><path d="M43.6277,19.2651 L43.6277,17.1069 L51.0071,17.1069 L51.0071,19.2651 L48.5418,19.2651 L48.5418,27.3418 L51.0071,27.3418 L51.0071,29.5 L43.6277,29.5 L43.6277,27.3418 L46.0931,27.3418 L46.0931,19.2651 Z " fill="#000000"/><text fill="#000000" font-family="sans-serif" font-size="12" font-style="italic" lengthAdjust="spacing" textLength="73" x="64.8" y="27.5352">ConnectOpts</text><line style="stroke:#A80036;stroke-width:1.5;" x1="17" x2="156" y1="39" y2="39"/><ellipse cx="27" cy="50" rx="3" ry="3" style="stroke:#038048;stroke-width:1.0;fill:none;"/><text fill="#000000" font-family="sans-serif" font-size="11" lengthAdjust="spacing" textLength="115" x="36" y="53.6348">onread : OnReadOpts</text><!--MD5=[48b41df28a5bb2c60fce16b62a71b7e9]
reverse link ConnectOpts to IpcSocketConnectOpts--><path codeLine="11" d="M86.5,80.51 C86.5,93.72 86.5,107.82 86.5,119.98 " fill="none" id="ConnectOpts-backto-IpcSocketConnectOpts" style="stroke:#A80036;stroke-width:1.0;"/><polygon fill="none" points="79.5,80.29,86.5,60.29,93.5,80.29,79.5,80.29" style="stroke:#A80036;stroke-width:1.0;"/><!--MD5=[e4fb8a798b5b3c64ef2630ba7c5f8d45]
@startuml
skinparam BackgroundColor transparent
hide empty methods
hide empty fields
interface "IpcSocketConnectOpts" {
    +onread : OnReadOpts
    +path : string
}
interface "ConnectOpts" {
    +onread : OnReadOpts
}
"ConnectOpts" <|- - "IpcSocketConnectOpts"
@enduml

PlantUML version 1.2021.6(Fri May 14 09:09:51 CEST 2021)
(GPL source distribution)
Java Runtime: Java(TM) SE Runtime Environment
JVM: Java HotSpot(TM) 64-Bit Server VM
Default Encoding: UTF-8
Language: en
Country: GB
--></g></svg>