<?xml version="1.0" encoding="UTF-8" standalone="no"?><svg xmlns="http://www.w3.org/2000/svg" xmlns:xlink="http://www.w3.org/1999/xlink" contentScriptType="application/ecmascript" contentStyleType="text/css" height="251px" preserveAspectRatio="none" style="width:693px;height:251px;background:#00000000;" version="1.1" viewBox="0 0 693 251" width="693px" zoomAndPan="magnify"><defs><filter height="300%" id="f1bed6bqn8ula3" width="300%" x="-1" y="-1"><feGaussianBlur result="blurOut" stdDeviation="2.0"/><feColorMatrix in="blurOut" result="blurOut2" type="matrix" values="0 0 0 0 0 0 0 0 0 0 0 0 0 0 0 0 0 0 .4 0"/><feOffset dx="4.0" dy="4.0" in="blurOut2" result="blurOut3"/><feBlend in="SourceGraphic" in2="blurOut3" mode="normal"/></filter></defs><g><!--MD5=[ce66f050943ea4a35a9b9e03f1eb87be]
class Iterator<T, TReturn, TNext>--><rect codeLine="4" fill="#FEFECE" filter="url(#f1bed6bqn8ula3)" height="78.8652" id="Iterator&lt;T, TReturn, TNext&gt;" style="stroke:#A80036;stroke-width:1.5;" width="302" x="201.5" y="7"/><ellipse cx="264.75" cy="23" fill="#B4A7E5" rx="11" ry="11" style="stroke:#A80036;stroke-width:1.0;"/><path d="M261.1777,19.2651 L261.1777,17.1069 L268.5571,17.1069 L268.5571,19.2651 L266.0918,19.2651 L266.0918,27.3418 L268.5571,27.3418 L268.5571,29.5 L261.1777,29.5 L261.1777,27.3418 L263.6431,27.3418 L263.6431,19.2651 Z " fill="#000000"/><text fill="#000000" font-family="sans-serif" font-size="12" font-style="italic" lengthAdjust="spacing" textLength="167" x="285.25" y="27.5352">Iterator&lt;T, TReturn, TNext&gt;</text><line style="stroke:#A80036;stroke-width:1.5;" x1="202.5" x2="502.5" y1="39" y2="39"/><ellipse cx="212.5" cy="50" fill="#84BE84" rx="3" ry="3" style="stroke:#038048;stroke-width:1.0;"/><text fill="#000000" font-family="sans-serif" font-size="11" lengthAdjust="spacing" textLength="276" x="221.5" y="53.6348">next(args: [] | [TNext]) : IteratorResult&lt;T, TReturn&gt;</text><ellipse cx="212.5" cy="62.9551" fill="#84BE84" rx="3" ry="3" style="stroke:#038048;stroke-width:1.0;"/><text fill="#000000" font-family="sans-serif" font-size="11" lengthAdjust="spacing" textLength="275" x="221.5" y="66.5898">return(value: TReturn) : IteratorResult&lt;T, TReturn&gt;</text><ellipse cx="212.5" cy="75.9102" fill="#84BE84" rx="3" ry="3" style="stroke:#038048;stroke-width:1.0;"/><text fill="#000000" font-family="sans-serif" font-size="11" lengthAdjust="spacing" textLength="226" x="221.5" y="79.5449">throw(e: any) : IteratorResult&lt;T, TReturn&gt;</text><!--MD5=[fb75512dc5a4659fc09a54aea00d6e4e]
class Generator<unknown, any, unknown>--><rect codeLine="9" fill="#FEFECE" filter="url(#f1bed6bqn8ula3)" height="91.8203" id="Generator&lt;unknown, any, unknown&gt;" style="stroke:#A80036;stroke-width:1.5;" width="337" x="7" y="146"/><ellipse cx="63.25" cy="162" fill="#B4A7E5" rx="11" ry="11" style="stroke:#A80036;stroke-width:1.0;"/><path d="M59.6777,158.2651 L59.6777,156.1069 L67.0571,156.1069 L67.0571,158.2651 L64.5918,158.2651 L64.5918,166.3418 L67.0571,166.3418 L67.0571,168.5 L59.6777,168.5 L59.6777,166.3418 L62.1431,166.3418 L62.1431,158.2651 Z " fill="#000000"/><text fill="#000000" font-family="sans-serif" font-size="12" font-style="italic" lengthAdjust="spacing" textLength="216" x="83.75" y="166.5352">Generator&lt;unknown, any, unknown&gt;</text><line style="stroke:#A80036;stroke-width:1.5;" x1="8" x2="343" y1="178" y2="178"/><ellipse cx="18" cy="189" fill="#84BE84" rx="3" ry="3" style="stroke:#038048;stroke-width:1.0;"/><text fill="#000000" font-family="sans-serif" font-size="11" lengthAdjust="spacing" textLength="311" x="27" y="192.6348">next(args: [] | [unknown]) : IteratorResult&lt;unknown, any&gt;</text><ellipse cx="18" cy="201.9551" fill="#84BE84" rx="3" ry="3" style="stroke:#038048;stroke-width:1.0;"/><text fill="#000000" font-family="sans-serif" font-size="11" lengthAdjust="spacing" textLength="269" x="27" y="205.5898">return(value: any) : IteratorResult&lt;unknown, any&gt;</text><ellipse cx="18" cy="214.9102" fill="#84BE84" rx="3" ry="3" style="stroke:#038048;stroke-width:1.0;"/><text fill="#000000" font-family="sans-serif" font-size="11" lengthAdjust="spacing" textLength="244" x="27" y="218.5449">throw(e: any) : IteratorResult&lt;unknown, any&gt;</text><ellipse cx="18" cy="227.8652" fill="#84BE84" rx="3" ry="3" style="stroke:#038048;stroke-width:1.0;"/><text fill="#000000" font-family="sans-serif" font-size="11" lengthAdjust="spacing" textLength="266" x="27" y="231.5">[iterator]() : Generator&lt;unknown, any, unknown&gt;</text><!--MD5=[5efdff1fab52d3adf5b04293ea3de122]
class IterableIterator<T>--><rect codeLine="16" fill="#FEFECE" filter="url(#f1bed6bqn8ula3)" height="91.8203" id="IterableIterator&lt;T&gt;" style="stroke:#A80036;stroke-width:1.5;" width="300" x="379.5" y="146"/><ellipse cx="468.25" cy="162" fill="#B4A7E5" rx="11" ry="11" style="stroke:#A80036;stroke-width:1.0;"/><path d="M464.6777,158.2651 L464.6777,156.1069 L472.0571,156.1069 L472.0571,158.2651 L469.5918,158.2651 L469.5918,166.3418 L472.0571,166.3418 L472.0571,168.5 L464.6777,168.5 L464.6777,166.3418 L467.1431,166.3418 L467.1431,158.2651 Z " fill="#000000"/><text fill="#000000" font-family="sans-serif" font-size="12" font-style="italic" lengthAdjust="spacing" textLength="114" x="488.75" y="166.5352">IterableIterator&lt;T&gt;</text><line style="stroke:#A80036;stroke-width:1.5;" x1="380.5" x2="678.5" y1="178" y2="178"/><ellipse cx="390.5" cy="189" fill="#84BE84" rx="3" ry="3" style="stroke:#038048;stroke-width:1.0;"/><text fill="#000000" font-family="sans-serif" font-size="11" lengthAdjust="spacing" textLength="274" x="399.5" y="192.6348">next(args: [] | [undefined]) : IteratorResult&lt;T, any&gt;</text><ellipse cx="390.5" cy="201.9551" fill="#84BE84" rx="3" ry="3" style="stroke:#038048;stroke-width:1.0;"/><text fill="#000000" font-family="sans-serif" font-size="11" lengthAdjust="spacing" textLength="227" x="399.5" y="205.5898">return(value: any) : IteratorResult&lt;T, any&gt;</text><ellipse cx="390.5" cy="214.9102" fill="#84BE84" rx="3" ry="3" style="stroke:#038048;stroke-width:1.0;"/><text fill="#000000" font-family="sans-serif" font-size="11" lengthAdjust="spacing" textLength="202" x="399.5" y="218.5449">throw(e: any) : IteratorResult&lt;T, any&gt;</text><ellipse cx="390.5" cy="227.8652" fill="#84BE84" rx="3" ry="3" style="stroke:#038048;stroke-width:1.0;"/><text fill="#000000" font-family="sans-serif" font-size="11" lengthAdjust="spacing" textLength="170" x="399.5" y="231.5">[iterator]() : IterableIterator&lt;T&gt;</text><!--MD5=[9c55553b19ea8e66b239b3fff22f8231]
reverse link Iterator<T, TReturn, TNext> to Generator<unknown, any, unknown>--><path codeLine="15" d="M288.9,99.06 C270.06,114.33 249.58,130.94 231.28,145.78 " fill="none" id="Iterator&lt;T, TReturn, TNext&gt;-backto-Generator&lt;unknown, any, unknown&gt;" style="stroke:#A80036;stroke-width:1.0;"/><polygon fill="none" points="284.66,93.49,304.6,86.33,293.47,104.37,284.66,93.49" style="stroke:#A80036;stroke-width:1.0;"/><!--MD5=[6c2a5c89340879a2ff6eb1ae6337fcaf]
reverse link Iterator<T, TReturn, TNext> to IterableIterator<T>--><path codeLine="22" d="M416.1,99.06 C434.94,114.33 455.42,130.94 473.72,145.78 " fill="none" id="Iterator&lt;T, TReturn, TNext&gt;-backto-IterableIterator&lt;T&gt;" style="stroke:#A80036;stroke-width:1.0;"/><polygon fill="none" points="411.53,104.37,400.4,86.33,420.34,93.49,411.53,104.37" style="stroke:#A80036;stroke-width:1.0;"/><!--MD5=[353b9837940aeb7cdedce1857383e7f7]
@startuml
skinparam BackgroundColor transparent
hide empty methods
hide empty fields
interface "Iterator<T, TReturn, TNext>" {
    +next(args: [] | [TNext]) : IteratorResult<T, TReturn>
    +return(value: TReturn) : IteratorResult<T, TReturn>
    +throw(e: any) : IteratorResult<T, TReturn>
}
interface "Generator<unknown, any, unknown>" {
    +next(args: [] | [unknown]) : IteratorResult<unknown, any>
    +return(value: any) : IteratorResult<unknown, any>
    +throw(e: any) : IteratorResult<unknown, any>
    +[iterator]() : Generator<unknown, any, unknown>
}
"Iterator<T, TReturn, TNext>" <|- - "Generator<unknown, any, unknown>"
interface "IterableIterator<T>" {
    +next(args: [] | [undefined]) : IteratorResult<T, any>
    +return(value: any) : IteratorResult<T, any>
    +throw(e: any) : IteratorResult<T, any>
    +[iterator]() : IterableIterator<T>
}
"Iterator<T, TReturn, TNext>" <|- - "IterableIterator<T>"
@enduml

PlantUML version 1.2021.6(Fri May 14 09:09:51 CEST 2021)
(GPL source distribution)
Java Runtime: OpenJDK Runtime Environment
JVM: OpenJDK 64-Bit Server VM
Default Encoding: UTF-8
Language: en
Country: GB
--></g></svg>