<?xml version="1.0" encoding="UTF-8" standalone="no"?><svg xmlns="http://www.w3.org/2000/svg" xmlns:xlink="http://www.w3.org/1999/xlink" contentScriptType="application/ecmascript" contentStyleType="text/css" height="306px" preserveAspectRatio="none" style="width:631px;height:306px;background:#00000000;" version="1.1" viewBox="0 0 631 306" width="631px" zoomAndPan="magnify"><defs><filter height="300%" id="f1kyzjtwmrstkr" width="300%" x="-1" y="-1"><feGaussianBlur result="blurOut" stdDeviation="2.0"/><feColorMatrix in="blurOut" result="blurOut2" type="matrix" values="0 0 0 0 0 0 0 0 0 0 0 0 0 0 0 0 0 0 .4 0"/><feOffset dx="4.0" dy="4.0" in="blurOut2" result="blurOut3"/><feBlend in="SourceGraphic" in2="blurOut3" mode="normal"/></filter></defs><g><!--MD5=[ad4d8e186bc8c68c5fd887e213478086]
class JWTBuilder--><rect codeLine="4" fill="#FEFECE" filter="url(#f1kyzjtwmrstkr)" height="99.8203" id="JWTBuilder" style="stroke:#A80036;stroke-width:1.5;" width="243" x="170" y="7"/><ellipse cx="256.25" cy="23" fill="#A9DCDF" rx="11" ry="11" style="stroke:#A80036;stroke-width:1.0;"/><path d="M256.1133,18.3481 L254.9595,23.4199 L257.2754,23.4199 Z M254.6191,16.1069 L257.6157,16.1069 L260.9609,28.5 L258.5122,28.5 L257.7485,25.437 L254.4697,25.437 L253.7227,28.5 L251.2739,28.5 Z " fill="#000000"/><text fill="#000000" font-family="sans-serif" font-size="12" font-style="italic" lengthAdjust="spacing" textLength="62" x="276.75" y="27.5352">JWTBuilder</text><line style="stroke:#A80036;stroke-width:1.5;" x1="171" x2="412" y1="39" y2="39"/><polygon fill="none" points="181,45,185,49,181,53,177,49" style="stroke:#B38D22;stroke-width:1.0;"/><text fill="#000000" font-family="sans-serif" font-size="11" lengthAdjust="spacing" textLength="115" x="190" y="53.6348">algorithm : Algorithm</text><line style="stroke:#A80036;stroke-width:1.5;" x1="171" x2="412" y1="59.9551" y2="59.9551"/><ellipse cx="181" cy="70.9551" fill="#84BE84" rx="3" ry="3" style="stroke:#038048;stroke-width:1.0;"/><text fill="#000000" font-family="sans-serif" font-size="11" lengthAdjust="spacing" textLength="160" x="190" y="74.5898">getToken() : Promise&lt;string&gt;</text><polygon fill="#FFFF44" points="181,78.9102,185,82.9102,181,86.9102,177,82.9102" style="stroke:#B38D22;stroke-width:1.0;"/><text fill="#000000" font-family="sans-serif" font-size="11" font-style="italic" lengthAdjust="spacing" textLength="217" x="190" y="87.5449">getPayloadMetadata() : Promise&lt;object&gt;</text><polygon fill="#FFFF44" points="181,91.8652,185,95.8652,181,99.8652,177,95.8652" style="stroke:#B38D22;stroke-width:1.0;"/><text fill="#000000" font-family="sans-serif" font-size="11" font-style="italic" lengthAdjust="spacing" textLength="179" x="190" y="100.5">getSecretKey() : Promise&lt;string&gt;</text><!--MD5=[ae46f0374e49338b6fed593b4af3c5b3]
class ManualJWTBuilder--><rect codeLine="10" fill="#FEFECE" filter="url(#f1kyzjtwmrstkr)" height="99.8203" id="ManualJWTBuilder" style="stroke:#A80036;stroke-width:1.5;" width="243" x="9" y="180"/><ellipse cx="74.75" cy="196" fill="#ADD1B2" rx="11" ry="11" style="stroke:#A80036;stroke-width:1.0;"/><path d="M77.2231,202.1431 Q76.6421,202.4419 76.0029,202.5913 Q75.3638,202.7407 74.6582,202.7407 Q72.1514,202.7407 70.8315,201.0889 Q69.5117,199.437 69.5117,196.3159 Q69.5117,193.1865 70.8315,191.5347 Q72.1514,189.8828 74.6582,189.8828 Q75.3638,189.8828 76.0112,190.0322 Q76.6587,190.1816 77.2231,190.4805 L77.2231,193.2031 Q76.5923,192.6221 75.9988,192.3523 Q75.4053,192.0825 74.7744,192.0825 Q73.4297,192.0825 72.7449,193.1492 Q72.0601,194.2158 72.0601,196.3159 Q72.0601,198.4077 72.7449,199.4744 Q73.4297,200.541 74.7744,200.541 Q75.4053,200.541 75.9988,200.2712 Q76.5923,200.0015 77.2231,199.4204 Z " fill="#000000"/><text fill="#000000" font-family="sans-serif" font-size="12" lengthAdjust="spacing" textLength="103" x="95.25" y="200.5352">ManualJWTBuilder</text><line style="stroke:#A80036;stroke-width:1.5;" x1="10" x2="251" y1="212" y2="212"/><polygon fill="none" points="20,218,24,222,20,226,16,222" style="stroke:#B38D22;stroke-width:1.0;"/><text fill="#000000" font-family="sans-serif" font-size="11" lengthAdjust="spacing" textLength="115" x="29" y="226.6348">algorithm : Algorithm</text><line style="stroke:#A80036;stroke-width:1.5;" x1="10" x2="251" y1="232.9551" y2="232.9551"/><ellipse cx="20" cy="243.9551" fill="#84BE84" rx="3" ry="3" style="stroke:#038048;stroke-width:1.0;"/><text fill="#000000" font-family="sans-serif" font-size="11" lengthAdjust="spacing" textLength="160" x="29" y="247.5898">getToken() : Promise&lt;string&gt;</text><polygon fill="#FFFF44" points="20,251.9102,24,255.9102,20,259.9102,16,255.9102" style="stroke:#B38D22;stroke-width:1.0;"/><text fill="#000000" font-family="sans-serif" font-size="11" lengthAdjust="spacing" textLength="217" x="29" y="260.5449">getPayloadMetadata() : Promise&lt;object&gt;</text><polygon fill="#FFFF44" points="20,264.8652,24,268.8652,20,272.8652,16,268.8652" style="stroke:#B38D22;stroke-width:1.0;"/><text fill="#000000" font-family="sans-serif" font-size="11" lengthAdjust="spacing" textLength="179" x="29" y="273.5">getSecretKey() : Promise&lt;string&gt;</text><!--MD5=[fa5b8489b15d688ffbf28e710efd07cb]
class RequestJWTBuilder--><rect codeLine="17" fill="#FEFECE" filter="url(#f1kyzjtwmrstkr)" height="125.7305" id="RequestJWTBuilder" style="stroke:#A80036;stroke-width:1.5;" width="330" x="287.5" y="167"/><ellipse cx="393.75" cy="183" fill="#A9DCDF" rx="11" ry="11" style="stroke:#A80036;stroke-width:1.0;"/><path d="M393.6133,178.3481 L392.4595,183.4199 L394.7754,183.4199 Z M392.1191,176.1069 L395.1157,176.1069 L398.4609,188.5 L396.0122,188.5 L395.2485,185.437 L391.9697,185.437 L391.2227,188.5 L388.7739,188.5 Z " fill="#000000"/><text fill="#000000" font-family="sans-serif" font-size="12" font-style="italic" lengthAdjust="spacing" textLength="109" x="414.25" y="187.5352">RequestJWTBuilder</text><line style="stroke:#A80036;stroke-width:1.5;" x1="288.5" x2="616.5" y1="199" y2="199"/><polygon fill="none" points="298.5,205,302.5,209,298.5,213,294.5,209" style="stroke:#B38D22;stroke-width:1.0;"/><text fill="#000000" font-family="sans-serif" font-size="11" lengthAdjust="spacing" textLength="115" x="307.5" y="213.6348">algorithm : Algorithm</text><rect fill="none" height="6" style="stroke:#C82930;stroke-width:1.0;" width="6" x="295.5" y="219.9551"/><text fill="#000000" font-family="sans-serif" font-size="11" lengthAdjust="spacing" textLength="216" x="307.5" y="226.5898">requestResponse : RequestJWTResponse</text><line style="stroke:#A80036;stroke-width:1.5;" x1="288.5" x2="616.5" y1="232.9102" y2="232.9102"/><ellipse cx="298.5" cy="243.9102" fill="#84BE84" rx="3" ry="3" style="stroke:#038048;stroke-width:1.0;"/><text fill="#000000" font-family="sans-serif" font-size="11" lengthAdjust="spacing" textLength="160" x="307.5" y="247.5449">getToken() : Promise&lt;string&gt;</text><polygon fill="#FFFF44" points="298.5,251.8652,302.5,255.8652,298.5,259.8652,294.5,255.8652" style="stroke:#B38D22;stroke-width:1.0;"/><text fill="#000000" font-family="sans-serif" font-size="11" lengthAdjust="spacing" textLength="217" x="307.5" y="260.5">getPayloadMetadata() : Promise&lt;object&gt;</text><polygon fill="#FFFF44" points="298.5,264.8203,302.5,268.8203,298.5,272.8203,294.5,268.8203" style="stroke:#B38D22;stroke-width:1.0;"/><text fill="#000000" font-family="sans-serif" font-size="11" font-style="italic" lengthAdjust="spacing" textLength="304" x="307.5" y="273.4551">getRequestResponse() : Promise&lt;RequestJWTResponse&gt;</text><polygon fill="#FFFF44" points="298.5,277.7754,302.5,281.7754,298.5,285.7754,294.5,281.7754" style="stroke:#B38D22;stroke-width:1.0;"/><text fill="#000000" font-family="sans-serif" font-size="11" lengthAdjust="spacing" textLength="179" x="307.5" y="286.4102">getSecretKey() : Promise&lt;string&gt;</text><!--MD5=[fd72994de6bac310a6de8286a056641a]
reverse link JWTBuilder to ManualJWTBuilder--><path codeLine="16" d="M231.53,121.7 C213.38,140.97 193.74,161.83 176.64,179.99 " fill="none" id="JWTBuilder-backto-ManualJWTBuilder" style="stroke:#A80036;stroke-width:1.0;"/><polygon fill="none" points="226.56,116.76,245.36,107,236.75,126.36,226.56,116.76" style="stroke:#A80036;stroke-width:1.0;"/><!--MD5=[6ce3522bfece337b4ac2f513242f7585]
reverse link JWTBuilder to RequestJWTBuilder--><path codeLine="25" d="M351.68,121.92 C365.53,136.62 380.23,152.24 394,166.87 " fill="none" id="JWTBuilder-backto-RequestJWTBuilder" style="stroke:#A80036;stroke-width:1.0;"/><polygon fill="none" points="346.25,126.36,337.64,107,356.44,116.76,346.25,126.36" style="stroke:#A80036;stroke-width:1.0;"/><!--MD5=[74cdec210cd2d16c18d0f98f5dea9b80]
@startuml
skinparam BackgroundColor transparent
hide empty methods
hide empty fields
abstract class "JWTBuilder" {
    #algorithm : Algorithm
    +getToken() : Promise<string>
    {abstract} #getPayloadMetadata() : Promise<object>
    {abstract} #getSecretKey() : Promise<string>
}
class "ManualJWTBuilder" {
    #algorithm : Algorithm
    +getToken() : Promise<string>
    #getPayloadMetadata() : Promise<object>
    #getSecretKey() : Promise<string>
}
"JWTBuilder" <|- - "ManualJWTBuilder"
abstract class "RequestJWTBuilder" {
    #algorithm : Algorithm
    -requestResponse : RequestJWTResponse
    +getToken() : Promise<string>
    #getPayloadMetadata() : Promise<object>
    {abstract} #getRequestResponse() : Promise<RequestJWTResponse>
    #getSecretKey() : Promise<string>
}
"JWTBuilder" <|- - "RequestJWTBuilder"
@enduml

PlantUML version 1.2021.6(Fri May 14 09:09:51 CEST 2021)
(GPL source distribution)
Java Runtime: Java(TM) SE Runtime Environment
JVM: Java HotSpot(TM) 64-Bit Server VM
Default Encoding: UTF-8
Language: en
Country: GB
--></g></svg>