<?xml version="1.0" encoding="UTF-8" standalone="no"?><svg xmlns="http://www.w3.org/2000/svg" xmlns:xlink="http://www.w3.org/1999/xlink" contentScriptType="application/ecmascript" contentStyleType="text/css" height="306px" preserveAspectRatio="none" style="width:764px;height:306px;background:#00000000;" version="1.1" viewBox="0 0 764 306" width="764px" zoomAndPan="magnify"><defs><filter height="300%" id="ftoa0u9xlhncu" width="300%" x="-1" y="-1"><feGaussianBlur result="blurOut" stdDeviation="2.0"/><feColorMatrix in="blurOut" result="blurOut2" type="matrix" values="0 0 0 0 0 0 0 0 0 0 0 0 0 0 0 0 0 0 .4 0"/><feOffset dx="4.0" dy="4.0" in="blurOut2" result="blurOut3"/><feBlend in="SourceGraphic" in2="blurOut3" mode="normal"/></filter></defs><g><!--MD5=[ad4d8e186bc8c68c5fd887e213478086]
class JWTBuilder--><rect codeLine="4" fill="#FEFECE" filter="url(#ftoa0u9xlhncu)" height="99.8203" id="JWTBuilder" style="stroke:#A80036;stroke-width:1.5;" width="353" x="203" y="7"/><ellipse cx="344.25" cy="23" fill="#A9DCDF" rx="11" ry="11" style="stroke:#A80036;stroke-width:1.0;"/><path d="M344.1133,18.3481 L342.9595,23.4199 L345.2754,23.4199 Z M342.6191,16.1069 L345.6157,16.1069 L348.9609,28.5 L346.5122,28.5 L345.7485,25.437 L342.4697,25.437 L341.7227,28.5 L339.2739,28.5 Z " fill="#000000"/><text fill="#000000" font-family="sans-serif" font-size="12" font-style="italic" lengthAdjust="spacing" textLength="62" x="364.75" y="27.5352">JWTBuilder</text><line style="stroke:#A80036;stroke-width:1.5;" x1="204" x2="555" y1="39" y2="39"/><polygon fill="none" points="214,45,218,49,214,53,210,49" style="stroke:#B38D22;stroke-width:1.0;"/><text fill="#000000" font-family="sans-serif" font-size="11" lengthAdjust="spacing" textLength="115" x="223" y="53.6348">algorithm : Algorithm</text><line style="stroke:#A80036;stroke-width:1.5;" x1="204" x2="555" y1="59.9551" y2="59.9551"/><ellipse cx="214" cy="70.9551" fill="#84BE84" rx="3" ry="3" style="stroke:#038048;stroke-width:1.0;"/><text fill="#000000" font-family="sans-serif" font-size="11" lengthAdjust="spacing" textLength="160" x="223" y="74.5898">getToken() : Promise&lt;string&gt;</text><polygon fill="#FFFF44" points="214,78.9102,218,82.9102,214,86.9102,210,82.9102" style="stroke:#B38D22;stroke-width:1.0;"/><text fill="#000000" font-family="sans-serif" font-size="11" font-style="italic" lengthAdjust="spacing" textLength="327" x="223" y="87.5449">getPayloadMetadata() : Promise&lt;Record&lt;string, unknown&gt;&gt;</text><polygon fill="#FFFF44" points="214,91.8652,218,95.8652,214,99.8652,210,95.8652" style="stroke:#B38D22;stroke-width:1.0;"/><text fill="#000000" font-family="sans-serif" font-size="11" font-style="italic" lengthAdjust="spacing" textLength="179" x="223" y="100.5">getSecretKey() : Promise&lt;string&gt;</text><!--MD5=[ae46f0374e49338b6fed593b4af3c5b3]
class ManualJWTBuilder--><rect codeLine="10" fill="#FEFECE" filter="url(#ftoa0u9xlhncu)" height="99.8203" id="ManualJWTBuilder" style="stroke:#A80036;stroke-width:1.5;" width="353" x="9" y="180"/><ellipse cx="129.75" cy="196" fill="#ADD1B2" rx="11" ry="11" style="stroke:#A80036;stroke-width:1.0;"/><path d="M132.2231,202.1431 Q131.6421,202.4419 131.0029,202.5913 Q130.3638,202.7407 129.6582,202.7407 Q127.1514,202.7407 125.8315,201.0889 Q124.5117,199.437 124.5117,196.3159 Q124.5117,193.1865 125.8315,191.5347 Q127.1514,189.8828 129.6582,189.8828 Q130.3638,189.8828 131.0112,190.0322 Q131.6587,190.1816 132.2231,190.4805 L132.2231,193.2031 Q131.5923,192.6221 130.9988,192.3523 Q130.4053,192.0825 129.7744,192.0825 Q128.4297,192.0825 127.7449,193.1492 Q127.0601,194.2158 127.0601,196.3159 Q127.0601,198.4077 127.7449,199.4744 Q128.4297,200.541 129.7744,200.541 Q130.4053,200.541 130.9988,200.2712 Q131.5923,200.0015 132.2231,199.4204 Z " fill="#000000"/><text fill="#000000" font-family="sans-serif" font-size="12" lengthAdjust="spacing" textLength="103" x="150.25" y="200.5352">ManualJWTBuilder</text><line style="stroke:#A80036;stroke-width:1.5;" x1="10" x2="361" y1="212" y2="212"/><polygon fill="none" points="20,218,24,222,20,226,16,222" style="stroke:#B38D22;stroke-width:1.0;"/><text fill="#000000" font-family="sans-serif" font-size="11" lengthAdjust="spacing" textLength="115" x="29" y="226.6348">algorithm : Algorithm</text><line style="stroke:#A80036;stroke-width:1.5;" x1="10" x2="361" y1="232.9551" y2="232.9551"/><ellipse cx="20" cy="243.9551" fill="#84BE84" rx="3" ry="3" style="stroke:#038048;stroke-width:1.0;"/><text fill="#000000" font-family="sans-serif" font-size="11" lengthAdjust="spacing" textLength="160" x="29" y="247.5898">getToken() : Promise&lt;string&gt;</text><polygon fill="#FFFF44" points="20,251.9102,24,255.9102,20,259.9102,16,255.9102" style="stroke:#B38D22;stroke-width:1.0;"/><text fill="#000000" font-family="sans-serif" font-size="11" lengthAdjust="spacing" textLength="327" x="29" y="260.5449">getPayloadMetadata() : Promise&lt;Record&lt;string, unknown&gt;&gt;</text><polygon fill="#FFFF44" points="20,264.8652,24,268.8652,20,272.8652,16,268.8652" style="stroke:#B38D22;stroke-width:1.0;"/><text fill="#000000" font-family="sans-serif" font-size="11" lengthAdjust="spacing" textLength="179" x="29" y="273.5">getSecretKey() : Promise&lt;string&gt;</text><!--MD5=[fa5b8489b15d688ffbf28e710efd07cb]
class RequestJWTBuilder--><rect codeLine="17" fill="#FEFECE" filter="url(#ftoa0u9xlhncu)" height="125.7305" id="RequestJWTBuilder" style="stroke:#A80036;stroke-width:1.5;" width="353" x="397" y="167"/><ellipse cx="514.75" cy="183" fill="#A9DCDF" rx="11" ry="11" style="stroke:#A80036;stroke-width:1.0;"/><path d="M514.6133,178.3481 L513.4595,183.4199 L515.7754,183.4199 Z M513.1191,176.1069 L516.1157,176.1069 L519.4609,188.5 L517.0122,188.5 L516.2485,185.437 L512.9697,185.437 L512.2227,188.5 L509.7739,188.5 Z " fill="#000000"/><text fill="#000000" font-family="sans-serif" font-size="12" font-style="italic" lengthAdjust="spacing" textLength="109" x="535.25" y="187.5352">RequestJWTBuilder</text><line style="stroke:#A80036;stroke-width:1.5;" x1="398" x2="749" y1="199" y2="199"/><polygon fill="none" points="408,205,412,209,408,213,404,209" style="stroke:#B38D22;stroke-width:1.0;"/><text fill="#000000" font-family="sans-serif" font-size="11" lengthAdjust="spacing" textLength="115" x="417" y="213.6348">algorithm : Algorithm</text><rect fill="none" height="6" style="stroke:#C82930;stroke-width:1.0;" width="6" x="405" y="219.9551"/><text fill="#000000" font-family="sans-serif" font-size="11" lengthAdjust="spacing" textLength="216" x="417" y="226.5898">requestResponse : RequestJWTResponse</text><line style="stroke:#A80036;stroke-width:1.5;" x1="398" x2="749" y1="232.9102" y2="232.9102"/><ellipse cx="408" cy="243.9102" fill="#84BE84" rx="3" ry="3" style="stroke:#038048;stroke-width:1.0;"/><text fill="#000000" font-family="sans-serif" font-size="11" lengthAdjust="spacing" textLength="160" x="417" y="247.5449">getToken() : Promise&lt;string&gt;</text><polygon fill="#FFFF44" points="408,251.8652,412,255.8652,408,259.8652,404,255.8652" style="stroke:#B38D22;stroke-width:1.0;"/><text fill="#000000" font-family="sans-serif" font-size="11" lengthAdjust="spacing" textLength="327" x="417" y="260.5">getPayloadMetadata() : Promise&lt;Record&lt;string, unknown&gt;&gt;</text><polygon fill="#FFFF44" points="408,264.8203,412,268.8203,408,272.8203,404,268.8203" style="stroke:#B38D22;stroke-width:1.0;"/><text fill="#000000" font-family="sans-serif" font-size="11" font-style="italic" lengthAdjust="spacing" textLength="304" x="417" y="273.4551">getRequestResponse() : Promise&lt;RequestJWTResponse&gt;</text><polygon fill="#FFFF44" points="408,277.7754,412,281.7754,408,285.7754,404,281.7754" style="stroke:#B38D22;stroke-width:1.0;"/><text fill="#000000" font-family="sans-serif" font-size="11" lengthAdjust="spacing" textLength="179" x="417" y="286.4102">getSecretKey() : Promise&lt;string&gt;</text><!--MD5=[fd72994de6bac310a6de8286a056641a]
reverse link JWTBuilder to ManualJWTBuilder--><path codeLine="16" d="M308.85,120.28 C286.53,139.95 262.21,161.39 241.1,179.99 " fill="none" id="JWTBuilder-backto-ManualJWTBuilder" style="stroke:#A80036;stroke-width:1.0;"/><polygon fill="none" points="304.28,114.98,323.91,107,313.53,125.48,304.28,114.98" style="stroke:#A80036;stroke-width:1.0;"/><!--MD5=[6ce3522bfece337b4ac2f513242f7585]
reverse link JWTBuilder to RequestJWTBuilder--><path codeLine="25" d="M450.18,120.3 C467.39,135.47 485.81,151.7 503.01,166.87 " fill="none" id="JWTBuilder-backto-RequestJWTBuilder" style="stroke:#A80036;stroke-width:1.0;"/><polygon fill="none" points="445.47,125.48,435.09,107,454.72,114.98,445.47,125.48" style="stroke:#A80036;stroke-width:1.0;"/><!--MD5=[537a224249335753b322e416454fa870]
@startuml
skinparam BackgroundColor transparent
hide empty methods
hide empty fields
abstract class "JWTBuilder" {
    #algorithm : Algorithm
    +getToken() : Promise<string>
    {abstract} #getPayloadMetadata() : Promise<Record<string, unknown>>
    {abstract} #getSecretKey() : Promise<string>
}
class "ManualJWTBuilder" {
    #algorithm : Algorithm
    +getToken() : Promise<string>
    #getPayloadMetadata() : Promise<Record<string, unknown>>
    #getSecretKey() : Promise<string>
}
"JWTBuilder" <|- - "ManualJWTBuilder"
abstract class "RequestJWTBuilder" {
    #algorithm : Algorithm
    -requestResponse : RequestJWTResponse
    +getToken() : Promise<string>
    #getPayloadMetadata() : Promise<Record<string, unknown>>
    {abstract} #getRequestResponse() : Promise<RequestJWTResponse>
    #getSecretKey() : Promise<string>
}
"JWTBuilder" <|- - "RequestJWTBuilder"
@enduml

PlantUML version 1.2021.6(Fri May 14 09:09:51 CEST 2021)
(GPL source distribution)
Java Runtime: Java(TM) SE Runtime Environment
JVM: Java HotSpot(TM) 64-Bit Server VM
Default Encoding: UTF-8
Language: en
Country: GB
--></g></svg>