<?xml version="1.0" encoding="UTF-8" standalone="no"?><svg xmlns="http://www.w3.org/2000/svg" xmlns:xlink="http://www.w3.org/1999/xlink" contentScriptType="application/ecmascript" contentStyleType="text/css" height="280px" preserveAspectRatio="none" style="width:376px;height:280px;background:#00000000;" version="1.1" viewBox="0 0 376 280" width="376px" zoomAndPan="magnify"><defs><filter height="300%" id="f5oa42kjba5ky" width="300%" x="-1" y="-1"><feGaussianBlur result="blurOut" stdDeviation="2.0"/><feColorMatrix in="blurOut" result="blurOut2" type="matrix" values="0 0 0 0 0 0 0 0 0 0 0 0 0 0 0 0 0 0 .4 0"/><feOffset dx="4.0" dy="4.0" in="blurOut2" result="blurOut3"/><feBlend in="SourceGraphic" in2="blurOut3" mode="normal"/></filter></defs><g><!--MD5=[ae46f0374e49338b6fed593b4af3c5b3]
class ManualJWTBuilder--><rect codeLine="4" fill="#FEFECE" filter="url(#f5oa42kjba5ky)" height="99.8203" id="ManualJWTBuilder" style="stroke:#A80036;stroke-width:1.5;" width="353" x="9" y="167"/><ellipse cx="129.75" cy="183" fill="#ADD1B2" rx="11" ry="11" style="stroke:#A80036;stroke-width:1.0;"/><path d="M132.2231,189.1431 Q131.6421,189.4419 131.0029,189.5913 Q130.3638,189.7407 129.6582,189.7407 Q127.1514,189.7407 125.8315,188.0889 Q124.5117,186.437 124.5117,183.3159 Q124.5117,180.1865 125.8315,178.5347 Q127.1514,176.8828 129.6582,176.8828 Q130.3638,176.8828 131.0112,177.0322 Q131.6587,177.1816 132.2231,177.4805 L132.2231,180.2031 Q131.5923,179.6221 130.9988,179.3523 Q130.4053,179.0825 129.7744,179.0825 Q128.4297,179.0825 127.7449,180.1492 Q127.0601,181.2158 127.0601,183.3159 Q127.0601,185.4077 127.7449,186.4744 Q128.4297,187.541 129.7744,187.541 Q130.4053,187.541 130.9988,187.2712 Q131.5923,187.0015 132.2231,186.4204 Z " fill="#000000"/><text fill="#000000" font-family="sans-serif" font-size="12" lengthAdjust="spacing" textLength="103" x="150.25" y="187.5352">ManualJWTBuilder</text><line style="stroke:#A80036;stroke-width:1.5;" x1="10" x2="361" y1="199" y2="199"/><polygon fill="none" points="20,205,24,209,20,213,16,209" style="stroke:#B38D22;stroke-width:1.0;"/><text fill="#000000" font-family="sans-serif" font-size="11" lengthAdjust="spacing" textLength="115" x="29" y="213.6348">algorithm : Algorithm</text><line style="stroke:#A80036;stroke-width:1.5;" x1="10" x2="361" y1="219.9551" y2="219.9551"/><ellipse cx="20" cy="230.9551" fill="#84BE84" rx="3" ry="3" style="stroke:#038048;stroke-width:1.0;"/><text fill="#000000" font-family="sans-serif" font-size="11" lengthAdjust="spacing" textLength="160" x="29" y="234.5898">getToken() : Promise&lt;string&gt;</text><polygon fill="#FFFF44" points="20,238.9102,24,242.9102,20,246.9102,16,242.9102" style="stroke:#B38D22;stroke-width:1.0;"/><text fill="#000000" font-family="sans-serif" font-size="11" lengthAdjust="spacing" textLength="327" x="29" y="247.5449">getPayloadMetadata() : Promise&lt;Record&lt;string, unknown&gt;&gt;</text><polygon fill="#FFFF44" points="20,251.8652,24,255.8652,20,259.8652,16,255.8652" style="stroke:#B38D22;stroke-width:1.0;"/><text fill="#000000" font-family="sans-serif" font-size="11" lengthAdjust="spacing" textLength="179" x="29" y="260.5">getSecretKey() : Promise&lt;string&gt;</text><!--MD5=[ad4d8e186bc8c68c5fd887e213478086]
class JWTBuilder--><rect codeLine="10" fill="#FEFECE" filter="url(#f5oa42kjba5ky)" height="99.8203" id="JWTBuilder" style="stroke:#A80036;stroke-width:1.5;" width="353" x="9" y="7"/><ellipse cx="150.25" cy="23" fill="#A9DCDF" rx="11" ry="11" style="stroke:#A80036;stroke-width:1.0;"/><path d="M150.1133,18.3481 L148.9595,23.4199 L151.2754,23.4199 Z M148.6191,16.1069 L151.6157,16.1069 L154.9609,28.5 L152.5122,28.5 L151.7485,25.437 L148.4697,25.437 L147.7227,28.5 L145.2739,28.5 Z " fill="#000000"/><text fill="#000000" font-family="sans-serif" font-size="12" font-style="italic" lengthAdjust="spacing" textLength="62" x="170.75" y="27.5352">JWTBuilder</text><line style="stroke:#A80036;stroke-width:1.5;" x1="10" x2="361" y1="39" y2="39"/><polygon fill="none" points="20,45,24,49,20,53,16,49" style="stroke:#B38D22;stroke-width:1.0;"/><text fill="#000000" font-family="sans-serif" font-size="11" lengthAdjust="spacing" textLength="115" x="29" y="53.6348">algorithm : Algorithm</text><line style="stroke:#A80036;stroke-width:1.5;" x1="10" x2="361" y1="59.9551" y2="59.9551"/><ellipse cx="20" cy="70.9551" fill="#84BE84" rx="3" ry="3" style="stroke:#038048;stroke-width:1.0;"/><text fill="#000000" font-family="sans-serif" font-size="11" lengthAdjust="spacing" textLength="160" x="29" y="74.5898">getToken() : Promise&lt;string&gt;</text><polygon fill="#FFFF44" points="20,78.9102,24,82.9102,20,86.9102,16,82.9102" style="stroke:#B38D22;stroke-width:1.0;"/><text fill="#000000" font-family="sans-serif" font-size="11" font-style="italic" lengthAdjust="spacing" textLength="327" x="29" y="87.5449">getPayloadMetadata() : Promise&lt;Record&lt;string, unknown&gt;&gt;</text><polygon fill="#FFFF44" points="20,91.8652,24,95.8652,20,99.8652,16,95.8652" style="stroke:#B38D22;stroke-width:1.0;"/><text fill="#000000" font-family="sans-serif" font-size="11" font-style="italic" lengthAdjust="spacing" textLength="179" x="29" y="100.5">getSecretKey() : Promise&lt;string&gt;</text><!--MD5=[fd72994de6bac310a6de8286a056641a]
reverse link JWTBuilder to ManualJWTBuilder--><path codeLine="16" d="M185.5,127.48 C185.5,140.77 185.5,154.42 185.5,166.9 " fill="none" id="JWTBuilder-backto-ManualJWTBuilder" style="stroke:#A80036;stroke-width:1.0;"/><polygon fill="none" points="178.5,127.13,185.5,107.13,192.5,127.13,178.5,127.13" style="stroke:#A80036;stroke-width:1.0;"/><!--MD5=[1efd7ed18ee208f5444cca1fe50b2c47]
@startuml
skinparam BackgroundColor transparent
hide empty methods
hide empty fields
class "ManualJWTBuilder" {
    #algorithm : Algorithm
    +getToken() : Promise<string>
    #getPayloadMetadata() : Promise<Record<string, unknown>>
    #getSecretKey() : Promise<string>
}
abstract class "JWTBuilder" {
    #algorithm : Algorithm
    +getToken() : Promise<string>
    {abstract} #getPayloadMetadata() : Promise<Record<string, unknown>>
    {abstract} #getSecretKey() : Promise<string>
}
"JWTBuilder" <|- - "ManualJWTBuilder"
@enduml

PlantUML version 1.2021.14(Fri Nov 12 17:46:50 CET 2021)
(GPL source distribution)
Java Runtime: Java(TM) SE Runtime Environment
JVM: Java HotSpot(TM) 64-Bit Server VM
Default Encoding: UTF-8
Language: en
Country: GB
--></g></svg>