<?xml version="1.0" encoding="UTF-8" standalone="no"?><svg xmlns="http://www.w3.org/2000/svg" xmlns:xlink="http://www.w3.org/1999/xlink" contentScriptType="application/ecmascript" contentStyleType="text/css" height="280px" preserveAspectRatio="none" style="width:266px;height:280px;background:#00000000;" version="1.1" viewBox="0 0 266 280" width="266px" zoomAndPan="magnify"><defs><filter height="300%" id="febhblhe3iby6" width="300%" x="-1" y="-1"><feGaussianBlur result="blurOut" stdDeviation="2.0"/><feColorMatrix in="blurOut" result="blurOut2" type="matrix" values="0 0 0 0 0 0 0 0 0 0 0 0 0 0 0 0 0 0 .4 0"/><feOffset dx="4.0" dy="4.0" in="blurOut2" result="blurOut3"/><feBlend in="SourceGraphic" in2="blurOut3" mode="normal"/></filter></defs><g><!--MD5=[ae46f0374e49338b6fed593b4af3c5b3]
class ManualJWTBuilder--><rect codeLine="4" fill="#FEFECE" filter="url(#febhblhe3iby6)" height="99.8203" id="ManualJWTBuilder" style="stroke:#A80036;stroke-width:1.5;" width="243" x="9" y="167"/><ellipse cx="74.75" cy="183" fill="#ADD1B2" rx="11" ry="11" style="stroke:#A80036;stroke-width:1.0;"/><path d="M77.2231,189.1431 Q76.6421,189.4419 76.0029,189.5913 Q75.3638,189.7407 74.6582,189.7407 Q72.1514,189.7407 70.8315,188.0889 Q69.5117,186.437 69.5117,183.3159 Q69.5117,180.1865 70.8315,178.5347 Q72.1514,176.8828 74.6582,176.8828 Q75.3638,176.8828 76.0112,177.0322 Q76.6587,177.1816 77.2231,177.4805 L77.2231,180.2031 Q76.5923,179.6221 75.9988,179.3523 Q75.4053,179.0825 74.7744,179.0825 Q73.4297,179.0825 72.7449,180.1492 Q72.0601,181.2158 72.0601,183.3159 Q72.0601,185.4077 72.7449,186.4744 Q73.4297,187.541 74.7744,187.541 Q75.4053,187.541 75.9988,187.2712 Q76.5923,187.0015 77.2231,186.4204 Z " fill="#000000"/><text fill="#000000" font-family="sans-serif" font-size="12" lengthAdjust="spacing" textLength="103" x="95.25" y="187.5352">ManualJWTBuilder</text><line style="stroke:#A80036;stroke-width:1.5;" x1="10" x2="251" y1="199" y2="199"/><polygon fill="none" points="20,205,24,209,20,213,16,209" style="stroke:#B38D22;stroke-width:1.0;"/><text fill="#000000" font-family="sans-serif" font-size="11" lengthAdjust="spacing" textLength="115" x="29" y="213.6348">algorithm : Algorithm</text><line style="stroke:#A80036;stroke-width:1.5;" x1="10" x2="251" y1="219.9551" y2="219.9551"/><ellipse cx="20" cy="230.9551" fill="#84BE84" rx="3" ry="3" style="stroke:#038048;stroke-width:1.0;"/><text fill="#000000" font-family="sans-serif" font-size="11" lengthAdjust="spacing" textLength="160" x="29" y="234.5898">getToken() : Promise&lt;string&gt;</text><polygon fill="#FFFF44" points="20,238.9102,24,242.9102,20,246.9102,16,242.9102" style="stroke:#B38D22;stroke-width:1.0;"/><text fill="#000000" font-family="sans-serif" font-size="11" lengthAdjust="spacing" textLength="217" x="29" y="247.5449">getPayloadMetadata() : Promise&lt;object&gt;</text><polygon fill="#FFFF44" points="20,251.8652,24,255.8652,20,259.8652,16,255.8652" style="stroke:#B38D22;stroke-width:1.0;"/><text fill="#000000" font-family="sans-serif" font-size="11" lengthAdjust="spacing" textLength="179" x="29" y="260.5">getSecretKey() : Promise&lt;string&gt;</text><!--MD5=[ad4d8e186bc8c68c5fd887e213478086]
class JWTBuilder--><rect codeLine="10" fill="#FEFECE" filter="url(#febhblhe3iby6)" height="99.8203" id="JWTBuilder" style="stroke:#A80036;stroke-width:1.5;" width="243" x="9" y="7"/><ellipse cx="95.25" cy="23" fill="#A9DCDF" rx="11" ry="11" style="stroke:#A80036;stroke-width:1.0;"/><path d="M95.1133,18.3481 L93.9595,23.4199 L96.2754,23.4199 Z M93.6191,16.1069 L96.6157,16.1069 L99.9609,28.5 L97.5122,28.5 L96.7485,25.437 L93.4697,25.437 L92.7227,28.5 L90.2739,28.5 Z " fill="#000000"/><text fill="#000000" font-family="sans-serif" font-size="12" font-style="italic" lengthAdjust="spacing" textLength="62" x="115.75" y="27.5352">JWTBuilder</text><line style="stroke:#A80036;stroke-width:1.5;" x1="10" x2="251" y1="39" y2="39"/><polygon fill="none" points="20,45,24,49,20,53,16,49" style="stroke:#B38D22;stroke-width:1.0;"/><text fill="#000000" font-family="sans-serif" font-size="11" lengthAdjust="spacing" textLength="115" x="29" y="53.6348">algorithm : Algorithm</text><line style="stroke:#A80036;stroke-width:1.5;" x1="10" x2="251" y1="59.9551" y2="59.9551"/><ellipse cx="20" cy="70.9551" fill="#84BE84" rx="3" ry="3" style="stroke:#038048;stroke-width:1.0;"/><text fill="#000000" font-family="sans-serif" font-size="11" lengthAdjust="spacing" textLength="160" x="29" y="74.5898">getToken() : Promise&lt;string&gt;</text><polygon fill="#FFFF44" points="20,78.9102,24,82.9102,20,86.9102,16,82.9102" style="stroke:#B38D22;stroke-width:1.0;"/><text fill="#000000" font-family="sans-serif" font-size="11" font-style="italic" lengthAdjust="spacing" textLength="217" x="29" y="87.5449">getPayloadMetadata() : Promise&lt;object&gt;</text><polygon fill="#FFFF44" points="20,91.8652,24,95.8652,20,99.8652,16,95.8652" style="stroke:#B38D22;stroke-width:1.0;"/><text fill="#000000" font-family="sans-serif" font-size="11" font-style="italic" lengthAdjust="spacing" textLength="179" x="29" y="100.5">getSecretKey() : Promise&lt;string&gt;</text><!--MD5=[fd72994de6bac310a6de8286a056641a]
reverse link JWTBuilder to ManualJWTBuilder--><path codeLine="16" d="M130.5,127.48 C130.5,140.77 130.5,154.42 130.5,166.9 " fill="none" id="JWTBuilder-backto-ManualJWTBuilder" style="stroke:#A80036;stroke-width:1.0;"/><polygon fill="none" points="123.5,127.13,130.5,107.13,137.5,127.13,123.5,127.13" style="stroke:#A80036;stroke-width:1.0;"/><!--MD5=[91351a85839d1783d5fa2c287837c726]
@startuml
skinparam BackgroundColor transparent
hide empty methods
hide empty fields
class "ManualJWTBuilder" {
    #algorithm : Algorithm
    +getToken() : Promise<string>
    #getPayloadMetadata() : Promise<object>
    #getSecretKey() : Promise<string>
}
abstract class "JWTBuilder" {
    #algorithm : Algorithm
    +getToken() : Promise<string>
    {abstract} #getPayloadMetadata() : Promise<object>
    {abstract} #getSecretKey() : Promise<string>
}
"JWTBuilder" <|- - "ManualJWTBuilder"
@enduml

PlantUML version 1.2021.6(Fri May 14 09:09:51 CEST 2021)
(GPL source distribution)
Java Runtime: Java(TM) SE Runtime Environment
JVM: Java HotSpot(TM) 64-Bit Server VM
Default Encoding: UTF-8
Language: en
Country: GB
--></g></svg>