<?xml version="1.0" encoding="UTF-8" standalone="no"?><svg xmlns="http://www.w3.org/2000/svg" xmlns:xlink="http://www.w3.org/1999/xlink" contentScriptType="application/ecmascript" contentStyleType="text/css" height="363px" preserveAspectRatio="none" style="width:326px;height:363px;background:#00000000;" version="1.1" viewBox="0 0 326 363" width="326px" zoomAndPan="magnify"><defs><filter height="300%" id="f1xs01x2ineji3" width="300%" x="-1" y="-1"><feGaussianBlur result="blurOut" stdDeviation="2.0"/><feColorMatrix in="blurOut" result="blurOut2" type="matrix" values="0 0 0 0 0 0 0 0 0 0 0 0 0 0 0 0 0 0 .4 0"/><feOffset dx="4.0" dy="4.0" in="blurOut2" result="blurOut3"/><feBlend in="SourceGraphic" in2="blurOut3" mode="normal"/></filter></defs><g><!--MD5=[7c85254ff7c2099153d5ab7d81ee2736]
class OauthRefreshAuthenticator--><rect codeLine="4" fill="#FEFECE" filter="url(#f1xs01x2ineji3)" height="216.416" id="OauthRefreshAuthenticator" style="stroke:#A80036;stroke-width:1.5;" width="302" x="9" y="133"/><ellipse cx="78.75" cy="149" fill="#ADD1B2" rx="11" ry="11" style="stroke:#A80036;stroke-width:1.0;"/><path d="M81.2231,155.1431 Q80.6421,155.4419 80.0029,155.5913 Q79.3638,155.7407 78.6582,155.7407 Q76.1514,155.7407 74.8315,154.0889 Q73.5117,152.437 73.5117,149.3159 Q73.5117,146.1865 74.8315,144.5347 Q76.1514,142.8828 78.6582,142.8828 Q79.3638,142.8828 80.0112,143.0322 Q80.6587,143.1816 81.2231,143.4805 L81.2231,146.2031 Q80.5923,145.6221 79.9988,145.3523 Q79.4053,145.0825 78.7744,145.0825 Q77.4297,145.0825 76.7449,146.1492 Q76.0601,147.2158 76.0601,149.3159 Q76.0601,151.4077 76.7449,152.4744 Q77.4297,153.541 78.7744,153.541 Q79.4053,153.541 79.9988,153.2712 Q80.5923,153.0015 81.2231,152.4204 Z " fill="#000000"/><text fill="#000000" font-family="sans-serif" font-size="12" lengthAdjust="spacing" textLength="154" x="99.25" y="153.5352">OauthRefreshAuthenticator</text><line style="stroke:#A80036;stroke-width:1.5;" x1="10" x2="310" y1="165" y2="165"/><polygon fill="none" points="20,171,24,175,20,179,16,175" style="stroke:#B38D22;stroke-width:1.0;"/><text fill="#000000" font-family="sans-serif" font-size="11" lengthAdjust="spacing" textLength="80" x="29" y="179.6348">clientId : string</text><polygon fill="none" points="20,183.9551,24,187.9551,20,191.9551,16,187.9551" style="stroke:#B38D22;stroke-width:1.0;"/><text fill="#000000" font-family="sans-serif" font-size="11" lengthAdjust="spacing" textLength="103" x="29" y="192.5898">clientSecret : string</text><polygon fill="none" points="20,196.9102,24,200.9102,20,204.9102,16,200.9102" style="stroke:#B38D22;stroke-width:1.0;"/><text fill="#000000" font-family="sans-serif" font-size="11" lengthAdjust="spacing" textLength="94" x="29" y="205.5449">hostname : string</text><polygon fill="none" points="20,209.8652,24,213.8652,20,217.8652,16,213.8652" style="stroke:#B38D22;stroke-width:1.0;"/><text fill="#000000" font-family="sans-serif" font-size="11" lengthAdjust="spacing" textLength="82" x="29" y="218.5">method : string</text><polygon fill="none" points="20,222.8203,24,226.8203,20,230.8203,16,226.8203" style="stroke:#B38D22;stroke-width:1.0;"/><text fill="#000000" font-family="sans-serif" font-size="11" lengthAdjust="spacing" textLength="65" x="29" y="231.4551">path : string</text><polygon fill="none" points="20,235.7754,24,239.7754,20,243.7754,16,239.7754" style="stroke:#B38D22;stroke-width:1.0;"/><text fill="#000000" font-family="sans-serif" font-size="11" lengthAdjust="spacing" textLength="198" x="29" y="244.4102">postParams : Record&lt;string, string&gt;</text><polygon fill="none" points="20,248.7305,24,252.7305,20,256.7305,16,252.7305" style="stroke:#B38D22;stroke-width:1.0;"/><text fill="#000000" font-family="sans-serif" font-size="11" lengthAdjust="spacing" textLength="191" x="29" y="257.3652">responseEncoding : BufferEncoding</text><rect fill="none" height="6" style="stroke:#C82930;stroke-width:1.0;" width="6" x="17" y="263.6855"/><text fill="#000000" font-family="sans-serif" font-size="11" lengthAdjust="spacing" textLength="125" x="29" y="270.3203">authenticated : boolean</text><rect fill="none" height="6" style="stroke:#C82930;stroke-width:1.0;" width="6" x="17" y="276.6406"/><text fill="#000000" font-family="sans-serif" font-size="11" lengthAdjust="spacing" textLength="236" x="29" y="283.2754">lastResponse : null | OauthRefreshResponse</text><line style="stroke:#A80036;stroke-width:1.5;" x1="10" x2="310" y1="289.5957" y2="289.5957"/><ellipse cx="20" cy="300.5957" fill="#84BE84" rx="3" ry="3" style="stroke:#038048;stroke-width:1.0;"/><text fill="#000000" font-family="sans-serif" font-size="11" lengthAdjust="spacing" textLength="270" x="29" y="304.2305">authenticate() : Promise&lt;OauthRefreshResponse&gt;</text><ellipse cx="20" cy="313.5508" fill="#84BE84" rx="3" ry="3" style="stroke:#038048;stroke-width:1.0;"/><text fill="#000000" font-family="sans-serif" font-size="11" lengthAdjust="spacing" textLength="264" x="29" y="317.1855">getLastResponse() : null | OauthRefreshResponse</text><ellipse cx="20" cy="326.5059" fill="#84BE84" rx="3" ry="3" style="stroke:#038048;stroke-width:1.0;"/><text fill="#000000" font-family="sans-serif" font-size="11" lengthAdjust="spacing" textLength="144" x="29" y="330.1406">isAuthenticated() : boolean</text><ellipse cx="20" cy="339.4609" fill="#84BE84" rx="3" ry="3" style="stroke:#038048;stroke-width:1.0;"/><text fill="#000000" font-family="sans-serif" font-size="11" lengthAdjust="spacing" textLength="276" x="29" y="343.0957">refreshToken() : Promise&lt;OauthRefreshResponse&gt;</text><!--MD5=[2573dc23f3bec57b7108c14f4332e5a8]
class TapjawAuthenticator<OauthRefreshResponse>--><rect codeLine="19" fill="#FEFECE" filter="url(#f1xs01x2ineji3)" height="65.9102" id="TapjawAuthenticator&lt;OauthRefreshResponse&gt;" style="stroke:#A80036;stroke-width:1.5;" width="305" x="7.5" y="7"/><ellipse cx="22.5" cy="23" fill="#B4A7E5" rx="11" ry="11" style="stroke:#A80036;stroke-width:1.0;"/><path d="M18.9277,19.2651 L18.9277,17.1069 L26.3071,17.1069 L26.3071,19.2651 L23.8418,19.2651 L23.8418,27.3418 L26.3071,27.3418 L26.3071,29.5 L18.9277,29.5 L18.9277,27.3418 L21.3931,27.3418 L21.3931,19.2651 Z " fill="#000000"/><text fill="#000000" font-family="sans-serif" font-size="12" font-style="italic" lengthAdjust="spacing" textLength="273" x="36.5" y="27.5352">TapjawAuthenticator&lt;OauthRefreshResponse&gt;</text><line style="stroke:#A80036;stroke-width:1.5;" x1="8.5" x2="311.5" y1="39" y2="39"/><ellipse cx="18.5" cy="50" fill="#84BE84" rx="3" ry="3" style="stroke:#038048;stroke-width:1.0;"/><text fill="#000000" font-family="sans-serif" font-size="11" lengthAdjust="spacing" textLength="270" x="27.5" y="53.6348">authenticate() : Promise&lt;OauthRefreshResponse&gt;</text><ellipse cx="18.5" cy="62.9551" fill="#84BE84" rx="3" ry="3" style="stroke:#038048;stroke-width:1.0;"/><text fill="#000000" font-family="sans-serif" font-size="11" lengthAdjust="spacing" textLength="144" x="27.5" y="66.5898">isAuthenticated() : boolean</text><!--MD5=[8ea51f9947beac576cc8e077f46624bf]
reverse link TapjawAuthenticator<OauthRefreshResponse> to OauthRefreshAuthenticator--><path codeLine="23" d="M160,93.73 C160,105.86 160,119.19 160,132.71 " fill="none" id="TapjawAuthenticator&lt;OauthRefreshResponse&gt;-backto-OauthRefreshAuthenticator" style="stroke:#A80036;stroke-width:1.0;stroke-dasharray:7.0,7.0;"/><polygon fill="none" points="153,93.42,160,73.42,167,93.42,153,93.42" style="stroke:#A80036;stroke-width:1.0;"/><!--MD5=[a5c78670b1afe39d6f28c02bdcacac5b]
@startuml
skinparam BackgroundColor transparent
hide empty methods
hide empty fields
class "OauthRefreshAuthenticator" {
    #clientId : string
    #clientSecret : string
    #hostname : string
    #method : string
    #path : string
    #postParams : Record<string, string>
    #responseEncoding : BufferEncoding
    -authenticated : boolean
    -lastResponse : null | OauthRefreshResponse
    +authenticate() : Promise<OauthRefreshResponse>
    +getLastResponse() : null | OauthRefreshResponse
    +isAuthenticated() : boolean
    +refreshToken() : Promise<OauthRefreshResponse>
}
interface "TapjawAuthenticator<OauthRefreshResponse>" {
    +authenticate() : Promise<OauthRefreshResponse>
    +isAuthenticated() : boolean
}
"TapjawAuthenticator<OauthRefreshResponse>" <|.. "OauthRefreshAuthenticator"
@enduml

PlantUML version 1.2021.6(Fri May 14 09:09:51 CEST 2021)
(GPL source distribution)
Java Runtime: Java(TM) SE Runtime Environment
JVM: Java HotSpot(TM) 64-Bit Server VM
Default Encoding: UTF-8
Language: en
Country: GB
--></g></svg>