<?xml version="1.0" encoding="UTF-8" standalone="no"?><svg xmlns="http://www.w3.org/2000/svg" xmlns:xlink="http://www.w3.org/1999/xlink" contentScriptType="application/ecmascript" contentStyleType="text/css" height="350px" preserveAspectRatio="none" style="width:282px;height:350px;background:#00000000;" version="1.1" viewBox="0 0 282 350" width="282px" zoomAndPan="magnify"><defs><filter height="300%" id="f1on2oyu40k90n" width="300%" x="-1" y="-1"><feGaussianBlur result="blurOut" stdDeviation="2.0"/><feColorMatrix in="blurOut" result="blurOut2" type="matrix" values="0 0 0 0 0 0 0 0 0 0 0 0 0 0 0 0 0 0 .4 0"/><feOffset dx="4.0" dy="4.0" in="blurOut2" result="blurOut3"/><feBlend in="SourceGraphic" in2="blurOut3" mode="normal"/></filter></defs><g><!--MD5=[b4b69a192bef2638464d20bdde1c1816]
class OAuthAuthenticator--><rect codeLine="4" fill="#FEFECE" filter="url(#f1on2oyu40k90n)" height="203.4609" id="OAuthAuthenticator" style="stroke:#A80036;stroke-width:1.5;" width="255" x="10" y="133"/><ellipse cx="77.75" cy="149" fill="#ADD1B2" rx="11" ry="11" style="stroke:#A80036;stroke-width:1.0;"/><path d="M80.2231,155.1431 Q79.6421,155.4419 79.0029,155.5913 Q78.3638,155.7407 77.6582,155.7407 Q75.1514,155.7407 73.8315,154.0889 Q72.5117,152.437 72.5117,149.3159 Q72.5117,146.1865 73.8315,144.5347 Q75.1514,142.8828 77.6582,142.8828 Q78.3638,142.8828 79.0112,143.0322 Q79.6587,143.1816 80.2231,143.4805 L80.2231,146.2031 Q79.5923,145.6221 78.9988,145.3523 Q78.4053,145.0825 77.7744,145.0825 Q76.4297,145.0825 75.7449,146.1492 Q75.0601,147.2158 75.0601,149.3159 Q75.0601,151.4077 75.7449,152.4744 Q76.4297,153.541 77.7744,153.541 Q78.4053,153.541 78.9988,153.2712 Q79.5923,153.0015 80.2231,152.4204 Z " fill="#000000"/><text fill="#000000" font-family="sans-serif" font-size="12" lengthAdjust="spacing" textLength="111" x="98.25" y="153.5352">OAuthAuthenticator</text><line style="stroke:#A80036;stroke-width:1.5;" x1="11" x2="264" y1="165" y2="165"/><polygon fill="none" points="21,171,25,175,21,179,17,175" style="stroke:#B38D22;stroke-width:1.0;"/><text fill="#000000" font-family="sans-serif" font-size="11" lengthAdjust="spacing" textLength="80" x="30" y="179.6348">clientId : string</text><polygon fill="none" points="21,183.9551,25,187.9551,21,191.9551,17,187.9551" style="stroke:#B38D22;stroke-width:1.0;"/><text fill="#000000" font-family="sans-serif" font-size="11" lengthAdjust="spacing" textLength="103" x="30" y="192.5898">clientSecret : string</text><polygon fill="none" points="21,196.9102,25,200.9102,21,204.9102,17,200.9102" style="stroke:#B38D22;stroke-width:1.0;"/><text fill="#000000" font-family="sans-serif" font-size="11" lengthAdjust="spacing" textLength="94" x="30" y="205.5449">hostname : string</text><polygon fill="none" points="21,209.8652,25,213.8652,21,217.8652,17,213.8652" style="stroke:#B38D22;stroke-width:1.0;"/><text fill="#000000" font-family="sans-serif" font-size="11" lengthAdjust="spacing" textLength="82" x="30" y="218.5">method : string</text><polygon fill="none" points="21,222.8203,25,226.8203,21,230.8203,17,226.8203" style="stroke:#B38D22;stroke-width:1.0;"/><text fill="#000000" font-family="sans-serif" font-size="11" lengthAdjust="spacing" textLength="65" x="30" y="231.4551">path : string</text><polygon fill="none" points="21,235.7754,25,239.7754,21,243.7754,17,239.7754" style="stroke:#B38D22;stroke-width:1.0;"/><text fill="#000000" font-family="sans-serif" font-size="11" lengthAdjust="spacing" textLength="185" x="30" y="244.4102">postParams : ParsedUrlQueryInput</text><polygon fill="none" points="21,248.7305,25,252.7305,21,256.7305,17,252.7305" style="stroke:#B38D22;stroke-width:1.0;"/><text fill="#000000" font-family="sans-serif" font-size="11" lengthAdjust="spacing" textLength="191" x="30" y="257.3652">responseEncoding : BufferEncoding</text><rect fill="none" height="6" style="stroke:#C82930;stroke-width:1.0;" width="6" x="18" y="263.6855"/><text fill="#000000" font-family="sans-serif" font-size="11" lengthAdjust="spacing" textLength="125" x="30" y="270.3203">authenticated : boolean</text><rect fill="none" height="6" style="stroke:#C82930;stroke-width:1.0;" width="6" x="18" y="276.6406"/><text fill="#000000" font-family="sans-serif" font-size="11" lengthAdjust="spacing" textLength="195" x="30" y="283.2754">lastResponse : null | OauthResponse</text><line style="stroke:#A80036;stroke-width:1.5;" x1="11" x2="264" y1="289.5957" y2="289.5957"/><ellipse cx="21" cy="300.5957" fill="#84BE84" rx="3" ry="3" style="stroke:#038048;stroke-width:1.0;"/><text fill="#000000" font-family="sans-serif" font-size="11" lengthAdjust="spacing" textLength="229" x="30" y="304.2305">authenticate() : Promise&lt;OauthResponse&gt;</text><ellipse cx="21" cy="313.5508" fill="#84BE84" rx="3" ry="3" style="stroke:#038048;stroke-width:1.0;"/><text fill="#000000" font-family="sans-serif" font-size="11" lengthAdjust="spacing" textLength="223" x="30" y="317.1855">getLastResponse() : null | OauthResponse</text><ellipse cx="21" cy="326.5059" fill="#84BE84" rx="3" ry="3" style="stroke:#038048;stroke-width:1.0;"/><text fill="#000000" font-family="sans-serif" font-size="11" lengthAdjust="spacing" textLength="144" x="30" y="330.1406">isAuthenticated() : boolean</text><!--MD5=[2f52cc4c12ad2b4d35a84f3c66c57b87]
class TapjawAuthenticator<OauthResponse>--><rect codeLine="18" fill="#FEFECE" filter="url(#f1on2oyu40k90n)" height="65.9102" id="TapjawAuthenticator&lt;OauthResponse&gt;" style="stroke:#A80036;stroke-width:1.5;" width="261" x="7" y="7"/><ellipse cx="22" cy="23" fill="#B4A7E5" rx="11" ry="11" style="stroke:#A80036;stroke-width:1.0;"/><path d="M18.4277,19.2651 L18.4277,17.1069 L25.8071,17.1069 L25.8071,19.2651 L23.3418,19.2651 L23.3418,27.3418 L25.8071,27.3418 L25.8071,29.5 L18.4277,29.5 L18.4277,27.3418 L20.8931,27.3418 L20.8931,19.2651 Z " fill="#000000"/><text fill="#000000" font-family="sans-serif" font-size="12" font-style="italic" lengthAdjust="spacing" textLength="229" x="36" y="27.5352">TapjawAuthenticator&lt;OauthResponse&gt;</text><line style="stroke:#A80036;stroke-width:1.5;" x1="8" x2="267" y1="39" y2="39"/><ellipse cx="18" cy="50" fill="#84BE84" rx="3" ry="3" style="stroke:#038048;stroke-width:1.0;"/><text fill="#000000" font-family="sans-serif" font-size="11" lengthAdjust="spacing" textLength="229" x="27" y="53.6348">authenticate() : Promise&lt;OauthResponse&gt;</text><ellipse cx="18" cy="62.9551" fill="#84BE84" rx="3" ry="3" style="stroke:#038048;stroke-width:1.0;"/><text fill="#000000" font-family="sans-serif" font-size="11" lengthAdjust="spacing" textLength="144" x="27" y="66.5898">isAuthenticated() : boolean</text><!--MD5=[4c0574b23e95aa73b32d144a75bb21b4]
reverse link TapjawAuthenticator<OauthResponse> to OAuthAuthenticator--><path codeLine="22" d="M137.5,93.61 C137.5,105.78 137.5,119.12 137.5,132.59 " fill="none" id="TapjawAuthenticator&lt;OauthResponse&gt;-backto-OAuthAuthenticator" style="stroke:#A80036;stroke-width:1.0;stroke-dasharray:7.0,7.0;"/><polygon fill="none" points="130.5,93.22,137.5,73.22,144.5,93.22,130.5,93.22" style="stroke:#A80036;stroke-width:1.0;"/><!--MD5=[ae5889dfe0d73a2c53d7661493dc5b22]
@startuml
skinparam BackgroundColor transparent
hide empty methods
hide empty fields
class "OAuthAuthenticator" {
    #clientId : string
    #clientSecret : string
    #hostname : string
    #method : string
    #path : string
    #postParams : ParsedUrlQueryInput
    #responseEncoding : BufferEncoding
    -authenticated : boolean
    -lastResponse : null | OauthResponse
    +authenticate() : Promise<OauthResponse>
    +getLastResponse() : null | OauthResponse
    +isAuthenticated() : boolean
}
interface "TapjawAuthenticator<OauthResponse>" {
    +authenticate() : Promise<OauthResponse>
    +isAuthenticated() : boolean
}
"TapjawAuthenticator<OauthResponse>" <|.. "OAuthAuthenticator"
@enduml

PlantUML version 1.2021.6(Fri May 14 09:09:51 CEST 2021)
(GPL source distribution)
Java Runtime: OpenJDK Runtime Environment
JVM: OpenJDK 64-Bit Server VM
Default Encoding: UTF-8
Language: en
Country: GB
--></g></svg>