<?xml version="1.0" encoding="UTF-8" standalone="no"?><svg xmlns="http://www.w3.org/2000/svg" xmlns:xlink="http://www.w3.org/1999/xlink" contentScriptType="application/ecmascript" contentStyleType="text/css" height="350px" preserveAspectRatio="none" style="width:278px;height:350px;background:#00000000;" version="1.1" viewBox="0 0 278 350" width="278px" zoomAndPan="magnify"><defs><filter height="300%" id="f1jvgn8fwm63d3" width="300%" x="-1" y="-1"><feGaussianBlur result="blurOut" stdDeviation="2.0"/><feColorMatrix in="blurOut" result="blurOut2" type="matrix" values="0 0 0 0 0 0 0 0 0 0 0 0 0 0 0 0 0 0 .4 0"/><feOffset dx="4.0" dy="4.0" in="blurOut2" result="blurOut3"/><feBlend in="SourceGraphic" in2="blurOut3" mode="normal"/></filter></defs><g><!--MD5=[b4b69a192bef2638464d20bdde1c1816]
class OAuthAuthenticator--><rect codeLine="4" fill="#FEFECE" filter="url(#f1jvgn8fwm63d3)" height="203.4609" id="OAuthAuthenticator" style="stroke:#A80036;stroke-width:1.5;" width="255" x="9" y="133"/><ellipse cx="76.75" cy="149" fill="#ADD1B2" rx="11" ry="11" style="stroke:#A80036;stroke-width:1.0;"/><path d="M79.2231,155.1431 Q78.6421,155.4419 78.0029,155.5913 Q77.3638,155.7407 76.6582,155.7407 Q74.1514,155.7407 72.8315,154.0889 Q71.5117,152.437 71.5117,149.3159 Q71.5117,146.1865 72.8315,144.5347 Q74.1514,142.8828 76.6582,142.8828 Q77.3638,142.8828 78.0112,143.0322 Q78.6587,143.1816 79.2231,143.4805 L79.2231,146.2031 Q78.5923,145.6221 77.9988,145.3523 Q77.4053,145.0825 76.7744,145.0825 Q75.4297,145.0825 74.7449,146.1492 Q74.0601,147.2158 74.0601,149.3159 Q74.0601,151.4077 74.7449,152.4744 Q75.4297,153.541 76.7744,153.541 Q77.4053,153.541 77.9988,153.2712 Q78.5923,153.0015 79.2231,152.4204 Z " fill="#000000"/><text fill="#000000" font-family="sans-serif" font-size="12" lengthAdjust="spacing" textLength="111" x="97.25" y="153.5352">OAuthAuthenticator</text><line style="stroke:#A80036;stroke-width:1.5;" x1="10" x2="263" y1="165" y2="165"/><polygon fill="none" points="20,171,24,175,20,179,16,175" style="stroke:#B38D22;stroke-width:1.0;"/><text fill="#000000" font-family="sans-serif" font-size="11" lengthAdjust="spacing" textLength="80" x="29" y="179.6348">clientId : string</text><polygon fill="none" points="20,183.9551,24,187.9551,20,191.9551,16,187.9551" style="stroke:#B38D22;stroke-width:1.0;"/><text fill="#000000" font-family="sans-serif" font-size="11" lengthAdjust="spacing" textLength="103" x="29" y="192.5898">clientSecret : string</text><polygon fill="none" points="20,196.9102,24,200.9102,20,204.9102,16,200.9102" style="stroke:#B38D22;stroke-width:1.0;"/><text fill="#000000" font-family="sans-serif" font-size="11" lengthAdjust="spacing" textLength="94" x="29" y="205.5449">hostname : string</text><polygon fill="none" points="20,209.8652,24,213.8652,20,217.8652,16,213.8652" style="stroke:#B38D22;stroke-width:1.0;"/><text fill="#000000" font-family="sans-serif" font-size="11" lengthAdjust="spacing" textLength="82" x="29" y="218.5">method : string</text><polygon fill="none" points="20,222.8203,24,226.8203,20,230.8203,16,226.8203" style="stroke:#B38D22;stroke-width:1.0;"/><text fill="#000000" font-family="sans-serif" font-size="11" lengthAdjust="spacing" textLength="65" x="29" y="231.4551">path : string</text><polygon fill="none" points="20,235.7754,24,239.7754,20,243.7754,16,239.7754" style="stroke:#B38D22;stroke-width:1.0;"/><text fill="#000000" font-family="sans-serif" font-size="11" lengthAdjust="spacing" textLength="185" x="29" y="244.4102">postParams : ParsedUrlQueryInput</text><polygon fill="none" points="20,248.7305,24,252.7305,20,256.7305,16,252.7305" style="stroke:#B38D22;stroke-width:1.0;"/><text fill="#000000" font-family="sans-serif" font-size="11" lengthAdjust="spacing" textLength="191" x="29" y="257.3652">responseEncoding : BufferEncoding</text><rect fill="none" height="6" style="stroke:#C82930;stroke-width:1.0;" width="6" x="17" y="263.6855"/><text fill="#000000" font-family="sans-serif" font-size="11" lengthAdjust="spacing" textLength="125" x="29" y="270.3203">authenticated : boolean</text><rect fill="none" height="6" style="stroke:#C82930;stroke-width:1.0;" width="6" x="17" y="276.6406"/><text fill="#000000" font-family="sans-serif" font-size="11" lengthAdjust="spacing" textLength="195" x="29" y="283.2754">lastResponse : null | OauthResponse</text><line style="stroke:#A80036;stroke-width:1.5;" x1="10" x2="263" y1="289.5957" y2="289.5957"/><ellipse cx="20" cy="300.5957" fill="#84BE84" rx="3" ry="3" style="stroke:#038048;stroke-width:1.0;"/><text fill="#000000" font-family="sans-serif" font-size="11" lengthAdjust="spacing" textLength="229" x="29" y="304.2305">authenticate() : Promise&lt;OauthResponse&gt;</text><ellipse cx="20" cy="313.5508" fill="#84BE84" rx="3" ry="3" style="stroke:#038048;stroke-width:1.0;"/><text fill="#000000" font-family="sans-serif" font-size="11" lengthAdjust="spacing" textLength="223" x="29" y="317.1855">getLastResponse() : null | OauthResponse</text><ellipse cx="20" cy="326.5059" fill="#84BE84" rx="3" ry="3" style="stroke:#038048;stroke-width:1.0;"/><text fill="#000000" font-family="sans-serif" font-size="11" lengthAdjust="spacing" textLength="144" x="29" y="330.1406">isAuthenticated() : boolean</text><!--MD5=[5d4d097e01d848162d470020070c44e0]
class default<OauthResponse>--><rect codeLine="18" fill="#FEFECE" filter="url(#f1jvgn8fwm63d3)" height="65.9102" id="default&lt;OauthResponse&gt;" style="stroke:#A80036;stroke-width:1.5;" width="255" x="9" y="7"/><ellipse cx="57.25" cy="23" fill="#B4A7E5" rx="11" ry="11" style="stroke:#A80036;stroke-width:1.0;"/><path d="M53.6777,19.2651 L53.6777,17.1069 L61.0571,17.1069 L61.0571,19.2651 L58.5918,19.2651 L58.5918,27.3418 L61.0571,27.3418 L61.0571,29.5 L53.6777,29.5 L53.6777,27.3418 L56.1431,27.3418 L56.1431,19.2651 Z " fill="#000000"/><text fill="#000000" font-family="sans-serif" font-size="12" font-style="italic" lengthAdjust="spacing" textLength="150" x="77.75" y="27.5352">default&lt;OauthResponse&gt;</text><line style="stroke:#A80036;stroke-width:1.5;" x1="10" x2="263" y1="39" y2="39"/><ellipse cx="20" cy="50" fill="#84BE84" rx="3" ry="3" style="stroke:#038048;stroke-width:1.0;"/><text fill="#000000" font-family="sans-serif" font-size="11" lengthAdjust="spacing" textLength="229" x="29" y="53.6348">authenticate() : Promise&lt;OauthResponse&gt;</text><ellipse cx="20" cy="62.9551" fill="#84BE84" rx="3" ry="3" style="stroke:#038048;stroke-width:1.0;"/><text fill="#000000" font-family="sans-serif" font-size="11" lengthAdjust="spacing" textLength="144" x="29" y="66.5898">isAuthenticated() : boolean</text><!--MD5=[93ddad37ad45c15396cec34dfd46891e]
reverse link default<OauthResponse> to OAuthAuthenticator--><path codeLine="22" d="M136.5,93.61 C136.5,105.78 136.5,119.12 136.5,132.59 " fill="none" id="default&lt;OauthResponse&gt;-backto-OAuthAuthenticator" style="stroke:#A80036;stroke-width:1.0;stroke-dasharray:7.0,7.0;"/><polygon fill="none" points="129.5,93.22,136.5,73.22,143.5,93.22,129.5,93.22" style="stroke:#A80036;stroke-width:1.0;"/><!--MD5=[02cc642a1a0ed1566c81163b35008d6d]
@startuml
skinparam BackgroundColor transparent
hide empty methods
hide empty fields
class "OAuthAuthenticator" {
    #clientId : string
    #clientSecret : string
    #hostname : string
    #method : string
    #path : string
    #postParams : ParsedUrlQueryInput
    #responseEncoding : BufferEncoding
    -authenticated : boolean
    -lastResponse : null | OauthResponse
    +authenticate() : Promise<OauthResponse>
    +getLastResponse() : null | OauthResponse
    +isAuthenticated() : boolean
}
interface "default<OauthResponse>" {
    +authenticate() : Promise<OauthResponse>
    +isAuthenticated() : boolean
}
"default<OauthResponse>" <|.. "OAuthAuthenticator"
@enduml

PlantUML version 1.2021.6(Fri May 14 09:09:51 CEST 2021)
(GPL source distribution)
Java Runtime: OpenJDK Runtime Environment
JVM: OpenJDK 64-Bit Server VM
Default Encoding: UTF-8
Language: en
Country: GB
--></g></svg>