<?xml version="1.0" encoding="UTF-8" standalone="no"?><svg xmlns="http://www.w3.org/2000/svg" xmlns:xlink="http://www.w3.org/1999/xlink" contentScriptType="application/ecmascript" contentStyleType="text/css" height="372px" preserveAspectRatio="none" style="width:588px;height:372px;background:#00000000;" version="1.1" viewBox="0 0 588 372" width="588px" zoomAndPan="magnify"><defs><filter height="300%" id="fd8acl0moy82i" width="300%" x="-1" y="-1"><feGaussianBlur result="blurOut" stdDeviation="2.0"/><feColorMatrix in="blurOut" result="blurOut2" type="matrix" values="0 0 0 0 0 0 0 0 0 0 0 0 0 0 0 0 0 0 .4 0"/><feOffset dx="4.0" dy="4.0" in="blurOut2" result="blurOut3"/><feBlend in="SourceGraphic" in2="blurOut3" mode="normal"/></filter></defs><g><!--MD5=[5d10ce46af16934260ae9fbfe7924e14]
class OutputIterator--><rect codeLine="4" fill="#FEFECE" filter="url(#fd8acl0moy82i)" height="65.9102" id="OutputIterator" style="stroke:#A80036;stroke-width:1.5;" width="541" x="20" y="120"/><ellipse cx="245.75" cy="136" fill="#A9DCDF" rx="11" ry="11" style="stroke:#A80036;stroke-width:1.0;"/><path d="M245.6133,131.3481 L244.4595,136.4199 L246.7754,136.4199 Z M244.1191,129.1069 L247.1157,129.1069 L250.4609,141.5 L248.0122,141.5 L247.2485,138.437 L243.9697,138.437 L243.2227,141.5 L240.7739,141.5 Z " fill="#000000"/><text fill="#000000" font-family="sans-serif" font-size="12" font-style="italic" lengthAdjust="spacing" textLength="81" x="266.25" y="140.5352">OutputIterator</text><line style="stroke:#A80036;stroke-width:1.5;" x1="21" x2="560" y1="152" y2="152"/><ellipse cx="31" cy="163" fill="#84BE84" rx="3" ry="3" style="stroke:#038048;stroke-width:1.0;"/><text fill="#000000" font-family="sans-serif" font-size="11" lengthAdjust="spacing" textLength="515" x="40" y="166.6348">run(adapterCallback: TapjawAdapterCallback&lt;TapjawMessage&gt;, limit: number) : Promise&lt;void&gt;</text><polygon fill="#FFFF44" points="31,170.9551,35,174.9551,31,178.9551,27,174.9551" style="stroke:#B38D22;stroke-width:1.0;"/><text fill="#000000" font-family="sans-serif" font-size="11" font-style="italic" lengthAdjust="spacing" textLength="319" x="40" y="179.5898">outputMessage(message: TapjawMessage) : Promise&lt;void&gt;</text><!--MD5=[9f533bfa2380ba8165f446ed2573556c]
class TapjawIterator--><rect codeLine="8" fill="#FEFECE" filter="url(#fd8acl0moy82i)" height="52.9551" id="TapjawIterator" style="stroke:#A80036;stroke-width:1.5;" width="567" x="7" y="7"/><ellipse cx="243.75" cy="23" fill="#B4A7E5" rx="11" ry="11" style="stroke:#A80036;stroke-width:1.0;"/><path d="M240.1777,19.2651 L240.1777,17.1069 L247.5571,17.1069 L247.5571,19.2651 L245.0918,19.2651 L245.0918,27.3418 L247.5571,27.3418 L247.5571,29.5 L240.1777,29.5 L240.1777,27.3418 L242.6431,27.3418 L242.6431,19.2651 Z " fill="#000000"/><text fill="#000000" font-family="sans-serif" font-size="12" font-style="italic" lengthAdjust="spacing" textLength="85" x="264.25" y="27.5352">TapjawIterator</text><line style="stroke:#A80036;stroke-width:1.5;" x1="8" x2="573" y1="39" y2="39"/><ellipse cx="18" cy="50" fill="#84BE84" rx="3" ry="3" style="stroke:#038048;stroke-width:1.0;"/><text fill="#000000" font-family="sans-serif" font-size="11" lengthAdjust="spacing" textLength="541" x="27" y="53.6348">run(adapterCallback: TapjawAdapterCallback&lt;TapjawMessage&gt;, limit: number) : Promise&lt;unknown&gt;</text><!--MD5=[923278051a1fc94956d11bca2fe179bc]
class StdoutIterator--><rect codeLine="12" fill="#FEFECE" filter="url(#fd8acl0moy82i)" height="112.7754" id="StdoutIterator" style="stroke:#A80036;stroke-width:1.5;" width="541" x="20" y="246"/><ellipse cx="247.25" cy="262" fill="#ADD1B2" rx="11" ry="11" style="stroke:#A80036;stroke-width:1.0;"/><path d="M249.7231,268.1431 Q249.1421,268.4419 248.5029,268.5913 Q247.8638,268.7407 247.1582,268.7407 Q244.6514,268.7407 243.3315,267.0889 Q242.0117,265.437 242.0117,262.3159 Q242.0117,259.1865 243.3315,257.5347 Q244.6514,255.8828 247.1582,255.8828 Q247.8638,255.8828 248.5112,256.0322 Q249.1587,256.1816 249.7231,256.4805 L249.7231,259.2031 Q249.0923,258.6221 248.4988,258.3523 Q247.9053,258.0825 247.2744,258.0825 Q245.9297,258.0825 245.2449,259.1492 Q244.5601,260.2158 244.5601,262.3159 Q244.5601,264.4077 245.2449,265.4744 Q245.9297,266.541 247.2744,266.541 Q247.9053,266.541 248.4988,266.2712 Q249.0923,266.0015 249.7231,265.4204 Z " fill="#000000"/><text fill="#000000" font-family="sans-serif" font-size="12" lengthAdjust="spacing" textLength="78" x="267.75" y="266.5352">StdoutIterator</text><line style="stroke:#A80036;stroke-width:1.5;" x1="21" x2="560" y1="278" y2="278"/><polygon fill="none" points="31,284,35,288,31,292,27,288" style="stroke:#B38D22;stroke-width:1.0;"/><text fill="#000000" font-family="sans-serif" font-size="11" lengthAdjust="spacing" textLength="84" x="40" y="292.6348">pretty : boolean</text><polygon fill="none" points="31,296.9551,35,300.9551,31,304.9551,27,300.9551" style="stroke:#B38D22;stroke-width:1.0;"/><text fill="#000000" font-family="sans-serif" font-size="11" lengthAdjust="spacing" textLength="160" x="40" y="305.5898">writeCallback : WritableStream</text><line style="stroke:#A80036;stroke-width:1.5;" x1="21" x2="560" y1="311.9102" y2="311.9102"/><ellipse cx="31" cy="322.9102" fill="#84BE84" rx="3" ry="3" style="stroke:#038048;stroke-width:1.0;"/><text fill="#000000" font-family="sans-serif" font-size="11" lengthAdjust="spacing" textLength="515" x="40" y="326.5449">run(adapterCallback: TapjawAdapterCallback&lt;TapjawMessage&gt;, limit: number) : Promise&lt;void&gt;</text><ellipse cx="31" cy="335.8652" fill="#84BE84" rx="3" ry="3" style="stroke:#038048;stroke-width:1.0;"/><text fill="#000000" font-family="sans-serif" font-size="11" lengthAdjust="spacing" textLength="177" x="40" y="339.5">setPretty(polarity: boolean) : void</text><polygon fill="#FFFF44" points="31,343.8203,35,347.8203,31,351.8203,27,347.8203" style="stroke:#B38D22;stroke-width:1.0;"/><text fill="#000000" font-family="sans-serif" font-size="11" lengthAdjust="spacing" textLength="319" x="40" y="352.4551">outputMessage(message: TapjawMessage) : Promise&lt;void&gt;</text><!--MD5=[7c55c2b822e43bb3df1f48e99479c761]
reverse link TapjawIterator to OutputIterator--><path codeLine="11" d="M290.5,80.51 C290.5,93.72 290.5,107.82 290.5,119.98 " fill="none" id="TapjawIterator-backto-OutputIterator" style="stroke:#A80036;stroke-width:1.0;stroke-dasharray:7.0,7.0;"/><polygon fill="none" points="283.5,80.29,290.5,60.29,297.5,80.29,283.5,80.29" style="stroke:#A80036;stroke-width:1.0;"/><!--MD5=[6dad5821d67513021a532d669093cbf1]
reverse link OutputIterator to StdoutIterator--><path codeLine="19" d="M290.5,206.32 C290.5,219.1 290.5,232.82 290.5,245.75 " fill="none" id="OutputIterator-backto-StdoutIterator" style="stroke:#A80036;stroke-width:1.0;"/><polygon fill="none" points="283.5,206.01,290.5,186.01,297.5,206.01,283.5,206.01" style="stroke:#A80036;stroke-width:1.0;"/><!--MD5=[4630e8e45bfa5b4818d732ccce683588]
@startuml
skinparam BackgroundColor transparent
hide empty methods
hide empty fields
abstract class "OutputIterator" {
    +run(adapterCallback: TapjawAdapterCallback<TapjawMessage>, limit: number) : Promise<void>
    {abstract} #outputMessage(message: TapjawMessage) : Promise<void>
}
interface "TapjawIterator" {
    +run(adapterCallback: TapjawAdapterCallback<TapjawMessage>, limit: number) : Promise<unknown>
}
"TapjawIterator" <|.. "OutputIterator"
class "StdoutIterator" {
    #pretty : boolean
    #writeCallback : WritableStream
    +run(adapterCallback: TapjawAdapterCallback<TapjawMessage>, limit: number) : Promise<void>
    +setPretty(polarity: boolean) : void
    #outputMessage(message: TapjawMessage) : Promise<void>
}
"OutputIterator" <|- - "StdoutIterator"
@enduml

PlantUML version 1.2021.14(Fri Nov 12 17:46:50 CET 2021)
(GPL source distribution)
Java Runtime: Java(TM) SE Runtime Environment
JVM: Java HotSpot(TM) 64-Bit Server VM
Default Encoding: UTF-8
Language: en
Country: GB
--></g></svg>