<?xml version="1.0" encoding="UTF-8" standalone="no"?><svg xmlns="http://www.w3.org/2000/svg" xmlns:xlink="http://www.w3.org/1999/xlink" contentScriptType="application/ecmascript" contentStyleType="text/css" height="311px" preserveAspectRatio="none" style="width:247px;height:311px;background:#00000000;" version="1.1" viewBox="0 0 247 311" width="247px" zoomAndPan="magnify"><defs><filter height="300%" id="fyh9wd96p9srg" width="300%" x="-1" y="-1"><feGaussianBlur result="blurOut" stdDeviation="2.0"/><feColorMatrix in="blurOut" result="blurOut2" type="matrix" values="0 0 0 0 0 0 0 0 0 0 0 0 0 0 0 0 0 0 .4 0"/><feOffset dx="4.0" dy="4.0" in="blurOut2" result="blurOut3"/><feBlend in="SourceGraphic" in2="blurOut3" mode="normal"/></filter></defs><g><!--MD5=[4e60043bc87f89fede99d152205218b9]
class PreauthUriTokenAuthenticator--><rect codeLine="4" fill="#FEFECE" filter="url(#fyh9wd96p9srg)" height="164.5957" id="PreauthUriTokenAuthenticator" style="stroke:#A80036;stroke-width:1.5;" width="204" x="18" y="133"/><ellipse cx="33" cy="149" fill="#ADD1B2" rx="11" ry="11" style="stroke:#A80036;stroke-width:1.0;"/><path d="M35.4731,155.1431 Q34.8921,155.4419 34.2529,155.5913 Q33.6138,155.7407 32.9082,155.7407 Q30.4014,155.7407 29.0815,154.0889 Q27.7617,152.437 27.7617,149.3159 Q27.7617,146.1865 29.0815,144.5347 Q30.4014,142.8828 32.9082,142.8828 Q33.6138,142.8828 34.2612,143.0322 Q34.9087,143.1816 35.4731,143.4805 L35.4731,146.2031 Q34.8423,145.6221 34.2488,145.3523 Q33.6553,145.0825 33.0244,145.0825 Q31.6797,145.0825 30.9949,146.1492 Q30.3101,147.2158 30.3101,149.3159 Q30.3101,151.4077 30.9949,152.4744 Q31.6797,153.541 33.0244,153.541 Q33.6553,153.541 34.2488,153.2712 Q34.8423,153.0015 35.4731,152.4204 Z " fill="#000000"/><text fill="#000000" font-family="sans-serif" font-size="12" lengthAdjust="spacing" textLength="172" x="47" y="153.5352">PreauthUriTokenAuthenticator</text><line style="stroke:#A80036;stroke-width:1.5;" x1="19" x2="221" y1="165" y2="165"/><polygon fill="none" points="29,171,33,175,29,179,25,175" style="stroke:#B38D22;stroke-width:1.0;"/><text fill="#000000" font-family="sans-serif" font-size="11" lengthAdjust="spacing" textLength="87" x="38" y="179.6348">headers : Object</text><polygon fill="none" points="29,183.9551,33,187.9551,29,191.9551,25,187.9551" style="stroke:#B38D22;stroke-width:1.0;"/><text fill="#000000" font-family="sans-serif" font-size="11" lengthAdjust="spacing" textLength="94" x="38" y="192.5898">hostname : string</text><polygon fill="none" points="29,196.9102,33,200.9102,29,204.9102,25,200.9102" style="stroke:#B38D22;stroke-width:1.0;"/><text fill="#000000" font-family="sans-serif" font-size="11" lengthAdjust="spacing" textLength="82" x="38" y="205.5449">method : string</text><polygon fill="none" points="29,209.8652,33,213.8652,29,217.8652,25,213.8652" style="stroke:#B38D22;stroke-width:1.0;"/><text fill="#000000" font-family="sans-serif" font-size="11" lengthAdjust="spacing" textLength="84" x="38" y="218.5">params : Object</text><polygon fill="none" points="29,222.8203,33,226.8203,29,230.8203,25,226.8203" style="stroke:#B38D22;stroke-width:1.0;"/><text fill="#000000" font-family="sans-serif" font-size="11" lengthAdjust="spacing" textLength="65" x="38" y="231.4551">path : string</text><polygon fill="none" points="29,235.7754,33,239.7754,29,243.7754,25,239.7754" style="stroke:#B38D22;stroke-width:1.0;"/><text fill="#000000" font-family="sans-serif" font-size="11" lengthAdjust="spacing" textLength="117" x="38" y="244.4102">tokenJsonPath : string</text><rect fill="none" height="6" style="stroke:#C82930;stroke-width:1.0;" width="6" x="26" y="250.7305"/><text fill="#000000" font-family="sans-serif" font-size="11" lengthAdjust="spacing" textLength="71" x="38" y="257.3652">token : string</text><line style="stroke:#A80036;stroke-width:1.5;" x1="19" x2="221" y1="263.6855" y2="263.6855"/><ellipse cx="29" cy="274.6855" fill="#84BE84" rx="3" ry="3" style="stroke:#038048;stroke-width:1.0;"/><text fill="#000000" font-family="sans-serif" font-size="11" lengthAdjust="spacing" textLength="176" x="38" y="278.3203">authenticate() : Promise&lt;string&gt;</text><ellipse cx="29" cy="287.6406" fill="#84BE84" rx="3" ry="3" style="stroke:#038048;stroke-width:1.0;"/><text fill="#000000" font-family="sans-serif" font-size="11" lengthAdjust="spacing" textLength="144" x="38" y="291.2754">isAuthenticated() : boolean</text><!--MD5=[7625408b585369a4e60110f12196a369]
class TapjawAuthenticator<URIToken>--><rect codeLine="15" fill="#FEFECE" filter="url(#fyh9wd96p9srg)" height="65.9102" id="TapjawAuthenticator&lt;URIToken&gt;" style="stroke:#A80036;stroke-width:1.5;" width="226" x="7" y="7"/><ellipse cx="22" cy="23" fill="#B4A7E5" rx="11" ry="11" style="stroke:#A80036;stroke-width:1.0;"/><path d="M18.4277,19.2651 L18.4277,17.1069 L25.8071,17.1069 L25.8071,19.2651 L23.3418,19.2651 L23.3418,27.3418 L25.8071,27.3418 L25.8071,29.5 L18.4277,29.5 L18.4277,27.3418 L20.8931,27.3418 L20.8931,19.2651 Z " fill="#000000"/><text fill="#000000" font-family="sans-serif" font-size="12" font-style="italic" lengthAdjust="spacing" textLength="194" x="36" y="27.5352">TapjawAuthenticator&lt;URIToken&gt;</text><line style="stroke:#A80036;stroke-width:1.5;" x1="8" x2="232" y1="39" y2="39"/><ellipse cx="18" cy="50" fill="#84BE84" rx="3" ry="3" style="stroke:#038048;stroke-width:1.0;"/><text fill="#000000" font-family="sans-serif" font-size="11" lengthAdjust="spacing" textLength="195" x="27" y="53.6348">authenticate() : Promise&lt;URIToken&gt;</text><ellipse cx="18" cy="62.9551" fill="#84BE84" rx="3" ry="3" style="stroke:#038048;stroke-width:1.0;"/><text fill="#000000" font-family="sans-serif" font-size="11" lengthAdjust="spacing" textLength="144" x="27" y="66.5898">isAuthenticated() : boolean</text><!--MD5=[1e63c9b5732885c5812ae0c91c366645]
reverse link TapjawAuthenticator<URIToken> to PreauthUriTokenAuthenticator--><path codeLine="19" d="M120,93.42 C120,105.8 120,119.3 120,132.64 " fill="none" id="TapjawAuthenticator&lt;URIToken&gt;-backto-PreauthUriTokenAuthenticator" style="stroke:#A80036;stroke-width:1.0;stroke-dasharray:7.0,7.0;"/><polygon fill="none" points="113,93.23,120,73.23,127,93.23,113,93.23" style="stroke:#A80036;stroke-width:1.0;"/><!--MD5=[484996799295fe57291e8f85e1257500]
@startuml
skinparam BackgroundColor transparent
hide empty methods
hide empty fields
class "PreauthUriTokenAuthenticator" {
    #headers : Object
    #hostname : string
    #method : string
    #params : Object
    #path : string
    #tokenJsonPath : string
    -token : string
    +authenticate() : Promise<string>
    +isAuthenticated() : boolean
}
interface "TapjawAuthenticator<URIToken>" {
    +authenticate() : Promise<URIToken>
    +isAuthenticated() : boolean
}
"TapjawAuthenticator<URIToken>" <|.. "PreauthUriTokenAuthenticator"
@enduml

PlantUML version 1.2021.14(Fri Nov 12 17:46:50 CET 2021)
(GPL source distribution)
Java Runtime: Java(TM) SE Runtime Environment
JVM: Java HotSpot(TM) 64-Bit Server VM
Default Encoding: UTF-8
Language: en
Country: GB
--></g></svg>