<?xml version="1.0" encoding="UTF-8" standalone="no"?><svg xmlns="http://www.w3.org/2000/svg" xmlns:xlink="http://www.w3.org/1999/xlink" contentScriptType="application/ecmascript" contentStyleType="text/css" height="285px" preserveAspectRatio="none" style="width:333px;height:285px;background:#00000000;" version="1.1" viewBox="0 0 333 285" width="333px" zoomAndPan="magnify"><defs><filter height="300%" id="ffilj1bhbcu5t" width="300%" x="-1" y="-1"><feGaussianBlur result="blurOut" stdDeviation="2.0"/><feColorMatrix in="blurOut" result="blurOut2" type="matrix" values="0 0 0 0 0 0 0 0 0 0 0 0 0 0 0 0 0 0 .4 0"/><feOffset dx="4.0" dy="4.0" in="blurOut2" result="blurOut3"/><feBlend in="SourceGraphic" in2="blurOut3" mode="normal"/></filter></defs><g><!--MD5=[803387c17cc4b03ab9312de35e2e7803]
class PrefetchTokenAuthorizationHeaderAuthenticator--><rect codeLine="4" fill="#FEFECE" filter="url(#ffilj1bhbcu5t)" height="138.6855" id="PrefetchTokenAuthorizationHeaderAuthenticator" style="stroke:#A80036;stroke-width:1.5;" width="310" x="9" y="133"/><ellipse cx="24" cy="149" fill="#ADD1B2" rx="11" ry="11" style="stroke:#A80036;stroke-width:1.0;"/><path d="M26.4731,155.1431 Q25.8921,155.4419 25.2529,155.5913 Q24.6138,155.7407 23.9082,155.7407 Q21.4014,155.7407 20.0815,154.0889 Q18.7617,152.437 18.7617,149.3159 Q18.7617,146.1865 20.0815,144.5347 Q21.4014,142.8828 23.9082,142.8828 Q24.6138,142.8828 25.2612,143.0322 Q25.9087,143.1816 26.4731,143.4805 L26.4731,146.2031 Q25.8423,145.6221 25.2488,145.3523 Q24.6553,145.0825 24.0244,145.0825 Q22.6797,145.0825 21.9949,146.1492 Q21.3101,147.2158 21.3101,149.3159 Q21.3101,151.4077 21.9949,152.4744 Q22.6797,153.541 24.0244,153.541 Q24.6553,153.541 25.2488,153.2712 Q25.8423,153.0015 26.4731,152.4204 Z " fill="#000000"/><text fill="#000000" font-family="sans-serif" font-size="12" lengthAdjust="spacing" textLength="278" x="38" y="153.5352">PrefetchTokenAuthorizationHeaderAuthenticator</text><line style="stroke:#A80036;stroke-width:1.5;" x1="10" x2="318" y1="165" y2="165"/><polygon fill="none" points="20,171,24,175,20,179,16,175" style="stroke:#B38D22;stroke-width:1.0;"/><text fill="#000000" font-family="sans-serif" font-size="11" lengthAdjust="spacing" textLength="76" x="29" y="179.6348">apiKey : string</text><polygon fill="none" points="20,183.9551,24,187.9551,20,191.9551,16,187.9551" style="stroke:#B38D22;stroke-width:1.0;"/><text fill="#000000" font-family="sans-serif" font-size="11" lengthAdjust="spacing" textLength="94" x="29" y="192.5898">hostname : string</text><polygon fill="none" points="20,196.9102,24,200.9102,20,204.9102,16,200.9102" style="stroke:#B38D22;stroke-width:1.0;"/><text fill="#000000" font-family="sans-serif" font-size="11" lengthAdjust="spacing" textLength="82" x="29" y="205.5449">method : string</text><polygon fill="none" points="20,209.8652,24,213.8652,20,217.8652,16,213.8652" style="stroke:#B38D22;stroke-width:1.0;"/><text fill="#000000" font-family="sans-serif" font-size="11" lengthAdjust="spacing" textLength="65" x="29" y="218.5">path : string</text><rect fill="none" height="6" style="stroke:#C82930;stroke-width:1.0;" width="6" x="17" y="224.8203"/><text fill="#000000" font-family="sans-serif" font-size="11" lengthAdjust="spacing" textLength="71" x="29" y="231.4551">token : string</text><line style="stroke:#A80036;stroke-width:1.5;" x1="10" x2="318" y1="237.7754" y2="237.7754"/><ellipse cx="20" cy="248.7754" fill="#84BE84" rx="3" ry="3" style="stroke:#038048;stroke-width:1.0;"/><text fill="#000000" font-family="sans-serif" font-size="11" lengthAdjust="spacing" textLength="262" x="29" y="252.4102">authenticate() : Promise&lt;AuthorizationHeaders&gt;</text><ellipse cx="20" cy="261.7305" fill="#84BE84" rx="3" ry="3" style="stroke:#038048;stroke-width:1.0;"/><text fill="#000000" font-family="sans-serif" font-size="11" lengthAdjust="spacing" textLength="144" x="29" y="265.3652">isAuthenticated() : boolean</text><!--MD5=[11518ad16c466eee65c270ef9fb12850]
class TapjawAuthenticator<AuthorizationHeaders>--><rect codeLine="13" fill="#FEFECE" filter="url(#ffilj1bhbcu5t)" height="65.9102" id="TapjawAuthenticator&lt;AuthorizationHeaders&gt;" style="stroke:#A80036;stroke-width:1.5;" width="296" x="16" y="7"/><ellipse cx="31" cy="23" fill="#B4A7E5" rx="11" ry="11" style="stroke:#A80036;stroke-width:1.0;"/><path d="M27.4277,19.2651 L27.4277,17.1069 L34.8071,17.1069 L34.8071,19.2651 L32.3418,19.2651 L32.3418,27.3418 L34.8071,27.3418 L34.8071,29.5 L27.4277,29.5 L27.4277,27.3418 L29.8931,27.3418 L29.8931,19.2651 Z " fill="#000000"/><text fill="#000000" font-family="sans-serif" font-size="12" font-style="italic" lengthAdjust="spacing" textLength="264" x="45" y="27.5352">TapjawAuthenticator&lt;AuthorizationHeaders&gt;</text><line style="stroke:#A80036;stroke-width:1.5;" x1="17" x2="311" y1="39" y2="39"/><ellipse cx="27" cy="50" fill="#84BE84" rx="3" ry="3" style="stroke:#038048;stroke-width:1.0;"/><text fill="#000000" font-family="sans-serif" font-size="11" lengthAdjust="spacing" textLength="262" x="36" y="53.6348">authenticate() : Promise&lt;AuthorizationHeaders&gt;</text><ellipse cx="27" cy="62.9551" fill="#84BE84" rx="3" ry="3" style="stroke:#038048;stroke-width:1.0;"/><text fill="#000000" font-family="sans-serif" font-size="11" lengthAdjust="spacing" textLength="144" x="36" y="66.5898">isAuthenticated() : boolean</text><!--MD5=[c08e6f9097dd119028de714b81300efd]
reverse link TapjawAuthenticator<AuthorizationHeaders> to PrefetchTokenAuthorizationHeaderAuthenticator--><path codeLine="17" d="M164,93.18 C164,105.88 164,119.65 164,132.98 " fill="none" id="TapjawAuthenticator&lt;AuthorizationHeaders&gt;-backto-PrefetchTokenAuthorizationHeaderAuthenticator" style="stroke:#A80036;stroke-width:1.0;stroke-dasharray:7.0,7.0;"/><polygon fill="none" points="157,93.09,164,73.09,171,93.09,157,93.09" style="stroke:#A80036;stroke-width:1.0;"/><!--MD5=[02781c9b0cfaa4c185655662cabb2fa4]
@startuml
skinparam BackgroundColor transparent
hide empty methods
hide empty fields
class "PrefetchTokenAuthorizationHeaderAuthenticator" {
    #apiKey : string
    #hostname : string
    #method : string
    #path : string
    -token : string
    +authenticate() : Promise<AuthorizationHeaders>
    +isAuthenticated() : boolean
}
interface "TapjawAuthenticator<AuthorizationHeaders>" {
    +authenticate() : Promise<AuthorizationHeaders>
    +isAuthenticated() : boolean
}
"TapjawAuthenticator<AuthorizationHeaders>" <|.. "PrefetchTokenAuthorizationHeaderAuthenticator"
@enduml

PlantUML version 1.2021.14(Fri Nov 12 17:46:50 CET 2021)
(GPL source distribution)
Java Runtime: Java(TM) SE Runtime Environment
JVM: Java HotSpot(TM) 64-Bit Server VM
Default Encoding: UTF-8
Language: en
Country: GB
--></g></svg>