<?xml version="1.0" encoding="UTF-8" standalone="no"?><svg xmlns="http://www.w3.org/2000/svg" xmlns:xlink="http://www.w3.org/1999/xlink" contentScriptType="application/ecmascript" contentStyleType="text/css" height="233px" preserveAspectRatio="none" style="width:292px;height:233px;background:#00000000;" version="1.1" viewBox="0 0 292 233" width="292px" zoomAndPan="magnify"><defs><filter height="300%" id="f19rx4mw63a379" width="300%" x="-1" y="-1"><feGaussianBlur result="blurOut" stdDeviation="2.0"/><feColorMatrix in="blurOut" result="blurOut2" type="matrix" values="0 0 0 0 0 0 0 0 0 0 0 0 0 0 0 0 0 0 .4 0"/><feOffset dx="4.0" dy="4.0" in="blurOut2" result="blurOut3"/><feBlend in="SourceGraphic" in2="blurOut3" mode="normal"/></filter></defs><g><!--MD5=[d12c57110a037e2bafb8ef3dd90b35c7]
class QueryStringAuthenticator--><rect codeLine="4" fill="#FEFECE" filter="url(#f19rx4mw63a379)" height="86.8652" id="QueryStringAuthenticator" style="stroke:#A80036;stroke-width:1.5;" width="263" x="11" y="133"/><ellipse cx="67.25" cy="149" fill="#ADD1B2" rx="11" ry="11" style="stroke:#A80036;stroke-width:1.0;"/><path d="M69.7231,155.1431 Q69.1421,155.4419 68.5029,155.5913 Q67.8638,155.7407 67.1582,155.7407 Q64.6514,155.7407 63.3315,154.0889 Q62.0117,152.437 62.0117,149.3159 Q62.0117,146.1865 63.3315,144.5347 Q64.6514,142.8828 67.1582,142.8828 Q67.8638,142.8828 68.5112,143.0322 Q69.1587,143.1816 69.7231,143.4805 L69.7231,146.2031 Q69.0923,145.6221 68.4988,145.3523 Q67.9053,145.0825 67.2744,145.0825 Q65.9297,145.0825 65.2449,146.1492 Q64.5601,147.2158 64.5601,149.3159 Q64.5601,151.4077 65.2449,152.4744 Q65.9297,153.541 67.2744,153.541 Q67.9053,153.541 68.4988,153.2712 Q69.0923,153.0015 69.7231,152.4204 Z " fill="#000000"/><text fill="#000000" font-family="sans-serif" font-size="12" lengthAdjust="spacing" textLength="142" x="87.75" y="153.5352">QueryStringAuthenticator</text><line style="stroke:#A80036;stroke-width:1.5;" x1="12" x2="273" y1="165" y2="165"/><polygon fill="none" points="22,171,26,175,22,179,18,175" style="stroke:#B38D22;stroke-width:1.0;"/><text fill="#000000" font-family="sans-serif" font-size="11" lengthAdjust="spacing" textLength="193" x="31" y="179.6348">queryParameters : QueryParameters</text><line style="stroke:#A80036;stroke-width:1.5;" x1="12" x2="273" y1="185.9551" y2="185.9551"/><ellipse cx="22" cy="196.9551" fill="#84BE84" rx="3" ry="3" style="stroke:#038048;stroke-width:1.0;"/><text fill="#000000" font-family="sans-serif" font-size="11" lengthAdjust="spacing" textLength="237" x="31" y="200.5898">authenticate() : Promise&lt;QueryParameters&gt;</text><ellipse cx="22" cy="209.9102" fill="#84BE84" rx="3" ry="3" style="stroke:#038048;stroke-width:1.0;"/><text fill="#000000" font-family="sans-serif" font-size="11" lengthAdjust="spacing" textLength="144" x="31" y="213.5449">isAuthenticated() : boolean</text><!--MD5=[7a2531e299aaee426d14547431fefc19]
class TapjawAuthenticator<QueryParameters>--><rect codeLine="9" fill="#FEFECE" filter="url(#f19rx4mw63a379)" height="65.9102" id="TapjawAuthenticator&lt;QueryParameters&gt;" style="stroke:#A80036;stroke-width:1.5;" width="271" x="7" y="7"/><ellipse cx="22" cy="23" fill="#B4A7E5" rx="11" ry="11" style="stroke:#A80036;stroke-width:1.0;"/><path d="M18.4277,19.2651 L18.4277,17.1069 L25.8071,17.1069 L25.8071,19.2651 L23.3418,19.2651 L23.3418,27.3418 L25.8071,27.3418 L25.8071,29.5 L18.4277,29.5 L18.4277,27.3418 L20.8931,27.3418 L20.8931,19.2651 Z " fill="#000000"/><text fill="#000000" font-family="sans-serif" font-size="12" font-style="italic" lengthAdjust="spacing" textLength="239" x="36" y="27.5352">TapjawAuthenticator&lt;QueryParameters&gt;</text><line style="stroke:#A80036;stroke-width:1.5;" x1="8" x2="277" y1="39" y2="39"/><ellipse cx="18" cy="50" fill="#84BE84" rx="3" ry="3" style="stroke:#038048;stroke-width:1.0;"/><text fill="#000000" font-family="sans-serif" font-size="11" lengthAdjust="spacing" textLength="237" x="27" y="53.6348">authenticate() : Promise&lt;QueryParameters&gt;</text><ellipse cx="18" cy="62.9551" fill="#84BE84" rx="3" ry="3" style="stroke:#038048;stroke-width:1.0;"/><text fill="#000000" font-family="sans-serif" font-size="11" lengthAdjust="spacing" textLength="144" x="27" y="66.5898">isAuthenticated() : boolean</text><!--MD5=[6e846a7dd5ee605b1ad89850afc7044a]
reverse link TapjawAuthenticator<QueryParameters> to QueryStringAuthenticator--><path codeLine="13" d="M142.5,93.43 C142.5,106.49 142.5,120.34 142.5,132.86 " fill="none" id="TapjawAuthenticator&lt;QueryParameters&gt;-backto-QueryStringAuthenticator" style="stroke:#A80036;stroke-width:1.0;stroke-dasharray:7.0,7.0;"/><polygon fill="none" points="135.5,93.22,142.5,73.22,149.5,93.22,135.5,93.22" style="stroke:#A80036;stroke-width:1.0;"/><!--MD5=[6bc1b03724459c62e6b82697a11ba38a]
@startuml
skinparam BackgroundColor transparent
hide empty methods
hide empty fields
class "QueryStringAuthenticator" {
    #queryParameters : QueryParameters
    +authenticate() : Promise<QueryParameters>
    +isAuthenticated() : boolean
}
interface "TapjawAuthenticator<QueryParameters>" {
    +authenticate() : Promise<QueryParameters>
    +isAuthenticated() : boolean
}
"TapjawAuthenticator<QueryParameters>" <|.. "QueryStringAuthenticator"
@enduml

PlantUML version 1.2021.14(Fri Nov 12 17:46:50 CET 2021)
(GPL source distribution)
Java Runtime: Java(TM) SE Runtime Environment
JVM: Java HotSpot(TM) 64-Bit Server VM
Default Encoding: UTF-8
Language: en
Country: GB
--></g></svg>