<?xml version="1.0" encoding="UTF-8" standalone="no"?><svg xmlns="http://www.w3.org/2000/svg" xmlns:xlink="http://www.w3.org/1999/xlink" contentScriptType="application/ecmascript" contentStyleType="text/css" height="246px" preserveAspectRatio="none" style="width:588px;height:246px;background:#00000000;" version="1.1" viewBox="0 0 588 246" width="588px" zoomAndPan="magnify"><defs><filter height="300%" id="f1c6bpn4is2xaw" width="300%" x="-1" y="-1"><feGaussianBlur result="blurOut" stdDeviation="2.0"/><feColorMatrix in="blurOut" result="blurOut2" type="matrix" values="0 0 0 0 0 0 0 0 0 0 0 0 0 0 0 0 0 0 .4 0"/><feOffset dx="4.0" dy="4.0" in="blurOut2" result="blurOut3"/><feBlend in="SourceGraphic" in2="blurOut3" mode="normal"/></filter></defs><g><!--MD5=[3fd56327b294c25949d9b4443d951312]
class RateLimitedStdoutIterator--><rect codeLine="4" fill="#FEFECE" filter="url(#f1c6bpn4is2xaw)" height="112.7754" id="RateLimitedStdoutIterator" style="stroke:#A80036;stroke-width:1.5;" width="541" x="20" y="120"/><ellipse cx="213.25" cy="136" fill="#ADD1B2" rx="11" ry="11" style="stroke:#A80036;stroke-width:1.0;"/><path d="M215.7231,142.1431 Q215.1421,142.4419 214.5029,142.5913 Q213.8638,142.7407 213.1582,142.7407 Q210.6514,142.7407 209.3315,141.0889 Q208.0117,139.437 208.0117,136.3159 Q208.0117,133.1865 209.3315,131.5347 Q210.6514,129.8828 213.1582,129.8828 Q213.8638,129.8828 214.5112,130.0322 Q215.1587,130.1816 215.7231,130.4805 L215.7231,133.2031 Q215.0923,132.6221 214.4988,132.3523 Q213.9053,132.0825 213.2744,132.0825 Q211.9297,132.0825 211.2449,133.1492 Q210.5601,134.2158 210.5601,136.3159 Q210.5601,138.4077 211.2449,139.4744 Q211.9297,140.541 213.2744,140.541 Q213.9053,140.541 214.4988,140.2712 Q215.0923,140.0015 215.7231,139.4204 Z " fill="#000000"/><text fill="#000000" font-family="sans-serif" font-size="12" lengthAdjust="spacing" textLength="146" x="233.75" y="140.5352">RateLimitedStdoutIterator</text><line style="stroke:#A80036;stroke-width:1.5;" x1="21" x2="560" y1="152" y2="152"/><polygon fill="none" points="31,158,35,162,31,166,27,162" style="stroke:#B38D22;stroke-width:1.0;"/><text fill="#000000" font-family="sans-serif" font-size="11" lengthAdjust="spacing" textLength="157" x="40" y="166.6348">messagesPerMinute : number</text><polygon fill="none" points="31,170.9551,35,174.9551,31,178.9551,27,174.9551" style="stroke:#B38D22;stroke-width:1.0;"/><text fill="#000000" font-family="sans-serif" font-size="11" lengthAdjust="spacing" textLength="160" x="40" y="179.5898">writeCallback : WritableStream</text><line style="stroke:#A80036;stroke-width:1.5;" x1="21" x2="560" y1="185.9102" y2="185.9102"/><ellipse cx="31" cy="196.9102" fill="#84BE84" rx="3" ry="3" style="stroke:#038048;stroke-width:1.0;"/><text fill="#000000" font-family="sans-serif" font-size="11" lengthAdjust="spacing" textLength="515" x="40" y="200.5449">run(adapterCallback: TapjawAdapterCallback&lt;TapjawMessage&gt;, limit: number) : Promise&lt;void&gt;</text><polygon fill="#FFFF44" points="31,204.8652,35,208.8652,31,212.8652,27,208.8652" style="stroke:#B38D22;stroke-width:1.0;"/><text fill="#000000" font-family="sans-serif" font-size="11" lengthAdjust="spacing" textLength="319" x="40" y="213.5">outputMessage(message: TapjawMessage) : Promise&lt;void&gt;</text><polygon fill="#FFFF44" points="31,217.8203,35,221.8203,31,225.8203,27,221.8203" style="stroke:#B38D22;stroke-width:1.0;"/><text fill="#000000" font-family="sans-serif" font-size="11" lengthAdjust="spacing" textLength="244" x="40" y="226.4551">sleep(milliseconds: number) : Promise&lt;void&gt;</text><!--MD5=[9f533bfa2380ba8165f446ed2573556c]
class TapjawIterator--><rect codeLine="11" fill="#FEFECE" filter="url(#f1c6bpn4is2xaw)" height="52.9551" id="TapjawIterator" style="stroke:#A80036;stroke-width:1.5;" width="567" x="7" y="7"/><ellipse cx="243.75" cy="23" fill="#B4A7E5" rx="11" ry="11" style="stroke:#A80036;stroke-width:1.0;"/><path d="M240.1777,19.2651 L240.1777,17.1069 L247.5571,17.1069 L247.5571,19.2651 L245.0918,19.2651 L245.0918,27.3418 L247.5571,27.3418 L247.5571,29.5 L240.1777,29.5 L240.1777,27.3418 L242.6431,27.3418 L242.6431,19.2651 Z " fill="#000000"/><text fill="#000000" font-family="sans-serif" font-size="12" font-style="italic" lengthAdjust="spacing" textLength="85" x="264.25" y="27.5352">TapjawIterator</text><line style="stroke:#A80036;stroke-width:1.5;" x1="8" x2="573" y1="39" y2="39"/><ellipse cx="18" cy="50" fill="#84BE84" rx="3" ry="3" style="stroke:#038048;stroke-width:1.0;"/><text fill="#000000" font-family="sans-serif" font-size="11" lengthAdjust="spacing" textLength="541" x="27" y="53.6348">run(adapterCallback: TapjawAdapterCallback&lt;TapjawMessage&gt;, limit: number) : Promise&lt;unknown&gt;</text><!--MD5=[d0735bd2ccb22b1eec13a705ea15b71d]
reverse link TapjawIterator to RateLimitedStdoutIterator--><path codeLine="14" d="M290.5,80.35 C290.5,92.93 290.5,106.7 290.5,119.77 " fill="none" id="TapjawIterator-backto-RateLimitedStdoutIterator" style="stroke:#A80036;stroke-width:1.0;stroke-dasharray:7.0,7.0;"/><polygon fill="none" points="283.5,80.03,290.5,60.03,297.5,80.03,283.5,80.03" style="stroke:#A80036;stroke-width:1.0;"/><!--MD5=[3e28f16086c391a7918a70669af7adcb]
@startuml
skinparam BackgroundColor transparent
hide empty methods
hide empty fields
class "RateLimitedStdoutIterator" {
    #messagesPerMinute : number
    #writeCallback : WritableStream
    +run(adapterCallback: TapjawAdapterCallback<TapjawMessage>, limit: number) : Promise<void>
    #outputMessage(message: TapjawMessage) : Promise<void>
    #sleep(milliseconds: number) : Promise<void>
}
interface "TapjawIterator" {
    +run(adapterCallback: TapjawAdapterCallback<TapjawMessage>, limit: number) : Promise<unknown>
}
"TapjawIterator" <|.. "RateLimitedStdoutIterator"
@enduml

PlantUML version 1.2021.6(Fri May 14 09:09:51 CEST 2021)
(GPL source distribution)
Java Runtime: Java(TM) SE Runtime Environment
JVM: Java HotSpot(TM) 64-Bit Server VM
Default Encoding: UTF-8
Language: en
Country: GB
--></g></svg>