<?xml version="1.0" encoding="UTF-8" standalone="no"?><svg xmlns="http://www.w3.org/2000/svg" xmlns:xlink="http://www.w3.org/1999/xlink" contentScriptType="application/ecmascript" contentStyleType="text/css" height="254px" preserveAspectRatio="none" style="width:368px;height:254px;background:#00000000;" version="1.1" viewBox="0 0 368 254" width="368px" zoomAndPan="magnify"><defs><filter height="300%" id="f15kt8evhi4rz7" width="300%" x="-1" y="-1"><feGaussianBlur result="blurOut" stdDeviation="2.0"/><feColorMatrix in="blurOut" result="blurOut2" type="matrix" values="0 0 0 0 0 0 0 0 0 0 0 0 0 0 0 0 0 0 .4 0"/><feOffset dx="4.0" dy="4.0" in="blurOut2" result="blurOut3"/><feBlend in="SourceGraphic" in2="blurOut3" mode="normal"/></filter></defs><g><!--MD5=[50a54eb3002964d98d7ddf8ef81a60b3]
class ReadableStreamGenericReader--><rect codeLine="4" fill="#FEFECE" filter="url(#f15kt8evhi4rz7)" height="73.9102" id="ReadableStreamGenericReader" style="stroke:#A80036;stroke-width:1.5;" width="223" x="69" y="7"/><ellipse cx="88.5" cy="23" fill="#B4A7E5" rx="11" ry="11" style="stroke:#A80036;stroke-width:1.0;"/><path d="M84.9277,19.2651 L84.9277,17.1069 L92.3071,17.1069 L92.3071,19.2651 L89.8418,19.2651 L89.8418,27.3418 L92.3071,27.3418 L92.3071,29.5 L84.9277,29.5 L84.9277,27.3418 L87.3931,27.3418 L87.3931,19.2651 Z " fill="#000000"/><text fill="#000000" font-family="sans-serif" font-size="12" font-style="italic" lengthAdjust="spacing" textLength="181" x="103.5" y="27.5352">ReadableStreamGenericReader</text><line style="stroke:#A80036;stroke-width:1.5;" x1="70" x2="291" y1="39" y2="39"/><ellipse cx="80" cy="50" rx="3" ry="3" style="stroke:#038048;stroke-width:1.0;fill:none;"/><text fill="#000000" font-family="sans-serif" font-size="11" lengthAdjust="spacing" textLength="159" x="89" y="53.6348">closed : Promise&lt;undefined&gt;</text><line style="stroke:#A80036;stroke-width:1.5;" x1="70" x2="291" y1="59.9551" y2="59.9551"/><ellipse cx="80" cy="70.9551" fill="#84BE84" rx="3" ry="3" style="stroke:#038048;stroke-width:1.0;"/><text fill="#000000" font-family="sans-serif" font-size="11" lengthAdjust="spacing" textLength="197" x="89" y="74.5898">cancel(reason: any) : Promise&lt;void&gt;</text><!--MD5=[d6e17b26805aebfec4c4b4824f40541d]
class ReadableStreamDefaultReader<any>--><rect codeLine="8" fill="#FEFECE" filter="url(#f15kt8evhi4rz7)" height="99.8203" id="ReadableStreamDefaultReader&lt;any&gt;" style="stroke:#A80036;stroke-width:1.5;" width="347" x="7" y="141"/><ellipse cx="67.25" cy="157" fill="#B4A7E5" rx="11" ry="11" style="stroke:#A80036;stroke-width:1.0;"/><path d="M63.6777,153.2651 L63.6777,151.1069 L71.0571,151.1069 L71.0571,153.2651 L68.5918,153.2651 L68.5918,161.3418 L71.0571,161.3418 L71.0571,163.5 L63.6777,163.5 L63.6777,161.3418 L66.1431,161.3418 L66.1431,153.2651 Z " fill="#000000"/><text fill="#000000" font-family="sans-serif" font-size="12" font-style="italic" lengthAdjust="spacing" textLength="218" x="87.75" y="161.5352">ReadableStreamDefaultReader&lt;any&gt;</text><line style="stroke:#A80036;stroke-width:1.5;" x1="8" x2="353" y1="173" y2="173"/><ellipse cx="18" cy="184" rx="3" ry="3" style="stroke:#038048;stroke-width:1.0;fill:none;"/><text fill="#000000" font-family="sans-serif" font-size="11" lengthAdjust="spacing" textLength="159" x="27" y="187.6348">closed : Promise&lt;undefined&gt;</text><line style="stroke:#A80036;stroke-width:1.5;" x1="8" x2="353" y1="193.9551" y2="193.9551"/><ellipse cx="18" cy="204.9551" fill="#84BE84" rx="3" ry="3" style="stroke:#038048;stroke-width:1.0;"/><text fill="#000000" font-family="sans-serif" font-size="11" lengthAdjust="spacing" textLength="197" x="27" y="208.5898">cancel(reason: any) : Promise&lt;void&gt;</text><ellipse cx="18" cy="217.9102" fill="#84BE84" rx="3" ry="3" style="stroke:#038048;stroke-width:1.0;"/><text fill="#000000" font-family="sans-serif" font-size="11" lengthAdjust="spacing" textLength="321" x="27" y="221.5449">read() : Promise&lt;ReadableStreamDefaultReadResult&lt;any&gt;&gt;</text><ellipse cx="18" cy="230.8652" fill="#84BE84" rx="3" ry="3" style="stroke:#038048;stroke-width:1.0;"/><text fill="#000000" font-family="sans-serif" font-size="11" lengthAdjust="spacing" textLength="103" x="27" y="234.5">releaseLock() : void</text><!--MD5=[47c1963eca05cb409e49f981ecac44de]
reverse link ReadableStreamGenericReader to ReadableStreamDefaultReader<any>--><path codeLine="14" d="M180.5,101.45 C180.5,114.46 180.5,128.19 180.5,140.86 " fill="none" id="ReadableStreamGenericReader-backto-ReadableStreamDefaultReader&lt;any&gt;" style="stroke:#A80036;stroke-width:1.0;"/><polygon fill="none" points="173.5,101.22,180.5,81.22,187.5,101.22,173.5,101.22" style="stroke:#A80036;stroke-width:1.0;"/><!--MD5=[55f258a38b63ad6e415f647a4c8fe568]
@startuml
skinparam BackgroundColor transparent
hide empty methods
hide empty fields
interface "ReadableStreamGenericReader" {
    +closed : Promise<undefined>
    +cancel(reason: any) : Promise<void>
}
interface "ReadableStreamDefaultReader<any>" {
    +closed : Promise<undefined>
    +cancel(reason: any) : Promise<void>
    +read() : Promise<ReadableStreamDefaultReadResult<any>>
    +releaseLock() : void
}
"ReadableStreamGenericReader" <|- - "ReadableStreamDefaultReader<any>"
@enduml

PlantUML version 1.2021.6(Fri May 14 09:09:51 CEST 2021)
(GPL source distribution)
Java Runtime: OpenJDK Runtime Environment
JVM: OpenJDK 64-Bit Server VM
Default Encoding: UTF-8
Language: en
Country: GB
--></g></svg>