<?xml version="1.0" encoding="UTF-8" standalone="no"?><svg xmlns="http://www.w3.org/2000/svg" xmlns:xlink="http://www.w3.org/1999/xlink" contentScriptType="application/ecmascript" contentStyleType="text/css" height="306px" preserveAspectRatio="none" style="width:353px;height:306px;background:#00000000;" version="1.1" viewBox="0 0 353 306" width="353px" zoomAndPan="magnify"><defs><filter height="300%" id="fnj4iw0d9bjla" width="300%" x="-1" y="-1"><feGaussianBlur result="blurOut" stdDeviation="2.0"/><feColorMatrix in="blurOut" result="blurOut2" type="matrix" values="0 0 0 0 0 0 0 0 0 0 0 0 0 0 0 0 0 0 .4 0"/><feOffset dx="4.0" dy="4.0" in="blurOut2" result="blurOut3"/><feBlend in="SourceGraphic" in2="blurOut3" mode="normal"/></filter></defs><g><!--MD5=[fa5b8489b15d688ffbf28e710efd07cb]
class RequestJWTBuilder--><rect codeLine="4" fill="#FEFECE" filter="url(#fnj4iw0d9bjla)" height="125.7305" id="RequestJWTBuilder" style="stroke:#A80036;stroke-width:1.5;" width="330" x="9" y="167"/><ellipse cx="115.25" cy="183" fill="#A9DCDF" rx="11" ry="11" style="stroke:#A80036;stroke-width:1.0;"/><path d="M115.1133,178.3481 L113.9595,183.4199 L116.2754,183.4199 Z M113.6191,176.1069 L116.6157,176.1069 L119.9609,188.5 L117.5122,188.5 L116.7485,185.437 L113.4697,185.437 L112.7227,188.5 L110.2739,188.5 Z " fill="#000000"/><text fill="#000000" font-family="sans-serif" font-size="12" font-style="italic" lengthAdjust="spacing" textLength="109" x="135.75" y="187.5352">RequestJWTBuilder</text><line style="stroke:#A80036;stroke-width:1.5;" x1="10" x2="338" y1="199" y2="199"/><polygon fill="none" points="20,205,24,209,20,213,16,209" style="stroke:#B38D22;stroke-width:1.0;"/><text fill="#000000" font-family="sans-serif" font-size="11" lengthAdjust="spacing" textLength="115" x="29" y="213.6348">algorithm : Algorithm</text><rect fill="none" height="6" style="stroke:#C82930;stroke-width:1.0;" width="6" x="17" y="219.9551"/><text fill="#000000" font-family="sans-serif" font-size="11" lengthAdjust="spacing" textLength="216" x="29" y="226.5898">requestResponse : RequestJWTResponse</text><line style="stroke:#A80036;stroke-width:1.5;" x1="10" x2="338" y1="232.9102" y2="232.9102"/><ellipse cx="20" cy="243.9102" fill="#84BE84" rx="3" ry="3" style="stroke:#038048;stroke-width:1.0;"/><text fill="#000000" font-family="sans-serif" font-size="11" lengthAdjust="spacing" textLength="160" x="29" y="247.5449">getToken() : Promise&lt;string&gt;</text><polygon fill="#FFFF44" points="20,251.8652,24,255.8652,20,259.8652,16,255.8652" style="stroke:#B38D22;stroke-width:1.0;"/><text fill="#000000" font-family="sans-serif" font-size="11" lengthAdjust="spacing" textLength="217" x="29" y="260.5">getPayloadMetadata() : Promise&lt;object&gt;</text><polygon fill="#FFFF44" points="20,264.8203,24,268.8203,20,272.8203,16,268.8203" style="stroke:#B38D22;stroke-width:1.0;"/><text fill="#000000" font-family="sans-serif" font-size="11" font-style="italic" lengthAdjust="spacing" textLength="304" x="29" y="273.4551">getRequestResponse() : Promise&lt;RequestJWTResponse&gt;</text><polygon fill="#FFFF44" points="20,277.7754,24,281.7754,20,285.7754,16,281.7754" style="stroke:#B38D22;stroke-width:1.0;"/><text fill="#000000" font-family="sans-serif" font-size="11" lengthAdjust="spacing" textLength="179" x="29" y="286.4102">getSecretKey() : Promise&lt;string&gt;</text><!--MD5=[ad4d8e186bc8c68c5fd887e213478086]
class JWTBuilder--><rect codeLine="12" fill="#FEFECE" filter="url(#fnj4iw0d9bjla)" height="99.8203" id="JWTBuilder" style="stroke:#A80036;stroke-width:1.5;" width="243" x="52.5" y="7"/><ellipse cx="138.75" cy="23" fill="#A9DCDF" rx="11" ry="11" style="stroke:#A80036;stroke-width:1.0;"/><path d="M138.6133,18.3481 L137.4595,23.4199 L139.7754,23.4199 Z M137.1191,16.1069 L140.1157,16.1069 L143.4609,28.5 L141.0122,28.5 L140.2485,25.437 L136.9697,25.437 L136.2227,28.5 L133.7739,28.5 Z " fill="#000000"/><text fill="#000000" font-family="sans-serif" font-size="12" font-style="italic" lengthAdjust="spacing" textLength="62" x="159.25" y="27.5352">JWTBuilder</text><line style="stroke:#A80036;stroke-width:1.5;" x1="53.5" x2="294.5" y1="39" y2="39"/><polygon fill="none" points="63.5,45,67.5,49,63.5,53,59.5,49" style="stroke:#B38D22;stroke-width:1.0;"/><text fill="#000000" font-family="sans-serif" font-size="11" lengthAdjust="spacing" textLength="115" x="72.5" y="53.6348">algorithm : Algorithm</text><line style="stroke:#A80036;stroke-width:1.5;" x1="53.5" x2="294.5" y1="59.9551" y2="59.9551"/><ellipse cx="63.5" cy="70.9551" fill="#84BE84" rx="3" ry="3" style="stroke:#038048;stroke-width:1.0;"/><text fill="#000000" font-family="sans-serif" font-size="11" lengthAdjust="spacing" textLength="160" x="72.5" y="74.5898">getToken() : Promise&lt;string&gt;</text><polygon fill="#FFFF44" points="63.5,78.9102,67.5,82.9102,63.5,86.9102,59.5,82.9102" style="stroke:#B38D22;stroke-width:1.0;"/><text fill="#000000" font-family="sans-serif" font-size="11" font-style="italic" lengthAdjust="spacing" textLength="217" x="72.5" y="87.5449">getPayloadMetadata() : Promise&lt;object&gt;</text><polygon fill="#FFFF44" points="63.5,91.8652,67.5,95.8652,63.5,99.8652,59.5,95.8652" style="stroke:#B38D22;stroke-width:1.0;"/><text fill="#000000" font-family="sans-serif" font-size="11" font-style="italic" lengthAdjust="spacing" textLength="179" x="72.5" y="100.5">getSecretKey() : Promise&lt;string&gt;</text><!--MD5=[6ce3522bfece337b4ac2f513242f7585]
reverse link JWTBuilder to RequestJWTBuilder--><path codeLine="18" d="M174,127.06 C174,140.23 174,153.94 174,166.87 " fill="none" id="JWTBuilder-backto-RequestJWTBuilder" style="stroke:#A80036;stroke-width:1.0;"/><polygon fill="none" points="167,127,174,107,181,127,167,127" style="stroke:#A80036;stroke-width:1.0;"/><!--MD5=[f93ad2b455dc663daa389db010a46b3b]
@startuml
skinparam BackgroundColor transparent
hide empty methods
hide empty fields
abstract class "RequestJWTBuilder" {
    #algorithm : Algorithm
    -requestResponse : RequestJWTResponse
    +getToken() : Promise<string>
    #getPayloadMetadata() : Promise<object>
    {abstract} #getRequestResponse() : Promise<RequestJWTResponse>
    #getSecretKey() : Promise<string>
}
abstract class "JWTBuilder" {
    #algorithm : Algorithm
    +getToken() : Promise<string>
    {abstract} #getPayloadMetadata() : Promise<object>
    {abstract} #getSecretKey() : Promise<string>
}
"JWTBuilder" <|- - "RequestJWTBuilder"
@enduml

PlantUML version 1.2021.6(Fri May 14 09:09:51 CEST 2021)
(GPL source distribution)
Java Runtime: Java(TM) SE Runtime Environment
JVM: Java HotSpot(TM) 64-Bit Server VM
Default Encoding: UTF-8
Language: en
Country: GB
--></g></svg>