<?xml version="1.0" encoding="UTF-8" standalone="no"?><svg xmlns="http://www.w3.org/2000/svg" xmlns:xlink="http://www.w3.org/1999/xlink" contentScriptType="application/ecmascript" contentStyleType="text/css" height="306px" preserveAspectRatio="none" style="width:376px;height:306px;background:#00000000;" version="1.1" viewBox="0 0 376 306" width="376px" zoomAndPan="magnify"><defs><filter height="300%" id="f13ifhe75rsfok" width="300%" x="-1" y="-1"><feGaussianBlur result="blurOut" stdDeviation="2.0"/><feColorMatrix in="blurOut" result="blurOut2" type="matrix" values="0 0 0 0 0 0 0 0 0 0 0 0 0 0 0 0 0 0 .4 0"/><feOffset dx="4.0" dy="4.0" in="blurOut2" result="blurOut3"/><feBlend in="SourceGraphic" in2="blurOut3" mode="normal"/></filter></defs><g><!--MD5=[fa5b8489b15d688ffbf28e710efd07cb]
class RequestJWTBuilder--><rect codeLine="4" fill="#FEFECE" filter="url(#f13ifhe75rsfok)" height="125.7305" id="RequestJWTBuilder" style="stroke:#A80036;stroke-width:1.5;" width="353" x="9" y="167"/><ellipse cx="126.75" cy="183" fill="#A9DCDF" rx="11" ry="11" style="stroke:#A80036;stroke-width:1.0;"/><path d="M126.6133,178.3481 L125.4595,183.4199 L127.7754,183.4199 Z M125.1191,176.1069 L128.1157,176.1069 L131.4609,188.5 L129.0122,188.5 L128.2485,185.437 L124.9697,185.437 L124.2227,188.5 L121.7739,188.5 Z " fill="#000000"/><text fill="#000000" font-family="sans-serif" font-size="12" font-style="italic" lengthAdjust="spacing" textLength="109" x="147.25" y="187.5352">RequestJWTBuilder</text><line style="stroke:#A80036;stroke-width:1.5;" x1="10" x2="361" y1="199" y2="199"/><polygon fill="none" points="20,205,24,209,20,213,16,209" style="stroke:#B38D22;stroke-width:1.0;"/><text fill="#000000" font-family="sans-serif" font-size="11" lengthAdjust="spacing" textLength="115" x="29" y="213.6348">algorithm : Algorithm</text><rect fill="none" height="6" style="stroke:#C82930;stroke-width:1.0;" width="6" x="17" y="219.9551"/><text fill="#000000" font-family="sans-serif" font-size="11" lengthAdjust="spacing" textLength="216" x="29" y="226.5898">requestResponse : RequestJWTResponse</text><line style="stroke:#A80036;stroke-width:1.5;" x1="10" x2="361" y1="232.9102" y2="232.9102"/><ellipse cx="20" cy="243.9102" fill="#84BE84" rx="3" ry="3" style="stroke:#038048;stroke-width:1.0;"/><text fill="#000000" font-family="sans-serif" font-size="11" lengthAdjust="spacing" textLength="160" x="29" y="247.5449">getToken() : Promise&lt;string&gt;</text><polygon fill="#FFFF44" points="20,251.8652,24,255.8652,20,259.8652,16,255.8652" style="stroke:#B38D22;stroke-width:1.0;"/><text fill="#000000" font-family="sans-serif" font-size="11" lengthAdjust="spacing" textLength="327" x="29" y="260.5">getPayloadMetadata() : Promise&lt;Record&lt;string, unknown&gt;&gt;</text><polygon fill="#FFFF44" points="20,264.8203,24,268.8203,20,272.8203,16,268.8203" style="stroke:#B38D22;stroke-width:1.0;"/><text fill="#000000" font-family="sans-serif" font-size="11" font-style="italic" lengthAdjust="spacing" textLength="304" x="29" y="273.4551">getRequestResponse() : Promise&lt;RequestJWTResponse&gt;</text><polygon fill="#FFFF44" points="20,277.7754,24,281.7754,20,285.7754,16,281.7754" style="stroke:#B38D22;stroke-width:1.0;"/><text fill="#000000" font-family="sans-serif" font-size="11" lengthAdjust="spacing" textLength="179" x="29" y="286.4102">getSecretKey() : Promise&lt;string&gt;</text><!--MD5=[ad4d8e186bc8c68c5fd887e213478086]
class JWTBuilder--><rect codeLine="12" fill="#FEFECE" filter="url(#f13ifhe75rsfok)" height="99.8203" id="JWTBuilder" style="stroke:#A80036;stroke-width:1.5;" width="353" x="9" y="7"/><ellipse cx="150.25" cy="23" fill="#A9DCDF" rx="11" ry="11" style="stroke:#A80036;stroke-width:1.0;"/><path d="M150.1133,18.3481 L148.9595,23.4199 L151.2754,23.4199 Z M148.6191,16.1069 L151.6157,16.1069 L154.9609,28.5 L152.5122,28.5 L151.7485,25.437 L148.4697,25.437 L147.7227,28.5 L145.2739,28.5 Z " fill="#000000"/><text fill="#000000" font-family="sans-serif" font-size="12" font-style="italic" lengthAdjust="spacing" textLength="62" x="170.75" y="27.5352">JWTBuilder</text><line style="stroke:#A80036;stroke-width:1.5;" x1="10" x2="361" y1="39" y2="39"/><polygon fill="none" points="20,45,24,49,20,53,16,49" style="stroke:#B38D22;stroke-width:1.0;"/><text fill="#000000" font-family="sans-serif" font-size="11" lengthAdjust="spacing" textLength="115" x="29" y="53.6348">algorithm : Algorithm</text><line style="stroke:#A80036;stroke-width:1.5;" x1="10" x2="361" y1="59.9551" y2="59.9551"/><ellipse cx="20" cy="70.9551" fill="#84BE84" rx="3" ry="3" style="stroke:#038048;stroke-width:1.0;"/><text fill="#000000" font-family="sans-serif" font-size="11" lengthAdjust="spacing" textLength="160" x="29" y="74.5898">getToken() : Promise&lt;string&gt;</text><polygon fill="#FFFF44" points="20,78.9102,24,82.9102,20,86.9102,16,82.9102" style="stroke:#B38D22;stroke-width:1.0;"/><text fill="#000000" font-family="sans-serif" font-size="11" font-style="italic" lengthAdjust="spacing" textLength="327" x="29" y="87.5449">getPayloadMetadata() : Promise&lt;Record&lt;string, unknown&gt;&gt;</text><polygon fill="#FFFF44" points="20,91.8652,24,95.8652,20,99.8652,16,95.8652" style="stroke:#B38D22;stroke-width:1.0;"/><text fill="#000000" font-family="sans-serif" font-size="11" font-style="italic" lengthAdjust="spacing" textLength="179" x="29" y="100.5">getSecretKey() : Promise&lt;string&gt;</text><!--MD5=[6ce3522bfece337b4ac2f513242f7585]
reverse link JWTBuilder to RequestJWTBuilder--><path codeLine="18" d="M185.5,127.06 C185.5,140.23 185.5,153.94 185.5,166.87 " fill="none" id="JWTBuilder-backto-RequestJWTBuilder" style="stroke:#A80036;stroke-width:1.0;"/><polygon fill="none" points="178.5,127,185.5,107,192.5,127,178.5,127" style="stroke:#A80036;stroke-width:1.0;"/><!--MD5=[1d4915203c181f46db4bbd005a4d1641]
@startuml
skinparam BackgroundColor transparent
hide empty methods
hide empty fields
abstract class "RequestJWTBuilder" {
    #algorithm : Algorithm
    -requestResponse : RequestJWTResponse
    +getToken() : Promise<string>
    #getPayloadMetadata() : Promise<Record<string, unknown>>
    {abstract} #getRequestResponse() : Promise<RequestJWTResponse>
    #getSecretKey() : Promise<string>
}
abstract class "JWTBuilder" {
    #algorithm : Algorithm
    +getToken() : Promise<string>
    {abstract} #getPayloadMetadata() : Promise<Record<string, unknown>>
    {abstract} #getSecretKey() : Promise<string>
}
"JWTBuilder" <|- - "RequestJWTBuilder"
@enduml

PlantUML version 1.2021.6(Fri May 14 09:09:51 CEST 2021)
(GPL source distribution)
Java Runtime: Java(TM) SE Runtime Environment
JVM: Java HotSpot(TM) 64-Bit Server VM
Default Encoding: UTF-8
Language: en
Country: GB
--></g></svg>