<?xml version="1.0" encoding="UTF-8" standalone="no"?><svg xmlns="http://www.w3.org/2000/svg" xmlns:xlink="http://www.w3.org/1999/xlink" contentScriptType="application/ecmascript" contentStyleType="text/css" height="259px" preserveAspectRatio="none" style="width:564px;height:259px;background:#00000000;" version="1.1" viewBox="0 0 564 259" width="564px" zoomAndPan="magnify"><defs><filter height="300%" id="f18k80i6si3isf" width="300%" x="-1" y="-1"><feGaussianBlur result="blurOut" stdDeviation="2.0"/><feColorMatrix in="blurOut" result="blurOut2" type="matrix" values="0 0 0 0 0 0 0 0 0 0 0 0 0 0 0 0 0 0 .4 0"/><feOffset dx="4.0" dy="4.0" in="blurOut2" result="blurOut3"/><feBlend in="SourceGraphic" in2="blurOut3" mode="normal"/></filter></defs><g><!--MD5=[923278051a1fc94956d11bca2fe179bc]
class StdoutIterator--><rect codeLine="4" fill="#FEFECE" filter="url(#f18k80i6si3isf)" height="112.7754" id="StdoutIterator" style="stroke:#A80036;stroke-width:1.5;" width="541" x="9" y="133"/><ellipse cx="236.25" cy="149" fill="#ADD1B2" rx="11" ry="11" style="stroke:#A80036;stroke-width:1.0;"/><path d="M238.7231,155.1431 Q238.1421,155.4419 237.5029,155.5913 Q236.8638,155.7407 236.1582,155.7407 Q233.6514,155.7407 232.3315,154.0889 Q231.0117,152.437 231.0117,149.3159 Q231.0117,146.1865 232.3315,144.5347 Q233.6514,142.8828 236.1582,142.8828 Q236.8638,142.8828 237.5112,143.0322 Q238.1587,143.1816 238.7231,143.4805 L238.7231,146.2031 Q238.0923,145.6221 237.4988,145.3523 Q236.9053,145.0825 236.2744,145.0825 Q234.9297,145.0825 234.2449,146.1492 Q233.5601,147.2158 233.5601,149.3159 Q233.5601,151.4077 234.2449,152.4744 Q234.9297,153.541 236.2744,153.541 Q236.9053,153.541 237.4988,153.2712 Q238.0923,153.0015 238.7231,152.4204 Z " fill="#000000"/><text fill="#000000" font-family="sans-serif" font-size="12" lengthAdjust="spacing" textLength="78" x="256.75" y="153.5352">StdoutIterator</text><line style="stroke:#A80036;stroke-width:1.5;" x1="10" x2="549" y1="165" y2="165"/><polygon fill="none" points="20,171,24,175,20,179,16,175" style="stroke:#B38D22;stroke-width:1.0;"/><text fill="#000000" font-family="sans-serif" font-size="11" lengthAdjust="spacing" textLength="84" x="29" y="179.6348">pretty : boolean</text><polygon fill="none" points="20,183.9551,24,187.9551,20,191.9551,16,187.9551" style="stroke:#B38D22;stroke-width:1.0;"/><text fill="#000000" font-family="sans-serif" font-size="11" lengthAdjust="spacing" textLength="160" x="29" y="192.5898">writeCallback : WritableStream</text><line style="stroke:#A80036;stroke-width:1.5;" x1="10" x2="549" y1="198.9102" y2="198.9102"/><ellipse cx="20" cy="209.9102" fill="#84BE84" rx="3" ry="3" style="stroke:#038048;stroke-width:1.0;"/><text fill="#000000" font-family="sans-serif" font-size="11" lengthAdjust="spacing" textLength="515" x="29" y="213.5449">run(adapterCallback: TapjawAdapterCallback&lt;TapjawMessage&gt;, limit: number) : Promise&lt;void&gt;</text><ellipse cx="20" cy="222.8652" fill="#84BE84" rx="3" ry="3" style="stroke:#038048;stroke-width:1.0;"/><text fill="#000000" font-family="sans-serif" font-size="11" lengthAdjust="spacing" textLength="177" x="29" y="226.5">setPretty(polarity: boolean) : void</text><polygon fill="#FFFF44" points="20,230.8203,24,234.8203,20,238.8203,16,234.8203" style="stroke:#B38D22;stroke-width:1.0;"/><text fill="#000000" font-family="sans-serif" font-size="11" lengthAdjust="spacing" textLength="319" x="29" y="239.4551">outputMessage(message: TapjawMessage) : Promise&lt;void&gt;</text><!--MD5=[5d10ce46af16934260ae9fbfe7924e14]
class OutputIterator--><rect codeLine="11" fill="#FEFECE" filter="url(#f18k80i6si3isf)" height="65.9102" id="OutputIterator" style="stroke:#A80036;stroke-width:1.5;" width="541" x="9" y="7"/><ellipse cx="234.75" cy="23" fill="#A9DCDF" rx="11" ry="11" style="stroke:#A80036;stroke-width:1.0;"/><path d="M234.6133,18.3481 L233.4595,23.4199 L235.7754,23.4199 Z M233.1191,16.1069 L236.1157,16.1069 L239.4609,28.5 L237.0122,28.5 L236.2485,25.437 L232.9697,25.437 L232.2227,28.5 L229.7739,28.5 Z " fill="#000000"/><text fill="#000000" font-family="sans-serif" font-size="12" font-style="italic" lengthAdjust="spacing" textLength="81" x="255.25" y="27.5352">OutputIterator</text><line style="stroke:#A80036;stroke-width:1.5;" x1="10" x2="549" y1="39" y2="39"/><ellipse cx="20" cy="50" fill="#84BE84" rx="3" ry="3" style="stroke:#038048;stroke-width:1.0;"/><text fill="#000000" font-family="sans-serif" font-size="11" lengthAdjust="spacing" textLength="515" x="29" y="53.6348">run(adapterCallback: TapjawAdapterCallback&lt;TapjawMessage&gt;, limit: number) : Promise&lt;void&gt;</text><polygon fill="#FFFF44" points="20,57.9551,24,61.9551,20,65.9551,16,61.9551" style="stroke:#B38D22;stroke-width:1.0;"/><text fill="#000000" font-family="sans-serif" font-size="11" font-style="italic" lengthAdjust="spacing" textLength="319" x="29" y="66.5898">outputMessage(message: TapjawMessage) : Promise&lt;void&gt;</text><!--MD5=[6dad5821d67513021a532d669093cbf1]
reverse link OutputIterator to StdoutIterator--><path codeLine="15" d="M279.5,93.32 C279.5,106.1 279.5,119.82 279.5,132.75 " fill="none" id="OutputIterator-backto-StdoutIterator" style="stroke:#A80036;stroke-width:1.0;"/><polygon fill="none" points="272.5,93.01,279.5,73.01,286.5,93.01,272.5,93.01" style="stroke:#A80036;stroke-width:1.0;"/><!--MD5=[8ea6443a23e2b437e5275d25303544a4]
@startuml
skinparam BackgroundColor transparent
hide empty methods
hide empty fields
class "StdoutIterator" {
    #pretty : boolean
    #writeCallback : WritableStream
    +run(adapterCallback: TapjawAdapterCallback<TapjawMessage>, limit: number) : Promise<void>
    +setPretty(polarity: boolean) : void
    #outputMessage(message: TapjawMessage) : Promise<void>
}
abstract class "OutputIterator" {
    +run(adapterCallback: TapjawAdapterCallback<TapjawMessage>, limit: number) : Promise<void>
    {abstract} #outputMessage(message: TapjawMessage) : Promise<void>
}
"OutputIterator" <|- - "StdoutIterator"
@enduml

PlantUML version 1.2021.6(Fri May 14 09:09:51 CEST 2021)
(GPL source distribution)
Java Runtime: OpenJDK Runtime Environment
JVM: OpenJDK 64-Bit Server VM
Default Encoding: UTF-8
Language: en
Country: GB
--></g></svg>