<?xml version="1.0" encoding="UTF-8" standalone="no"?><svg xmlns="http://www.w3.org/2000/svg" xmlns:xlink="http://www.w3.org/1999/xlink" contentScriptType="application/ecmascript" contentStyleType="text/css" height="272px" preserveAspectRatio="none" style="width:361px;height:272px;background:#00000000;" version="1.1" viewBox="0 0 361 272" width="361px" zoomAndPan="magnify"><defs><filter height="300%" id="f5tieyy3m3vub" width="300%" x="-1" y="-1"><feGaussianBlur result="blurOut" stdDeviation="2.0"/><feColorMatrix in="blurOut" result="blurOut2" type="matrix" values="0 0 0 0 0 0 0 0 0 0 0 0 0 0 0 0 0 0 .4 0"/><feOffset dx="4.0" dy="4.0" in="blurOut2" result="blurOut3"/><feBlend in="SourceGraphic" in2="blurOut3" mode="normal"/></filter></defs><g><!--MD5=[1e10edcb77e28f9ea12bdc3fdb61c4c5]
class StreamOptions<T>--><rect codeLine="4" fill="#FEFECE" filter="url(#f5tieyy3m3vub)" height="138.6855" id="StreamOptions&lt;T&gt;" style="stroke:#A80036;stroke-width:1.5;" width="340" x="7" y="120"/><ellipse cx="116.75" cy="136" fill="#B4A7E5" rx="11" ry="11" style="stroke:#A80036;stroke-width:1.0;"/><path d="M113.1777,132.2651 L113.1777,130.1069 L120.5571,130.1069 L120.5571,132.2651 L118.0918,132.2651 L118.0918,140.3418 L120.5571,140.3418 L120.5571,142.5 L113.1777,142.5 L113.1777,140.3418 L115.6431,140.3418 L115.6431,132.2651 Z " fill="#000000"/><text fill="#000000" font-family="sans-serif" font-size="12" font-style="italic" lengthAdjust="spacing" textLength="112" x="137.25" y="140.5352">StreamOptions&lt;T&gt;</text><line style="stroke:#A80036;stroke-width:1.5;" x1="8" x2="346" y1="152" y2="152"/><ellipse cx="18" cy="163" rx="3" ry="3" style="stroke:#038048;stroke-width:1.0;fill:none;"/><text fill="#000000" font-family="sans-serif" font-size="11" lengthAdjust="spacing" textLength="118" x="27" y="166.6348">autoDestroy : boolean</text><ellipse cx="18" cy="175.9551" rx="3" ry="3" style="stroke:#038048;stroke-width:1.0;fill:none;"/><text fill="#000000" font-family="sans-serif" font-size="11" lengthAdjust="spacing" textLength="105" x="27" y="179.5898">emitClose : boolean</text><ellipse cx="18" cy="188.9102" rx="3" ry="3" style="stroke:#038048;stroke-width:1.0;fill:none;"/><text fill="#000000" font-family="sans-serif" font-size="11" lengthAdjust="spacing" textLength="131" x="27" y="192.5449">highWaterMark : number</text><ellipse cx="18" cy="201.8652" rx="3" ry="3" style="stroke:#038048;stroke-width:1.0;fill:none;"/><text fill="#000000" font-family="sans-serif" font-size="11" lengthAdjust="spacing" textLength="114" x="27" y="205.5">objectMode : boolean</text><ellipse cx="18" cy="214.8203" rx="3" ry="3" style="stroke:#038048;stroke-width:1.0;fill:none;"/><text fill="#000000" font-family="sans-serif" font-size="11" lengthAdjust="spacing" textLength="104" x="27" y="218.4551">signal : AbortSignal</text><line style="stroke:#A80036;stroke-width:1.5;" x1="8" x2="346" y1="224.7754" y2="224.7754"/><ellipse cx="18" cy="235.7754" fill="#84BE84" rx="3" ry="3" style="stroke:#038048;stroke-width:1.0;"/><text fill="#000000" font-family="sans-serif" font-size="11" lengthAdjust="spacing" textLength="227" x="27" y="239.4102">construct(this: T, callback: Function) : void</text><ellipse cx="18" cy="248.7305" fill="#84BE84" rx="3" ry="3" style="stroke:#038048;stroke-width:1.0;"/><text fill="#000000" font-family="sans-serif" font-size="11" lengthAdjust="spacing" textLength="314" x="27" y="252.3652">destroy(this: T, error: null | Error, callback: Function) : void</text><!--MD5=[6495451319b5a6ef5a9033a80b2559f9]
class Abortable--><rect codeLine="13" fill="#FEFECE" filter="url(#f5tieyy3m3vub)" height="52.9551" id="Abortable" style="stroke:#A80036;stroke-width:1.5;" width="130" x="112" y="7"/><ellipse cx="145.45" cy="23" fill="#B4A7E5" rx="11" ry="11" style="stroke:#A80036;stroke-width:1.0;"/><path d="M141.8777,19.2651 L141.8777,17.1069 L149.2571,17.1069 L149.2571,19.2651 L146.7918,19.2651 L146.7918,27.3418 L149.2571,27.3418 L149.2571,29.5 L141.8777,29.5 L141.8777,27.3418 L144.3431,27.3418 L144.3431,19.2651 Z " fill="#000000"/><text fill="#000000" font-family="sans-serif" font-size="12" font-style="italic" lengthAdjust="spacing" textLength="57" x="163.55" y="27.5352">Abortable</text><line style="stroke:#A80036;stroke-width:1.5;" x1="113" x2="241" y1="39" y2="39"/><ellipse cx="123" cy="50" rx="3" ry="3" style="stroke:#038048;stroke-width:1.0;fill:none;"/><text fill="#000000" font-family="sans-serif" font-size="11" lengthAdjust="spacing" textLength="104" x="132" y="53.6348">signal : AbortSignal</text><!--MD5=[355e0b3da4149e72528a52d003ed9466]
reverse link Abortable to StreamOptions<T>--><path codeLine="16" d="M177,80.71 C177,93.01 177,106.56 177,119.78 " fill="none" id="Abortable-backto-StreamOptions&lt;T&gt;" style="stroke:#A80036;stroke-width:1.0;"/><polygon fill="none" points="170,80.28,177,60.28,184,80.28,170,80.28" style="stroke:#A80036;stroke-width:1.0;"/><!--MD5=[aad032d67b98082b798364784fb80961]
@startuml
skinparam BackgroundColor transparent
hide empty methods
hide empty fields
interface "StreamOptions<T>" {
    +autoDestroy : boolean
    +emitClose : boolean
    +highWaterMark : number
    +objectMode : boolean
    +signal : AbortSignal
    +construct(this: T, callback: Function) : void
    +destroy(this: T, error: null | Error, callback: Function) : void
}
interface "Abortable" {
    +signal : AbortSignal
}
"Abortable" <|- - "StreamOptions<T>"
@enduml

PlantUML version 1.2021.14(Fri Nov 12 17:46:50 CET 2021)
(GPL source distribution)
Java Runtime: Java(TM) SE Runtime Environment
JVM: Java HotSpot(TM) 64-Bit Server VM
Default Encoding: UTF-8
Language: en
Country: GB
--></g></svg>