<?xml version="1.0" encoding="UTF-8" standalone="no"?><svg xmlns="http://www.w3.org/2000/svg" xmlns:xlink="http://www.w3.org/1999/xlink" contentScriptType="application/ecmascript" contentStyleType="text/css" height="243px" preserveAspectRatio="none" style="width:435px;height:243px;background:#00000000;" version="1.1" viewBox="0 0 435 243" width="435px" zoomAndPan="magnify"><defs><filter height="300%" id="fsrar0ldvus3j" width="300%" x="-1" y="-1"><feGaussianBlur result="blurOut" stdDeviation="2.0"/><feColorMatrix in="blurOut" result="blurOut2" type="matrix" values="0 0 0 0 0 0 0 0 0 0 0 0 0 0 0 0 0 0 .4 0"/><feOffset dx="4.0" dy="4.0" in="blurOut2" result="blurOut3"/><feBlend in="SourceGraphic" in2="blurOut3" mode="normal"/></filter></defs><g><!--MD5=[d63e68d060c367c934793319b100d020]
class TapjawConnectorError--><rect codeLine="4" fill="#FEFECE" filter="url(#fsrar0ldvus3j)" height="138.6855" id="TapjawConnectorError" style="stroke:#A80036;stroke-width:1.5;" width="414" x="7" y="91"/><ellipse cx="144.75" cy="107" fill="#ADD1B2" rx="11" ry="11" style="stroke:#A80036;stroke-width:1.0;"/><path d="M147.2231,113.1431 Q146.6421,113.4419 146.0029,113.5913 Q145.3638,113.7407 144.6582,113.7407 Q142.1514,113.7407 140.8315,112.0889 Q139.5117,110.437 139.5117,107.3159 Q139.5117,104.1865 140.8315,102.5347 Q142.1514,100.8828 144.6582,100.8828 Q145.3638,100.8828 146.0112,101.0322 Q146.6587,101.1816 147.2231,101.4805 L147.2231,104.2031 Q146.5923,103.6221 145.9988,103.3523 Q145.4053,103.0825 144.7744,103.0825 Q143.4297,103.0825 142.7449,104.1492 Q142.0601,105.2158 142.0601,107.3159 Q142.0601,109.4077 142.7449,110.4744 Q143.4297,111.541 144.7744,111.541 Q145.4053,111.541 145.9988,111.2712 Q146.5923,111.0015 147.2231,110.4204 Z " fill="#000000"/><text fill="#000000" font-family="sans-serif" font-size="12" lengthAdjust="spacing" textLength="130" x="165.25" y="111.5352">TapjawConnectorError</text><line style="stroke:#A80036;stroke-width:1.5;" x1="8" x2="420" y1="123" y2="123"/><ellipse cx="18" cy="134" rx="3" ry="3" style="stroke:#038048;stroke-width:1.0;fill:none;"/><text fill="#000000" font-family="sans-serif" font-size="11" lengthAdjust="spacing" textLength="88" x="27" y="137.6348">message : string</text><ellipse cx="18" cy="146.9551" rx="3" ry="3" style="stroke:#038048;stroke-width:1.0;fill:none;"/><text fill="#000000" font-family="sans-serif" font-size="11" lengthAdjust="spacing" textLength="70" x="27" y="150.5898">name : string</text><ellipse cx="18" cy="159.9102" rx="3" ry="3" style="stroke:#038048;stroke-width:1.0;fill:none;"/><text fill="#000000" font-family="sans-serif" font-size="11" lengthAdjust="spacing" textLength="104" x="27" y="163.5449">parentStack : string</text><ellipse cx="18" cy="172.8652" rx="3" ry="3" style="stroke:#038048;stroke-width:1.0;fill:none;"/><text fill="#000000" font-family="sans-serif" font-size="11" lengthAdjust="spacing" text-decoration="underline" textLength="156" x="27" y="176.5">prepareStackTrace : Function</text><ellipse cx="18" cy="185.8203" rx="3" ry="3" style="stroke:#038048;stroke-width:1.0;fill:none;"/><text fill="#000000" font-family="sans-serif" font-size="11" lengthAdjust="spacing" textLength="69" x="27" y="189.4551">stack : string</text><ellipse cx="18" cy="198.7754" rx="3" ry="3" style="stroke:#038048;stroke-width:1.0;fill:none;"/><text fill="#000000" font-family="sans-serif" font-size="11" lengthAdjust="spacing" text-decoration="underline" textLength="135" x="27" y="202.4102">stackTraceLimit : number</text><line style="stroke:#A80036;stroke-width:1.5;" x1="8" x2="420" y1="208.7305" y2="208.7305"/><ellipse cx="18" cy="219.7305" fill="#84BE84" rx="3" ry="3" style="stroke:#038048;stroke-width:1.0;"/><text fill="#000000" font-family="sans-serif" font-size="11" lengthAdjust="spacing" text-decoration="underline" textLength="388" x="27" y="223.3652">captureStackTrace(targetObject: object, constructorOpt: Function) : void</text><!--MD5=[b8cfd8c4119a3b0a7a46bfc5fc780f85]
class Error--><rect codeLine="13" fill="#FEFECE" filter="url(#fsrar0ldvus3j)" height="24.1328" id="Error" style="stroke:#A80036;stroke-width:1.5;" width="35" x="196.5" y="7"/><text fill="#000000" font-family="sans-serif" font-size="12" lengthAdjust="spacing" textLength="29" x="199.5" y="23.6016">Error</text><!--MD5=[0a693595f18b0af899001472e94de5bf]
reverse link Error to TapjawConnectorError--><path codeLine="15" d="M214,51.42 C214,63.21 214,77.12 214,90.96 " fill="none" id="Error-backto-TapjawConnectorError" style="stroke:#A80036;stroke-width:1.0;"/><polygon fill="none" points="207,51.42,214,31.42,221,51.42,207,51.42" style="stroke:#A80036;stroke-width:1.0;"/><!--MD5=[06dc0173a7b5fe2de01da5b3cd999b82]
@startuml
skinparam BackgroundColor transparent
hide empty methods
hide empty fields
class "TapjawConnectorError" {
    +message : string
    +name : string
    +parentStack : string
    {static} +prepareStackTrace : Function
    +stack : string
    {static} +stackTraceLimit : number
    {static} +captureStackTrace(targetObject: object, constructorOpt: Function) : void
}
class "Error"
hide "Error" circle
"Error" <|- - "TapjawConnectorError"
@enduml

PlantUML version 1.2021.14(Fri Nov 12 17:46:50 CET 2021)
(GPL source distribution)
Java Runtime: Java(TM) SE Runtime Environment
JVM: Java HotSpot(TM) 64-Bit Server VM
Default Encoding: UTF-8
Language: en
Country: GB
--></g></svg>