<?xml version="1.0" encoding="UTF-8" standalone="no"?><svg xmlns="http://www.w3.org/2000/svg" xmlns:xlink="http://www.w3.org/1999/xlink" contentScriptType="application/ecmascript" contentStyleType="text/css" height="272px" preserveAspectRatio="none" style="width:566px;height:272px;background:#00000000;" version="1.1" viewBox="0 0 566 272" width="566px" zoomAndPan="magnify"><defs><filter height="300%" id="f4fcrw0cmxk4r" width="300%" x="-1" y="-1"><feGaussianBlur result="blurOut" stdDeviation="2.0"/><feColorMatrix in="blurOut" result="blurOut2" type="matrix" values="0 0 0 0 0 0 0 0 0 0 0 0 0 0 0 0 0 0 .4 0"/><feOffset dx="4.0" dy="4.0" in="blurOut2" result="blurOut3"/><feBlend in="SourceGraphic" in2="blurOut3" mode="normal"/></filter></defs><g><!--MD5=[bac1bfd5b246508b37f5294abbc6785a]
class TapjawStoreCommand<T, M>--><rect codeLine="4" fill="#FEFECE" filter="url(#f4fcrw0cmxk4r)" height="138.6855" id="TapjawStoreCommand&lt;T, M&gt;" style="stroke:#A80036;stroke-width:1.5;" width="543" x="9" y="120"/><ellipse cx="187.75" cy="136" fill="#A9DCDF" rx="11" ry="11" style="stroke:#A80036;stroke-width:1.0;"/><path d="M187.6133,131.3481 L186.4595,136.4199 L188.7754,136.4199 Z M186.1191,129.1069 L189.1157,129.1069 L192.4609,141.5 L190.0122,141.5 L189.2485,138.437 L185.9697,138.437 L185.2227,141.5 L182.7739,141.5 Z " fill="#000000"/><text fill="#000000" font-family="sans-serif" font-size="12" font-style="italic" lengthAdjust="spacing" textLength="177" x="208.25" y="140.5352">TapjawStoreCommand&lt;T, M&gt;</text><line style="stroke:#A80036;stroke-width:1.5;" x1="10" x2="551" y1="152" y2="152"/><polygon fill="none" points="20,158,24,162,20,166,16,162" style="stroke:#B38D22;stroke-width:1.0;"/><text fill="#000000" font-family="sans-serif" font-size="11" lengthAdjust="spacing" textLength="176" x="29" y="166.6348">displayJsonParseErrors : boolean</text><polygon fill="none" points="20,170.9551,24,174.9551,20,178.9551,16,174.9551" style="stroke:#B38D22;stroke-width:1.0;"/><text fill="#000000" font-family="sans-serif" font-size="11" lengthAdjust="spacing" textLength="121" x="29" y="179.5898">stdin : ReadableStream</text><line style="stroke:#A80036;stroke-width:1.5;" x1="10" x2="551" y1="185.9102" y2="185.9102"/><ellipse cx="20" cy="196.9102" fill="#84BE84" rx="3" ry="3" style="stroke:#038048;stroke-width:1.0;"/><text fill="#000000" font-family="sans-serif" font-size="11" lengthAdjust="spacing" text-decoration="underline" textLength="190" x="29" y="200.5449">register(program: Command) : void</text><ellipse cx="20" cy="209.8652" fill="#84BE84" rx="3" ry="3" style="stroke:#038048;stroke-width:1.0;"/><text fill="#000000" font-family="sans-serif" font-size="11" lengthAdjust="spacing" textLength="380" x="29" y="213.5">run(args: TapjawCommandArgs&lt;unknown&gt;, flags: T) : Promise&lt;void&gt;</text><polygon fill="#FFFF44" points="20,217.8203,24,221.8203,20,225.8203,16,221.8203" style="stroke:#B38D22;stroke-width:1.0;"/><text fill="#000000" font-family="sans-serif" font-size="11" lengthAdjust="spacing" text-decoration="underline" textLength="147" x="29" y="226.4551">getLogger() : TapjawLogger</text><polygon fill="#FFFF44" points="20,230.7754,24,234.7754,20,238.7754,16,234.7754" style="stroke:#B38D22;stroke-width:1.0;"/><text fill="#000000" font-family="sans-serif" font-size="11" lengthAdjust="spacing" textLength="429" x="29" y="239.4102">onBeforeExit(args: TapjawCommandArgs&lt;unknown&gt;, flags: T) : Promise&lt;void&gt;</text><polygon fill="#FFFF44" points="20,243.7305,24,247.7305,20,251.7305,16,247.7305" style="stroke:#B38D22;stroke-width:1.0;"/><text fill="#000000" font-family="sans-serif" font-size="11" font-style="italic" lengthAdjust="spacing" textLength="517" x="29" y="252.3652">onStoreMessage(message: M, args: TapjawCommandArgs&lt;unknown&gt;, flags: T) : Promise&lt;void&gt;</text><!--MD5=[19bf86b96bfaa3bab18522b2cc172216]
class TapjawCommand--><rect codeLine="13" fill="#FEFECE" filter="url(#f4fcrw0cmxk4r)" height="52.9551" id="TapjawCommand" style="stroke:#A80036;stroke-width:1.5;" width="233" x="164" y="7"/><ellipse cx="225.25" cy="23" fill="#B4A7E5" rx="11" ry="11" style="stroke:#A80036;stroke-width:1.0;"/><path d="M221.6777,19.2651 L221.6777,17.1069 L229.0571,17.1069 L229.0571,19.2651 L226.5918,19.2651 L226.5918,27.3418 L229.0571,27.3418 L229.0571,29.5 L221.6777,29.5 L221.6777,27.3418 L224.1431,27.3418 L224.1431,19.2651 Z " fill="#000000"/><text fill="#000000" font-family="sans-serif" font-size="12" font-style="italic" lengthAdjust="spacing" textLength="102" x="245.75" y="27.5352">TapjawCommand</text><line style="stroke:#A80036;stroke-width:1.5;" x1="165" x2="396" y1="39" y2="39"/><ellipse cx="175" cy="50" fill="#84BE84" rx="3" ry="3" style="stroke:#038048;stroke-width:1.0;"/><text fill="#000000" font-family="sans-serif" font-size="11" lengthAdjust="spacing" textLength="207" x="184" y="53.6348">run(args: unknown[]) : Promise&lt;void&gt;</text><!--MD5=[33e8499308f492900e7bf3a9114c0948]
reverse link TapjawCommand to TapjawStoreCommand<T, M>--><path codeLine="16" d="M280.5,80.71 C280.5,93.01 280.5,106.56 280.5,119.78 " fill="none" id="TapjawCommand-backto-TapjawStoreCommand&lt;T, M&gt;" style="stroke:#A80036;stroke-width:1.0;stroke-dasharray:7.0,7.0;"/><polygon fill="none" points="273.5,80.28,280.5,60.28,287.5,80.28,273.5,80.28" style="stroke:#A80036;stroke-width:1.0;"/><!--MD5=[a7e885e1c3253abfa255f7b9834762a2]
@startuml
skinparam BackgroundColor transparent
hide empty methods
hide empty fields
abstract class "TapjawStoreCommand<T, M>" {
    #displayJsonParseErrors : boolean
    #stdin : ReadableStream
    {static} +register(program: Command) : void
    +run(args: TapjawCommandArgs<unknown>, flags: T) : Promise<void>
    {static} #getLogger() : TapjawLogger
    #onBeforeExit(args: TapjawCommandArgs<unknown>, flags: T) : Promise<void>
    {abstract} #onStoreMessage(message: M, args: TapjawCommandArgs<unknown>, flags: T) : Promise<void>
}
interface "TapjawCommand" {
    +run(args: unknown[]) : Promise<void>
}
"TapjawCommand" <|.. "TapjawStoreCommand<T, M>"
@enduml

PlantUML version 1.2021.6(Fri May 14 09:09:51 CEST 2021)
(GPL source distribution)
Java Runtime: Java(TM) SE Runtime Environment
JVM: Java HotSpot(TM) 64-Bit Server VM
Default Encoding: UTF-8
Language: en
Country: GB
--></g></svg>