<?xml version="1.0" encoding="UTF-8" standalone="no"?><svg xmlns="http://www.w3.org/2000/svg" xmlns:xlink="http://www.w3.org/1999/xlink" contentScriptType="application/ecmascript" contentStyleType="text/css" height="1417px" preserveAspectRatio="none" style="width:570px;height:1417px;background:#00000000;" version="1.1" viewBox="0 0 570 1417" width="570px" zoomAndPan="magnify"><defs><filter height="300%" id="f8n9lre96y2xa" width="300%" x="-1" y="-1"><feGaussianBlur result="blurOut" stdDeviation="2.0"/><feColorMatrix in="blurOut" result="blurOut2" type="matrix" values="0 0 0 0 0 0 0 0 0 0 0 0 0 0 0 0 0 0 .4 0"/><feOffset dx="4.0" dy="4.0" in="blurOut2" result="blurOut3"/><feBlend in="SourceGraphic" in2="blurOut3" mode="normal"/></filter></defs><g><!--MD5=[0fd45f15200610a59eaf5b86e47d7a14]
class TapjawAuthenticator<T>--><rect codeLine="5" fill="#FEFECE" filter="url(#f8n9lre96y2xa)" height="65.9102" id="TapjawAuthenticator&lt;T&gt;" style="stroke:#A80036;stroke-width:1.5;" width="179" x="7" y="550"/><ellipse cx="22" cy="566" fill="#B4A7E5" rx="11" ry="11" style="stroke:#A80036;stroke-width:1.0;"/><path d="M18.4277,562.2651 L18.4277,560.1069 L25.8071,560.1069 L25.8071,562.2651 L23.3418,562.2651 L23.3418,570.3418 L25.8071,570.3418 L25.8071,572.5 L18.4277,572.5 L18.4277,570.3418 L20.8931,570.3418 L20.8931,562.2651 Z " fill="#000000"/><text fill="#000000" font-family="sans-serif" font-size="12" font-style="italic" lengthAdjust="spacing" textLength="147" x="36" y="570.5352">TapjawAuthenticator&lt;T&gt;</text><line style="stroke:#A80036;stroke-width:1.5;" x1="8" x2="185" y1="582" y2="582"/><ellipse cx="18" cy="593" fill="#84BE84" rx="3" ry="3" style="stroke:#038048;stroke-width:1.0;"/><text fill="#000000" font-family="sans-serif" font-size="11" lengthAdjust="spacing" textLength="151" x="27" y="596.6348">authenticate() : Promise&lt;T&gt;</text><ellipse cx="18" cy="605.9551" fill="#84BE84" rx="3" ry="3" style="stroke:#038048;stroke-width:1.0;"/><text fill="#000000" font-family="sans-serif" font-size="11" lengthAdjust="spacing" textLength="144" x="27" y="609.5898">isAuthenticated() : boolean</text><!--MD5=[737eeb22b905e9f15237dcd0f02bdb69]
class BasicAuthAuthenticator--><rect codeLine="9" fill="#FEFECE" filter="url(#f8n9lre96y2xa)" height="125.7305" id="BasicAuthAuthenticator" style="stroke:#A80036;stroke-width:1.5;" width="288" x="257" y="7"/><ellipse cx="331.25" cy="23" fill="#ADD1B2" rx="11" ry="11" style="stroke:#A80036;stroke-width:1.0;"/><path d="M333.7231,29.1431 Q333.1421,29.4419 332.5029,29.5913 Q331.8638,29.7407 331.1582,29.7407 Q328.6514,29.7407 327.3315,28.0889 Q326.0117,26.437 326.0117,23.3159 Q326.0117,20.1865 327.3315,18.5347 Q328.6514,16.8828 331.1582,16.8828 Q331.8638,16.8828 332.5112,17.0322 Q333.1587,17.1816 333.7231,17.4805 L333.7231,20.2031 Q333.0923,19.6221 332.4988,19.3523 Q331.9053,19.0825 331.2744,19.0825 Q329.9297,19.0825 329.2449,20.1492 Q328.5601,21.2158 328.5601,23.3159 Q328.5601,25.4077 329.2449,26.4744 Q329.9297,27.541 331.2744,27.541 Q331.9053,27.541 332.4988,27.2712 Q333.0923,27.0015 333.7231,26.4204 Z " fill="#000000"/><text fill="#000000" font-family="sans-serif" font-size="12" lengthAdjust="spacing" textLength="131" x="351.75" y="27.5352">BasicAuthAuthenticator</text><line style="stroke:#A80036;stroke-width:1.5;" x1="258" x2="544" y1="39" y2="39"/><polygon fill="none" points="268,45,272,49,268,53,264,49" style="stroke:#B38D22;stroke-width:1.0;"/><text fill="#000000" font-family="sans-serif" font-size="11" lengthAdjust="spacing" textLength="93" x="277" y="53.6348">password : string</text><polygon fill="none" points="268,57.9551,272,61.9551,268,65.9551,264,61.9551" style="stroke:#B38D22;stroke-width:1.0;"/><text fill="#000000" font-family="sans-serif" font-size="11" lengthAdjust="spacing" textLength="94" x="277" y="66.5898">username : string</text><rect fill="none" height="6" style="stroke:#C82930;stroke-width:1.0;" width="6" x="265" y="72.9102"/><text fill="#000000" font-family="sans-serif" font-size="11" lengthAdjust="spacing" textLength="125" x="277" y="79.5449">authenticated : boolean</text><rect fill="none" height="6" style="stroke:#C82930;stroke-width:1.0;" width="6" x="265" y="85.8652"/><text fill="#000000" font-family="sans-serif" font-size="11" lengthAdjust="spacing" textLength="170" x="277" y="92.5">headers : AuthorizationHeaders</text><line style="stroke:#A80036;stroke-width:1.5;" x1="258" x2="544" y1="98.8203" y2="98.8203"/><ellipse cx="268" cy="109.8203" fill="#84BE84" rx="3" ry="3" style="stroke:#038048;stroke-width:1.0;"/><text fill="#000000" font-family="sans-serif" font-size="11" lengthAdjust="spacing" textLength="262" x="277" y="113.4551">authenticate() : Promise&lt;AuthorizationHeaders&gt;</text><ellipse cx="268" cy="122.7754" fill="#84BE84" rx="3" ry="3" style="stroke:#038048;stroke-width:1.0;"/><text fill="#000000" font-family="sans-serif" font-size="11" lengthAdjust="spacing" textLength="144" x="277" y="126.4102">isAuthenticated() : boolean</text><!--MD5=[4091885883347d6230482329675d8870]
class BearerAuthAuthenticator--><rect codeLine="18" fill="#FEFECE" filter="url(#f8n9lre96y2xa)" height="112.7754" id="BearerAuthAuthenticator" style="stroke:#A80036;stroke-width:1.5;" width="288" x="257" y="168.5"/><ellipse cx="326.75" cy="184.5" fill="#ADD1B2" rx="11" ry="11" style="stroke:#A80036;stroke-width:1.0;"/><path d="M329.2231,190.6431 Q328.6421,190.9419 328.0029,191.0913 Q327.3638,191.2407 326.6582,191.2407 Q324.1514,191.2407 322.8315,189.5889 Q321.5117,187.937 321.5117,184.8159 Q321.5117,181.6865 322.8315,180.0347 Q324.1514,178.3828 326.6582,178.3828 Q327.3638,178.3828 328.0112,178.5322 Q328.6587,178.6816 329.2231,178.9805 L329.2231,181.7031 Q328.5923,181.1221 327.9988,180.8523 Q327.4053,180.5825 326.7744,180.5825 Q325.4297,180.5825 324.7449,181.6492 Q324.0601,182.7158 324.0601,184.8159 Q324.0601,186.9077 324.7449,187.9744 Q325.4297,189.041 326.7744,189.041 Q327.4053,189.041 327.9988,188.7712 Q328.5923,188.5015 329.2231,187.9204 Z " fill="#000000"/><text fill="#000000" font-family="sans-serif" font-size="12" lengthAdjust="spacing" textLength="140" x="347.25" y="189.0352">BearerAuthAuthenticator</text><line style="stroke:#A80036;stroke-width:1.5;" x1="258" x2="544" y1="200.5" y2="200.5"/><polygon fill="none" points="268,206.5,272,210.5,268,214.5,264,210.5" style="stroke:#B38D22;stroke-width:1.0;"/><text fill="#000000" font-family="sans-serif" font-size="11" lengthAdjust="spacing" textLength="109" x="277" y="215.1348">bearerToken : string</text><rect fill="none" height="6" style="stroke:#C82930;stroke-width:1.0;" width="6" x="265" y="221.4551"/><text fill="#000000" font-family="sans-serif" font-size="11" lengthAdjust="spacing" textLength="125" x="277" y="228.0898">authenticated : boolean</text><rect fill="none" height="6" style="stroke:#C82930;stroke-width:1.0;" width="6" x="265" y="234.4102"/><text fill="#000000" font-family="sans-serif" font-size="11" lengthAdjust="spacing" textLength="164" x="277" y="241.0449">header : AuthorizationHeaders</text><line style="stroke:#A80036;stroke-width:1.5;" x1="258" x2="544" y1="247.3652" y2="247.3652"/><ellipse cx="268" cy="258.3652" fill="#84BE84" rx="3" ry="3" style="stroke:#038048;stroke-width:1.0;"/><text fill="#000000" font-family="sans-serif" font-size="11" lengthAdjust="spacing" textLength="262" x="277" y="262">authenticate() : Promise&lt;AuthorizationHeaders&gt;</text><ellipse cx="268" cy="271.3203" fill="#84BE84" rx="3" ry="3" style="stroke:#038048;stroke-width:1.0;"/><text fill="#000000" font-family="sans-serif" font-size="11" lengthAdjust="spacing" textLength="144" x="277" y="274.9551">isAuthenticated() : boolean</text><!--MD5=[08ca1357d8d1ded60de7b56a03aca7bd]
class CustomHeaderAuthenticator--><rect codeLine="26" fill="#FEFECE" filter="url(#f8n9lre96y2xa)" height="86.8652" id="CustomHeaderAuthenticator" style="stroke:#A80036;stroke-width:1.5;" width="237" x="282.5" y="316.5"/><ellipse cx="316.85" cy="332.5" fill="#ADD1B2" rx="11" ry="11" style="stroke:#A80036;stroke-width:1.0;"/><path d="M319.3231,338.6431 Q318.7421,338.9419 318.1029,339.0913 Q317.4638,339.2407 316.7582,339.2407 Q314.2514,339.2407 312.9315,337.5889 Q311.6117,335.937 311.6117,332.8159 Q311.6117,329.6865 312.9315,328.0347 Q314.2514,326.3828 316.7582,326.3828 Q317.4638,326.3828 318.1112,326.5322 Q318.7587,326.6816 319.3231,326.9805 L319.3231,329.7031 Q318.6923,329.1221 318.0988,328.8523 Q317.5053,328.5825 316.8744,328.5825 Q315.5297,328.5825 314.8449,329.6492 Q314.1601,330.7158 314.1601,332.8159 Q314.1601,334.9077 314.8449,335.9744 Q315.5297,337.041 316.8744,337.041 Q317.5053,337.041 318.0988,336.7712 Q318.6923,336.5015 319.3231,335.9204 Z " fill="#000000"/><text fill="#000000" font-family="sans-serif" font-size="12" lengthAdjust="spacing" textLength="162" x="335.15" y="337.0352">CustomHeaderAuthenticator</text><line style="stroke:#A80036;stroke-width:1.5;" x1="283.5" x2="518.5" y1="348.5" y2="348.5"/><rect fill="none" height="6" style="stroke:#C82930;stroke-width:1.0;" width="6" x="290.5" y="356.5"/><text fill="#000000" font-family="sans-serif" font-size="11" lengthAdjust="spacing" textLength="178" x="302.5" y="363.1348">headers : Record&lt;string, string&gt;</text><line style="stroke:#A80036;stroke-width:1.5;" x1="283.5" x2="518.5" y1="369.4551" y2="369.4551"/><ellipse cx="293.5" cy="380.4551" fill="#84BE84" rx="3" ry="3" style="stroke:#038048;stroke-width:1.0;"/><text fill="#000000" font-family="sans-serif" font-size="11" lengthAdjust="spacing" textLength="211" x="302.5" y="384.0898">authenticate() : Promise&lt;HttpHeaders&gt;</text><ellipse cx="293.5" cy="393.4102" fill="#84BE84" rx="3" ry="3" style="stroke:#038048;stroke-width:1.0;"/><text fill="#000000" font-family="sans-serif" font-size="11" lengthAdjust="spacing" textLength="144" x="302.5" y="397.0449">isAuthenticated() : boolean</text><!--MD5=[3cd273bad8a0cb8c19bcdf7254ef2dac]
class JWTBearerAuthAuthenticator--><rect codeLine="32" fill="#FEFECE" filter="url(#f8n9lre96y2xa)" height="99.8203" id="JWTBearerAuthAuthenticator" style="stroke:#A80036;stroke-width:1.5;" width="288" x="257" y="439"/><ellipse cx="315.75" cy="455" fill="#ADD1B2" rx="11" ry="11" style="stroke:#A80036;stroke-width:1.0;"/><path d="M318.2231,461.1431 Q317.6421,461.4419 317.0029,461.5913 Q316.3638,461.7407 315.6582,461.7407 Q313.1514,461.7407 311.8315,460.0889 Q310.5117,458.437 310.5117,455.3159 Q310.5117,452.1865 311.8315,450.5347 Q313.1514,448.8828 315.6582,448.8828 Q316.3638,448.8828 317.0112,449.0322 Q317.6587,449.1816 318.2231,449.4805 L318.2231,452.2031 Q317.5923,451.6221 316.9988,451.3523 Q316.4053,451.0825 315.7744,451.0825 Q314.4297,451.0825 313.7449,452.1492 Q313.0601,453.2158 313.0601,455.3159 Q313.0601,457.4077 313.7449,458.4744 Q314.4297,459.541 315.7744,459.541 Q316.4053,459.541 316.9988,459.2712 Q317.5923,459.0015 318.2231,458.4204 Z " fill="#000000"/><text fill="#000000" font-family="sans-serif" font-size="12" lengthAdjust="spacing" textLength="162" x="336.25" y="459.5352">JWTBearerAuthAuthenticator</text><line style="stroke:#A80036;stroke-width:1.5;" x1="258" x2="544" y1="471" y2="471"/><polygon fill="none" points="268,477,272,481,268,485,264,481" style="stroke:#B38D22;stroke-width:1.0;"/><text fill="#000000" font-family="sans-serif" font-size="11" lengthAdjust="spacing" textLength="117" x="277" y="485.6348">jwtBuilder : JWTBuilder</text><rect fill="none" height="6" style="stroke:#C82930;stroke-width:1.0;" width="6" x="265" y="491.9551"/><text fill="#000000" font-family="sans-serif" font-size="11" lengthAdjust="spacing" textLength="125" x="277" y="498.5898">authenticated : boolean</text><line style="stroke:#A80036;stroke-width:1.5;" x1="258" x2="544" y1="504.9102" y2="504.9102"/><ellipse cx="268" cy="515.9102" fill="#84BE84" rx="3" ry="3" style="stroke:#038048;stroke-width:1.0;"/><text fill="#000000" font-family="sans-serif" font-size="11" lengthAdjust="spacing" textLength="262" x="277" y="519.5449">authenticate() : Promise&lt;AuthorizationHeaders&gt;</text><ellipse cx="268" cy="528.8652" fill="#84BE84" rx="3" ry="3" style="stroke:#038048;stroke-width:1.0;"/><text fill="#000000" font-family="sans-serif" font-size="11" lengthAdjust="spacing" textLength="144" x="277" y="532.5">isAuthenticated() : boolean</text><!--MD5=[b4b69a192bef2638464d20bdde1c1816]
class OAuthAuthenticator--><rect codeLine="39" fill="#FEFECE" filter="url(#f8n9lre96y2xa)" height="203.4609" id="OAuthAuthenticator" style="stroke:#A80036;stroke-width:1.5;" width="255" x="273.5" y="574.5"/><ellipse cx="341.25" cy="590.5" fill="#ADD1B2" rx="11" ry="11" style="stroke:#A80036;stroke-width:1.0;"/><path d="M343.7231,596.6431 Q343.1421,596.9419 342.5029,597.0913 Q341.8638,597.2407 341.1582,597.2407 Q338.6514,597.2407 337.3315,595.5889 Q336.0117,593.937 336.0117,590.8159 Q336.0117,587.6865 337.3315,586.0347 Q338.6514,584.3828 341.1582,584.3828 Q341.8638,584.3828 342.5112,584.5322 Q343.1587,584.6816 343.7231,584.9805 L343.7231,587.7031 Q343.0923,587.1221 342.4988,586.8523 Q341.9053,586.5825 341.2744,586.5825 Q339.9297,586.5825 339.2449,587.6492 Q338.5601,588.7158 338.5601,590.8159 Q338.5601,592.9077 339.2449,593.9744 Q339.9297,595.041 341.2744,595.041 Q341.9053,595.041 342.4988,594.7712 Q343.0923,594.5015 343.7231,593.9204 Z " fill="#000000"/><text fill="#000000" font-family="sans-serif" font-size="12" lengthAdjust="spacing" textLength="111" x="361.75" y="595.0352">OAuthAuthenticator</text><line style="stroke:#A80036;stroke-width:1.5;" x1="274.5" x2="527.5" y1="606.5" y2="606.5"/><polygon fill="none" points="284.5,612.5,288.5,616.5,284.5,620.5,280.5,616.5" style="stroke:#B38D22;stroke-width:1.0;"/><text fill="#000000" font-family="sans-serif" font-size="11" lengthAdjust="spacing" textLength="80" x="293.5" y="621.1348">clientId : string</text><polygon fill="none" points="284.5,625.4551,288.5,629.4551,284.5,633.4551,280.5,629.4551" style="stroke:#B38D22;stroke-width:1.0;"/><text fill="#000000" font-family="sans-serif" font-size="11" lengthAdjust="spacing" textLength="103" x="293.5" y="634.0898">clientSecret : string</text><polygon fill="none" points="284.5,638.4102,288.5,642.4102,284.5,646.4102,280.5,642.4102" style="stroke:#B38D22;stroke-width:1.0;"/><text fill="#000000" font-family="sans-serif" font-size="11" lengthAdjust="spacing" textLength="94" x="293.5" y="647.0449">hostname : string</text><polygon fill="none" points="284.5,651.3652,288.5,655.3652,284.5,659.3652,280.5,655.3652" style="stroke:#B38D22;stroke-width:1.0;"/><text fill="#000000" font-family="sans-serif" font-size="11" lengthAdjust="spacing" textLength="82" x="293.5" y="660">method : string</text><polygon fill="none" points="284.5,664.3203,288.5,668.3203,284.5,672.3203,280.5,668.3203" style="stroke:#B38D22;stroke-width:1.0;"/><text fill="#000000" font-family="sans-serif" font-size="11" lengthAdjust="spacing" textLength="65" x="293.5" y="672.9551">path : string</text><polygon fill="none" points="284.5,677.2754,288.5,681.2754,284.5,685.2754,280.5,681.2754" style="stroke:#B38D22;stroke-width:1.0;"/><text fill="#000000" font-family="sans-serif" font-size="11" lengthAdjust="spacing" textLength="198" x="293.5" y="685.9102">postParams : Record&lt;string, string&gt;</text><polygon fill="none" points="284.5,690.2305,288.5,694.2305,284.5,698.2305,280.5,694.2305" style="stroke:#B38D22;stroke-width:1.0;"/><text fill="#000000" font-family="sans-serif" font-size="11" lengthAdjust="spacing" textLength="191" x="293.5" y="698.8652">responseEncoding : BufferEncoding</text><rect fill="none" height="6" style="stroke:#C82930;stroke-width:1.0;" width="6" x="281.5" y="705.1855"/><text fill="#000000" font-family="sans-serif" font-size="11" lengthAdjust="spacing" textLength="125" x="293.5" y="711.8203">authenticated : boolean</text><rect fill="none" height="6" style="stroke:#C82930;stroke-width:1.0;" width="6" x="281.5" y="718.1406"/><text fill="#000000" font-family="sans-serif" font-size="11" lengthAdjust="spacing" textLength="195" x="293.5" y="724.7754">lastResponse : null | OauthResponse</text><line style="stroke:#A80036;stroke-width:1.5;" x1="274.5" x2="527.5" y1="731.0957" y2="731.0957"/><ellipse cx="284.5" cy="742.0957" fill="#84BE84" rx="3" ry="3" style="stroke:#038048;stroke-width:1.0;"/><text fill="#000000" font-family="sans-serif" font-size="11" lengthAdjust="spacing" textLength="229" x="293.5" y="745.7305">authenticate() : Promise&lt;OauthResponse&gt;</text><ellipse cx="284.5" cy="755.0508" fill="#84BE84" rx="3" ry="3" style="stroke:#038048;stroke-width:1.0;"/><text fill="#000000" font-family="sans-serif" font-size="11" lengthAdjust="spacing" textLength="223" x="293.5" y="758.6855">getLastResponse() : null | OauthResponse</text><ellipse cx="284.5" cy="768.0059" fill="#84BE84" rx="3" ry="3" style="stroke:#038048;stroke-width:1.0;"/><text fill="#000000" font-family="sans-serif" font-size="11" lengthAdjust="spacing" textLength="144" x="293.5" y="771.6406">isAuthenticated() : boolean</text><!--MD5=[7c85254ff7c2099153d5ab7d81ee2736]
class OauthRefreshAuthenticator--><rect codeLine="54" fill="#FEFECE" filter="url(#f8n9lre96y2xa)" height="216.416" id="OauthRefreshAuthenticator" style="stroke:#A80036;stroke-width:1.5;" width="302" x="250" y="813"/><ellipse cx="319.75" cy="829" fill="#ADD1B2" rx="11" ry="11" style="stroke:#A80036;stroke-width:1.0;"/><path d="M322.2231,835.1431 Q321.6421,835.4419 321.0029,835.5913 Q320.3638,835.7407 319.6582,835.7407 Q317.1514,835.7407 315.8315,834.0889 Q314.5117,832.437 314.5117,829.3159 Q314.5117,826.1865 315.8315,824.5347 Q317.1514,822.8828 319.6582,822.8828 Q320.3638,822.8828 321.0112,823.0322 Q321.6587,823.1816 322.2231,823.4805 L322.2231,826.2031 Q321.5923,825.6221 320.9988,825.3523 Q320.4053,825.0825 319.7744,825.0825 Q318.4297,825.0825 317.7449,826.1492 Q317.0601,827.2158 317.0601,829.3159 Q317.0601,831.4077 317.7449,832.4744 Q318.4297,833.541 319.7744,833.541 Q320.4053,833.541 320.9988,833.2712 Q321.5923,833.0015 322.2231,832.4204 Z " fill="#000000"/><text fill="#000000" font-family="sans-serif" font-size="12" lengthAdjust="spacing" textLength="154" x="340.25" y="833.5352">OauthRefreshAuthenticator</text><line style="stroke:#A80036;stroke-width:1.5;" x1="251" x2="551" y1="845" y2="845"/><polygon fill="none" points="261,851,265,855,261,859,257,855" style="stroke:#B38D22;stroke-width:1.0;"/><text fill="#000000" font-family="sans-serif" font-size="11" lengthAdjust="spacing" textLength="80" x="270" y="859.6348">clientId : string</text><polygon fill="none" points="261,863.9551,265,867.9551,261,871.9551,257,867.9551" style="stroke:#B38D22;stroke-width:1.0;"/><text fill="#000000" font-family="sans-serif" font-size="11" lengthAdjust="spacing" textLength="103" x="270" y="872.5898">clientSecret : string</text><polygon fill="none" points="261,876.9102,265,880.9102,261,884.9102,257,880.9102" style="stroke:#B38D22;stroke-width:1.0;"/><text fill="#000000" font-family="sans-serif" font-size="11" lengthAdjust="spacing" textLength="94" x="270" y="885.5449">hostname : string</text><polygon fill="none" points="261,889.8652,265,893.8652,261,897.8652,257,893.8652" style="stroke:#B38D22;stroke-width:1.0;"/><text fill="#000000" font-family="sans-serif" font-size="11" lengthAdjust="spacing" textLength="82" x="270" y="898.5">method : string</text><polygon fill="none" points="261,902.8203,265,906.8203,261,910.8203,257,906.8203" style="stroke:#B38D22;stroke-width:1.0;"/><text fill="#000000" font-family="sans-serif" font-size="11" lengthAdjust="spacing" textLength="65" x="270" y="911.4551">path : string</text><polygon fill="none" points="261,915.7754,265,919.7754,261,923.7754,257,919.7754" style="stroke:#B38D22;stroke-width:1.0;"/><text fill="#000000" font-family="sans-serif" font-size="11" lengthAdjust="spacing" textLength="198" x="270" y="924.4102">postParams : Record&lt;string, string&gt;</text><polygon fill="none" points="261,928.7305,265,932.7305,261,936.7305,257,932.7305" style="stroke:#B38D22;stroke-width:1.0;"/><text fill="#000000" font-family="sans-serif" font-size="11" lengthAdjust="spacing" textLength="191" x="270" y="937.3652">responseEncoding : BufferEncoding</text><rect fill="none" height="6" style="stroke:#C82930;stroke-width:1.0;" width="6" x="258" y="943.6855"/><text fill="#000000" font-family="sans-serif" font-size="11" lengthAdjust="spacing" textLength="125" x="270" y="950.3203">authenticated : boolean</text><rect fill="none" height="6" style="stroke:#C82930;stroke-width:1.0;" width="6" x="258" y="956.6406"/><text fill="#000000" font-family="sans-serif" font-size="11" lengthAdjust="spacing" textLength="236" x="270" y="963.2754">lastResponse : null | OauthRefreshResponse</text><line style="stroke:#A80036;stroke-width:1.5;" x1="251" x2="551" y1="969.5957" y2="969.5957"/><ellipse cx="261" cy="980.5957" fill="#84BE84" rx="3" ry="3" style="stroke:#038048;stroke-width:1.0;"/><text fill="#000000" font-family="sans-serif" font-size="11" lengthAdjust="spacing" textLength="270" x="270" y="984.2305">authenticate() : Promise&lt;OauthRefreshResponse&gt;</text><ellipse cx="261" cy="993.5508" fill="#84BE84" rx="3" ry="3" style="stroke:#038048;stroke-width:1.0;"/><text fill="#000000" font-family="sans-serif" font-size="11" lengthAdjust="spacing" textLength="264" x="270" y="997.1855">getLastResponse() : null | OauthRefreshResponse</text><ellipse cx="261" cy="1006.5059" fill="#84BE84" rx="3" ry="3" style="stroke:#038048;stroke-width:1.0;"/><text fill="#000000" font-family="sans-serif" font-size="11" lengthAdjust="spacing" textLength="144" x="270" y="1010.1406">isAuthenticated() : boolean</text><ellipse cx="261" cy="1019.4609" fill="#84BE84" rx="3" ry="3" style="stroke:#038048;stroke-width:1.0;"/><text fill="#000000" font-family="sans-serif" font-size="11" lengthAdjust="spacing" textLength="276" x="270" y="1023.0957">refreshToken() : Promise&lt;OauthRefreshResponse&gt;</text><!--MD5=[4e60043bc87f89fede99d152205218b9]
class PreauthUriTokenAuthenticator--><rect codeLine="70" fill="#FEFECE" filter="url(#f8n9lre96y2xa)" height="164.5957" id="PreauthUriTokenAuthenticator" style="stroke:#A80036;stroke-width:1.5;" width="204" x="299" y="1064.5"/><ellipse cx="314" cy="1080.5" fill="#ADD1B2" rx="11" ry="11" style="stroke:#A80036;stroke-width:1.0;"/><path d="M316.4731,1086.6431 Q315.8921,1086.9419 315.2529,1087.0913 Q314.6138,1087.2407 313.9082,1087.2407 Q311.4014,1087.2407 310.0815,1085.5889 Q308.7617,1083.937 308.7617,1080.8159 Q308.7617,1077.6865 310.0815,1076.0347 Q311.4014,1074.3828 313.9082,1074.3828 Q314.6138,1074.3828 315.2612,1074.5322 Q315.9087,1074.6816 316.4731,1074.9805 L316.4731,1077.7031 Q315.8423,1077.1221 315.2488,1076.8523 Q314.6553,1076.5825 314.0244,1076.5825 Q312.6797,1076.5825 311.9949,1077.6492 Q311.3101,1078.7158 311.3101,1080.8159 Q311.3101,1082.9077 311.9949,1083.9744 Q312.6797,1085.041 314.0244,1085.041 Q314.6553,1085.041 315.2488,1084.7712 Q315.8423,1084.5015 316.4731,1083.9204 Z " fill="#000000"/><text fill="#000000" font-family="sans-serif" font-size="12" lengthAdjust="spacing" textLength="172" x="328" y="1085.0352">PreauthUriTokenAuthenticator</text><line style="stroke:#A80036;stroke-width:1.5;" x1="300" x2="502" y1="1096.5" y2="1096.5"/><polygon fill="none" points="310,1102.5,314,1106.5,310,1110.5,306,1106.5" style="stroke:#B38D22;stroke-width:1.0;"/><text fill="#000000" font-family="sans-serif" font-size="11" lengthAdjust="spacing" textLength="87" x="319" y="1111.1348">headers : Object</text><polygon fill="none" points="310,1115.4551,314,1119.4551,310,1123.4551,306,1119.4551" style="stroke:#B38D22;stroke-width:1.0;"/><text fill="#000000" font-family="sans-serif" font-size="11" lengthAdjust="spacing" textLength="94" x="319" y="1124.0898">hostname : string</text><polygon fill="none" points="310,1128.4102,314,1132.4102,310,1136.4102,306,1132.4102" style="stroke:#B38D22;stroke-width:1.0;"/><text fill="#000000" font-family="sans-serif" font-size="11" lengthAdjust="spacing" textLength="82" x="319" y="1137.0449">method : string</text><polygon fill="none" points="310,1141.3652,314,1145.3652,310,1149.3652,306,1145.3652" style="stroke:#B38D22;stroke-width:1.0;"/><text fill="#000000" font-family="sans-serif" font-size="11" lengthAdjust="spacing" textLength="84" x="319" y="1150">params : Object</text><polygon fill="none" points="310,1154.3203,314,1158.3203,310,1162.3203,306,1158.3203" style="stroke:#B38D22;stroke-width:1.0;"/><text fill="#000000" font-family="sans-serif" font-size="11" lengthAdjust="spacing" textLength="65" x="319" y="1162.9551">path : string</text><polygon fill="none" points="310,1167.2754,314,1171.2754,310,1175.2754,306,1171.2754" style="stroke:#B38D22;stroke-width:1.0;"/><text fill="#000000" font-family="sans-serif" font-size="11" lengthAdjust="spacing" textLength="117" x="319" y="1175.9102">tokenJsonPath : string</text><rect fill="none" height="6" style="stroke:#C82930;stroke-width:1.0;" width="6" x="307" y="1182.2305"/><text fill="#000000" font-family="sans-serif" font-size="11" lengthAdjust="spacing" textLength="71" x="319" y="1188.8652">token : string</text><line style="stroke:#A80036;stroke-width:1.5;" x1="300" x2="502" y1="1195.1855" y2="1195.1855"/><ellipse cx="310" cy="1206.1855" fill="#84BE84" rx="3" ry="3" style="stroke:#038048;stroke-width:1.0;"/><text fill="#000000" font-family="sans-serif" font-size="11" lengthAdjust="spacing" textLength="176" x="319" y="1209.8203">authenticate() : Promise&lt;string&gt;</text><ellipse cx="310" cy="1219.1406" fill="#84BE84" rx="3" ry="3" style="stroke:#038048;stroke-width:1.0;"/><text fill="#000000" font-family="sans-serif" font-size="11" lengthAdjust="spacing" textLength="144" x="319" y="1222.7754">isAuthenticated() : boolean</text><!--MD5=[803387c17cc4b03ab9312de35e2e7803]
class PrefetchTokenAuthorizationHeaderAuthenticator--><rect codeLine="82" fill="#FEFECE" filter="url(#f8n9lre96y2xa)" height="138.6855" id="PrefetchTokenAuthorizationHeaderAuthenticator" style="stroke:#A80036;stroke-width:1.5;" width="310" x="246" y="1264.5"/><ellipse cx="261" cy="1280.5" fill="#ADD1B2" rx="11" ry="11" style="stroke:#A80036;stroke-width:1.0;"/><path d="M263.4731,1286.6431 Q262.8921,1286.9419 262.2529,1287.0913 Q261.6138,1287.2407 260.9082,1287.2407 Q258.4014,1287.2407 257.0815,1285.5889 Q255.7617,1283.937 255.7617,1280.8159 Q255.7617,1277.6865 257.0815,1276.0347 Q258.4014,1274.3828 260.9082,1274.3828 Q261.6138,1274.3828 262.2612,1274.5322 Q262.9087,1274.6816 263.4731,1274.9805 L263.4731,1277.7031 Q262.8423,1277.1221 262.2488,1276.8523 Q261.6553,1276.5825 261.0244,1276.5825 Q259.6797,1276.5825 258.9949,1277.6492 Q258.3101,1278.7158 258.3101,1280.8159 Q258.3101,1282.9077 258.9949,1283.9744 Q259.6797,1285.041 261.0244,1285.041 Q261.6553,1285.041 262.2488,1284.7712 Q262.8423,1284.5015 263.4731,1283.9204 Z " fill="#000000"/><text fill="#000000" font-family="sans-serif" font-size="12" lengthAdjust="spacing" textLength="278" x="275" y="1285.0352">PrefetchTokenAuthorizationHeaderAuthenticator</text><line style="stroke:#A80036;stroke-width:1.5;" x1="247" x2="555" y1="1296.5" y2="1296.5"/><polygon fill="none" points="257,1302.5,261,1306.5,257,1310.5,253,1306.5" style="stroke:#B38D22;stroke-width:1.0;"/><text fill="#000000" font-family="sans-serif" font-size="11" lengthAdjust="spacing" textLength="76" x="266" y="1311.1348">apiKey : string</text><polygon fill="none" points="257,1315.4551,261,1319.4551,257,1323.4551,253,1319.4551" style="stroke:#B38D22;stroke-width:1.0;"/><text fill="#000000" font-family="sans-serif" font-size="11" lengthAdjust="spacing" textLength="94" x="266" y="1324.0898">hostname : string</text><polygon fill="none" points="257,1328.4102,261,1332.4102,257,1336.4102,253,1332.4102" style="stroke:#B38D22;stroke-width:1.0;"/><text fill="#000000" font-family="sans-serif" font-size="11" lengthAdjust="spacing" textLength="82" x="266" y="1337.0449">method : string</text><polygon fill="none" points="257,1341.3652,261,1345.3652,257,1349.3652,253,1345.3652" style="stroke:#B38D22;stroke-width:1.0;"/><text fill="#000000" font-family="sans-serif" font-size="11" lengthAdjust="spacing" textLength="65" x="266" y="1350">path : string</text><rect fill="none" height="6" style="stroke:#C82930;stroke-width:1.0;" width="6" x="254" y="1356.3203"/><text fill="#000000" font-family="sans-serif" font-size="11" lengthAdjust="spacing" textLength="71" x="266" y="1362.9551">token : string</text><line style="stroke:#A80036;stroke-width:1.5;" x1="247" x2="555" y1="1369.2754" y2="1369.2754"/><ellipse cx="257" cy="1380.2754" fill="#84BE84" rx="3" ry="3" style="stroke:#038048;stroke-width:1.0;"/><text fill="#000000" font-family="sans-serif" font-size="11" lengthAdjust="spacing" textLength="262" x="266" y="1383.9102">authenticate() : Promise&lt;AuthorizationHeaders&gt;</text><ellipse cx="257" cy="1393.2305" fill="#84BE84" rx="3" ry="3" style="stroke:#038048;stroke-width:1.0;"/><text fill="#000000" font-family="sans-serif" font-size="11" lengthAdjust="spacing" textLength="144" x="266" y="1396.8652">isAuthenticated() : boolean</text><!--MD5=[94a16e98a773e015a4aacd26dd555525]
reverse link TapjawAuthenticator<T> to BasicAuthAuthenticator--><path codeLine="17" d="M103.04,530.08 C114.78,441.9 149.54,263.49 246,151 C251.51,144.58 257.65,138.59 264.23,133.03 " fill="none" id="TapjawAuthenticator&lt;T&gt;-backto-BasicAuthAuthenticator" style="stroke:#A80036;stroke-width:1.0;stroke-dasharray:7.0,7.0;"/><polygon fill="none" points="109.98,530.98,100.58,549.97,96.09,529.26,109.98,530.98" style="stroke:#A80036;stroke-width:1.0;"/><!--MD5=[0fa47937970ec207d394e1566a41b30c]
reverse link TapjawAuthenticator<T> to BearerAuthAuthenticator--><path codeLine="25" d="M113.43,530.83 C134.74,468.62 177.93,364.81 246,299 C252.4,292.81 259.41,287.06 266.81,281.73 " fill="none" id="TapjawAuthenticator&lt;T&gt;-backto-BearerAuthAuthenticator" style="stroke:#A80036;stroke-width:1.0;stroke-dasharray:7.0,7.0;"/><polygon fill="none" points="120.07,533.04,107.15,549.84,106.77,528.66,120.07,533.04" style="stroke:#A80036;stroke-width:1.0;"/><!--MD5=[f408d835b550b7a9d7a9ccabe43bf1ef]
reverse link TapjawAuthenticator<T> to CustomHeaderAuthenticator--><path codeLine="31" d="M133.19,533.36 C160.68,498.08 201.44,451.68 246,421 C257.25,413.25 269.63,406.28 282.33,400.06 " fill="none" id="TapjawAuthenticator&lt;T&gt;-backto-CustomHeaderAuthenticator" style="stroke:#A80036;stroke-width:1.0;stroke-dasharray:7.0,7.0;"/><polygon fill="none" points="138.47,537.98,120.8,549.68,127.32,529.52,138.47,537.98" style="stroke:#A80036;stroke-width:1.0;"/><!--MD5=[6a086fb91f8c0c27b0f63fa88923b242]
reverse link TapjawAuthenticator<T> to JWTBearerAuthAuthenticator--><path codeLine="38" d="M205.43,549.46 C222.15,544.26 239.65,538.83 256.99,533.44 " fill="none" id="TapjawAuthenticator&lt;T&gt;-backto-JWTBearerAuthAuthenticator" style="stroke:#A80036;stroke-width:1.0;stroke-dasharray:7.0,7.0;"/><polygon fill="none" points="207.39,556.18,186.22,555.43,203.24,542.81,207.39,556.18" style="stroke:#A80036;stroke-width:1.0;"/><!--MD5=[37084fbf4d598d6e174f3a9fd4a6115a]
reverse link TapjawAuthenticator<T> to OAuthAuthenticator--><path codeLine="53" d="M205.55,616.22 C227.53,622.98 250.83,630.14 273.39,637.07 " fill="none" id="TapjawAuthenticator&lt;T&gt;-backto-OAuthAuthenticator" style="stroke:#A80036;stroke-width:1.0;stroke-dasharray:7.0,7.0;"/><polygon fill="none" points="203.28,622.84,186.22,610.27,207.39,609.46,203.28,622.84" style="stroke:#A80036;stroke-width:1.0;"/><!--MD5=[1758af974c31947a1e5372e57c74549b]
reverse link TapjawAuthenticator<T> to OauthRefreshAuthenticator--><path codeLine="69" d="M127.36,633.54 C155.11,678.4 199.12,744.48 246,795 C251.52,800.95 257.33,806.87 263.32,812.72 " fill="none" id="TapjawAuthenticator&lt;T&gt;-backto-OauthRefreshAuthenticator" style="stroke:#A80036;stroke-width:1.0;stroke-dasharray:7.0,7.0;"/><polygon fill="none" points="121.29,637.02,116.85,616.3,133.24,629.74,121.29,637.02" style="stroke:#A80036;stroke-width:1.0;"/><!--MD5=[3e8a38940353d737bd6564e297308295]
reverse link TapjawAuthenticator<T> to PreauthUriTokenAuthenticator--><path codeLine="81" d="M102.95,636.33 C114.72,728.4 149.71,919.43 246,1046 C260.33,1064.83 279.24,1081.21 298.89,1094.99 " fill="none" id="TapjawAuthenticator&lt;T&gt;-backto-PreauthUriTokenAuthenticator" style="stroke:#A80036;stroke-width:1.0;stroke-dasharray:7.0,7.0;"/><polygon fill="none" points="95.97,636.87,100.55,616.18,109.87,635.21,95.97,636.87" style="stroke:#A80036;stroke-width:1.0;"/><!--MD5=[cebde266f13fcaeb5d041722d5dd6585]
reverse link TapjawAuthenticator<T> to PrefetchTokenAuthorizationHeaderAuthenticator--><path codeLine="91" d="M103.76,636.07 C121.07,775.62 173.19,1148.86 246,1247 C250.57,1253.17 255.72,1258.96 261.29,1264.39 " fill="none" id="TapjawAuthenticator&lt;T&gt;-backto-PrefetchTokenAuthorizationHeaderAuthenticator" style="stroke:#A80036;stroke-width:1.0;stroke-dasharray:7.0,7.0;"/><polygon fill="none" points="96.8,636.82,101.32,616.12,110.69,635.13,96.8,636.82" style="stroke:#A80036;stroke-width:1.0;"/><!--MD5=[57ebe9ed9efb5e354e0d78e793178874]
@startuml
skinparam BackgroundColor transparent
left to right direction
hide empty methods
hide empty fields
interface "TapjawAuthenticator<T>" {
    +authenticate() : Promise<T>
    +isAuthenticated() : boolean
}
class "BasicAuthAuthenticator" {
    #password : string
    #username : string
    -authenticated : boolean
    -headers : AuthorizationHeaders
    +authenticate() : Promise<AuthorizationHeaders>
    +isAuthenticated() : boolean
}
"TapjawAuthenticator<T>" <|.. "BasicAuthAuthenticator"
class "BearerAuthAuthenticator" {
    #bearerToken : string
    -authenticated : boolean
    -header : AuthorizationHeaders
    +authenticate() : Promise<AuthorizationHeaders>
    +isAuthenticated() : boolean
}
"TapjawAuthenticator<T>" <|.. "BearerAuthAuthenticator"
class "CustomHeaderAuthenticator" {
    -headers : Record<string, string>
    +authenticate() : Promise<HttpHeaders>
    +isAuthenticated() : boolean
}
"TapjawAuthenticator<T>" <|.. "CustomHeaderAuthenticator"
class "JWTBearerAuthAuthenticator" {
    #jwtBuilder : JWTBuilder
    -authenticated : boolean
    +authenticate() : Promise<AuthorizationHeaders>
    +isAuthenticated() : boolean
}
"TapjawAuthenticator<T>" <|.. "JWTBearerAuthAuthenticator"
class "OAuthAuthenticator" {
    #clientId : string
    #clientSecret : string
    #hostname : string
    #method : string
    #path : string
    #postParams : Record<string, string>
    #responseEncoding : BufferEncoding
    -authenticated : boolean
    -lastResponse : null | OauthResponse
    +authenticate() : Promise<OauthResponse>
    +getLastResponse() : null | OauthResponse
    +isAuthenticated() : boolean
}
"TapjawAuthenticator<T>" <|.. "OAuthAuthenticator"
class "OauthRefreshAuthenticator" {
    #clientId : string
    #clientSecret : string
    #hostname : string
    #method : string
    #path : string
    #postParams : Record<string, string>
    #responseEncoding : BufferEncoding
    -authenticated : boolean
    -lastResponse : null | OauthRefreshResponse
    +authenticate() : Promise<OauthRefreshResponse>
    +getLastResponse() : null | OauthRefreshResponse
    +isAuthenticated() : boolean
    +refreshToken() : Promise<OauthRefreshResponse>
}
"TapjawAuthenticator<T>" <|.. "OauthRefreshAuthenticator"
class "PreauthUriTokenAuthenticator" {
    #headers : Object
    #hostname : string
    #method : string
    #params : Object
    #path : string
    #tokenJsonPath : string
    -token : string
    +authenticate() : Promise<string>
    +isAuthenticated() : boolean
}
"TapjawAuthenticator<T>" <|.. "PreauthUriTokenAuthenticator"
class "PrefetchTokenAuthorizationHeaderAuthenticator" {
    #apiKey : string
    #hostname : string
    #method : string
    #path : string
    -token : string
    +authenticate() : Promise<AuthorizationHeaders>
    +isAuthenticated() : boolean
}
"TapjawAuthenticator<T>" <|.. "PrefetchTokenAuthorizationHeaderAuthenticator"
@enduml

PlantUML version 1.2021.6(Fri May 14 09:09:51 CEST 2021)
(GPL source distribution)
Java Runtime: Java(TM) SE Runtime Environment
JVM: Java HotSpot(TM) 64-Bit Server VM
Default Encoding: UTF-8
Language: en
Country: GB
--></g></svg>