<?xml version="1.0" encoding="UTF-8" standalone="no"?><svg xmlns="http://www.w3.org/2000/svg" xmlns:xlink="http://www.w3.org/1999/xlink" contentScriptType="application/ecmascript" contentStyleType="text/css" height="212px" preserveAspectRatio="none" style="width:429px;height:212px;background:#00000000;" version="1.1" viewBox="0 0 429 212" width="429px" zoomAndPan="magnify"><defs><filter height="300%" id="f11dx3mtnis99m" width="300%" x="-1" y="-1"><feGaussianBlur result="blurOut" stdDeviation="2.0"/><feColorMatrix in="blurOut" result="blurOut2" type="matrix" values="0 0 0 0 0 0 0 0 0 0 0 0 0 0 0 0 0 0 .4 0"/><feOffset dx="4.0" dy="4.0" in="blurOut2" result="blurOut3"/><feBlend in="SourceGraphic" in2="blurOut3" mode="normal"/></filter></defs><g><!--MD5=[1adcc79a4ab9ff3ad5bfa96060a9a37d]
class TapjawToolCommand<T>--><rect codeLine="4" fill="#FEFECE" filter="url(#f11dx3mtnis99m)" height="78.8652" id="TapjawToolCommand&lt;T&gt;" style="stroke:#A80036;stroke-width:1.5;" width="406" x="9" y="120"/><ellipse cx="130.25" cy="136" fill="#A9DCDF" rx="11" ry="11" style="stroke:#A80036;stroke-width:1.0;"/><path d="M130.1133,131.3481 L128.9595,136.4199 L131.2754,136.4199 Z M128.6191,129.1069 L131.6157,129.1069 L134.9609,141.5 L132.5122,141.5 L131.7485,138.437 L128.4697,138.437 L127.7227,141.5 L125.2739,141.5 Z " fill="#000000"/><text fill="#000000" font-family="sans-serif" font-size="12" font-style="italic" lengthAdjust="spacing" textLength="155" x="150.75" y="140.5352">TapjawToolCommand&lt;T&gt;</text><line style="stroke:#A80036;stroke-width:1.5;" x1="10" x2="414" y1="152" y2="152"/><ellipse cx="20" cy="163" fill="#84BE84" rx="3" ry="3" style="stroke:#038048;stroke-width:1.0;"/><text fill="#000000" font-family="sans-serif" font-size="11" lengthAdjust="spacing" text-decoration="underline" textLength="190" x="29" y="166.6348">register(program: Command) : void</text><ellipse cx="20" cy="175.9551" fill="#84BE84" rx="3" ry="3" style="stroke:#038048;stroke-width:1.0;"/><text fill="#000000" font-family="sans-serif" font-size="11" font-style="italic" lengthAdjust="spacing" textLength="380" x="29" y="179.5898">run(args: TapjawCommandArgs&lt;unknown&gt;, flags: T) : Promise&lt;void&gt;</text><polygon fill="#FFFF44" points="20,183.9102,24,187.9102,20,191.9102,16,187.9102" style="stroke:#B38D22;stroke-width:1.0;"/><text fill="#000000" font-family="sans-serif" font-size="11" lengthAdjust="spacing" text-decoration="underline" textLength="147" x="29" y="192.5449">getLogger() : TapjawLogger</text><!--MD5=[19bf86b96bfaa3bab18522b2cc172216]
class TapjawCommand--><rect codeLine="9" fill="#FEFECE" filter="url(#f11dx3mtnis99m)" height="52.9551" id="TapjawCommand" style="stroke:#A80036;stroke-width:1.5;" width="233" x="95.5" y="7"/><ellipse cx="156.75" cy="23" fill="#B4A7E5" rx="11" ry="11" style="stroke:#A80036;stroke-width:1.0;"/><path d="M153.1777,19.2651 L153.1777,17.1069 L160.5571,17.1069 L160.5571,19.2651 L158.0918,19.2651 L158.0918,27.3418 L160.5571,27.3418 L160.5571,29.5 L153.1777,29.5 L153.1777,27.3418 L155.6431,27.3418 L155.6431,19.2651 Z " fill="#000000"/><text fill="#000000" font-family="sans-serif" font-size="12" font-style="italic" lengthAdjust="spacing" textLength="102" x="177.25" y="27.5352">TapjawCommand</text><line style="stroke:#A80036;stroke-width:1.5;" x1="96.5" x2="327.5" y1="39" y2="39"/><ellipse cx="106.5" cy="50" fill="#84BE84" rx="3" ry="3" style="stroke:#038048;stroke-width:1.0;"/><text fill="#000000" font-family="sans-serif" font-size="11" lengthAdjust="spacing" textLength="207" x="115.5" y="53.6348">run(args: unknown[]) : Promise&lt;void&gt;</text><!--MD5=[2b7a51894ee4e21bc6bf5013d84a962a]
reverse link TapjawCommand to TapjawToolCommand<T>--><path codeLine="12" d="M212,80.49 C212,93.37 212,107.23 212,119.64 " fill="none" id="TapjawCommand-backto-TapjawToolCommand&lt;T&gt;" style="stroke:#A80036;stroke-width:1.0;stroke-dasharray:7.0,7.0;"/><polygon fill="none" points="205,80.19,212,60.19,219,80.19,205,80.19" style="stroke:#A80036;stroke-width:1.0;"/><!--MD5=[ae06348df71394eabcea69b57f26b29b]
@startuml
skinparam BackgroundColor transparent
hide empty methods
hide empty fields
abstract class "TapjawToolCommand<T>" {
    {static} +register(program: Command) : void
    {abstract} +run(args: TapjawCommandArgs<unknown>, flags: T) : Promise<void>
    {static} #getLogger() : TapjawLogger
}
interface "TapjawCommand" {
    +run(args: unknown[]) : Promise<void>
}
"TapjawCommand" <|.. "TapjawToolCommand<T>"
@enduml

PlantUML version 1.2021.6(Fri May 14 09:09:51 CEST 2021)
(GPL source distribution)
Java Runtime: Java(TM) SE Runtime Environment
JVM: Java HotSpot(TM) 64-Bit Server VM
Default Encoding: UTF-8
Language: en
Country: GB
--></g></svg>