<?xml version="1.0" encoding="UTF-8" standalone="no"?><svg xmlns="http://www.w3.org/2000/svg" xmlns:xlink="http://www.w3.org/1999/xlink" contentScriptType="application/ecmascript" contentStyleType="text/css" height="246px" preserveAspectRatio="none" style="width:1140px;height:246px;background:#00000000;" version="1.1" viewBox="0 0 1140 246" width="1140px" zoomAndPan="magnify"><defs><filter height="300%" id="flaf94tnvw1x1" width="300%" x="-1" y="-1"><feGaussianBlur result="blurOut" stdDeviation="2.0"/><feColorMatrix in="blurOut" result="blurOut2" type="matrix" values="0 0 0 0 0 0 0 0 0 0 0 0 0 0 0 0 0 0 .4 0"/><feOffset dx="4.0" dy="4.0" in="blurOut2" result="blurOut3"/><feBlend in="SourceGraphic" in2="blurOut3" mode="normal"/></filter></defs><g><!--MD5=[9f533bfa2380ba8165f446ed2573556c]
class TapjawIterator--><rect codeLine="4" fill="#FEFECE" filter="url(#flaf94tnvw1x1)" height="52.9551" id="TapjawIterator" style="stroke:#A80036;stroke-width:1.5;" width="567" x="284" y="7"/><ellipse cx="520.75" cy="23" fill="#B4A7E5" rx="11" ry="11" style="stroke:#A80036;stroke-width:1.0;"/><path d="M517.1777,19.2651 L517.1777,17.1069 L524.5571,17.1069 L524.5571,19.2651 L522.0918,19.2651 L522.0918,27.3418 L524.5571,27.3418 L524.5571,29.5 L517.1777,29.5 L517.1777,27.3418 L519.6431,27.3418 L519.6431,19.2651 Z " fill="#000000"/><text fill="#000000" font-family="sans-serif" font-size="12" font-style="italic" lengthAdjust="spacing" textLength="85" x="541.25" y="27.5352">TapjawIterator</text><line style="stroke:#A80036;stroke-width:1.5;" x1="285" x2="850" y1="39" y2="39"/><ellipse cx="295" cy="50" fill="#84BE84" rx="3" ry="3" style="stroke:#038048;stroke-width:1.0;"/><text fill="#000000" font-family="sans-serif" font-size="11" lengthAdjust="spacing" textLength="541" x="304" y="53.6348">run(adapterCallback: TapjawAdapterCallback&lt;TapjawMessage&gt;, limit: number) : Promise&lt;unknown&gt;</text><!--MD5=[5d10ce46af16934260ae9fbfe7924e14]
class OutputIterator--><rect codeLine="7" fill="#FEFECE" filter="url(#flaf94tnvw1x1)" height="65.9102" id="OutputIterator" style="stroke:#A80036;stroke-width:1.5;" width="541" x="9" y="143.5"/><ellipse cx="234.75" cy="159.5" fill="#A9DCDF" rx="11" ry="11" style="stroke:#A80036;stroke-width:1.0;"/><path d="M234.6133,154.8481 L233.4595,159.9199 L235.7754,159.9199 Z M233.1191,152.6069 L236.1157,152.6069 L239.4609,165 L237.0122,165 L236.2485,161.937 L232.9697,161.937 L232.2227,165 L229.7739,165 Z " fill="#000000"/><text fill="#000000" font-family="sans-serif" font-size="12" font-style="italic" lengthAdjust="spacing" textLength="81" x="255.25" y="164.0352">OutputIterator</text><line style="stroke:#A80036;stroke-width:1.5;" x1="10" x2="549" y1="175.5" y2="175.5"/><ellipse cx="20" cy="186.5" fill="#84BE84" rx="3" ry="3" style="stroke:#038048;stroke-width:1.0;"/><text fill="#000000" font-family="sans-serif" font-size="11" lengthAdjust="spacing" textLength="515" x="29" y="190.1348">run(adapterCallback: TapjawAdapterCallback&lt;TapjawMessage&gt;, limit: number) : Promise&lt;void&gt;</text><polygon fill="#FFFF44" points="20,194.4551,24,198.4551,20,202.4551,16,198.4551" style="stroke:#B38D22;stroke-width:1.0;"/><text fill="#000000" font-family="sans-serif" font-size="11" font-style="italic" lengthAdjust="spacing" textLength="319" x="29" y="203.0898">outputMessage(message: TapjawMessage) : Promise&lt;void&gt;</text><!--MD5=[3fd56327b294c25949d9b4443d951312]
class RateLimitedStdoutIterator--><rect codeLine="12" fill="#FEFECE" filter="url(#flaf94tnvw1x1)" height="112.7754" id="RateLimitedStdoutIterator" style="stroke:#A80036;stroke-width:1.5;" width="541" x="585" y="120"/><ellipse cx="778.25" cy="136" fill="#ADD1B2" rx="11" ry="11" style="stroke:#A80036;stroke-width:1.0;"/><path d="M780.7231,142.1431 Q780.1421,142.4419 779.5029,142.5913 Q778.8638,142.7407 778.1582,142.7407 Q775.6514,142.7407 774.3315,141.0889 Q773.0117,139.437 773.0117,136.3159 Q773.0117,133.1865 774.3315,131.5347 Q775.6514,129.8828 778.1582,129.8828 Q778.8638,129.8828 779.5112,130.0322 Q780.1587,130.1816 780.7231,130.4805 L780.7231,133.2031 Q780.0923,132.6221 779.4988,132.3523 Q778.9053,132.0825 778.2744,132.0825 Q776.9297,132.0825 776.2449,133.1492 Q775.5601,134.2158 775.5601,136.3159 Q775.5601,138.4077 776.2449,139.4744 Q776.9297,140.541 778.2744,140.541 Q778.9053,140.541 779.4988,140.2712 Q780.0923,140.0015 780.7231,139.4204 Z " fill="#000000"/><text fill="#000000" font-family="sans-serif" font-size="12" lengthAdjust="spacing" textLength="146" x="798.75" y="140.5352">RateLimitedStdoutIterator</text><line style="stroke:#A80036;stroke-width:1.5;" x1="586" x2="1125" y1="152" y2="152"/><polygon fill="none" points="596,158,600,162,596,166,592,162" style="stroke:#B38D22;stroke-width:1.0;"/><text fill="#000000" font-family="sans-serif" font-size="11" lengthAdjust="spacing" textLength="157" x="605" y="166.6348">messagesPerMinute : number</text><polygon fill="none" points="596,170.9551,600,174.9551,596,178.9551,592,174.9551" style="stroke:#B38D22;stroke-width:1.0;"/><text fill="#000000" font-family="sans-serif" font-size="11" lengthAdjust="spacing" textLength="160" x="605" y="179.5898">writeCallback : WritableStream</text><line style="stroke:#A80036;stroke-width:1.5;" x1="586" x2="1125" y1="185.9102" y2="185.9102"/><ellipse cx="596" cy="196.9102" fill="#84BE84" rx="3" ry="3" style="stroke:#038048;stroke-width:1.0;"/><text fill="#000000" font-family="sans-serif" font-size="11" lengthAdjust="spacing" textLength="515" x="605" y="200.5449">run(adapterCallback: TapjawAdapterCallback&lt;TapjawMessage&gt;, limit: number) : Promise&lt;void&gt;</text><polygon fill="#FFFF44" points="596,204.8652,600,208.8652,596,212.8652,592,208.8652" style="stroke:#B38D22;stroke-width:1.0;"/><text fill="#000000" font-family="sans-serif" font-size="11" lengthAdjust="spacing" textLength="319" x="605" y="213.5">outputMessage(message: TapjawMessage) : Promise&lt;void&gt;</text><polygon fill="#FFFF44" points="596,217.8203,600,221.8203,596,225.8203,592,221.8203" style="stroke:#B38D22;stroke-width:1.0;"/><text fill="#000000" font-family="sans-serif" font-size="11" lengthAdjust="spacing" textLength="244" x="605" y="226.4551">sleep(milliseconds: number) : Promise&lt;void&gt;</text><!--MD5=[7c55c2b822e43bb3df1f48e99479c761]
reverse link TapjawIterator to OutputIterator--><path codeLine="11" d="M497.34,68.85 C450.88,91.59 390.37,121.22 344.91,143.47 " fill="none" id="TapjawIterator-backto-OutputIterator" style="stroke:#A80036;stroke-width:1.0;stroke-dasharray:7.0,7.0;"/><polygon fill="none" points="494.3,62.54,515.35,60.03,500.46,75.12,494.3,62.54" style="stroke:#A80036;stroke-width:1.0;"/><!--MD5=[d0735bd2ccb22b1eec13a705ea15b71d]
reverse link TapjawIterator to RateLimitedStdoutIterator--><path codeLine="19" d="M637.77,68.91 C669.1,84.24 706.8,102.7 741.97,119.92 " fill="none" id="TapjawIterator-backto-RateLimitedStdoutIterator" style="stroke:#A80036;stroke-width:1.0;stroke-dasharray:7.0,7.0;"/><polygon fill="none" points="634.54,75.12,619.65,60.03,640.7,62.54,634.54,75.12" style="stroke:#A80036;stroke-width:1.0;"/><!--MD5=[0c89c0d29be684ae2397562c580bbea4]
@startuml
skinparam BackgroundColor transparent
hide empty methods
hide empty fields
interface "TapjawIterator" {
    +run(adapterCallback: TapjawAdapterCallback<TapjawMessage>, limit: number) : Promise<unknown>
}
abstract class "OutputIterator" {
    +run(adapterCallback: TapjawAdapterCallback<TapjawMessage>, limit: number) : Promise<void>
    {abstract} #outputMessage(message: TapjawMessage) : Promise<void>
}
"TapjawIterator" <|.. "OutputIterator"
class "RateLimitedStdoutIterator" {
    #messagesPerMinute : number
    #writeCallback : WritableStream
    +run(adapterCallback: TapjawAdapterCallback<TapjawMessage>, limit: number) : Promise<void>
    #outputMessage(message: TapjawMessage) : Promise<void>
    #sleep(milliseconds: number) : Promise<void>
}
"TapjawIterator" <|.. "RateLimitedStdoutIterator"
@enduml

PlantUML version 1.2021.6(Fri May 14 09:09:51 CEST 2021)
(GPL source distribution)
Java Runtime: Java(TM) SE Runtime Environment
JVM: Java HotSpot(TM) 64-Bit Server VM
Default Encoding: UTF-8
Language: en
Country: GB
--></g></svg>