<?xml version="1.0" encoding="UTF-8" standalone="no"?><svg xmlns="http://www.w3.org/2000/svg" xmlns:xlink="http://www.w3.org/1999/xlink" contentScriptType="application/ecmascript" contentStyleType="text/css" height="220px" preserveAspectRatio="none" style="width:2082px;height:220px;background:#00000000;" version="1.1" viewBox="0 0 2082 220" width="2082px" zoomAndPan="magnify"><defs><filter height="300%" id="f14ghezykef3c5" width="300%" x="-1" y="-1"><feGaussianBlur result="blurOut" stdDeviation="2.0"/><feColorMatrix in="blurOut" result="blurOut2" type="matrix" values="0 0 0 0 0 0 0 0 0 0 0 0 0 0 0 0 0 0 .4 0"/><feOffset dx="4.0" dy="4.0" in="blurOut2" result="blurOut3"/><feBlend in="SourceGraphic" in2="blurOut3" mode="normal"/></filter></defs><g><!--MD5=[f18ac0e6b46fad41f096bfde65eea3c9]
class TapjawAuthenticationWrapper--><rect codeLine="4" fill="#FEFECE" filter="url(#f14ghezykef3c5)" height="52.9551" id="TapjawAuthenticationWrapper" style="stroke:#A80036;stroke-width:1.5;" width="405" x="845" y="7"/><ellipse cx="956.25" cy="23" fill="#B4A7E5" rx="11" ry="11" style="stroke:#A80036;stroke-width:1.0;"/><path d="M952.6777,19.2651 L952.6777,17.1069 L960.0571,17.1069 L960.0571,19.2651 L957.5918,19.2651 L957.5918,27.3418 L960.0571,27.3418 L960.0571,29.5 L952.6777,29.5 L952.6777,27.3418 L955.1431,27.3418 L955.1431,19.2651 Z " fill="#000000"/><text fill="#000000" font-family="sans-serif" font-size="12" font-style="italic" lengthAdjust="spacing" textLength="174" x="976.75" y="27.5352">TapjawAuthenticationWrapper</text><line style="stroke:#A80036;stroke-width:1.5;" x1="846" x2="1249" y1="39" y2="39"/><ellipse cx="856" cy="50" fill="#84BE84" rx="3" ry="3" style="stroke:#038048;stroke-width:1.0;"/><text fill="#000000" font-family="sans-serif" font-size="11" lengthAdjust="spacing" textLength="379" x="865" y="53.6348">authenticate(requestOptionContainer: unknown) : Promise&lt;unknown&gt;</text><!--MD5=[11549db587acf5048fc424b12d062ae0]
class ApplyCustomHttpHeaderWrapper--><rect codeLine="7" fill="#FEFECE" filter="url(#f14ghezykef3c5)" height="86.8652" id="ApplyCustomHttpHeaderWrapper" style="stroke:#A80036;stroke-width:1.5;" width="479" x="9" y="120"/><ellipse cx="147.25" cy="136" fill="#ADD1B2" rx="11" ry="11" style="stroke:#A80036;stroke-width:1.0;"/><path d="M149.7231,142.1431 Q149.1421,142.4419 148.5029,142.5913 Q147.8638,142.7407 147.1582,142.7407 Q144.6514,142.7407 143.3315,141.0889 Q142.0117,139.437 142.0117,136.3159 Q142.0117,133.1865 143.3315,131.5347 Q144.6514,129.8828 147.1582,129.8828 Q147.8638,129.8828 148.5112,130.0322 Q149.1587,130.1816 149.7231,130.4805 L149.7231,133.2031 Q149.0923,132.6221 148.4988,132.3523 Q147.9053,132.0825 147.2744,132.0825 Q145.9297,132.0825 145.2449,133.1492 Q144.5601,134.2158 144.5601,136.3159 Q144.5601,138.4077 145.2449,139.4744 Q145.9297,140.541 147.2744,140.541 Q147.9053,140.541 148.4988,140.2712 Q149.0923,140.0015 149.7231,139.4204 Z " fill="#000000"/><text fill="#000000" font-family="sans-serif" font-size="12" lengthAdjust="spacing" textLength="194" x="167.75" y="140.5352">ApplyCustomHttpHeaderWrapper</text><line style="stroke:#A80036;stroke-width:1.5;" x1="10" x2="487" y1="152" y2="152"/><polygon fill="none" points="20,158,24,162,20,166,16,162" style="stroke:#B38D22;stroke-width:1.0;"/><text fill="#000000" font-family="sans-serif" font-size="11" lengthAdjust="spacing" textLength="119" x="29" y="166.6348">headers : HttpHeaders</text><line style="stroke:#A80036;stroke-width:1.5;" x1="10" x2="487" y1="172.9551" y2="172.9551"/><ellipse cx="20" cy="183.9551" fill="#84BE84" rx="3" ry="3" style="stroke:#038048;stroke-width:1.0;"/><text fill="#000000" font-family="sans-serif" font-size="11" lengthAdjust="spacing" textLength="453" x="29" y="187.5898">authenticate(requestOptionContainer: RequestOptions) : Promise&lt;RequestOptions&gt;</text><rect fill="#F24D5C" height="6" style="stroke:#C82930;stroke-width:1.0;" width="6" x="17" y="193.9102"/><text fill="#000000" font-family="sans-serif" font-size="11" lengthAdjust="spacing" textLength="345" x="29" y="200.5449">applyCustomHeader(options: RequestOptions) : RequestOptions</text><!--MD5=[b572a895cc4cc8cc0298d475691e2d84]
class ApplyOauthAuthorizationHttpHeaderWrapper--><rect codeLine="13" fill="#FEFECE" filter="url(#f14ghezykef3c5)" height="86.8652" id="ApplyOauthAuthorizationHttpHeaderWrapper" style="stroke:#A80036;stroke-width:1.5;" width="516" x="523.5" y="120"/><ellipse cx="646.75" cy="136" fill="#ADD1B2" rx="11" ry="11" style="stroke:#A80036;stroke-width:1.0;"/><path d="M649.2231,142.1431 Q648.6421,142.4419 648.0029,142.5913 Q647.3638,142.7407 646.6582,142.7407 Q644.1514,142.7407 642.8315,141.0889 Q641.5117,139.437 641.5117,136.3159 Q641.5117,133.1865 642.8315,131.5347 Q644.1514,129.8828 646.6582,129.8828 Q647.3638,129.8828 648.0112,130.0322 Q648.6587,130.1816 649.2231,130.4805 L649.2231,133.2031 Q648.5923,132.6221 647.9988,132.3523 Q647.4053,132.0825 646.7744,132.0825 Q645.4297,132.0825 644.7449,133.1492 Q644.0601,134.2158 644.0601,136.3159 Q644.0601,138.4077 644.7449,139.4744 Q645.4297,140.541 646.7744,140.541 Q647.4053,140.541 647.9988,140.2712 Q648.5923,140.0015 649.2231,139.4204 Z " fill="#000000"/><text fill="#000000" font-family="sans-serif" font-size="12" lengthAdjust="spacing" textLength="261" x="667.25" y="140.5352">ApplyOauthAuthorizationHttpHeaderWrapper</text><line style="stroke:#A80036;stroke-width:1.5;" x1="524.5" x2="1038.5" y1="152" y2="152"/><polygon fill="none" points="534.5,158,538.5,162,534.5,166,530.5,162" style="stroke:#B38D22;stroke-width:1.0;"/><text fill="#000000" font-family="sans-serif" font-size="11" lengthAdjust="spacing" textLength="195" x="543.5" y="166.6348">authenticationData : OauthResponse</text><line style="stroke:#A80036;stroke-width:1.5;" x1="524.5" x2="1038.5" y1="172.9551" y2="172.9551"/><ellipse cx="534.5" cy="183.9551" fill="#84BE84" rx="3" ry="3" style="stroke:#038048;stroke-width:1.0;"/><text fill="#000000" font-family="sans-serif" font-size="11" lengthAdjust="spacing" textLength="453" x="543.5" y="187.5898">authenticate(requestOptionContainer: RequestOptions) : Promise&lt;RequestOptions&gt;</text><rect fill="#F24D5C" height="6" style="stroke:#C82930;stroke-width:1.0;" width="6" x="531.5" y="193.9102"/><text fill="#000000" font-family="sans-serif" font-size="11" lengthAdjust="spacing" textLength="490" x="543.5" y="200.5449">applyAuthorizationHeader(options: RequestOptions, accessToken: string) : RequestOptions</text><!--MD5=[a7a72214edeb513d4a309d7679ab718b]
class ApplyTokenHttpUriWrapper--><rect codeLine="19" fill="#FEFECE" filter="url(#f14ghezykef3c5)" height="86.8652" id="ApplyTokenHttpUriWrapper" style="stroke:#A80036;stroke-width:1.5;" width="479" x="1075" y="120"/><ellipse cx="1230.25" cy="136" fill="#ADD1B2" rx="11" ry="11" style="stroke:#A80036;stroke-width:1.0;"/><path d="M1232.7231,142.1431 Q1232.1421,142.4419 1231.5029,142.5913 Q1230.8638,142.7407 1230.1582,142.7407 Q1227.6514,142.7407 1226.3315,141.0889 Q1225.0117,139.437 1225.0117,136.3159 Q1225.0117,133.1865 1226.3315,131.5347 Q1227.6514,129.8828 1230.1582,129.8828 Q1230.8638,129.8828 1231.5112,130.0322 Q1232.1587,130.1816 1232.7231,130.4805 L1232.7231,133.2031 Q1232.0923,132.6221 1231.4988,132.3523 Q1230.9053,132.0825 1230.2744,132.0825 Q1228.9297,132.0825 1228.2449,133.1492 Q1227.5601,134.2158 1227.5601,136.3159 Q1227.5601,138.4077 1228.2449,139.4744 Q1228.9297,140.541 1230.2744,140.541 Q1230.9053,140.541 1231.4988,140.2712 Q1232.0923,140.0015 1232.7231,139.4204 Z " fill="#000000"/><text fill="#000000" font-family="sans-serif" font-size="12" lengthAdjust="spacing" textLength="160" x="1250.75" y="140.5352">ApplyTokenHttpUriWrapper</text><line style="stroke:#A80036;stroke-width:1.5;" x1="1076" x2="1553" y1="152" y2="152"/><polygon fill="none" points="1086,158,1090,162,1086,166,1082,162" style="stroke:#B38D22;stroke-width:1.0;"/><text fill="#000000" font-family="sans-serif" font-size="11" lengthAdjust="spacing" textLength="71" x="1095" y="166.6348">token : string</text><line style="stroke:#A80036;stroke-width:1.5;" x1="1076" x2="1553" y1="172.9551" y2="172.9551"/><ellipse cx="1086" cy="183.9551" fill="#84BE84" rx="3" ry="3" style="stroke:#038048;stroke-width:1.0;"/><text fill="#000000" font-family="sans-serif" font-size="11" lengthAdjust="spacing" textLength="453" x="1095" y="187.5898">authenticate(requestOptionContainer: RequestOptions) : Promise&lt;RequestOptions&gt;</text><rect fill="#F24D5C" height="6" style="stroke:#C82930;stroke-width:1.0;" width="6" x="1083" y="193.9102"/><text fill="#000000" font-family="sans-serif" font-size="11" lengthAdjust="spacing" textLength="330" x="1095" y="200.5449">applyTokenToURI(options: RequestOptions) : RequestOptions</text><!--MD5=[b628c1ae5dbb64f77a835e19ed5059b3]
class applyAuthorizationHttpHeaderWrapper--><rect codeLine="25" fill="#FEFECE" filter="url(#f14ghezykef3c5)" height="86.8652" id="applyAuthorizationHttpHeaderWrapper" style="stroke:#A80036;stroke-width:1.5;" width="479" x="1589" y="120"/><ellipse cx="1711.25" cy="136" fill="#ADD1B2" rx="11" ry="11" style="stroke:#A80036;stroke-width:1.0;"/><path d="M1713.7231,142.1431 Q1713.1421,142.4419 1712.5029,142.5913 Q1711.8638,142.7407 1711.1582,142.7407 Q1708.6514,142.7407 1707.3315,141.0889 Q1706.0117,139.437 1706.0117,136.3159 Q1706.0117,133.1865 1707.3315,131.5347 Q1708.6514,129.8828 1711.1582,129.8828 Q1711.8638,129.8828 1712.5112,130.0322 Q1713.1587,130.1816 1713.7231,130.4805 L1713.7231,133.2031 Q1713.0923,132.6221 1712.4988,132.3523 Q1711.9053,132.0825 1711.2744,132.0825 Q1709.9297,132.0825 1709.2449,133.1492 Q1708.5601,134.2158 1708.5601,136.3159 Q1708.5601,138.4077 1709.2449,139.4744 Q1709.9297,140.541 1711.2744,140.541 Q1711.9053,140.541 1712.4988,140.2712 Q1713.0923,140.0015 1713.7231,139.4204 Z " fill="#000000"/><text fill="#000000" font-family="sans-serif" font-size="12" lengthAdjust="spacing" textLength="226" x="1731.75" y="140.5352">applyAuthorizationHttpHeaderWrapper</text><line style="stroke:#A80036;stroke-width:1.5;" x1="1590" x2="2067" y1="152" y2="152"/><polygon fill="none" points="1600,158,1604,162,1600,166,1596,162" style="stroke:#B38D22;stroke-width:1.0;"/><text fill="#000000" font-family="sans-serif" font-size="11" lengthAdjust="spacing" textLength="228" x="1609" y="166.6348">authenticationData : AuthorizationHeaders</text><line style="stroke:#A80036;stroke-width:1.5;" x1="1590" x2="2067" y1="172.9551" y2="172.9551"/><ellipse cx="1600" cy="183.9551" fill="#84BE84" rx="3" ry="3" style="stroke:#038048;stroke-width:1.0;"/><text fill="#000000" font-family="sans-serif" font-size="11" lengthAdjust="spacing" textLength="453" x="1609" y="187.5898">authenticate(requestOptionContainer: RequestOptions) : Promise&lt;RequestOptions&gt;</text><rect fill="#F24D5C" height="6" style="stroke:#C82930;stroke-width:1.0;" width="6" x="1597" y="193.9102"/><text fill="#000000" font-family="sans-serif" font-size="11" lengthAdjust="spacing" textLength="377" x="1609" y="200.5449">applyAuthorizationHeader(options: RequestOptions) : RequestOptions</text><!--MD5=[e14c27af4e7fe0cdaaf597d5dae1f3b4]
reverse link TapjawAuthenticationWrapper to ApplyCustomHttpHeaderWrapper--><path codeLine="12" d="M863.87,63.12 C758.89,79.57 624.77,100.73 505.5,120 C499.81,120.92 494.04,121.85 488.23,122.8 " fill="none" id="TapjawAuthenticationWrapper-backto-ApplyCustomHttpHeaderWrapper" style="stroke:#A80036;stroke-width:1.0;stroke-dasharray:7.0,7.0;"/><polygon fill="none" points="862.95,56.18,883.8,60,865.12,70.01,862.95,56.18" style="stroke:#A80036;stroke-width:1.0;"/><!--MD5=[6e8f124f865ebb9b28c1f88ec482d276]
reverse link TapjawAuthenticationWrapper to ApplyOauthAuthorizationHttpHeaderWrapper--><path codeLine="18" d="M975.92,68.95 C943.3,84.64 904.37,103.37 869.95,119.94 " fill="none" id="TapjawAuthenticationWrapper-backto-ApplyOauthAuthorizationHttpHeaderWrapper" style="stroke:#A80036;stroke-width:1.0;stroke-dasharray:7.0,7.0;"/><polygon fill="none" points="973.25,62.46,994.31,60.1,979.32,75.08,973.25,62.46" style="stroke:#A80036;stroke-width:1.0;"/><!--MD5=[dff37fd5ca6b5e420a8074b495af631a]
reverse link TapjawAuthenticationWrapper to ApplyTokenHttpUriWrapper--><path codeLine="24" d="M1119.35,68.95 C1152.09,84.64 1191.16,103.37 1225.72,119.94 " fill="none" id="TapjawAuthenticationWrapper-backto-ApplyTokenHttpUriWrapper" style="stroke:#A80036;stroke-width:1.0;stroke-dasharray:7.0,7.0;"/><polygon fill="none" points="1115.9,75.05,1100.89,60.1,1121.95,62.43,1115.9,75.05" style="stroke:#A80036;stroke-width:1.0;"/><!--MD5=[f9352cea33e92c8acf424438681b35f8]
reverse link TapjawAuthenticationWrapper to applyAuthorizationHttpHeaderWrapper--><path codeLine="30" d="M1224.5,63.28 C1326.06,79.82 1455.96,101.02 1571.5,120 C1577.19,120.93 1582.95,121.88 1588.76,122.84 " fill="none" id="TapjawAuthenticationWrapper-backto-applyAuthorizationHttpHeaderWrapper" style="stroke:#A80036;stroke-width:1.0;stroke-dasharray:7.0,7.0;"/><polygon fill="none" points="1223.19,70.16,1204.58,60.04,1225.44,56.35,1223.19,70.16" style="stroke:#A80036;stroke-width:1.0;"/><!--MD5=[4654c8efb7aef85b82c8d0ab09881fa8]
@startuml
skinparam BackgroundColor transparent
hide empty methods
hide empty fields
interface "TapjawAuthenticationWrapper" {
    +authenticate(requestOptionContainer: unknown) : Promise<unknown>
}
class "ApplyCustomHttpHeaderWrapper" {
    #headers : HttpHeaders
    +authenticate(requestOptionContainer: RequestOptions) : Promise<RequestOptions>
    -applyCustomHeader(options: RequestOptions) : RequestOptions
}
"TapjawAuthenticationWrapper" <|.. "ApplyCustomHttpHeaderWrapper"
class "ApplyOauthAuthorizationHttpHeaderWrapper" {
    #authenticationData : OauthResponse
    +authenticate(requestOptionContainer: RequestOptions) : Promise<RequestOptions>
    -applyAuthorizationHeader(options: RequestOptions, accessToken: string) : RequestOptions
}
"TapjawAuthenticationWrapper" <|.. "ApplyOauthAuthorizationHttpHeaderWrapper"
class "ApplyTokenHttpUriWrapper" {
    #token : string
    +authenticate(requestOptionContainer: RequestOptions) : Promise<RequestOptions>
    -applyTokenToURI(options: RequestOptions) : RequestOptions
}
"TapjawAuthenticationWrapper" <|.. "ApplyTokenHttpUriWrapper"
class "applyAuthorizationHttpHeaderWrapper" {
    #authenticationData : AuthorizationHeaders
    +authenticate(requestOptionContainer: RequestOptions) : Promise<RequestOptions>
    -applyAuthorizationHeader(options: RequestOptions) : RequestOptions
}
"TapjawAuthenticationWrapper" <|.. "applyAuthorizationHttpHeaderWrapper"
@enduml

PlantUML version 1.2021.6(Fri May 14 09:09:51 CEST 2021)
(GPL source distribution)
Java Runtime: Java(TM) SE Runtime Environment
JVM: Java HotSpot(TM) 64-Bit Server VM
Default Encoding: UTF-8
Language: en
Country: GB
--></g></svg>