<?xml version="1.0" encoding="UTF-8" standalone="no"?><svg xmlns="http://www.w3.org/2000/svg" xmlns:xlink="http://www.w3.org/1999/xlink" contentScriptType="application/ecmascript" contentStyleType="text/css" height="220px" preserveAspectRatio="none" style="width:2596px;height:220px;background:#00000000;" version="1.1" viewBox="0 0 2596 220" width="2596px" zoomAndPan="magnify"><defs><filter height="300%" id="fbzzcatppphbq" width="300%" x="-1" y="-1"><feGaussianBlur result="blurOut" stdDeviation="2.0"/><feColorMatrix in="blurOut" result="blurOut2" type="matrix" values="0 0 0 0 0 0 0 0 0 0 0 0 0 0 0 0 0 0 .4 0"/><feOffset dx="4.0" dy="4.0" in="blurOut2" result="blurOut3"/><feBlend in="SourceGraphic" in2="blurOut3" mode="normal"/></filter></defs><g><!--MD5=[f18ac0e6b46fad41f096bfde65eea3c9]
class TapjawAuthenticationWrapper--><rect codeLine="4" fill="#FEFECE" filter="url(#fbzzcatppphbq)" height="52.9551" id="TapjawAuthenticationWrapper" style="stroke:#A80036;stroke-width:1.5;" width="405" x="1112" y="7"/><ellipse cx="1223.25" cy="23" fill="#B4A7E5" rx="11" ry="11" style="stroke:#A80036;stroke-width:1.0;"/><path d="M1219.6777,19.2651 L1219.6777,17.1069 L1227.0571,17.1069 L1227.0571,19.2651 L1224.5918,19.2651 L1224.5918,27.3418 L1227.0571,27.3418 L1227.0571,29.5 L1219.6777,29.5 L1219.6777,27.3418 L1222.1431,27.3418 L1222.1431,19.2651 Z " fill="#000000"/><text fill="#000000" font-family="sans-serif" font-size="12" font-style="italic" lengthAdjust="spacing" textLength="174" x="1243.75" y="27.5352">TapjawAuthenticationWrapper</text><line style="stroke:#A80036;stroke-width:1.5;" x1="1113" x2="1516" y1="39" y2="39"/><ellipse cx="1123" cy="50" fill="#84BE84" rx="3" ry="3" style="stroke:#038048;stroke-width:1.0;"/><text fill="#000000" font-family="sans-serif" font-size="11" lengthAdjust="spacing" textLength="379" x="1132" y="53.6348">authenticate(requestOptionContainer: unknown) : Promise&lt;unknown&gt;</text><!--MD5=[11549db587acf5048fc424b12d062ae0]
class ApplyCustomHttpHeaderWrapper--><rect codeLine="7" fill="#FEFECE" filter="url(#fbzzcatppphbq)" height="86.8652" id="ApplyCustomHttpHeaderWrapper" style="stroke:#A80036;stroke-width:1.5;" width="479" x="9" y="120"/><ellipse cx="147.25" cy="136" fill="#ADD1B2" rx="11" ry="11" style="stroke:#A80036;stroke-width:1.0;"/><path d="M149.7231,142.1431 Q149.1421,142.4419 148.5029,142.5913 Q147.8638,142.7407 147.1582,142.7407 Q144.6514,142.7407 143.3315,141.0889 Q142.0117,139.437 142.0117,136.3159 Q142.0117,133.1865 143.3315,131.5347 Q144.6514,129.8828 147.1582,129.8828 Q147.8638,129.8828 148.5112,130.0322 Q149.1587,130.1816 149.7231,130.4805 L149.7231,133.2031 Q149.0923,132.6221 148.4988,132.3523 Q147.9053,132.0825 147.2744,132.0825 Q145.9297,132.0825 145.2449,133.1492 Q144.5601,134.2158 144.5601,136.3159 Q144.5601,138.4077 145.2449,139.4744 Q145.9297,140.541 147.2744,140.541 Q147.9053,140.541 148.4988,140.2712 Q149.0923,140.0015 149.7231,139.4204 Z " fill="#000000"/><text fill="#000000" font-family="sans-serif" font-size="12" lengthAdjust="spacing" textLength="194" x="167.75" y="140.5352">ApplyCustomHttpHeaderWrapper</text><line style="stroke:#A80036;stroke-width:1.5;" x1="10" x2="487" y1="152" y2="152"/><polygon fill="none" points="20,158,24,162,20,166,16,162" style="stroke:#B38D22;stroke-width:1.0;"/><text fill="#000000" font-family="sans-serif" font-size="11" lengthAdjust="spacing" textLength="119" x="29" y="166.6348">headers : HttpHeaders</text><line style="stroke:#A80036;stroke-width:1.5;" x1="10" x2="487" y1="172.9551" y2="172.9551"/><ellipse cx="20" cy="183.9551" fill="#84BE84" rx="3" ry="3" style="stroke:#038048;stroke-width:1.0;"/><text fill="#000000" font-family="sans-serif" font-size="11" lengthAdjust="spacing" textLength="453" x="29" y="187.5898">authenticate(requestOptionContainer: RequestOptions) : Promise&lt;RequestOptions&gt;</text><rect fill="#F24D5C" height="6" style="stroke:#C82930;stroke-width:1.0;" width="6" x="17" y="193.9102"/><text fill="#000000" font-family="sans-serif" font-size="11" lengthAdjust="spacing" textLength="345" x="29" y="200.5449">applyCustomHeader(options: RequestOptions) : RequestOptions</text><!--MD5=[b572a895cc4cc8cc0298d475691e2d84]
class ApplyOauthAuthorizationHttpHeaderWrapper--><rect codeLine="13" fill="#FEFECE" filter="url(#fbzzcatppphbq)" height="86.8652" id="ApplyOauthAuthorizationHttpHeaderWrapper" style="stroke:#A80036;stroke-width:1.5;" width="516" x="523.5" y="120"/><ellipse cx="646.75" cy="136" fill="#ADD1B2" rx="11" ry="11" style="stroke:#A80036;stroke-width:1.0;"/><path d="M649.2231,142.1431 Q648.6421,142.4419 648.0029,142.5913 Q647.3638,142.7407 646.6582,142.7407 Q644.1514,142.7407 642.8315,141.0889 Q641.5117,139.437 641.5117,136.3159 Q641.5117,133.1865 642.8315,131.5347 Q644.1514,129.8828 646.6582,129.8828 Q647.3638,129.8828 648.0112,130.0322 Q648.6587,130.1816 649.2231,130.4805 L649.2231,133.2031 Q648.5923,132.6221 647.9988,132.3523 Q647.4053,132.0825 646.7744,132.0825 Q645.4297,132.0825 644.7449,133.1492 Q644.0601,134.2158 644.0601,136.3159 Q644.0601,138.4077 644.7449,139.4744 Q645.4297,140.541 646.7744,140.541 Q647.4053,140.541 647.9988,140.2712 Q648.5923,140.0015 649.2231,139.4204 Z " fill="#000000"/><text fill="#000000" font-family="sans-serif" font-size="12" lengthAdjust="spacing" textLength="261" x="667.25" y="140.5352">ApplyOauthAuthorizationHttpHeaderWrapper</text><line style="stroke:#A80036;stroke-width:1.5;" x1="524.5" x2="1038.5" y1="152" y2="152"/><polygon fill="none" points="534.5,158,538.5,162,534.5,166,530.5,162" style="stroke:#B38D22;stroke-width:1.0;"/><text fill="#000000" font-family="sans-serif" font-size="11" lengthAdjust="spacing" textLength="195" x="543.5" y="166.6348">authenticationData : OauthResponse</text><line style="stroke:#A80036;stroke-width:1.5;" x1="524.5" x2="1038.5" y1="172.9551" y2="172.9551"/><ellipse cx="534.5" cy="183.9551" fill="#84BE84" rx="3" ry="3" style="stroke:#038048;stroke-width:1.0;"/><text fill="#000000" font-family="sans-serif" font-size="11" lengthAdjust="spacing" textLength="453" x="543.5" y="187.5898">authenticate(requestOptionContainer: RequestOptions) : Promise&lt;RequestOptions&gt;</text><rect fill="#F24D5C" height="6" style="stroke:#C82930;stroke-width:1.0;" width="6" x="531.5" y="193.9102"/><text fill="#000000" font-family="sans-serif" font-size="11" lengthAdjust="spacing" textLength="490" x="543.5" y="200.5449">applyAuthorizationHeader(options: RequestOptions, accessToken: string) : RequestOptions</text><!--MD5=[be12974000be06d830b0e74153dd0842]
class ApplyQueryStringWrapper--><rect codeLine="19" fill="#FEFECE" filter="url(#fbzzcatppphbq)" height="65.9102" id="ApplyQueryStringWrapper" style="stroke:#A80036;stroke-width:1.5;" width="479" x="1075" y="130.5"/><ellipse cx="1235.75" cy="146.5" fill="#ADD1B2" rx="11" ry="11" style="stroke:#A80036;stroke-width:1.0;"/><path d="M1238.2231,152.6431 Q1237.6421,152.9419 1237.0029,153.0913 Q1236.3638,153.2407 1235.6582,153.2407 Q1233.1514,153.2407 1231.8315,151.5889 Q1230.5117,149.937 1230.5117,146.8159 Q1230.5117,143.6865 1231.8315,142.0347 Q1233.1514,140.3828 1235.6582,140.3828 Q1236.3638,140.3828 1237.0112,140.5322 Q1237.6587,140.6816 1238.2231,140.9805 L1238.2231,143.7031 Q1237.5923,143.1221 1236.9988,142.8523 Q1236.4053,142.5825 1235.7744,142.5825 Q1234.4297,142.5825 1233.7449,143.6492 Q1233.0601,144.7158 1233.0601,146.8159 Q1233.0601,148.9077 1233.7449,149.9744 Q1234.4297,151.041 1235.7744,151.041 Q1236.4053,151.041 1236.9988,150.7712 Q1237.5923,150.5015 1238.2231,149.9204 Z " fill="#000000"/><text fill="#000000" font-family="sans-serif" font-size="12" lengthAdjust="spacing" textLength="149" x="1256.25" y="151.0352">ApplyQueryStringWrapper</text><line style="stroke:#A80036;stroke-width:1.5;" x1="1076" x2="1553" y1="162.5" y2="162.5"/><ellipse cx="1086" cy="173.5" fill="#84BE84" rx="3" ry="3" style="stroke:#038048;stroke-width:1.0;"/><text fill="#000000" font-family="sans-serif" font-size="11" lengthAdjust="spacing" textLength="453" x="1095" y="177.1348">authenticate(requestOptionContainer: RequestOptions) : Promise&lt;RequestOptions&gt;</text><rect fill="#F24D5C" height="6" style="stroke:#C82930;stroke-width:1.0;" width="6" x="1083" y="183.4551"/><text fill="#000000" font-family="sans-serif" font-size="11" lengthAdjust="spacing" textLength="449" x="1095" y="190.0898">applyAuthParametersToPath(options: RequestOptions) : Promise&lt;RequestOptions&gt;</text><!--MD5=[a7a72214edeb513d4a309d7679ab718b]
class ApplyTokenHttpUriWrapper--><rect codeLine="24" fill="#FEFECE" filter="url(#fbzzcatppphbq)" height="86.8652" id="ApplyTokenHttpUriWrapper" style="stroke:#A80036;stroke-width:1.5;" width="479" x="1589" y="120"/><ellipse cx="1744.25" cy="136" fill="#ADD1B2" rx="11" ry="11" style="stroke:#A80036;stroke-width:1.0;"/><path d="M1746.7231,142.1431 Q1746.1421,142.4419 1745.5029,142.5913 Q1744.8638,142.7407 1744.1582,142.7407 Q1741.6514,142.7407 1740.3315,141.0889 Q1739.0117,139.437 1739.0117,136.3159 Q1739.0117,133.1865 1740.3315,131.5347 Q1741.6514,129.8828 1744.1582,129.8828 Q1744.8638,129.8828 1745.5112,130.0322 Q1746.1587,130.1816 1746.7231,130.4805 L1746.7231,133.2031 Q1746.0923,132.6221 1745.4988,132.3523 Q1744.9053,132.0825 1744.2744,132.0825 Q1742.9297,132.0825 1742.2449,133.1492 Q1741.5601,134.2158 1741.5601,136.3159 Q1741.5601,138.4077 1742.2449,139.4744 Q1742.9297,140.541 1744.2744,140.541 Q1744.9053,140.541 1745.4988,140.2712 Q1746.0923,140.0015 1746.7231,139.4204 Z " fill="#000000"/><text fill="#000000" font-family="sans-serif" font-size="12" lengthAdjust="spacing" textLength="160" x="1764.75" y="140.5352">ApplyTokenHttpUriWrapper</text><line style="stroke:#A80036;stroke-width:1.5;" x1="1590" x2="2067" y1="152" y2="152"/><polygon fill="none" points="1600,158,1604,162,1600,166,1596,162" style="stroke:#B38D22;stroke-width:1.0;"/><text fill="#000000" font-family="sans-serif" font-size="11" lengthAdjust="spacing" textLength="71" x="1609" y="166.6348">token : string</text><line style="stroke:#A80036;stroke-width:1.5;" x1="1590" x2="2067" y1="172.9551" y2="172.9551"/><ellipse cx="1600" cy="183.9551" fill="#84BE84" rx="3" ry="3" style="stroke:#038048;stroke-width:1.0;"/><text fill="#000000" font-family="sans-serif" font-size="11" lengthAdjust="spacing" textLength="453" x="1609" y="187.5898">authenticate(requestOptionContainer: RequestOptions) : Promise&lt;RequestOptions&gt;</text><rect fill="#F24D5C" height="6" style="stroke:#C82930;stroke-width:1.0;" width="6" x="1597" y="193.9102"/><text fill="#000000" font-family="sans-serif" font-size="11" lengthAdjust="spacing" textLength="330" x="1609" y="200.5449">applyTokenToURI(options: RequestOptions) : RequestOptions</text><!--MD5=[b628c1ae5dbb64f77a835e19ed5059b3]
class applyAuthorizationHttpHeaderWrapper--><rect codeLine="30" fill="#FEFECE" filter="url(#fbzzcatppphbq)" height="86.8652" id="applyAuthorizationHttpHeaderWrapper" style="stroke:#A80036;stroke-width:1.5;" width="479" x="2103" y="120"/><ellipse cx="2225.25" cy="136" fill="#ADD1B2" rx="11" ry="11" style="stroke:#A80036;stroke-width:1.0;"/><path d="M2227.7231,142.1431 Q2227.1421,142.4419 2226.5029,142.5913 Q2225.8638,142.7407 2225.1582,142.7407 Q2222.6514,142.7407 2221.3315,141.0889 Q2220.0117,139.437 2220.0117,136.3159 Q2220.0117,133.1865 2221.3315,131.5347 Q2222.6514,129.8828 2225.1582,129.8828 Q2225.8638,129.8828 2226.5112,130.0322 Q2227.1587,130.1816 2227.7231,130.4805 L2227.7231,133.2031 Q2227.0923,132.6221 2226.4988,132.3523 Q2225.9053,132.0825 2225.2744,132.0825 Q2223.9297,132.0825 2223.2449,133.1492 Q2222.5601,134.2158 2222.5601,136.3159 Q2222.5601,138.4077 2223.2449,139.4744 Q2223.9297,140.541 2225.2744,140.541 Q2225.9053,140.541 2226.4988,140.2712 Q2227.0923,140.0015 2227.7231,139.4204 Z " fill="#000000"/><text fill="#000000" font-family="sans-serif" font-size="12" lengthAdjust="spacing" textLength="226" x="2245.75" y="140.5352">applyAuthorizationHttpHeaderWrapper</text><line style="stroke:#A80036;stroke-width:1.5;" x1="2104" x2="2581" y1="152" y2="152"/><polygon fill="none" points="2114,158,2118,162,2114,166,2110,162" style="stroke:#B38D22;stroke-width:1.0;"/><text fill="#000000" font-family="sans-serif" font-size="11" lengthAdjust="spacing" textLength="228" x="2123" y="166.6348">authenticationData : AuthorizationHeaders</text><line style="stroke:#A80036;stroke-width:1.5;" x1="2104" x2="2581" y1="172.9551" y2="172.9551"/><ellipse cx="2114" cy="183.9551" fill="#84BE84" rx="3" ry="3" style="stroke:#038048;stroke-width:1.0;"/><text fill="#000000" font-family="sans-serif" font-size="11" lengthAdjust="spacing" textLength="453" x="2123" y="187.5898">authenticate(requestOptionContainer: RequestOptions) : Promise&lt;RequestOptions&gt;</text><rect fill="#F24D5C" height="6" style="stroke:#C82930;stroke-width:1.0;" width="6" x="2111" y="193.9102"/><text fill="#000000" font-family="sans-serif" font-size="11" lengthAdjust="spacing" textLength="377" x="2123" y="200.5449">applyAuthorizationHeader(options: RequestOptions) : RequestOptions</text><!--MD5=[e14c27af4e7fe0cdaaf597d5dae1f3b4]
reverse link TapjawAuthenticationWrapper to ApplyCustomHttpHeaderWrapper--><path codeLine="12" d="M1091.69,54.51 C928.96,69.98 703.17,93.23 505.5,120 C499.79,120.77 494,121.58 488.17,122.4 " fill="none" id="TapjawAuthenticationWrapper-backto-ApplyCustomHttpHeaderWrapper" style="stroke:#A80036;stroke-width:1.0;stroke-dasharray:7.0,7.0;"/><polygon fill="none" points="1091.14,47.53,1111.71,52.61,1092.46,61.46,1091.14,47.53" style="stroke:#A80036;stroke-width:1.0;"/><!--MD5=[6e8f124f865ebb9b28c1f88ec482d276]
reverse link TapjawAuthenticationWrapper to ApplyOauthAuthorizationHttpHeaderWrapper--><path codeLine="18" d="M1188.46,64.77 C1119.87,81.24 1033.89,101.89 958.66,119.95 " fill="none" id="TapjawAuthenticationWrapper-backto-ApplyOauthAuthorizationHttpHeaderWrapper" style="stroke:#A80036;stroke-width:1.0;stroke-dasharray:7.0,7.0;"/><polygon fill="none" points="1187.16,57.88,1208.24,60.02,1190.43,71.5,1187.16,57.88" style="stroke:#A80036;stroke-width:1.0;"/><!--MD5=[1626ea9a30f25ca15b6a3a9d3b091980]
reverse link TapjawAuthenticationWrapper to ApplyQueryStringWrapper--><path codeLine="23" d="M1314.5,80.33 C1314.5,96.8 1314.5,115.03 1314.5,130.12 " fill="none" id="TapjawAuthenticationWrapper-backto-ApplyQueryStringWrapper" style="stroke:#A80036;stroke-width:1.0;stroke-dasharray:7.0,7.0;"/><polygon fill="none" points="1307.5,80.1,1314.5,60.1,1321.5,80.1,1307.5,80.1" style="stroke:#A80036;stroke-width:1.0;"/><!--MD5=[dff37fd5ca6b5e420a8074b495af631a]
reverse link TapjawAuthenticationWrapper to ApplyTokenHttpUriWrapper--><path codeLine="29" d="M1436.47,64.87 C1502.55,81.33 1585.26,101.93 1657.65,119.95 " fill="none" id="TapjawAuthenticationWrapper-backto-ApplyTokenHttpUriWrapper" style="stroke:#A80036;stroke-width:1.0;stroke-dasharray:7.0,7.0;"/><polygon fill="none" points="1434.69,71.64,1416.97,60.02,1438.07,58.06,1434.69,71.64" style="stroke:#A80036;stroke-width:1.0;"/><!--MD5=[f9352cea33e92c8acf424438681b35f8]
reverse link TapjawAuthenticationWrapper to applyAuthorizationHttpHeaderWrapper--><path codeLine="35" d="M1537.32,56.03 C1691.51,71.7 1901.3,94.57 2085.5,120 C2091.21,120.79 2096.99,121.6 2102.82,122.44 " fill="none" id="TapjawAuthenticationWrapper-backto-applyAuthorizationHttpHeaderWrapper" style="stroke:#A80036;stroke-width:1.0;stroke-dasharray:7.0,7.0;"/><polygon fill="none" points="1536.57,62.99,1517.38,54.01,1537.98,49.06,1536.57,62.99" style="stroke:#A80036;stroke-width:1.0;"/><!--MD5=[771ed21d6bceee022d3b77d2b42e7772]
@startuml
skinparam BackgroundColor transparent
hide empty methods
hide empty fields
interface "TapjawAuthenticationWrapper" {
    +authenticate(requestOptionContainer: unknown) : Promise<unknown>
}
class "ApplyCustomHttpHeaderWrapper" {
    #headers : HttpHeaders
    +authenticate(requestOptionContainer: RequestOptions) : Promise<RequestOptions>
    -applyCustomHeader(options: RequestOptions) : RequestOptions
}
"TapjawAuthenticationWrapper" <|.. "ApplyCustomHttpHeaderWrapper"
class "ApplyOauthAuthorizationHttpHeaderWrapper" {
    #authenticationData : OauthResponse
    +authenticate(requestOptionContainer: RequestOptions) : Promise<RequestOptions>
    -applyAuthorizationHeader(options: RequestOptions, accessToken: string) : RequestOptions
}
"TapjawAuthenticationWrapper" <|.. "ApplyOauthAuthorizationHttpHeaderWrapper"
class "ApplyQueryStringWrapper" {
    +authenticate(requestOptionContainer: RequestOptions) : Promise<RequestOptions>
    -applyAuthParametersToPath(options: RequestOptions) : Promise<RequestOptions>
}
"TapjawAuthenticationWrapper" <|.. "ApplyQueryStringWrapper"
class "ApplyTokenHttpUriWrapper" {
    #token : string
    +authenticate(requestOptionContainer: RequestOptions) : Promise<RequestOptions>
    -applyTokenToURI(options: RequestOptions) : RequestOptions
}
"TapjawAuthenticationWrapper" <|.. "ApplyTokenHttpUriWrapper"
class "applyAuthorizationHttpHeaderWrapper" {
    #authenticationData : AuthorizationHeaders
    +authenticate(requestOptionContainer: RequestOptions) : Promise<RequestOptions>
    -applyAuthorizationHeader(options: RequestOptions) : RequestOptions
}
"TapjawAuthenticationWrapper" <|.. "applyAuthorizationHttpHeaderWrapper"
@enduml

PlantUML version 1.2021.14(Fri Nov 12 17:46:50 CET 2021)
(GPL source distribution)
Java Runtime: Java(TM) SE Runtime Environment
JVM: Java HotSpot(TM) 64-Bit Server VM
Default Encoding: UTF-8
Language: en
Country: GB
--></g></svg>