<?xml version="1.0" encoding="UTF-8" standalone="no"?><svg xmlns="http://www.w3.org/2000/svg" xmlns:xlink="http://www.w3.org/1999/xlink" contentScriptType="application/ecmascript" contentStyleType="text/css" height="220px" preserveAspectRatio="none" style="width:1053px;height:220px;background:#00000000;" version="1.1" viewBox="0 0 1053 220" width="1053px" zoomAndPan="magnify"><defs><filter height="300%" id="fzqqtzhdkkhp9" width="300%" x="-1" y="-1"><feGaussianBlur result="blurOut" stdDeviation="2.0"/><feColorMatrix in="blurOut" result="blurOut2" type="matrix" values="0 0 0 0 0 0 0 0 0 0 0 0 0 0 0 0 0 0 .4 0"/><feOffset dx="4.0" dy="4.0" in="blurOut2" result="blurOut3"/><feBlend in="SourceGraphic" in2="blurOut3" mode="normal"/></filter></defs><g><!--MD5=[f18ac0e6b46fad41f096bfde65eea3c9]
class TapjawAuthenticationWrapper--><rect codeLine="4" fill="#FEFECE" filter="url(#fzqqtzhdkkhp9)" height="52.9551" id="TapjawAuthenticationWrapper" style="stroke:#A80036;stroke-width:1.5;" width="405" x="330.5" y="7"/><ellipse cx="441.75" cy="23" fill="#B4A7E5" rx="11" ry="11" style="stroke:#A80036;stroke-width:1.0;"/><path d="M438.1777,19.2651 L438.1777,17.1069 L445.5571,17.1069 L445.5571,19.2651 L443.0918,19.2651 L443.0918,27.3418 L445.5571,27.3418 L445.5571,29.5 L438.1777,29.5 L438.1777,27.3418 L440.6431,27.3418 L440.6431,19.2651 Z " fill="#000000"/><text fill="#000000" font-family="sans-serif" font-size="12" font-style="italic" lengthAdjust="spacing" textLength="174" x="462.25" y="27.5352">TapjawAuthenticationWrapper</text><line style="stroke:#A80036;stroke-width:1.5;" x1="331.5" x2="734.5" y1="39" y2="39"/><ellipse cx="341.5" cy="50" fill="#84BE84" rx="3" ry="3" style="stroke:#038048;stroke-width:1.0;"/><text fill="#000000" font-family="sans-serif" font-size="11" lengthAdjust="spacing" textLength="379" x="350.5" y="53.6348">authenticate(requestOptionContainer: unknown) : Promise&lt;unknown&gt;</text><!--MD5=[b572a895cc4cc8cc0298d475691e2d84]
class ApplyOauthAuthorizationHttpHeaderWrapper--><rect codeLine="7" fill="#FEFECE" filter="url(#fzqqtzhdkkhp9)" height="86.8652" id="ApplyOauthAuthorizationHttpHeaderWrapper" style="stroke:#A80036;stroke-width:1.5;" width="516" x="9" y="120"/><ellipse cx="132.25" cy="136" fill="#ADD1B2" rx="11" ry="11" style="stroke:#A80036;stroke-width:1.0;"/><path d="M134.7231,142.1431 Q134.1421,142.4419 133.5029,142.5913 Q132.8638,142.7407 132.1582,142.7407 Q129.6514,142.7407 128.3315,141.0889 Q127.0117,139.437 127.0117,136.3159 Q127.0117,133.1865 128.3315,131.5347 Q129.6514,129.8828 132.1582,129.8828 Q132.8638,129.8828 133.5112,130.0322 Q134.1587,130.1816 134.7231,130.4805 L134.7231,133.2031 Q134.0923,132.6221 133.4988,132.3523 Q132.9053,132.0825 132.2744,132.0825 Q130.9297,132.0825 130.2449,133.1492 Q129.5601,134.2158 129.5601,136.3159 Q129.5601,138.4077 130.2449,139.4744 Q130.9297,140.541 132.2744,140.541 Q132.9053,140.541 133.4988,140.2712 Q134.0923,140.0015 134.7231,139.4204 Z " fill="#000000"/><text fill="#000000" font-family="sans-serif" font-size="12" lengthAdjust="spacing" textLength="261" x="152.75" y="140.5352">ApplyOauthAuthorizationHttpHeaderWrapper</text><line style="stroke:#A80036;stroke-width:1.5;" x1="10" x2="524" y1="152" y2="152"/><polygon fill="none" points="20,158,24,162,20,166,16,162" style="stroke:#B38D22;stroke-width:1.0;"/><text fill="#000000" font-family="sans-serif" font-size="11" lengthAdjust="spacing" textLength="195" x="29" y="166.6348">authenticationData : OauthResponse</text><line style="stroke:#A80036;stroke-width:1.5;" x1="10" x2="524" y1="172.9551" y2="172.9551"/><ellipse cx="20" cy="183.9551" fill="#84BE84" rx="3" ry="3" style="stroke:#038048;stroke-width:1.0;"/><text fill="#000000" font-family="sans-serif" font-size="11" lengthAdjust="spacing" textLength="453" x="29" y="187.5898">authenticate(requestOptionContainer: RequestOptions) : Promise&lt;RequestOptions&gt;</text><rect fill="#F24D5C" height="6" style="stroke:#C82930;stroke-width:1.0;" width="6" x="17" y="193.9102"/><text fill="#000000" font-family="sans-serif" font-size="11" lengthAdjust="spacing" textLength="490" x="29" y="200.5449">applyAuthorizationHeader(options: RequestOptions, accessToken: string) : RequestOptions</text><!--MD5=[b628c1ae5dbb64f77a835e19ed5059b3]
class applyAuthorizationHttpHeaderWrapper--><rect codeLine="13" fill="#FEFECE" filter="url(#fzqqtzhdkkhp9)" height="86.8652" id="applyAuthorizationHttpHeaderWrapper" style="stroke:#A80036;stroke-width:1.5;" width="479" x="560.5" y="120"/><ellipse cx="682.75" cy="136" fill="#ADD1B2" rx="11" ry="11" style="stroke:#A80036;stroke-width:1.0;"/><path d="M685.2231,142.1431 Q684.6421,142.4419 684.0029,142.5913 Q683.3638,142.7407 682.6582,142.7407 Q680.1514,142.7407 678.8315,141.0889 Q677.5117,139.437 677.5117,136.3159 Q677.5117,133.1865 678.8315,131.5347 Q680.1514,129.8828 682.6582,129.8828 Q683.3638,129.8828 684.0112,130.0322 Q684.6587,130.1816 685.2231,130.4805 L685.2231,133.2031 Q684.5923,132.6221 683.9988,132.3523 Q683.4053,132.0825 682.7744,132.0825 Q681.4297,132.0825 680.7449,133.1492 Q680.0601,134.2158 680.0601,136.3159 Q680.0601,138.4077 680.7449,139.4744 Q681.4297,140.541 682.7744,140.541 Q683.4053,140.541 683.9988,140.2712 Q684.5923,140.0015 685.2231,139.4204 Z " fill="#000000"/><text fill="#000000" font-family="sans-serif" font-size="12" lengthAdjust="spacing" textLength="226" x="703.25" y="140.5352">applyAuthorizationHttpHeaderWrapper</text><line style="stroke:#A80036;stroke-width:1.5;" x1="561.5" x2="1038.5" y1="152" y2="152"/><polygon fill="none" points="571.5,158,575.5,162,571.5,166,567.5,162" style="stroke:#B38D22;stroke-width:1.0;"/><text fill="#000000" font-family="sans-serif" font-size="11" lengthAdjust="spacing" textLength="228" x="580.5" y="166.6348">authenticationData : AuthorizationHeaders</text><line style="stroke:#A80036;stroke-width:1.5;" x1="561.5" x2="1038.5" y1="172.9551" y2="172.9551"/><ellipse cx="571.5" cy="183.9551" fill="#84BE84" rx="3" ry="3" style="stroke:#038048;stroke-width:1.0;"/><text fill="#000000" font-family="sans-serif" font-size="11" lengthAdjust="spacing" textLength="453" x="580.5" y="187.5898">authenticate(requestOptionContainer: RequestOptions) : Promise&lt;RequestOptions&gt;</text><rect fill="#F24D5C" height="6" style="stroke:#C82930;stroke-width:1.0;" width="6" x="568.5" y="193.9102"/><text fill="#000000" font-family="sans-serif" font-size="11" lengthAdjust="spacing" textLength="377" x="580.5" y="200.5449">applyAuthorizationHeader(options: RequestOptions) : RequestOptions</text><!--MD5=[6e8f124f865ebb9b28c1f88ec482d276]
reverse link TapjawAuthenticationWrapper to ApplyOauthAuthorizationHttpHeaderWrapper--><path codeLine="12" d="M461.42,68.95 C428.8,84.64 389.87,103.37 355.45,119.94 " fill="none" id="TapjawAuthenticationWrapper-backto-ApplyOauthAuthorizationHttpHeaderWrapper" style="stroke:#A80036;stroke-width:1.0;stroke-dasharray:7.0,7.0;"/><polygon fill="none" points="458.75,62.46,479.81,60.1,464.82,75.08,458.75,62.46" style="stroke:#A80036;stroke-width:1.0;"/><!--MD5=[f9352cea33e92c8acf424438681b35f8]
reverse link TapjawAuthenticationWrapper to applyAuthorizationHttpHeaderWrapper--><path codeLine="18" d="M604.85,68.95 C637.59,84.64 676.66,103.37 711.22,119.94 " fill="none" id="TapjawAuthenticationWrapper-backto-applyAuthorizationHttpHeaderWrapper" style="stroke:#A80036;stroke-width:1.0;stroke-dasharray:7.0,7.0;"/><polygon fill="none" points="601.4,75.05,586.39,60.1,607.45,62.43,601.4,75.05" style="stroke:#A80036;stroke-width:1.0;"/><!--MD5=[8988b63e29603d527d5afff50f3c8898]
@startuml
skinparam BackgroundColor transparent
hide empty methods
hide empty fields
interface "TapjawAuthenticationWrapper" {
    +authenticate(requestOptionContainer: unknown) : Promise<unknown>
}
class "ApplyOauthAuthorizationHttpHeaderWrapper" {
    #authenticationData : OauthResponse
    +authenticate(requestOptionContainer: RequestOptions) : Promise<RequestOptions>
    -applyAuthorizationHeader(options: RequestOptions, accessToken: string) : RequestOptions
}
"TapjawAuthenticationWrapper" <|.. "ApplyOauthAuthorizationHttpHeaderWrapper"
class "applyAuthorizationHttpHeaderWrapper" {
    #authenticationData : AuthorizationHeaders
    +authenticate(requestOptionContainer: RequestOptions) : Promise<RequestOptions>
    -applyAuthorizationHeader(options: RequestOptions) : RequestOptions
}
"TapjawAuthenticationWrapper" <|.. "applyAuthorizationHttpHeaderWrapper"
@enduml

PlantUML version 1.2021.6(Fri May 14 09:09:51 CEST 2021)
(GPL source distribution)
Java Runtime: OpenJDK Runtime Environment
JVM: OpenJDK 64-Bit Server VM
Default Encoding: UTF-8
Language: en
Country: GB
--></g></svg>