<?xml version="1.0" encoding="UTF-8" standalone="no"?><svg xmlns="http://www.w3.org/2000/svg" xmlns:xlink="http://www.w3.org/1999/xlink" contentScriptType="application/ecmascript" contentStyleType="text/css" height="246px" preserveAspectRatio="none" style="width:837px;height:246px;background:#00000000;" version="1.1" viewBox="0 0 837 246" width="837px" zoomAndPan="magnify"><defs><filter height="300%" id="fxtpsjaazxaxb" width="300%" x="-1" y="-1"><feGaussianBlur result="blurOut" stdDeviation="2.0"/><feColorMatrix in="blurOut" result="blurOut2" type="matrix" values="0 0 0 0 0 0 0 0 0 0 0 0 0 0 0 0 0 0 .4 0"/><feOffset dx="4.0" dy="4.0" in="blurOut2" result="blurOut3"/><feBlend in="SourceGraphic" in2="blurOut3" mode="normal"/></filter></defs><g><!--MD5=[780ffde38834e662f62a5d646d249416]
class TapjawApiCommand--><rect codeLine="4" fill="#FEFECE" filter="url(#fxtpsjaazxaxb)" height="112.7754" id="TapjawApiCommand" style="stroke:#A80036;stroke-width:1.5;" width="814" x="9" y="120"/><ellipse cx="351.25" cy="136" fill="#A9DCDF" rx="11" ry="11" style="stroke:#A80036;stroke-width:1.0;"/><path d="M351.1133,131.3481 L349.9595,136.4199 L352.2754,136.4199 Z M349.6191,129.1069 L352.6157,129.1069 L355.9609,141.5 L353.5122,141.5 L352.7485,138.437 L349.4697,138.437 L348.7227,141.5 L346.2739,141.5 Z " fill="#000000"/><text fill="#000000" font-family="sans-serif" font-size="12" font-style="italic" lengthAdjust="spacing" textLength="121" x="371.75" y="140.5352">TapjawApiCommand</text><line style="stroke:#A80036;stroke-width:1.5;" x1="10" x2="822" y1="152" y2="152"/><polygon fill="none" points="20,158,24,162,20,166,16,162" style="stroke:#B38D22;stroke-width:1.0;"/><text fill="#000000" font-family="sans-serif" font-size="11" lengthAdjust="spacing" textLength="126" x="29" y="166.6348">iterator : TapjawIterator</text><line style="stroke:#A80036;stroke-width:1.5;" x1="10" x2="822" y1="172.9551" y2="172.9551"/><ellipse cx="20" cy="183.9551" fill="#84BE84" rx="3" ry="3" style="stroke:#038048;stroke-width:1.0;"/><text fill="#000000" font-family="sans-serif" font-size="11" lengthAdjust="spacing" text-decoration="underline" textLength="190" x="29" y="187.5898">register(program: Command) : void</text><ellipse cx="20" cy="196.9102" fill="#84BE84" rx="3" ry="3" style="stroke:#038048;stroke-width:1.0;"/><text fill="#000000" font-family="sans-serif" font-size="11" lengthAdjust="spacing" textLength="644" x="29" y="200.5449">run&lt;T&gt;(args: TapjawCommandArgs&lt;unknown&gt;, flags: T &amp; TapjawCommandDefaultFlags&lt;unknown&gt;) : Promise&lt;void&gt;</text><polygon fill="#FFFF44" points="20,204.8652,24,208.8652,20,212.8652,16,208.8652" style="stroke:#B38D22;stroke-width:1.0;"/><text fill="#000000" font-family="sans-serif" font-size="11" font-style="italic" lengthAdjust="spacing" textLength="788" x="29" y="213.5">getAdapterCallback(args: TapjawCommandArgs&lt;unknown&gt;, flags: TapjawCommandFlags&lt;unknown&gt;) : TapjawAdapterCallback&lt;TapjawMessage&gt;</text><polygon fill="#FFFF44" points="20,217.8203,24,221.8203,20,225.8203,16,221.8203" style="stroke:#B38D22;stroke-width:1.0;"/><text fill="#000000" font-family="sans-serif" font-size="11" lengthAdjust="spacing" text-decoration="underline" textLength="147" x="29" y="226.4551">getLogger() : TapjawLogger</text><!--MD5=[19bf86b96bfaa3bab18522b2cc172216]
class TapjawCommand--><rect codeLine="11" fill="#FEFECE" filter="url(#fxtpsjaazxaxb)" height="52.9551" id="TapjawCommand" style="stroke:#A80036;stroke-width:1.5;" width="233" x="299.5" y="7"/><ellipse cx="360.75" cy="23" fill="#B4A7E5" rx="11" ry="11" style="stroke:#A80036;stroke-width:1.0;"/><path d="M357.1777,19.2651 L357.1777,17.1069 L364.5571,17.1069 L364.5571,19.2651 L362.0918,19.2651 L362.0918,27.3418 L364.5571,27.3418 L364.5571,29.5 L357.1777,29.5 L357.1777,27.3418 L359.6431,27.3418 L359.6431,19.2651 Z " fill="#000000"/><text fill="#000000" font-family="sans-serif" font-size="12" font-style="italic" lengthAdjust="spacing" textLength="102" x="381.25" y="27.5352">TapjawCommand</text><line style="stroke:#A80036;stroke-width:1.5;" x1="300.5" x2="531.5" y1="39" y2="39"/><ellipse cx="310.5" cy="50" fill="#84BE84" rx="3" ry="3" style="stroke:#038048;stroke-width:1.0;"/><text fill="#000000" font-family="sans-serif" font-size="11" lengthAdjust="spacing" textLength="207" x="319.5" y="53.6348">run(args: unknown[]) : Promise&lt;void&gt;</text><!--MD5=[e8a6655938a474100190e74d6b365997]
reverse link TapjawCommand to TapjawApiCommand--><path codeLine="14" d="M416,80.35 C416,92.93 416,106.7 416,119.77 " fill="none" id="TapjawCommand-backto-TapjawApiCommand" style="stroke:#A80036;stroke-width:1.0;stroke-dasharray:7.0,7.0;"/><polygon fill="none" points="409,80.03,416,60.03,423,80.03,409,80.03" style="stroke:#A80036;stroke-width:1.0;"/><!--MD5=[fb66c55a327a8dcb91df20a43181694c]
@startuml
skinparam BackgroundColor transparent
hide empty methods
hide empty fields
abstract class "TapjawApiCommand" {
    #iterator : TapjawIterator
    {static} +register(program: Command) : void
    +run<T>(args: TapjawCommandArgs<unknown>, flags: T & TapjawCommandDefaultFlags<unknown>) : Promise<void>
    {abstract} #getAdapterCallback(args: TapjawCommandArgs<unknown>, flags: TapjawCommandFlags<unknown>) : TapjawAdapterCallback<TapjawMessage>
    {static} #getLogger() : TapjawLogger
}
interface "TapjawCommand" {
    +run(args: unknown[]) : Promise<void>
}
"TapjawCommand" <|.. "TapjawApiCommand"
@enduml

PlantUML version 1.2021.6(Fri May 14 09:09:51 CEST 2021)
(GPL source distribution)
Java Runtime: OpenJDK Runtime Environment
JVM: OpenJDK 64-Bit Server VM
Default Encoding: UTF-8
Language: en
Country: GB
--></g></svg>