<?xml version="1.0" encoding="UTF-8" standalone="no"?><svg xmlns="http://www.w3.org/2000/svg" xmlns:xlink="http://www.w3.org/1999/xlink" contentScriptType="application/ecmascript" contentStyleType="text/css" height="350px" preserveAspectRatio="none" style="width:1247px;height:350px;background:#00000000;" version="1.1" viewBox="0 0 1247 350" width="1247px" zoomAndPan="magnify"><defs><filter height="300%" id="fkepvzpxd423q" width="300%" x="-1" y="-1"><feGaussianBlur result="blurOut" stdDeviation="2.0"/><feColorMatrix in="blurOut" result="blurOut2" type="matrix" values="0 0 0 0 0 0 0 0 0 0 0 0 0 0 0 0 0 0 .4 0"/><feOffset dx="4.0" dy="4.0" in="blurOut2" result="blurOut3"/><feBlend in="SourceGraphic" in2="blurOut3" mode="normal"/></filter></defs><g><!--MD5=[0fd45f15200610a59eaf5b86e47d7a14]
class TapjawAuthenticator<T>--><rect codeLine="4" fill="#FEFECE" filter="url(#fkepvzpxd423q)" height="65.9102" id="TapjawAuthenticator&lt;T&gt;" style="stroke:#A80036;stroke-width:1.5;" width="179" x="547.5" y="7"/><ellipse cx="562.5" cy="23" fill="#B4A7E5" rx="11" ry="11" style="stroke:#A80036;stroke-width:1.0;"/><path d="M558.9277,19.2651 L558.9277,17.1069 L566.3071,17.1069 L566.3071,19.2651 L563.8418,19.2651 L563.8418,27.3418 L566.3071,27.3418 L566.3071,29.5 L558.9277,29.5 L558.9277,27.3418 L561.3931,27.3418 L561.3931,19.2651 Z " fill="#000000"/><text fill="#000000" font-family="sans-serif" font-size="12" font-style="italic" lengthAdjust="spacing" textLength="147" x="576.5" y="27.5352">TapjawAuthenticator&lt;T&gt;</text><line style="stroke:#A80036;stroke-width:1.5;" x1="548.5" x2="725.5" y1="39" y2="39"/><ellipse cx="558.5" cy="50" fill="#84BE84" rx="3" ry="3" style="stroke:#038048;stroke-width:1.0;"/><text fill="#000000" font-family="sans-serif" font-size="11" lengthAdjust="spacing" textLength="151" x="567.5" y="53.6348">authenticate() : Promise&lt;T&gt;</text><ellipse cx="558.5" cy="62.9551" fill="#84BE84" rx="3" ry="3" style="stroke:#038048;stroke-width:1.0;"/><text fill="#000000" font-family="sans-serif" font-size="11" lengthAdjust="spacing" textLength="144" x="567.5" y="66.5898">isAuthenticated() : boolean</text><!--MD5=[737eeb22b905e9f15237dcd0f02bdb69]
class BasicAuthAuthenticator--><rect codeLine="8" fill="#FEFECE" filter="url(#fkepvzpxd423q)" height="125.7305" id="BasicAuthAuthenticator" style="stroke:#A80036;stroke-width:1.5;" width="288" x="9" y="171.5"/><ellipse cx="83.25" cy="187.5" fill="#ADD1B2" rx="11" ry="11" style="stroke:#A80036;stroke-width:1.0;"/><path d="M85.7231,193.6431 Q85.1421,193.9419 84.5029,194.0913 Q83.8638,194.2407 83.1582,194.2407 Q80.6514,194.2407 79.3315,192.5889 Q78.0117,190.937 78.0117,187.8159 Q78.0117,184.6865 79.3315,183.0347 Q80.6514,181.3828 83.1582,181.3828 Q83.8638,181.3828 84.5112,181.5322 Q85.1587,181.6816 85.7231,181.9805 L85.7231,184.7031 Q85.0923,184.1221 84.4988,183.8523 Q83.9053,183.5825 83.2744,183.5825 Q81.9297,183.5825 81.2449,184.6492 Q80.5601,185.7158 80.5601,187.8159 Q80.5601,189.9077 81.2449,190.9744 Q81.9297,192.041 83.2744,192.041 Q83.9053,192.041 84.4988,191.7712 Q85.0923,191.5015 85.7231,190.9204 Z " fill="#000000"/><text fill="#000000" font-family="sans-serif" font-size="12" lengthAdjust="spacing" textLength="131" x="103.75" y="192.0352">BasicAuthAuthenticator</text><line style="stroke:#A80036;stroke-width:1.5;" x1="10" x2="296" y1="203.5" y2="203.5"/><polygon fill="none" points="20,209.5,24,213.5,20,217.5,16,213.5" style="stroke:#B38D22;stroke-width:1.0;"/><text fill="#000000" font-family="sans-serif" font-size="11" lengthAdjust="spacing" textLength="93" x="29" y="218.1348">password : string</text><polygon fill="none" points="20,222.4551,24,226.4551,20,230.4551,16,226.4551" style="stroke:#B38D22;stroke-width:1.0;"/><text fill="#000000" font-family="sans-serif" font-size="11" lengthAdjust="spacing" textLength="94" x="29" y="231.0898">username : string</text><rect fill="none" height="6" style="stroke:#C82930;stroke-width:1.0;" width="6" x="17" y="237.4102"/><text fill="#000000" font-family="sans-serif" font-size="11" lengthAdjust="spacing" textLength="125" x="29" y="244.0449">authenticated : boolean</text><rect fill="none" height="6" style="stroke:#C82930;stroke-width:1.0;" width="6" x="17" y="250.3652"/><text fill="#000000" font-family="sans-serif" font-size="11" lengthAdjust="spacing" textLength="170" x="29" y="257">headers : AuthorizationHeaders</text><line style="stroke:#A80036;stroke-width:1.5;" x1="10" x2="296" y1="263.3203" y2="263.3203"/><ellipse cx="20" cy="274.3203" fill="#84BE84" rx="3" ry="3" style="stroke:#038048;stroke-width:1.0;"/><text fill="#000000" font-family="sans-serif" font-size="11" lengthAdjust="spacing" textLength="262" x="29" y="277.9551">authenticate() : Promise&lt;AuthorizationHeaders&gt;</text><ellipse cx="20" cy="287.2754" fill="#84BE84" rx="3" ry="3" style="stroke:#038048;stroke-width:1.0;"/><text fill="#000000" font-family="sans-serif" font-size="11" lengthAdjust="spacing" textLength="144" x="29" y="290.9102">isAuthenticated() : boolean</text><!--MD5=[4091885883347d6230482329675d8870]
class BearerAuthAuthenticator--><rect codeLine="17" fill="#FEFECE" filter="url(#fkepvzpxd423q)" height="112.7754" id="BearerAuthAuthenticator" style="stroke:#A80036;stroke-width:1.5;" width="288" x="332" y="178"/><ellipse cx="401.75" cy="194" fill="#ADD1B2" rx="11" ry="11" style="stroke:#A80036;stroke-width:1.0;"/><path d="M404.2231,200.1431 Q403.6421,200.4419 403.0029,200.5913 Q402.3638,200.7407 401.6582,200.7407 Q399.1514,200.7407 397.8315,199.0889 Q396.5117,197.437 396.5117,194.3159 Q396.5117,191.1865 397.8315,189.5347 Q399.1514,187.8828 401.6582,187.8828 Q402.3638,187.8828 403.0112,188.0322 Q403.6587,188.1816 404.2231,188.4805 L404.2231,191.2031 Q403.5923,190.6221 402.9988,190.3523 Q402.4053,190.0825 401.7744,190.0825 Q400.4297,190.0825 399.7449,191.1492 Q399.0601,192.2158 399.0601,194.3159 Q399.0601,196.4077 399.7449,197.4744 Q400.4297,198.541 401.7744,198.541 Q402.4053,198.541 402.9988,198.2712 Q403.5923,198.0015 404.2231,197.4204 Z " fill="#000000"/><text fill="#000000" font-family="sans-serif" font-size="12" lengthAdjust="spacing" textLength="140" x="422.25" y="198.5352">BearerAuthAuthenticator</text><line style="stroke:#A80036;stroke-width:1.5;" x1="333" x2="619" y1="210" y2="210"/><polygon fill="none" points="343,216,347,220,343,224,339,220" style="stroke:#B38D22;stroke-width:1.0;"/><text fill="#000000" font-family="sans-serif" font-size="11" lengthAdjust="spacing" textLength="109" x="352" y="224.6348">bearerToken : string</text><rect fill="none" height="6" style="stroke:#C82930;stroke-width:1.0;" width="6" x="340" y="230.9551"/><text fill="#000000" font-family="sans-serif" font-size="11" lengthAdjust="spacing" textLength="125" x="352" y="237.5898">authenticated : boolean</text><rect fill="none" height="6" style="stroke:#C82930;stroke-width:1.0;" width="6" x="340" y="243.9102"/><text fill="#000000" font-family="sans-serif" font-size="11" lengthAdjust="spacing" textLength="164" x="352" y="250.5449">header : AuthorizationHeaders</text><line style="stroke:#A80036;stroke-width:1.5;" x1="333" x2="619" y1="256.8652" y2="256.8652"/><ellipse cx="343" cy="267.8652" fill="#84BE84" rx="3" ry="3" style="stroke:#038048;stroke-width:1.0;"/><text fill="#000000" font-family="sans-serif" font-size="11" lengthAdjust="spacing" textLength="262" x="352" y="271.5">authenticate() : Promise&lt;AuthorizationHeaders&gt;</text><ellipse cx="343" cy="280.8203" fill="#84BE84" rx="3" ry="3" style="stroke:#038048;stroke-width:1.0;"/><text fill="#000000" font-family="sans-serif" font-size="11" lengthAdjust="spacing" textLength="144" x="352" y="284.4551">isAuthenticated() : boolean</text><!--MD5=[3cd273bad8a0cb8c19bcdf7254ef2dac]
class JWTBearerAuthAuthenticator--><rect codeLine="25" fill="#FEFECE" filter="url(#fkepvzpxd423q)" height="99.8203" id="JWTBearerAuthAuthenticator" style="stroke:#A80036;stroke-width:1.5;" width="288" x="655" y="184.5"/><ellipse cx="713.75" cy="200.5" fill="#ADD1B2" rx="11" ry="11" style="stroke:#A80036;stroke-width:1.0;"/><path d="M716.2231,206.6431 Q715.6421,206.9419 715.0029,207.0913 Q714.3638,207.2407 713.6582,207.2407 Q711.1514,207.2407 709.8315,205.5889 Q708.5117,203.937 708.5117,200.8159 Q708.5117,197.6865 709.8315,196.0347 Q711.1514,194.3828 713.6582,194.3828 Q714.3638,194.3828 715.0112,194.5322 Q715.6587,194.6816 716.2231,194.9805 L716.2231,197.7031 Q715.5923,197.1221 714.9988,196.8523 Q714.4053,196.5825 713.7744,196.5825 Q712.4297,196.5825 711.7449,197.6492 Q711.0601,198.7158 711.0601,200.8159 Q711.0601,202.9077 711.7449,203.9744 Q712.4297,205.041 713.7744,205.041 Q714.4053,205.041 714.9988,204.7712 Q715.5923,204.5015 716.2231,203.9204 Z " fill="#000000"/><text fill="#000000" font-family="sans-serif" font-size="12" lengthAdjust="spacing" textLength="162" x="734.25" y="205.0352">JWTBearerAuthAuthenticator</text><line style="stroke:#A80036;stroke-width:1.5;" x1="656" x2="942" y1="216.5" y2="216.5"/><polygon fill="none" points="666,222.5,670,226.5,666,230.5,662,226.5" style="stroke:#B38D22;stroke-width:1.0;"/><text fill="#000000" font-family="sans-serif" font-size="11" lengthAdjust="spacing" textLength="117" x="675" y="231.1348">jwtBuilder : JWTBuilder</text><rect fill="none" height="6" style="stroke:#C82930;stroke-width:1.0;" width="6" x="663" y="237.4551"/><text fill="#000000" font-family="sans-serif" font-size="11" lengthAdjust="spacing" textLength="125" x="675" y="244.0898">authenticated : boolean</text><line style="stroke:#A80036;stroke-width:1.5;" x1="656" x2="942" y1="250.4102" y2="250.4102"/><ellipse cx="666" cy="261.4102" fill="#84BE84" rx="3" ry="3" style="stroke:#038048;stroke-width:1.0;"/><text fill="#000000" font-family="sans-serif" font-size="11" lengthAdjust="spacing" textLength="262" x="675" y="265.0449">authenticate() : Promise&lt;AuthorizationHeaders&gt;</text><ellipse cx="666" cy="274.3652" fill="#84BE84" rx="3" ry="3" style="stroke:#038048;stroke-width:1.0;"/><text fill="#000000" font-family="sans-serif" font-size="11" lengthAdjust="spacing" textLength="144" x="675" y="278">isAuthenticated() : boolean</text><!--MD5=[b4b69a192bef2638464d20bdde1c1816]
class OAuthAuthenticator--><rect codeLine="32" fill="#FEFECE" filter="url(#fkepvzpxd423q)" height="203.4609" id="OAuthAuthenticator" style="stroke:#A80036;stroke-width:1.5;" width="255" x="978.5" y="133"/><ellipse cx="1046.25" cy="149" fill="#ADD1B2" rx="11" ry="11" style="stroke:#A80036;stroke-width:1.0;"/><path d="M1048.7231,155.1431 Q1048.1421,155.4419 1047.5029,155.5913 Q1046.8638,155.7407 1046.1582,155.7407 Q1043.6514,155.7407 1042.3315,154.0889 Q1041.0117,152.437 1041.0117,149.3159 Q1041.0117,146.1865 1042.3315,144.5347 Q1043.6514,142.8828 1046.1582,142.8828 Q1046.8638,142.8828 1047.5112,143.0322 Q1048.1587,143.1816 1048.7231,143.4805 L1048.7231,146.2031 Q1048.0923,145.6221 1047.4988,145.3523 Q1046.9053,145.0825 1046.2744,145.0825 Q1044.9297,145.0825 1044.2449,146.1492 Q1043.5601,147.2158 1043.5601,149.3159 Q1043.5601,151.4077 1044.2449,152.4744 Q1044.9297,153.541 1046.2744,153.541 Q1046.9053,153.541 1047.4988,153.2712 Q1048.0923,153.0015 1048.7231,152.4204 Z " fill="#000000"/><text fill="#000000" font-family="sans-serif" font-size="12" lengthAdjust="spacing" textLength="111" x="1066.75" y="153.5352">OAuthAuthenticator</text><line style="stroke:#A80036;stroke-width:1.5;" x1="979.5" x2="1232.5" y1="165" y2="165"/><polygon fill="none" points="989.5,171,993.5,175,989.5,179,985.5,175" style="stroke:#B38D22;stroke-width:1.0;"/><text fill="#000000" font-family="sans-serif" font-size="11" lengthAdjust="spacing" textLength="80" x="998.5" y="179.6348">clientId : string</text><polygon fill="none" points="989.5,183.9551,993.5,187.9551,989.5,191.9551,985.5,187.9551" style="stroke:#B38D22;stroke-width:1.0;"/><text fill="#000000" font-family="sans-serif" font-size="11" lengthAdjust="spacing" textLength="103" x="998.5" y="192.5898">clientSecret : string</text><polygon fill="none" points="989.5,196.9102,993.5,200.9102,989.5,204.9102,985.5,200.9102" style="stroke:#B38D22;stroke-width:1.0;"/><text fill="#000000" font-family="sans-serif" font-size="11" lengthAdjust="spacing" textLength="94" x="998.5" y="205.5449">hostname : string</text><polygon fill="none" points="989.5,209.8652,993.5,213.8652,989.5,217.8652,985.5,213.8652" style="stroke:#B38D22;stroke-width:1.0;"/><text fill="#000000" font-family="sans-serif" font-size="11" lengthAdjust="spacing" textLength="82" x="998.5" y="218.5">method : string</text><polygon fill="none" points="989.5,222.8203,993.5,226.8203,989.5,230.8203,985.5,226.8203" style="stroke:#B38D22;stroke-width:1.0;"/><text fill="#000000" font-family="sans-serif" font-size="11" lengthAdjust="spacing" textLength="65" x="998.5" y="231.4551">path : string</text><polygon fill="none" points="989.5,235.7754,993.5,239.7754,989.5,243.7754,985.5,239.7754" style="stroke:#B38D22;stroke-width:1.0;"/><text fill="#000000" font-family="sans-serif" font-size="11" lengthAdjust="spacing" textLength="185" x="998.5" y="244.4102">postParams : ParsedUrlQueryInput</text><polygon fill="none" points="989.5,248.7305,993.5,252.7305,989.5,256.7305,985.5,252.7305" style="stroke:#B38D22;stroke-width:1.0;"/><text fill="#000000" font-family="sans-serif" font-size="11" lengthAdjust="spacing" textLength="191" x="998.5" y="257.3652">responseEncoding : BufferEncoding</text><rect fill="none" height="6" style="stroke:#C82930;stroke-width:1.0;" width="6" x="986.5" y="263.6855"/><text fill="#000000" font-family="sans-serif" font-size="11" lengthAdjust="spacing" textLength="125" x="998.5" y="270.3203">authenticated : boolean</text><rect fill="none" height="6" style="stroke:#C82930;stroke-width:1.0;" width="6" x="986.5" y="276.6406"/><text fill="#000000" font-family="sans-serif" font-size="11" lengthAdjust="spacing" textLength="195" x="998.5" y="283.2754">lastResponse : null | OauthResponse</text><line style="stroke:#A80036;stroke-width:1.5;" x1="979.5" x2="1232.5" y1="289.5957" y2="289.5957"/><ellipse cx="989.5" cy="300.5957" fill="#84BE84" rx="3" ry="3" style="stroke:#038048;stroke-width:1.0;"/><text fill="#000000" font-family="sans-serif" font-size="11" lengthAdjust="spacing" textLength="229" x="998.5" y="304.2305">authenticate() : Promise&lt;OauthResponse&gt;</text><ellipse cx="989.5" cy="313.5508" fill="#84BE84" rx="3" ry="3" style="stroke:#038048;stroke-width:1.0;"/><text fill="#000000" font-family="sans-serif" font-size="11" lengthAdjust="spacing" textLength="223" x="998.5" y="317.1855">getLastResponse() : null | OauthResponse</text><ellipse cx="989.5" cy="326.5059" fill="#84BE84" rx="3" ry="3" style="stroke:#038048;stroke-width:1.0;"/><text fill="#000000" font-family="sans-serif" font-size="11" lengthAdjust="spacing" textLength="144" x="998.5" y="330.1406">isAuthenticated() : boolean</text><!--MD5=[94a16e98a773e015a4aacd26dd555525]
reverse link TapjawAuthenticator<T> to BasicAuthAuthenticator--><path codeLine="16" d="M527.61,64.06 C463.77,79.49 382.55,102.57 314,133 C289.91,143.69 265.15,157.52 242.5,171.47 " fill="none" id="TapjawAuthenticator&lt;T&gt;-backto-BasicAuthAuthenticator" style="stroke:#A80036;stroke-width:1.0;stroke-dasharray:7.0,7.0;"/><polygon fill="none" points="526.19,57.2,547.26,59.42,529.4,70.83,526.19,57.2" style="stroke:#A80036;stroke-width:1.0;"/><!--MD5=[0fa47937970ec207d394e1566a41b30c]
reverse link TapjawAuthenticator<T> to BearerAuthAuthenticator--><path codeLine="24" d="M597.17,88.62 C574.59,115.62 546.22,149.54 522.61,177.77 " fill="none" id="TapjawAuthenticator&lt;T&gt;-backto-BearerAuthAuthenticator" style="stroke:#A80036;stroke-width:1.0;stroke-dasharray:7.0,7.0;"/><polygon fill="none" points="591.85,84.07,610.05,73.22,602.59,93.05,591.85,84.07" style="stroke:#A80036;stroke-width:1.0;"/><!--MD5=[6a086fb91f8c0c27b0f63fa88923b242]
reverse link TapjawAuthenticator<T> to JWTBearerAuthAuthenticator--><path codeLine="31" d="M677.27,88.86 C701.71,117.89 732.83,154.87 757.49,184.17 " fill="none" id="TapjawAuthenticator&lt;T&gt;-backto-JWTBearerAuthAuthenticator" style="stroke:#A80036;stroke-width:1.0;stroke-dasharray:7.0,7.0;"/><polygon fill="none" points="671.64,93.03,664.12,73.22,682.35,84.02,671.64,93.03" style="stroke:#A80036;stroke-width:1.0;"/><!--MD5=[37084fbf4d598d6e174f3a9fd4a6115a]
reverse link TapjawAuthenticator<T> to OAuthAuthenticator--><path codeLine="46" d="M746.61,62.64 C810.95,77.64 892.75,100.76 961,133 C966.82,135.75 972.65,138.72 978.47,141.86 " fill="none" id="TapjawAuthenticator&lt;T&gt;-backto-OAuthAuthenticator" style="stroke:#A80036;stroke-width:1.0;stroke-dasharray:7.0,7.0;"/><polygon fill="none" points="744.77,69.4,726.81,58.15,747.86,55.75,744.77,69.4" style="stroke:#A80036;stroke-width:1.0;"/><!--MD5=[8f67b8ca9121766700a1e62ac7d8826e]
@startuml
skinparam BackgroundColor transparent
hide empty methods
hide empty fields
interface "TapjawAuthenticator<T>" {
    +authenticate() : Promise<T>
    +isAuthenticated() : boolean
}
class "BasicAuthAuthenticator" {
    #password : string
    #username : string
    -authenticated : boolean
    -headers : AuthorizationHeaders
    +authenticate() : Promise<AuthorizationHeaders>
    +isAuthenticated() : boolean
}
"TapjawAuthenticator<T>" <|.. "BasicAuthAuthenticator"
class "BearerAuthAuthenticator" {
    #bearerToken : string
    -authenticated : boolean
    -header : AuthorizationHeaders
    +authenticate() : Promise<AuthorizationHeaders>
    +isAuthenticated() : boolean
}
"TapjawAuthenticator<T>" <|.. "BearerAuthAuthenticator"
class "JWTBearerAuthAuthenticator" {
    #jwtBuilder : JWTBuilder
    -authenticated : boolean
    +authenticate() : Promise<AuthorizationHeaders>
    +isAuthenticated() : boolean
}
"TapjawAuthenticator<T>" <|.. "JWTBearerAuthAuthenticator"
class "OAuthAuthenticator" {
    #clientId : string
    #clientSecret : string
    #hostname : string
    #method : string
    #path : string
    #postParams : ParsedUrlQueryInput
    #responseEncoding : BufferEncoding
    -authenticated : boolean
    -lastResponse : null | OauthResponse
    +authenticate() : Promise<OauthResponse>
    +getLastResponse() : null | OauthResponse
    +isAuthenticated() : boolean
}
"TapjawAuthenticator<T>" <|.. "OAuthAuthenticator"
@enduml

PlantUML version 1.2021.6(Fri May 14 09:09:51 CEST 2021)
(GPL source distribution)
Java Runtime: OpenJDK Runtime Environment
JVM: OpenJDK 64-Bit Server VM
Default Encoding: UTF-8
Language: en
Country: GB
--></g></svg>