<?xml version="1.0" encoding="UTF-8" standalone="no"?><svg xmlns="http://www.w3.org/2000/svg" xmlns:xlink="http://www.w3.org/1999/xlink" contentScriptType="application/ecmascript" contentStyleType="text/css" height="298px" preserveAspectRatio="none" style="width:2450px;height:298px;background:#00000000;" version="1.1" viewBox="0 0 2450 298" width="2450px" zoomAndPan="magnify"><defs><filter height="300%" id="f1e922j4t5yajr" width="300%" x="-1" y="-1"><feGaussianBlur result="blurOut" stdDeviation="2.0"/><feColorMatrix in="blurOut" result="blurOut2" type="matrix" values="0 0 0 0 0 0 0 0 0 0 0 0 0 0 0 0 0 0 .4 0"/><feOffset dx="4.0" dy="4.0" in="blurOut2" result="blurOut3"/><feBlend in="SourceGraphic" in2="blurOut3" mode="normal"/></filter></defs><g><!--MD5=[19bf86b96bfaa3bab18522b2cc172216]
class TapjawCommand--><rect codeLine="4" fill="#FEFECE" filter="url(#f1e922j4t5yajr)" height="52.9551" id="TapjawCommand" style="stroke:#A80036;stroke-width:1.5;" width="233" x="1313.5" y="7"/><ellipse cx="1374.75" cy="23" fill="#B4A7E5" rx="11" ry="11" style="stroke:#A80036;stroke-width:1.0;"/><path d="M1371.1777,19.2651 L1371.1777,17.1069 L1378.5571,17.1069 L1378.5571,19.2651 L1376.0918,19.2651 L1376.0918,27.3418 L1378.5571,27.3418 L1378.5571,29.5 L1371.1777,29.5 L1371.1777,27.3418 L1373.6431,27.3418 L1373.6431,19.2651 Z " fill="#000000"/><text fill="#000000" font-family="sans-serif" font-size="12" font-style="italic" lengthAdjust="spacing" textLength="102" x="1395.25" y="27.5352">TapjawCommand</text><line style="stroke:#A80036;stroke-width:1.5;" x1="1314.5" x2="1545.5" y1="39" y2="39"/><ellipse cx="1324.5" cy="50" fill="#84BE84" rx="3" ry="3" style="stroke:#038048;stroke-width:1.0;"/><text fill="#000000" font-family="sans-serif" font-size="11" lengthAdjust="spacing" textLength="207" x="1333.5" y="53.6348">run(args: unknown[]) : Promise&lt;void&gt;</text><!--MD5=[780ffde38834e662f62a5d646d249416]
class TapjawApiCommand--><rect codeLine="7" fill="#FEFECE" filter="url(#f1e922j4t5yajr)" height="112.7754" id="TapjawApiCommand" style="stroke:#A80036;stroke-width:1.5;" width="814" x="9" y="146"/><ellipse cx="351.25" cy="162" fill="#A9DCDF" rx="11" ry="11" style="stroke:#A80036;stroke-width:1.0;"/><path d="M351.1133,157.3481 L349.9595,162.4199 L352.2754,162.4199 Z M349.6191,155.1069 L352.6157,155.1069 L355.9609,167.5 L353.5122,167.5 L352.7485,164.437 L349.4697,164.437 L348.7227,167.5 L346.2739,167.5 Z " fill="#000000"/><text fill="#000000" font-family="sans-serif" font-size="12" font-style="italic" lengthAdjust="spacing" textLength="121" x="371.75" y="166.5352">TapjawApiCommand</text><line style="stroke:#A80036;stroke-width:1.5;" x1="10" x2="822" y1="178" y2="178"/><polygon fill="none" points="20,184,24,188,20,192,16,188" style="stroke:#B38D22;stroke-width:1.0;"/><text fill="#000000" font-family="sans-serif" font-size="11" lengthAdjust="spacing" textLength="126" x="29" y="192.6348">iterator : TapjawIterator</text><line style="stroke:#A80036;stroke-width:1.5;" x1="10" x2="822" y1="198.9551" y2="198.9551"/><ellipse cx="20" cy="209.9551" fill="#84BE84" rx="3" ry="3" style="stroke:#038048;stroke-width:1.0;"/><text fill="#000000" font-family="sans-serif" font-size="11" lengthAdjust="spacing" text-decoration="underline" textLength="190" x="29" y="213.5898">register(program: Command) : void</text><ellipse cx="20" cy="222.9102" fill="#84BE84" rx="3" ry="3" style="stroke:#038048;stroke-width:1.0;"/><text fill="#000000" font-family="sans-serif" font-size="11" lengthAdjust="spacing" textLength="644" x="29" y="226.5449">run&lt;T&gt;(args: TapjawCommandArgs&lt;unknown&gt;, flags: T &amp; TapjawCommandDefaultFlags&lt;unknown&gt;) : Promise&lt;void&gt;</text><polygon fill="#FFFF44" points="20,230.8652,24,234.8652,20,238.8652,16,234.8652" style="stroke:#B38D22;stroke-width:1.0;"/><text fill="#000000" font-family="sans-serif" font-size="11" font-style="italic" lengthAdjust="spacing" textLength="788" x="29" y="239.5">getAdapterCallback(args: TapjawCommandArgs&lt;unknown&gt;, flags: TapjawCommandFlags&lt;unknown&gt;) : TapjawAdapterCallback&lt;TapjawMessage&gt;</text><polygon fill="#FFFF44" points="20,243.8203,24,247.8203,20,251.8203,16,247.8203" style="stroke:#B38D22;stroke-width:1.0;"/><text fill="#000000" font-family="sans-serif" font-size="11" lengthAdjust="spacing" text-decoration="underline" textLength="147" x="29" y="252.4551">getLogger() : TapjawLogger</text><!--MD5=[786b970dcd9b0356df190a74348f79ec]
class TapjawFilterCommand<T, M>--><rect codeLine="15" fill="#FEFECE" filter="url(#f1e922j4t5yajr)" height="164.5957" id="TapjawFilterCommand&lt;T, M&gt;" style="stroke:#A80036;stroke-width:1.5;" width="558" x="858" y="120"/><ellipse cx="1044.75" cy="136" fill="#A9DCDF" rx="11" ry="11" style="stroke:#A80036;stroke-width:1.0;"/><path d="M1044.6133,131.3481 L1043.4595,136.4199 L1045.7754,136.4199 Z M1043.1191,129.1069 L1046.1157,129.1069 L1049.4609,141.5 L1047.0122,141.5 L1046.2485,138.437 L1042.9697,138.437 L1042.2227,141.5 L1039.7739,141.5 Z " fill="#000000"/><text fill="#000000" font-family="sans-serif" font-size="12" font-style="italic" lengthAdjust="spacing" textLength="176" x="1065.25" y="140.5352">TapjawFilterCommand&lt;T, M&gt;</text><line style="stroke:#A80036;stroke-width:1.5;" x1="859" x2="1415" y1="152" y2="152"/><polygon fill="none" points="869,158,873,162,869,166,865,162" style="stroke:#B38D22;stroke-width:1.0;"/><text fill="#000000" font-family="sans-serif" font-size="11" lengthAdjust="spacing" textLength="176" x="878" y="166.6348">displayJsonParseErrors : boolean</text><polygon fill="none" points="869,170.9551,873,174.9551,869,178.9551,865,174.9551" style="stroke:#B38D22;stroke-width:1.0;"/><text fill="#000000" font-family="sans-serif" font-size="11" lengthAdjust="spacing" textLength="121" x="878" y="179.5898">stdin : ReadableStream</text><polygon fill="none" points="869,183.9102,873,187.9102,869,191.9102,865,187.9102" style="stroke:#B38D22;stroke-width:1.0;"/><text fill="#000000" font-family="sans-serif" font-size="11" lengthAdjust="spacing" textLength="124" x="878" y="192.5449">stdout : WritableStream</text><line style="stroke:#A80036;stroke-width:1.5;" x1="859" x2="1415" y1="198.8652" y2="198.8652"/><ellipse cx="869" cy="209.8652" fill="#84BE84" rx="3" ry="3" style="stroke:#038048;stroke-width:1.0;"/><text fill="#000000" font-family="sans-serif" font-size="11" lengthAdjust="spacing" text-decoration="underline" textLength="190" x="878" y="213.5">register(program: Command) : void</text><ellipse cx="869" cy="222.8203" fill="#84BE84" rx="3" ry="3" style="stroke:#038048;stroke-width:1.0;"/><text fill="#000000" font-family="sans-serif" font-size="11" lengthAdjust="spacing" textLength="380" x="878" y="226.4551">run(args: TapjawCommandArgs&lt;unknown&gt;, flags: T) : Promise&lt;void&gt;</text><polygon fill="#FFFF44" points="869,230.7754,873,234.7754,869,238.7754,865,234.7754" style="stroke:#B38D22;stroke-width:1.0;"/><text fill="#000000" font-family="sans-serif" font-size="11" lengthAdjust="spacing" textLength="125" x="878" y="239.4102">emit(message: M) : void</text><polygon fill="#FFFF44" points="869,243.7305,873,247.7305,869,251.7305,865,247.7305" style="stroke:#B38D22;stroke-width:1.0;"/><text fill="#000000" font-family="sans-serif" font-size="11" lengthAdjust="spacing" text-decoration="underline" textLength="147" x="878" y="252.3652">getLogger() : TapjawLogger</text><polygon fill="#FFFF44" points="869,256.6855,873,260.6855,869,264.6855,865,260.6855" style="stroke:#B38D22;stroke-width:1.0;"/><text fill="#000000" font-family="sans-serif" font-size="11" lengthAdjust="spacing" textLength="429" x="878" y="265.3203">onBeforeExit(args: TapjawCommandArgs&lt;unknown&gt;, flags: T) : Promise&lt;void&gt;</text><polygon fill="#FFFF44" points="869,269.6406,873,273.6406,869,277.6406,865,273.6406" style="stroke:#B38D22;stroke-width:1.0;"/><text fill="#000000" font-family="sans-serif" font-size="11" font-style="italic" lengthAdjust="spacing" textLength="532" x="878" y="278.2754">onMessageFilter(message: M, args: TapjawCommandArgs&lt;unknown&gt;, flags: T) : Promise&lt;null | M&gt;</text><!--MD5=[bac1bfd5b246508b37f5294abbc6785a]
class TapjawStoreCommand<T, M>--><rect codeLine="27" fill="#FEFECE" filter="url(#f1e922j4t5yajr)" height="138.6855" id="TapjawStoreCommand&lt;T, M&gt;" style="stroke:#A80036;stroke-width:1.5;" width="543" x="1451.5" y="133"/><ellipse cx="1630.25" cy="149" fill="#A9DCDF" rx="11" ry="11" style="stroke:#A80036;stroke-width:1.0;"/><path d="M1630.1133,144.3481 L1628.9595,149.4199 L1631.2754,149.4199 Z M1628.6191,142.1069 L1631.6157,142.1069 L1634.9609,154.5 L1632.5122,154.5 L1631.7485,151.437 L1628.4697,151.437 L1627.7227,154.5 L1625.2739,154.5 Z " fill="#000000"/><text fill="#000000" font-family="sans-serif" font-size="12" font-style="italic" lengthAdjust="spacing" textLength="177" x="1650.75" y="153.5352">TapjawStoreCommand&lt;T, M&gt;</text><line style="stroke:#A80036;stroke-width:1.5;" x1="1452.5" x2="1993.5" y1="165" y2="165"/><polygon fill="none" points="1462.5,171,1466.5,175,1462.5,179,1458.5,175" style="stroke:#B38D22;stroke-width:1.0;"/><text fill="#000000" font-family="sans-serif" font-size="11" lengthAdjust="spacing" textLength="176" x="1471.5" y="179.6348">displayJsonParseErrors : boolean</text><polygon fill="none" points="1462.5,183.9551,1466.5,187.9551,1462.5,191.9551,1458.5,187.9551" style="stroke:#B38D22;stroke-width:1.0;"/><text fill="#000000" font-family="sans-serif" font-size="11" lengthAdjust="spacing" textLength="121" x="1471.5" y="192.5898">stdin : ReadableStream</text><line style="stroke:#A80036;stroke-width:1.5;" x1="1452.5" x2="1993.5" y1="198.9102" y2="198.9102"/><ellipse cx="1462.5" cy="209.9102" fill="#84BE84" rx="3" ry="3" style="stroke:#038048;stroke-width:1.0;"/><text fill="#000000" font-family="sans-serif" font-size="11" lengthAdjust="spacing" text-decoration="underline" textLength="190" x="1471.5" y="213.5449">register(program: Command) : void</text><ellipse cx="1462.5" cy="222.8652" fill="#84BE84" rx="3" ry="3" style="stroke:#038048;stroke-width:1.0;"/><text fill="#000000" font-family="sans-serif" font-size="11" lengthAdjust="spacing" textLength="380" x="1471.5" y="226.5">run(args: TapjawCommandArgs&lt;unknown&gt;, flags: T) : Promise&lt;void&gt;</text><polygon fill="#FFFF44" points="1462.5,230.8203,1466.5,234.8203,1462.5,238.8203,1458.5,234.8203" style="stroke:#B38D22;stroke-width:1.0;"/><text fill="#000000" font-family="sans-serif" font-size="11" lengthAdjust="spacing" text-decoration="underline" textLength="147" x="1471.5" y="239.4551">getLogger() : TapjawLogger</text><polygon fill="#FFFF44" points="1462.5,243.7754,1466.5,247.7754,1462.5,251.7754,1458.5,247.7754" style="stroke:#B38D22;stroke-width:1.0;"/><text fill="#000000" font-family="sans-serif" font-size="11" lengthAdjust="spacing" textLength="429" x="1471.5" y="252.4102">onBeforeExit(args: TapjawCommandArgs&lt;unknown&gt;, flags: T) : Promise&lt;void&gt;</text><polygon fill="#FFFF44" points="1462.5,256.7305,1466.5,260.7305,1462.5,264.7305,1458.5,260.7305" style="stroke:#B38D22;stroke-width:1.0;"/><text fill="#000000" font-family="sans-serif" font-size="11" font-style="italic" lengthAdjust="spacing" textLength="517" x="1471.5" y="265.3652">onStoreMessage(message: M, args: TapjawCommandArgs&lt;unknown&gt;, flags: T) : Promise&lt;void&gt;</text><!--MD5=[1adcc79a4ab9ff3ad5bfa96060a9a37d]
class TapjawToolCommand<T>--><rect codeLine="37" fill="#FEFECE" filter="url(#f1e922j4t5yajr)" height="78.8652" id="TapjawToolCommand&lt;T&gt;" style="stroke:#A80036;stroke-width:1.5;" width="406" x="2030" y="163"/><ellipse cx="2151.25" cy="179" fill="#A9DCDF" rx="11" ry="11" style="stroke:#A80036;stroke-width:1.0;"/><path d="M2151.1133,174.3481 L2149.9595,179.4199 L2152.2754,179.4199 Z M2149.6191,172.1069 L2152.6157,172.1069 L2155.9609,184.5 L2153.5122,184.5 L2152.7485,181.437 L2149.4697,181.437 L2148.7227,184.5 L2146.2739,184.5 Z " fill="#000000"/><text fill="#000000" font-family="sans-serif" font-size="12" font-style="italic" lengthAdjust="spacing" textLength="155" x="2171.75" y="183.5352">TapjawToolCommand&lt;T&gt;</text><line style="stroke:#A80036;stroke-width:1.5;" x1="2031" x2="2435" y1="195" y2="195"/><ellipse cx="2041" cy="206" fill="#84BE84" rx="3" ry="3" style="stroke:#038048;stroke-width:1.0;"/><text fill="#000000" font-family="sans-serif" font-size="11" lengthAdjust="spacing" text-decoration="underline" textLength="190" x="2050" y="209.6348">register(program: Command) : void</text><ellipse cx="2041" cy="218.9551" fill="#84BE84" rx="3" ry="3" style="stroke:#038048;stroke-width:1.0;"/><text fill="#000000" font-family="sans-serif" font-size="11" font-style="italic" lengthAdjust="spacing" textLength="380" x="2050" y="222.5898">run(args: TapjawCommandArgs&lt;unknown&gt;, flags: T) : Promise&lt;void&gt;</text><polygon fill="#FFFF44" points="2041,226.9102,2045,230.9102,2041,234.9102,2037,230.9102" style="stroke:#B38D22;stroke-width:1.0;"/><text fill="#000000" font-family="sans-serif" font-size="11" lengthAdjust="spacing" text-decoration="underline" textLength="147" x="2050" y="235.5449">getLogger() : TapjawLogger</text><!--MD5=[e8a6655938a474100190e74d6b365997]
reverse link TapjawCommand to TapjawApiCommand--><path codeLine="14" d="M1293.15,52.52 C1173.39,68.71 994.85,93.91 840,120 C793.06,127.91 743.32,136.91 695.06,145.97 " fill="none" id="TapjawCommand-backto-TapjawApiCommand" style="stroke:#A80036;stroke-width:1.0;stroke-dasharray:7.0,7.0;"/><polygon fill="none" points="1292.57,45.53,1313.33,49.8,1294.44,59.4,1292.57,45.53" style="stroke:#A80036;stroke-width:1.0;"/><!--MD5=[b1948ab38ab3f21155c85993d591f127]
reverse link TapjawCommand to TapjawFilterCommand<T, M>--><path codeLine="26" d="M1367.48,70.13 C1341.81,84.76 1310.94,102.36 1280.27,119.84 " fill="none" id="TapjawCommand-backto-TapjawFilterCommand&lt;T, M&gt;" style="stroke:#A80036;stroke-width:1.0;stroke-dasharray:7.0,7.0;"/><polygon fill="none" points="1364.34,63.87,1385.18,60.05,1371.27,76.03,1364.34,63.87" style="stroke:#A80036;stroke-width:1.0;"/><!--MD5=[33e8499308f492900e7bf3a9114c0948]
reverse link TapjawCommand to TapjawStoreCommand<T, M>--><path codeLine="36" d="M1492.23,69.97 C1524.35,88.27 1564.65,111.25 1602.56,132.85 " fill="none" id="TapjawCommand-backto-TapjawStoreCommand&lt;T, M&gt;" style="stroke:#A80036;stroke-width:1.0;stroke-dasharray:7.0,7.0;"/><polygon fill="none" points="1488.73,76.03,1474.82,60.05,1495.66,63.87,1488.73,76.03" style="stroke:#A80036;stroke-width:1.0;"/><!--MD5=[2b7a51894ee4e21bc6bf5013d84a962a]
reverse link TapjawCommand to TapjawToolCommand<T>--><path codeLine="42" d="M1566.57,46.48 C1685.53,58.82 1861.97,81.76 2012,120 C2055.49,131.09 2102.31,147.65 2141.61,162.95 " fill="none" id="TapjawCommand-backto-TapjawToolCommand&lt;T&gt;" style="stroke:#A80036;stroke-width:1.0;stroke-dasharray:7.0,7.0;"/><polygon fill="none" points="1565.71,53.43,1546.52,44.44,1567.12,39.5,1565.71,53.43" style="stroke:#A80036;stroke-width:1.0;"/><!--MD5=[fdf3e5d52511a2cfe40d4fe41ab18524]
@startuml
skinparam BackgroundColor transparent
hide empty methods
hide empty fields
interface "TapjawCommand" {
    +run(args: unknown[]) : Promise<void>
}
abstract class "TapjawApiCommand" {
    #iterator : TapjawIterator
    {static} +register(program: Command) : void
    +run<T>(args: TapjawCommandArgs<unknown>, flags: T & TapjawCommandDefaultFlags<unknown>) : Promise<void>
    {abstract} #getAdapterCallback(args: TapjawCommandArgs<unknown>, flags: TapjawCommandFlags<unknown>) : TapjawAdapterCallback<TapjawMessage>
    {static} #getLogger() : TapjawLogger
}
"TapjawCommand" <|.. "TapjawApiCommand"
abstract class "TapjawFilterCommand<T, M>" {
    #displayJsonParseErrors : boolean
    #stdin : ReadableStream
    #stdout : WritableStream
    {static} +register(program: Command) : void
    +run(args: TapjawCommandArgs<unknown>, flags: T) : Promise<void>
    #emit(message: M) : void
    {static} #getLogger() : TapjawLogger
    #onBeforeExit(args: TapjawCommandArgs<unknown>, flags: T) : Promise<void>
    {abstract} #onMessageFilter(message: M, args: TapjawCommandArgs<unknown>, flags: T) : Promise<null | M>
}
"TapjawCommand" <|.. "TapjawFilterCommand<T, M>"
abstract class "TapjawStoreCommand<T, M>" {
    #displayJsonParseErrors : boolean
    #stdin : ReadableStream
    {static} +register(program: Command) : void
    +run(args: TapjawCommandArgs<unknown>, flags: T) : Promise<void>
    {static} #getLogger() : TapjawLogger
    #onBeforeExit(args: TapjawCommandArgs<unknown>, flags: T) : Promise<void>
    {abstract} #onStoreMessage(message: M, args: TapjawCommandArgs<unknown>, flags: T) : Promise<void>
}
"TapjawCommand" <|.. "TapjawStoreCommand<T, M>"
abstract class "TapjawToolCommand<T>" {
    {static} +register(program: Command) : void
    {abstract} +run(args: TapjawCommandArgs<unknown>, flags: T) : Promise<void>
    {static} #getLogger() : TapjawLogger
}
"TapjawCommand" <|.. "TapjawToolCommand<T>"
@enduml

PlantUML version 1.2021.6(Fri May 14 09:09:51 CEST 2021)
(GPL source distribution)
Java Runtime: Java(TM) SE Runtime Environment
JVM: Java HotSpot(TM) 64-Bit Server VM
Default Encoding: UTF-8
Language: en
Country: GB
--></g></svg>