<?xml version="1.0" encoding="UTF-8" standalone="no"?><svg xmlns="http://www.w3.org/2000/svg" xmlns:xlink="http://www.w3.org/1999/xlink" contentScriptType="application/ecmascript" contentStyleType="text/css" height="277px" preserveAspectRatio="none" style="width:185px;height:277px;background:#00000000;" version="1.1" viewBox="0 0 185 277" width="185px" zoomAndPan="magnify"><defs><filter height="300%" id="ft5r9t4dh3zly" width="300%" x="-1" y="-1"><feGaussianBlur result="blurOut" stdDeviation="2.0"/><feColorMatrix in="blurOut" result="blurOut2" type="matrix" values="0 0 0 0 0 0 0 0 0 0 0 0 0 0 0 0 0 0 .4 0"/><feOffset dx="4.0" dy="4.0" in="blurOut2" result="blurOut3"/><feBlend in="SourceGraphic" in2="blurOut3" mode="normal"/></filter></defs><g><!--MD5=[f187432cd6c747deb1be76e53fec868e]
class TcpSocketConnectOpts--><rect codeLine="4" fill="#FEFECE" filter="url(#ft5r9t4dh3zly)" height="143.6406" id="TcpSocketConnectOpts" style="stroke:#A80036;stroke-width:1.5;" width="164" x="7" y="120"/><ellipse cx="22" cy="136" fill="#B4A7E5" rx="11" ry="11" style="stroke:#A80036;stroke-width:1.0;"/><path d="M18.4277,132.2651 L18.4277,130.1069 L25.8071,130.1069 L25.8071,132.2651 L23.3418,132.2651 L23.3418,140.3418 L25.8071,140.3418 L25.8071,142.5 L18.4277,142.5 L18.4277,140.3418 L20.8931,140.3418 L20.8931,132.2651 Z " fill="#000000"/><text fill="#000000" font-family="sans-serif" font-size="12" font-style="italic" lengthAdjust="spacing" textLength="132" x="36" y="140.5352">TcpSocketConnectOpts</text><line style="stroke:#A80036;stroke-width:1.5;" x1="8" x2="170" y1="152" y2="152"/><ellipse cx="18" cy="163" rx="3" ry="3" style="stroke:#038048;stroke-width:1.0;fill:none;"/><text fill="#000000" font-family="sans-serif" font-size="11" lengthAdjust="spacing" textLength="83" x="27" y="166.6348">family : number</text><ellipse cx="18" cy="175.9551" rx="3" ry="3" style="stroke:#038048;stroke-width:1.0;fill:none;"/><text fill="#000000" font-family="sans-serif" font-size="11" lengthAdjust="spacing" textLength="78" x="27" y="179.5898">hints : number</text><ellipse cx="18" cy="188.9102" rx="3" ry="3" style="stroke:#038048;stroke-width:1.0;fill:none;"/><text fill="#000000" font-family="sans-serif" font-size="11" lengthAdjust="spacing" textLength="65" x="27" y="192.5449">host : string</text><ellipse cx="18" cy="201.8652" rx="3" ry="3" style="stroke:#038048;stroke-width:1.0;fill:none;"/><text fill="#000000" font-family="sans-serif" font-size="11" lengthAdjust="spacing" textLength="111" x="27" y="205.5">localAddress : string</text><ellipse cx="18" cy="214.8203" rx="3" ry="3" style="stroke:#038048;stroke-width:1.0;fill:none;"/><text fill="#000000" font-family="sans-serif" font-size="11" lengthAdjust="spacing" textLength="98" x="27" y="218.4551">localPort : number</text><ellipse cx="18" cy="227.7754" rx="3" ry="3" style="stroke:#038048;stroke-width:1.0;fill:none;"/><text fill="#000000" font-family="sans-serif" font-size="11" lengthAdjust="spacing" textLength="133" x="27" y="231.4102">lookup : LookupFunction</text><ellipse cx="18" cy="240.7305" rx="3" ry="3" style="stroke:#038048;stroke-width:1.0;fill:none;"/><text fill="#000000" font-family="sans-serif" font-size="11" lengthAdjust="spacing" textLength="115" x="27" y="244.3652">onread : OnReadOpts</text><ellipse cx="18" cy="253.6855" rx="3" ry="3" style="stroke:#038048;stroke-width:1.0;fill:none;"/><text fill="#000000" font-family="sans-serif" font-size="11" lengthAdjust="spacing" textLength="74" x="27" y="257.3203">port : number</text><!--MD5=[ad47ceb0fb00333cf3e20c58c7a8c301]
class ConnectOpts--><rect codeLine="14" fill="#FEFECE" filter="url(#ft5r9t4dh3zly)" height="52.9551" id="ConnectOpts" style="stroke:#A80036;stroke-width:1.5;" width="141" x="18.5" y="7"/><ellipse cx="49.7" cy="23" fill="#B4A7E5" rx="11" ry="11" style="stroke:#A80036;stroke-width:1.0;"/><path d="M46.1277,19.2651 L46.1277,17.1069 L53.5071,17.1069 L53.5071,19.2651 L51.0418,19.2651 L51.0418,27.3418 L53.5071,27.3418 L53.5071,29.5 L46.1277,29.5 L46.1277,27.3418 L48.5931,27.3418 L48.5931,19.2651 Z " fill="#000000"/><text fill="#000000" font-family="sans-serif" font-size="12" font-style="italic" lengthAdjust="spacing" textLength="73" x="67.3" y="27.5352">ConnectOpts</text><line style="stroke:#A80036;stroke-width:1.5;" x1="19.5" x2="158.5" y1="39" y2="39"/><ellipse cx="29.5" cy="50" rx="3" ry="3" style="stroke:#038048;stroke-width:1.0;fill:none;"/><text fill="#000000" font-family="sans-serif" font-size="11" lengthAdjust="spacing" textLength="115" x="38.5" y="53.6348">onread : OnReadOpts</text><!--MD5=[4f447db8c93f44ccb12accbb03455ba8]
reverse link ConnectOpts to TcpSocketConnectOpts--><path codeLine="17" d="M89,80.75 C89,93.03 89,106.58 89,119.86 " fill="none" id="ConnectOpts-backto-TcpSocketConnectOpts" style="stroke:#A80036;stroke-width:1.0;"/><polygon fill="none" points="82,80.34,89,60.34,96,80.34,82,80.34" style="stroke:#A80036;stroke-width:1.0;"/><!--MD5=[c4533c0598ebe5b3fcb6e68cbcf47f56]
@startuml
skinparam BackgroundColor transparent
hide empty methods
hide empty fields
interface "TcpSocketConnectOpts" {
    +family : number
    +hints : number
    +host : string
    +localAddress : string
    +localPort : number
    +lookup : LookupFunction
    +onread : OnReadOpts
    +port : number
}
interface "ConnectOpts" {
    +onread : OnReadOpts
}
"ConnectOpts" <|- - "TcpSocketConnectOpts"
@enduml

PlantUML version 1.2021.6(Fri May 14 09:09:51 CEST 2021)
(GPL source distribution)
Java Runtime: OpenJDK Runtime Environment
JVM: OpenJDK 64-Bit Server VM
Default Encoding: UTF-8
Language: en
Country: GB
--></g></svg>